<svg xmlns="http://www.w3.org/2000/svg" xmlns:xlink="http://www.w3.org/1999/xlink" viewBox="0 0 470.5 187.48"><defs><style>.a,.e,.f{fill:none;}.b{isolation:isolate;}.c{clip-path:url(#a);}.d{opacity:0.3;mix-blend-mode:multiply;fill:url(#b);}.e{stroke:#b3b3b3;stroke-linecap:round;stroke-linejoin:round;}.e,.f{stroke-width:1.87px;}.f{stroke:#5f9eb5;stroke-miterlimit:10;}.g{font-size:11.23px;fill:#272b31;font-family:Poppins-Regular, Poppins;}.h{letter-spacing:-0.01em;}.i{letter-spacing:0.01em;}.j{letter-spacing:0em;}.k{letter-spacing:0em;}.l{letter-spacing:0.01em;}.m{letter-spacing:0em;}.n{letter-spacing:0em;}.o{letter-spacing:0em;}.p{letter-spacing:-0.01em;}.q{letter-spacing:0em;}.r{letter-spacing:0em;}.s{letter-spacing:0.01em;}.t{letter-spacing:0em;}.u{letter-spacing:-0.02em;}.v{letter-spacing:0em;}.w{letter-spacing:-0.01em;}.x{letter-spacing:-0.03em;}.y{letter-spacing:-0.01em;}.z{letter-spacing:-0.01em;}.aa{letter-spacing:-0.01em;}.ab{letter-spacing:-0.08em;}.ac{letter-spacing:-0.01em;}.ad{letter-spacing:-0.01em;}.ae{letter-spacing:-0.03em;}.af{letter-spacing:-0.01em;}.ag{letter-spacing:-0.01em;}.ah{letter-spacing:0em;}.ai{letter-spacing:-0.02em;}.aj{letter-spacing:-0.01em;}.ak{letter-spacing:-0.02em;}.al{letter-spacing:0em;}.am{fill:#b3b3b3;}.an{letter-spacing:0em;}.ao{letter-spacing:0em;}.ap{letter-spacing:0em;}.aq{letter-spacing:0em;}.ar{letter-spacing:0em;}.as{letter-spacing:-0.02em;}.at{letter-spacing:0em;}.au{letter-spacing:0em;}.av{letter-spacing:-0.01em;}.aw{letter-spacing:-0.02em;}.ax{letter-spacing:0em;}.ay{letter-spacing:0em;}.az{letter-spacing:-0.01em;}.ba{letter-spacing:-0.01em;}.bb{letter-spacing:-0.01em;}.bc{letter-spacing:-0.01em;}.bd{letter-spacing:0em;}</style><clipPath id="a"><rect class="a" x="-1463.07" y="-915.71" width="1366" height="1529.63"/></clipPath><linearGradient id="b" x1="-520.18" y1="-268.64" x2="32.27" y2="283.8" gradientUnits="userSpaceOnUse"><stop offset="0" stop-color="#272b31" stop-opacity="0"/><stop offset="0.02" stop-color="#272b31" stop-opacity="0.04"/><stop offset="0.4" stop-color="#272b31" stop-opacity="0.57"/><stop offset="0.73" stop-color="#272b31" stop-opacity="0.89"/><stop offset="1" stop-color="#272b31"/></linearGradient></defs><g class="b"><g class="c"><circle class="d" cx="-243.96" cy="7.58" r="390.64"/></g><line class="e" x1="136.84" y1="47.95" x2="165.64" y2="47.95"/><rect class="f" x="9.49" y="15.35" width="127.35" height="70.47" rx="11.83"/><line class="e" x1="397.63" y1="85.82" x2="397.63" y2="103.73"/><rect class="f" x="332.6" y="15.35" width="127.35" height="70.47" rx="11.83"/><text class="g" transform="translate(39.37 36.91)"><tspan class="h">R</tspan><tspan class="i" x="6.66" y="0">e</tspan><tspan class="j" x="13.69" y="0">c</tspan><tspan class="k" x="20.48" y="0">ol</tspan><tspan class="l" x="30.49" y="0">e</tspan><tspan class="m" x="37.52" y="0">cc</tspan><tspan class="n" x="51.11" y="0">i</tspan><tspan class="o" x="53.86" y="0">ó</tspan><tspan x="61.09" y="0">n </tspan><tspan x="-18.19" y="16.85">y </tspan><tspan class="p" x="-8.86" y="16.85">A</tspan><tspan class="q" x="-1.39" y="16.85">n</tspan><tspan x="5.82" y="16.85">á</tspan><tspan class="r" x="13.42" y="16.85">l</tspan><tspan class="j" x="16.17" y="16.85">i</tspan><tspan x="18.91" y="16.85">s</tspan><tspan class="j" x="24.77" y="16.85">i</tspan><tspan x="27.5" y="16.85">s </tspan><tspan class="o" x="36.37" y="16.85">d</tspan><tspan x="44" y="16.85">e </tspan><tspan class="s" x="53.96" y="16.85">D</tspan><tspan class="t" x="62" y="16.85">a</tspan><tspan class="u" x="69.58" y="16.85">t</tspan><tspan class="v" x="73.43" y="16.85">o</tspan><tspan x="80.6" y="16.85">s </tspan><tspan class="w" x="-7.18" y="33.7">C</tspan><tspan class="x" x="1.38" y="33.7">U</tspan><tspan class="y" x="8.62" y="33.7">A</tspan><tspan class="z" x="16.09" y="33.7">NT</tspan><tspan class="aa" x="29.83" y="33.7">I</tspan><tspan class="ab" x="32.46" y="33.7">TA</tspan><tspan class="ac" x="44.24" y="33.7">T</tspan><tspan class="ad" x="50.19" y="33.7">I</tspan><tspan class="ae" x="52.89" y="33.7">V</tspan><tspan class="af" x="60.12" y="33.7">O</tspan><tspan x="68.87" y="33.7">S</tspan></text><text class="g" transform="translate(362.13 37.21)"><tspan class="h">R</tspan><tspan class="i" x="6.66" y="0">e</tspan><tspan class="j" x="13.69" y="0">c</tspan><tspan class="k" x="20.48" y="0">ol</tspan><tspan class="l" x="30.49" y="0">e</tspan><tspan class="m" x="37.52" y="0">cc</tspan><tspan class="n" x="51.11" y="0">i</tspan><tspan class="o" x="53.86" y="0">ó</tspan><tspan x="61.09" y="0">n </tspan><tspan x="-18.19" y="16.85">y </tspan><tspan class="p" x="-8.86" y="16.85">A</tspan><tspan class="q" x="-1.39" y="16.85">n</tspan><tspan x="5.82" y="16.85">á</tspan><tspan class="r" x="13.42" y="16.85">l</tspan><tspan class="j" x="16.17" y="16.85">i</tspan><tspan x="18.91" y="16.85">s</tspan><tspan class="j" x="24.77" y="16.85">i</tspan><tspan x="27.5" y="16.85">s </tspan><tspan class="o" x="36.37" y="16.85">d</tspan><tspan x="44" y="16.85">e </tspan><tspan class="s" x="53.96" y="16.85">D</tspan><tspan class="t" x="62" y="16.85">a</tspan><tspan class="u" x="69.58" y="16.85">t</tspan><tspan class="v" x="73.43" y="16.85">o</tspan><tspan x="80.6" y="16.85">s </tspan><tspan class="ag" x="1.06" y="33.7">C</tspan><tspan class="k" x="9.61" y="33.7">u</tspan><tspan x="16.83" y="33.7">a</tspan><tspan class="r" x="24.43" y="33.7">l</tspan><tspan class="ah" x="27.18" y="33.7">i</tspan><tspan class="ai" x="29.9" y="33.7">t</tspan><tspan class="t" x="33.76" y="33.7">a</tspan><tspan class="aj" x="41.35" y="33.7">t</tspan><tspan x="45.33" y="33.7">i</tspan><tspan class="ak" x="48.09" y="33.7">v</tspan><tspan class="al" x="54.18" y="33.7">o</tspan><tspan x="61.35" y="33.7">s</tspan></text><line class="e" x1="297.62" y1="47.95" x2="326.43" y2="47.95"/><polygon class="am" points="331.94 47.95 325.82 44.41 325.82 51.48 331.94 47.95"/><text class="g" transform="translate(199.23 42)"><tspan class="an">S</tspan><tspan x="6.58" y="0">e </tspan><tspan class="j" x="16.54" y="0">c</tspan><tspan class="o" x="23.33" y="0">o</tspan><tspan class="ao" x="30.55" y="0">n</tspan><tspan class="ap" x="37.72" y="0">s</tspan><tspan class="aj" x="43.54" y="0">t</tspan><tspan class="aq" x="47.52" y="0">r</tspan><tspan class="ar" x="51.66" y="0">u</tspan><tspan class="as" x="58.86" y="0">y</tspan><tspan x="64.96" y="0">e </tspan><tspan class="q" x="9.28" y="16.85">h</tspan><tspan x="16.49" y="16.85">a</tspan><tspan class="at" x="24.08" y="16.85">l</tspan><tspan class="au" x="26.83" y="16.85">l</tspan><tspan class="av" x="29.61" y="16.85">a</tspan><tspan class="aw" x="37.12" y="16.85">z</tspan><tspan class="ax" x="41.97" y="16.85">g</tspan><tspan class="v" x="49.6" y="16.85">o</tspan><tspan x="56.78" y="16.85">s</tspan></text><ellipse class="f" cx="234.77" cy="47.95" rx="62.84" ry="33.41"/><text class="g" transform="translate(358.19 145.32)"><tspan class="ay">I</tspan><tspan class="az" x="2.8" y="0">n</tspan><tspan class="ai" x="9.9" y="0">t</tspan><tspan class="o" x="13.77" y="0">e</tspan><tspan class="ba" x="20.77" y="0">r</tspan><tspan class="ax" x="24.88" y="0">p</tspan><tspan class="bb" x="32.5" y="0">r</tspan><tspan class="bc" x="36.54" y="0">e</tspan><tspan class="ai" x="43.41" y="0">t</tspan><tspan class="ax" x="47.28" y="0">a</tspan><tspan class="bd" x="54.91" y="0">c</tspan><tspan class="n" x="61.7" y="0">i</tspan><tspan class="o" x="64.45" y="0">ó</tspan><tspan x="71.68" y="0">n</tspan></text><ellipse class="f" cx="397.21" cy="143.78" rx="62.84" ry="33.41"/><polygon class="am" points="171.16 47.95 165.04 44.41 165.04 51.48 171.16 47.95"/><polygon class="am" points="397.63 109.25 401.16 103.13 394.09 103.13 397.63 109.25"/></g></svg>