<svg id="f9b85e41-ea11-45bd-9b90-88f5f0d8c96b" data-name="Capa 1" xmlns="http://www.w3.org/2000/svg" viewBox="0 0 465.15 144.69"><defs><style>.a14a453f-23df-43be-b151-921b1e8dba42,.af2b25f2-3627-4399-9561-6d6d4e26782e,.efa63a1e-43e0-4777-b061-a6fcf2f99d3e{fill:none;stroke-width:1.87px;}.af2b25f2-3627-4399-9561-6d6d4e26782e{stroke:#b3b3b3;}.af2b25f2-3627-4399-9561-6d6d4e26782e,.efa63a1e-43e0-4777-b061-a6fcf2f99d3e{stroke-linecap:round;stroke-linejoin:round;}.a14a453f-23df-43be-b151-921b1e8dba42,.efa63a1e-43e0-4777-b061-a6fcf2f99d3e{stroke:#5f9eb5;}.a14a453f-23df-43be-b151-921b1e8dba42{stroke-miterlimit:10;}.f42506ee-cacd-4fd1-8e51-dd47b74781b7{fill:#272b31;}.b3fb01c9-d92b-4c64-9db4-20b5b18ad62a{fill:#b3b3b3;}</style></defs><line class="af2b25f2-3627-4399-9561-6d6d4e26782e" x1="207.9" y1="66.93" x2="325.66" y2="66.93"/><rect class="a14a453f-23df-43be-b151-921b1e8dba42" x="7.29" y="9.27" width="200.61" height="126.15" rx="19.87"/><path class="f42506ee-cacd-4fd1-8e51-dd47b74781b7" d="M45.51,23c1.84,0,2.72,1,2.72,2.3a2.22,2.22,0,0,1-1.87,2.25l2,3.27H47.11l-1.87-3.2H44v3.2H43V23Zm0,.84H44v3h1.5c1.16,0,1.66-.62,1.66-1.5S46.68,23.84,45.51,23.84Z"/><path class="f42506ee-cacd-4fd1-8e51-dd47b74781b7" d="M52.31,30.93a3,3,0,0,1-3-3.19,2.92,2.92,0,0,1,3-3.17,2.82,2.82,0,0,1,2.95,2.94,6.13,6.13,0,0,1,0,.62H50.31a1.93,1.93,0,0,0,2,1.93A1.7,1.7,0,0,0,54,28.93h1.1A2.77,2.77,0,0,1,52.31,30.93Zm-2-3.63h3.89a1.82,1.82,0,0,0-2-1.87A1.91,1.91,0,0,0,50.32,27.3Z"/><path class="f42506ee-cacd-4fd1-8e51-dd47b74781b7" d="M59.29,24.57a2.67,2.67,0,0,1,2.84,2.08H61a1.68,1.68,0,0,0-1.74-1.22c-1.12,0-1.95.8-1.95,2.31s.83,2.32,1.95,2.32A1.65,1.65,0,0,0,61,28.85h1.1a2.74,2.74,0,0,1-2.84,2.08,2.94,2.94,0,0,1-3-3.19A2.92,2.92,0,0,1,59.29,24.57Z"/><path class="f42506ee-cacd-4fd1-8e51-dd47b74781b7" d="M66.15,30.93a3,3,0,0,1-3.07-3.19,3.11,3.11,0,1,1,6.22,0A3.05,3.05,0,0,1,66.15,30.93Zm0-.9a2.09,2.09,0,0,0,2.11-2.29,2.07,2.07,0,0,0-2.08-2.28,2,2,0,0,0-2.05,2.28A2,2,0,0,0,66.15,30Z"/><path class="f42506ee-cacd-4fd1-8e51-dd47b74781b7" d="M70.68,22.51h1v8.31h-1Z"/><path class="f42506ee-cacd-4fd1-8e51-dd47b74781b7" d="M76.14,30.93a3,3,0,0,1-3-3.19,2.93,2.93,0,0,1,3-3.17,2.82,2.82,0,0,1,3,2.94,6.13,6.13,0,0,1,0,.62H74.14a1.93,1.93,0,0,0,2,1.93,1.7,1.7,0,0,0,1.73-1.13H79A2.78,2.78,0,0,1,76.14,30.93Zm-2-3.63H78a1.8,1.8,0,0,0-1.94-1.87A1.91,1.91,0,0,0,74.15,27.3Z"/><path class="f42506ee-cacd-4fd1-8e51-dd47b74781b7" d="M83.12,24.57A2.67,2.67,0,0,1,86,26.65h-1.1a1.68,1.68,0,0,0-1.74-1.22c-1.12,0-2,.8-2,2.31s.83,2.32,2,2.32a1.65,1.65,0,0,0,1.74-1.21H86a2.74,2.74,0,0,1-2.84,2.08,2.94,2.94,0,0,1-3-3.19A2.92,2.92,0,0,1,83.12,24.57Z"/><path class="f42506ee-cacd-4fd1-8e51-dd47b74781b7" d="M89.91,24.57a2.69,2.69,0,0,1,2.85,2.08H91.65a1.68,1.68,0,0,0-1.74-1.22c-1.12,0-2,.8-2,2.31s.83,2.32,2,2.32a1.65,1.65,0,0,0,1.74-1.21h1.11a2.76,2.76,0,0,1-2.85,2.08,2.93,2.93,0,0,1-3-3.19A2.92,2.92,0,0,1,89.91,24.57Z"/><path class="f42506ee-cacd-4fd1-8e51-dd47b74781b7" d="M93.92,23a.69.69,0,0,1,.7-.69.7.7,0,0,1,0,1.39A.69.69,0,0,1,93.92,23Zm.17,1.7h1v6.15h-1Z"/><path class="f42506ee-cacd-4fd1-8e51-dd47b74781b7" d="M99.53,30.93a3,3,0,0,1-3.06-3.19,3.11,3.11,0,1,1,6.22,0A3.06,3.06,0,0,1,99.53,30.93Zm0-.9a2.09,2.09,0,0,0,2.11-2.29,2.07,2.07,0,0,0-2.07-2.28,2,2,0,0,0-2.06,2.28A2,2,0,0,0,99.53,30ZM100.68,22v.89l-2.39,1.28v-.76Z"/><path class="f42506ee-cacd-4fd1-8e51-dd47b74781b7" d="M108.57,27.34c0-1.25-.68-1.89-1.71-1.89s-1.77.65-1.77,2v3.4h-1V24.67h1v.88a2.29,2.29,0,0,1,2-1,2.39,2.39,0,0,1,2.52,2.64v3.62h-1Z"/><path class="f42506ee-cacd-4fd1-8e51-dd47b74781b7" d="M118.51,24.67h1l-3.7,9H114.8l1.21-3-2.48-6.09h1.13l1.94,5Z"/><path class="f42506ee-cacd-4fd1-8e51-dd47b74781b7" d="M128.21,29.08H124.8l-.63,1.74h-1.08L125.92,23h1.18l2.82,7.78h-1.08Zm-1.7-4.78-1.42,3.95h2.83Z"/><path class="f42506ee-cacd-4fd1-8e51-dd47b74781b7" d="M135.56,27.34a1.65,1.65,0,0,0-1.72-1.89c-1,0-1.76.65-1.76,2v3.4h-1V24.67h1v.88a2.27,2.27,0,0,1,2-1,2.38,2.38,0,0,1,2.51,2.64v3.62h-1Z"/><path class="f42506ee-cacd-4fd1-8e51-dd47b74781b7" d="M140.81,24.57a2.56,2.56,0,0,1,2.29,1.22V24.67h1v6.15h-1V29.68a2.58,2.58,0,0,1-2.31,1.25,3,3,0,0,1-2.9-3.21A2.91,2.91,0,0,1,140.81,24.57Zm.2.89a2.07,2.07,0,0,0-2.08,2.26,2.1,2.1,0,1,0,4.17,0A2.11,2.11,0,0,0,141,25.46ZM142.3,22v.89l-2.39,1.28v-.76Z"/><path class="f42506ee-cacd-4fd1-8e51-dd47b74781b7" d="M145.86,22.51h1v8.31h-1Z"/><path class="f42506ee-cacd-4fd1-8e51-dd47b74781b7" d="M148.45,23a.69.69,0,1,1,.7.7A.68.68,0,0,1,148.45,23Zm.17,1.7h1v6.15h-1Z"/><path class="f42506ee-cacd-4fd1-8e51-dd47b74781b7" d="M153.53,30.93c-1.44,0-2.45-.79-2.52-1.91h1.06c.06.59.58,1,1.45,1s1.26-.4,1.26-.91c0-1.37-3.64-.57-3.64-2.86,0-.95.89-1.72,2.26-1.72a2.07,2.07,0,0,1,2.32,1.93h-1a1.19,1.19,0,0,0-1.34-1.07c-.75,0-1.2.36-1.2.86,0,1.46,3.57.66,3.62,2.86C155.78,30.16,154.89,30.93,153.53,30.93Z"/><path class="f42506ee-cacd-4fd1-8e51-dd47b74781b7" d="M157.05,23a.69.69,0,1,1,.69.7A.68.68,0,0,1,157.05,23Zm.17,1.7h1v6.15h-1Z"/><path class="f42506ee-cacd-4fd1-8e51-dd47b74781b7" d="M162.13,30.93c-1.44,0-2.45-.79-2.52-1.91h1.06c.05.59.58,1,1.45,1s1.25-.4,1.25-.91c0-1.37-3.63-.57-3.63-2.86,0-.95.88-1.72,2.25-1.72a2.07,2.07,0,0,1,2.33,1.93h-1A1.19,1.19,0,0,0,162,25.43c-.75,0-1.2.36-1.2.86,0,1.46,3.57.66,3.61,2.86C164.37,30.16,163.49,30.93,162.13,30.93Z"/><path class="f42506ee-cacd-4fd1-8e51-dd47b74781b7" d="M43.54,41.42a2.7,2.7,0,0,1,2.28,1.2V39.37h1v8.31h-1V46.52a2.54,2.54,0,0,1-2.29,1.26,3,3,0,0,1-2.92-3.2A2.92,2.92,0,0,1,43.54,41.42Zm.19.89a2.07,2.07,0,0,0-2.07,2.27,2.09,2.09,0,1,0,2.07-2.27Z"/><path class="f42506ee-cacd-4fd1-8e51-dd47b74781b7" d="M51.28,47.78a3,3,0,0,1-3-3.19,2.93,2.93,0,0,1,3-3.17,2.82,2.82,0,0,1,3,2.94,6.06,6.06,0,0,1,0,.62H49.28a1.94,1.94,0,0,0,2,1.93A1.69,1.69,0,0,0,53,45.78h1.1A2.77,2.77,0,0,1,51.28,47.78Zm-2-3.63h3.89a1.8,1.8,0,0,0-1.94-1.86A1.91,1.91,0,0,0,49.29,44.15Z"/><path class="f42506ee-cacd-4fd1-8e51-dd47b74781b7" d="M65.18,43.78c0,2.43-1.59,3.9-4.16,3.9H58.59V39.85H61C63.59,39.85,65.18,41.35,65.18,43.78Zm-4.16,3a2.78,2.78,0,0,0,3.11-3A2.82,2.82,0,0,0,61,40.68H59.61v6.15Z"/><path class="f42506ee-cacd-4fd1-8e51-dd47b74781b7" d="M69.16,41.42a2.54,2.54,0,0,1,2.29,1.23V41.52h1v6.16h-1V46.53a2.58,2.58,0,0,1-2.3,1.25,3,3,0,0,1-2.91-3.2A2.92,2.92,0,0,1,69.16,41.42Zm.2.89a2.08,2.08,0,0,0-2.08,2.27,2.09,2.09,0,1,0,2.08-2.27Z"/><path class="f42506ee-cacd-4fd1-8e51-dd47b74781b7" d="M74.43,42.36h-.79v-.84h.79V40h1v1.55h1.6v.84h-1.6V46c0,.61.22.82.85.82h.75v.87h-.92c-1.09,0-1.71-.45-1.71-1.69Z"/><path class="f42506ee-cacd-4fd1-8e51-dd47b74781b7" d="M80.74,47.78a3.18,3.18,0,1,1,3.15-3.19A3.05,3.05,0,0,1,80.74,47.78Zm0-.9a2.09,2.09,0,0,0,2.11-2.29,2.07,2.07,0,0,0-2.08-2.28,2,2,0,0,0-2.06,2.28A2,2,0,0,0,80.74,46.88Z"/><path class="f42506ee-cacd-4fd1-8e51-dd47b74781b7" d="M87.41,47.78C86,47.78,85,47,84.89,45.87H86c0,.59.58,1,1.44,1s1.26-.4,1.26-.91c0-1.37-3.64-.57-3.64-2.86,0-.94.89-1.72,2.26-1.72a2.07,2.07,0,0,1,2.33,1.93h-1c0-.62-.51-1.06-1.33-1.06s-1.2.36-1.2.85c0,1.46,3.57.66,3.61,2.86C89.65,47,88.76,47.78,87.41,47.78Z"/><path class="f42506ee-cacd-4fd1-8e51-dd47b74781b7" d="M97.62,39.75a3.67,3.67,0,0,1,3.62,2.37H100a2.46,2.46,0,0,0-2.4-1.47,2.85,2.85,0,0,0-2.87,3.11,2.84,2.84,0,0,0,2.87,3.1A2.48,2.48,0,0,0,100,45.4h1.22a3.67,3.67,0,0,1-3.62,2.34,4,4,0,0,1,0-8Z"/><path class="f42506ee-cacd-4fd1-8e51-dd47b74781b7" d="M102.64,39.85h1V44.8a1.79,1.79,0,0,0,1.93,2.06c1.16,0,1.92-.62,1.92-2.06V39.85h1v4.94a2.95,2.95,0,1,1-5.89,0Z"/><path class="f42506ee-cacd-4fd1-8e51-dd47b74781b7" d="M114.52,45.94h-3.41l-.63,1.74H109.4l2.83-7.79h1.18l2.82,7.79h-1.08Zm-1.71-4.79-1.41,4h2.83Z"/><path class="f42506ee-cacd-4fd1-8e51-dd47b74781b7" d="M118.38,39.85v7h2.74v.83h-3.76V39.85Z"/><path class="f42506ee-cacd-4fd1-8e51-dd47b74781b7" d="M122.17,39.85h1v7.83h-1Z"/><path class="f42506ee-cacd-4fd1-8e51-dd47b74781b7" d="M124.32,39.85h5.3v.83h-2.13v7h-1v-7h-2.15Z"/><path class="f42506ee-cacd-4fd1-8e51-dd47b74781b7" d="M134.57,45.94h-3.41l-.63,1.74h-1.08l2.83-7.79h1.18l2.82,7.79H135.2Zm-1.7-4.79-1.42,4h2.83Z"/><path class="f42506ee-cacd-4fd1-8e51-dd47b74781b7" d="M136.1,39.85h5.3v.83h-2.13v7h-1v-7H136.1Z"/><path class="f42506ee-cacd-4fd1-8e51-dd47b74781b7" d="M142.54,39.85h1v7.83h-1Z"/><path class="f42506ee-cacd-4fd1-8e51-dd47b74781b7" d="M150.63,39.85h1.08l-3,7.83h-1.18l-2.95-7.83h1.09l2.46,6.75Z"/><path class="f42506ee-cacd-4fd1-8e51-dd47b74781b7" d="M156,47.75a4,4,0,1,1,3.93-4A3.86,3.86,0,0,1,156,47.75Zm0-.88a2.85,2.85,0,0,0,2.88-3.11,2.89,2.89,0,1,0-5.77,0A2.86,2.86,0,0,0,156,46.87Z"/><path class="f42506ee-cacd-4fd1-8e51-dd47b74781b7" d="M163.69,47.75c-1.57,0-2.68-.87-2.7-2.16h1.09a1.44,1.44,0,0,0,1.61,1.3c1,0,1.58-.56,1.58-1.3,0-2.11-4.24-.77-4.24-3.67,0-1.3,1.05-2.17,2.6-2.17a2.34,2.34,0,0,1,2.59,2H165.1a1.42,1.42,0,0,0-1.52-1.14c-.84,0-1.5.42-1.5,1.26,0,2,4.22.77,4.22,3.66A2.35,2.35,0,0,1,163.69,47.75Z"/><rect class="a14a453f-23df-43be-b151-921b1e8dba42" x="27" y="66.93" width="152.38" height="54.85" rx="11.42"/><path class="f42506ee-cacd-4fd1-8e51-dd47b74781b7" d="M45.51,80.66c1.84,0,2.72,1,2.72,2.3a2.22,2.22,0,0,1-1.87,2.25l2,3.27H47.11l-1.87-3.2H44v3.2H43V80.66Zm0,.84H44v3h1.5c1.16,0,1.66-.62,1.66-1.5S46.68,81.5,45.51,81.5Z"/><path class="f42506ee-cacd-4fd1-8e51-dd47b74781b7" d="M52.31,88.59a3,3,0,0,1-3-3.19,2.92,2.92,0,0,1,3-3.17,2.82,2.82,0,0,1,2.95,2.94,6.13,6.13,0,0,1,0,.62H50.31a1.93,1.93,0,0,0,2,1.93A1.7,1.7,0,0,0,54,86.59h1.1A2.77,2.77,0,0,1,52.31,88.59Zm-2-3.63h3.89a1.82,1.82,0,0,0-2-1.87A1.91,1.91,0,0,0,50.32,85Z"/><path class="f42506ee-cacd-4fd1-8e51-dd47b74781b7" d="M59.29,82.23a2.67,2.67,0,0,1,2.84,2.08H61a1.68,1.68,0,0,0-1.74-1.22c-1.12,0-1.95.8-1.95,2.31s.83,2.32,1.95,2.32A1.65,1.65,0,0,0,61,86.51h1.1a2.74,2.74,0,0,1-2.84,2.08,3.19,3.19,0,0,1,0-6.36Z"/><path class="f42506ee-cacd-4fd1-8e51-dd47b74781b7" d="M66.15,88.59A3.18,3.18,0,1,1,69.3,85.4,3.05,3.05,0,0,1,66.15,88.59Zm0-.9a2.29,2.29,0,0,0,0-4.57,2.3,2.3,0,0,0,0,4.57Z"/><path class="f42506ee-cacd-4fd1-8e51-dd47b74781b7" d="M70.68,80.17h1v8.31h-1Z"/><path class="f42506ee-cacd-4fd1-8e51-dd47b74781b7" d="M76.14,88.59a3,3,0,0,1-3-3.19,2.93,2.93,0,0,1,3-3.17,2.82,2.82,0,0,1,3,2.94,6.13,6.13,0,0,1,0,.62H74.14a1.93,1.93,0,0,0,2,1.93,1.7,1.7,0,0,0,1.73-1.13H79A2.78,2.78,0,0,1,76.14,88.59Zm-2-3.63H78a1.8,1.8,0,0,0-1.94-1.87A1.91,1.91,0,0,0,74.15,85Z"/><path class="f42506ee-cacd-4fd1-8e51-dd47b74781b7" d="M83.12,82.23A2.67,2.67,0,0,1,86,84.31h-1.1a1.68,1.68,0,0,0-1.74-1.22c-1.12,0-2,.8-2,2.31s.83,2.32,2,2.32a1.65,1.65,0,0,0,1.74-1.21H86a2.74,2.74,0,0,1-2.84,2.08,3.19,3.19,0,0,1,0-6.36Z"/><path class="f42506ee-cacd-4fd1-8e51-dd47b74781b7" d="M89.91,82.23a2.69,2.69,0,0,1,2.85,2.08H91.65a1.68,1.68,0,0,0-1.74-1.22c-1.12,0-2,.8-2,2.31s.83,2.32,2,2.32a1.65,1.65,0,0,0,1.74-1.21h1.11a2.76,2.76,0,0,1-2.85,2.08,3.19,3.19,0,0,1,0-6.36Z"/><path class="f42506ee-cacd-4fd1-8e51-dd47b74781b7" d="M93.92,80.63a.69.69,0,0,1,.7-.69.7.7,0,0,1,0,1.39A.69.69,0,0,1,93.92,80.63Zm.17,1.7h1v6.15h-1Z"/><path class="f42506ee-cacd-4fd1-8e51-dd47b74781b7" d="M99.53,88.59a3.18,3.18,0,1,1,3.16-3.19A3.06,3.06,0,0,1,99.53,88.59Zm0-.9a2.09,2.09,0,0,0,2.11-2.29,2.07,2.07,0,0,0-2.07-2.28,2.3,2.3,0,0,0,0,4.57Zm1.15-8.07v.89l-2.39,1.28V81Z"/><path class="f42506ee-cacd-4fd1-8e51-dd47b74781b7" d="M108.57,85c0-1.25-.68-1.89-1.71-1.89s-1.77.65-1.77,2v3.4h-1V82.33h1v.88a2.29,2.29,0,0,1,2-1,2.39,2.39,0,0,1,2.52,2.64v3.62h-1Z"/><path class="f42506ee-cacd-4fd1-8e51-dd47b74781b7" d="M118.51,82.33h1l-3.7,9H114.8l1.21-3-2.48-6.09h1.13l1.94,5Z"/><path class="f42506ee-cacd-4fd1-8e51-dd47b74781b7" d="M128.21,86.74H124.8l-.63,1.74h-1.08l2.83-7.78h1.18l2.82,7.78h-1.08ZM126.51,82l-1.42,4h2.83Z"/><path class="f42506ee-cacd-4fd1-8e51-dd47b74781b7" d="M135.56,85a1.65,1.65,0,0,0-1.72-1.89c-1,0-1.76.65-1.76,2v3.4h-1V82.33h1v.88a2.27,2.27,0,0,1,2-1,2.38,2.38,0,0,1,2.51,2.64v3.62h-1Z"/><path class="f42506ee-cacd-4fd1-8e51-dd47b74781b7" d="M140.81,82.23a2.56,2.56,0,0,1,2.29,1.22V82.33h1v6.15h-1V87.34a2.58,2.58,0,0,1-2.31,1.25,3,3,0,0,1-2.9-3.2A2.91,2.91,0,0,1,140.81,82.23Zm.2.89a2.08,2.08,0,0,0-2.08,2.27A2.09,2.09,0,1,0,141,83.12Zm1.29-3.42v.89l-2.39,1.28v-.76Z"/><path class="f42506ee-cacd-4fd1-8e51-dd47b74781b7" d="M145.86,80.17h1v8.31h-1Z"/><path class="f42506ee-cacd-4fd1-8e51-dd47b74781b7" d="M148.45,80.63a.69.69,0,1,1,.7.7A.68.68,0,0,1,148.45,80.63Zm.17,1.7h1v6.15h-1Z"/><path class="f42506ee-cacd-4fd1-8e51-dd47b74781b7" d="M153.53,88.59c-1.44,0-2.45-.79-2.52-1.91h1.06c.06.59.58,1,1.45,1s1.26-.4,1.26-.91c0-1.37-3.64-.57-3.64-2.86,0-1,.89-1.72,2.26-1.72a2.07,2.07,0,0,1,2.32,1.93h-1a1.19,1.19,0,0,0-1.34-1.07c-.75,0-1.2.36-1.2.86,0,1.46,3.57.66,3.62,2.86C155.78,87.82,154.89,88.59,153.53,88.59Z"/><path class="f42506ee-cacd-4fd1-8e51-dd47b74781b7" d="M157.05,80.63a.69.69,0,1,1,.69.7A.68.68,0,0,1,157.05,80.63Zm.17,1.7h1v6.15h-1Z"/><path class="f42506ee-cacd-4fd1-8e51-dd47b74781b7" d="M162.13,88.59c-1.44,0-2.45-.79-2.52-1.91h1.06c.05.59.58,1,1.45,1s1.25-.4,1.25-.91c0-1.37-3.63-.57-3.63-2.86,0-1,.88-1.72,2.25-1.72a2.07,2.07,0,0,1,2.33,1.93h-1A1.19,1.19,0,0,0,162,83.09c-.75,0-1.2.36-1.2.86,0,1.46,3.57.66,3.61,2.86C164.37,87.82,163.49,88.59,162.13,88.59Z"/><path class="f42506ee-cacd-4fd1-8e51-dd47b74781b7" d="M43.16,99.08a2.71,2.71,0,0,1,2.28,1.2V97h1v8.31h-1v-1.16a2.55,2.55,0,0,1-2.3,1.26,3,3,0,0,1-2.92-3.2A2.92,2.92,0,0,1,43.16,99.08Zm.19.89a2.08,2.08,0,0,0-2.08,2.27A2.09,2.09,0,1,0,43.35,100Z"/><path class="f42506ee-cacd-4fd1-8e51-dd47b74781b7" d="M50.9,105.44a3,3,0,0,1-3-3.19,2.94,2.94,0,0,1,3-3.17,2.82,2.82,0,0,1,3,2.94,6.13,6.13,0,0,1,0,.62H48.9a1.93,1.93,0,0,0,2,1.93,1.7,1.7,0,0,0,1.73-1.13h1.1A2.78,2.78,0,0,1,50.9,105.44Zm-2-3.63h3.88A1.79,1.79,0,0,0,50.85,100,1.9,1.9,0,0,0,48.91,101.81Z"/><path class="f42506ee-cacd-4fd1-8e51-dd47b74781b7" d="M64.79,101.44c0,2.43-1.58,3.9-4.15,3.9H58.2V97.51h2.44C63.21,97.51,64.79,99,64.79,101.44Zm-4.15,3a2.79,2.79,0,0,0,3.11-3,2.82,2.82,0,0,0-3.11-3.1H59.22v6.15Z"/><path class="f42506ee-cacd-4fd1-8e51-dd47b74781b7" d="M68.77,99.08a2.55,2.55,0,0,1,2.29,1.23V99.18h1v6.16h-1v-1.15a2.57,2.57,0,0,1-2.3,1.25,3,3,0,0,1-2.91-3.2A2.92,2.92,0,0,1,68.77,99.08ZM69,100a2.08,2.08,0,0,0-2.08,2.27A2.09,2.09,0,1,0,69,100Z"/><path class="f42506ee-cacd-4fd1-8e51-dd47b74781b7" d="M74.05,100h-.8v-.84h.8V97.63h1v1.55h1.61V100H75.07v3.63c0,.61.23.82.85.82h.76v.87h-.92c-1.09,0-1.71-.45-1.71-1.69Z"/><path class="f42506ee-cacd-4fd1-8e51-dd47b74781b7" d="M80.35,105.44a3.18,3.18,0,1,1,3.16-3.19A3.06,3.06,0,0,1,80.35,105.44Zm0-.9a2.29,2.29,0,0,0,0-4.57,2.3,2.3,0,0,0,0,4.57Z"/><path class="f42506ee-cacd-4fd1-8e51-dd47b74781b7" d="M87,105.44c-1.44,0-2.45-.79-2.52-1.91h1.06c.06.59.58,1,1.45,1s1.26-.4,1.26-.91c0-1.37-3.64-.57-3.64-2.86,0-.94.88-1.72,2.25-1.72A2.07,2.07,0,0,1,89.21,101h-1A1.19,1.19,0,0,0,86.85,100c-.75,0-1.2.36-1.2.85,0,1.46,3.57.66,3.62,2.86C89.27,104.67,88.38,105.44,87,105.44Z"/><path class="f42506ee-cacd-4fd1-8e51-dd47b74781b7" d="M97.23,97.41a3.68,3.68,0,0,1,3.63,2.37H99.63a2.44,2.44,0,0,0-2.4-1.47,3.12,3.12,0,0,0,0,6.21,2.46,2.46,0,0,0,2.4-1.46h1.23a3.69,3.69,0,0,1-3.63,2.34,4,4,0,0,1,0-8Z"/><path class="f42506ee-cacd-4fd1-8e51-dd47b74781b7" d="M107.72,105.34h-1v-.91a2.25,2.25,0,0,1-2,1,2.4,2.4,0,0,1-2.53-2.64V99.18h1v3.47a1.65,1.65,0,0,0,1.72,1.89c1.06,0,1.76-.65,1.76-2V99.18h1Z"/><path class="f42506ee-cacd-4fd1-8e51-dd47b74781b7" d="M112,99.08a2.55,2.55,0,0,1,2.29,1.23V99.18h1v6.16h-1v-1.15a2.57,2.57,0,0,1-2.3,1.25,3,3,0,0,1-2.91-3.2A2.92,2.92,0,0,1,112,99.08Zm.21.89a2.08,2.08,0,0,0-2.08,2.27,2.09,2.09,0,1,0,2.08-2.27Z"/><path class="f42506ee-cacd-4fd1-8e51-dd47b74781b7" d="M121.58,101.86a1.66,1.66,0,0,0-1.72-1.9c-1,0-1.76.65-1.76,2v3.41h-1V99.18h1v.88a2.26,2.26,0,0,1,2-1,2.39,2.39,0,0,1,2.52,2.64v3.63h-1Z"/><path class="f42506ee-cacd-4fd1-8e51-dd47b74781b7" d="M124.4,100h-.8v-.84h.8V97.63h1v1.55H127V100h-1.61v3.63c0,.61.23.82.86.82H127v.87h-.92c-1.09,0-1.71-.45-1.71-1.69Z"/><path class="f42506ee-cacd-4fd1-8e51-dd47b74781b7" d="M128,97.49a.69.69,0,1,1,.69.69A.68.68,0,0,1,128,97.49Zm.17,1.69h1v6.16h-1Z"/><path class="f42506ee-cacd-4fd1-8e51-dd47b74781b7" d="M131.09,100h-.79v-.84h.79V97.63h1v1.55h1.6V100h-1.6v3.63c0,.61.22.82.85.82h.75v.87h-.92c-1.09,0-1.71-.45-1.71-1.69Z"/><path class="f42506ee-cacd-4fd1-8e51-dd47b74781b7" d="M137.27,99.08a2.55,2.55,0,0,1,2.29,1.23V99.18h1v6.16h-1v-1.15a2.58,2.58,0,0,1-2.3,1.25,3,3,0,0,1-2.91-3.2A2.92,2.92,0,0,1,137.27,99.08Zm.2.89a2.07,2.07,0,0,0-2.07,2.27,2.09,2.09,0,1,0,2.07-2.27Z"/><path class="f42506ee-cacd-4fd1-8e51-dd47b74781b7" d="M142.55,100h-.8v-.84h.8V97.63h1v1.55h1.61V100h-1.61v3.63c0,.61.22.82.85.82h.76v.87h-.93c-1.09,0-1.7-.45-1.7-1.69Z"/><path class="f42506ee-cacd-4fd1-8e51-dd47b74781b7" d="M146.13,97.49a.69.69,0,0,1,.7-.7.7.7,0,0,1,0,1.39A.69.69,0,0,1,146.13,97.49Zm.17,1.69h1v6.16h-1Z"/><path class="f42506ee-cacd-4fd1-8e51-dd47b74781b7" d="M149.44,99.18l1.92,5.21,1.91-5.21h1.09l-2.42,6.16h-1.19l-2.41-6.16Z"/><path class="f42506ee-cacd-4fd1-8e51-dd47b74781b7" d="M157.84,105.44a3.18,3.18,0,1,1,3.15-3.19A3.05,3.05,0,0,1,157.84,105.44Zm0-.9a2.09,2.09,0,0,0,2.11-2.29,2.07,2.07,0,0,0-2.08-2.28,2.3,2.3,0,0,0,0,4.57Z"/><path class="f42506ee-cacd-4fd1-8e51-dd47b74781b7" d="M164.51,105.44c-1.44,0-2.45-.79-2.52-1.91h1.06c0,.59.58,1,1.44,1s1.26-.4,1.26-.91c0-1.37-3.64-.57-3.64-2.86,0-.94.89-1.72,2.26-1.72A2.07,2.07,0,0,1,166.7,101h-1a1.17,1.17,0,0,0-1.33-1.06c-.76,0-1.2.36-1.2.85,0,1.46,3.57.66,3.61,2.86C166.75,104.67,165.86,105.44,164.51,105.44Z"/><path class="f42506ee-cacd-4fd1-8e51-dd47b74781b7" d="M356.86,60.64h1v7.83h-1Z"/><path class="f42506ee-cacd-4fd1-8e51-dd47b74781b7" d="M364.16,65c0-1.26-.68-1.9-1.72-1.9s-1.76.65-1.76,2v3.4h-1V62.32h1v.87a2.27,2.27,0,0,1,2-1,2.38,2.38,0,0,1,2.51,2.63v3.63h-1Z"/><path class="f42506ee-cacd-4fd1-8e51-dd47b74781b7" d="M367,63.16h-.8v-.84h.8V60.77h1v1.55h1.61v.84H368v3.63c0,.6.23.82.86.82h.75v.86h-.92c-1.09,0-1.71-.45-1.71-1.68Z"/><path class="f42506ee-cacd-4fd1-8e51-dd47b74781b7" d="M373.28,68.57a3,3,0,0,1-3-3.19,2.93,2.93,0,0,1,3-3.16,2.82,2.82,0,0,1,3,2.94,4.3,4.3,0,0,1,0,.62h-4.91a1.93,1.93,0,0,0,2,1.93A1.68,1.68,0,0,0,375,66.57h1.1A2.75,2.75,0,0,1,373.28,68.57Zm-2-3.62h3.88a1.81,1.81,0,0,0-1.94-1.87A1.9,1.9,0,0,0,371.3,65Z"/><path class="f42506ee-cacd-4fd1-8e51-dd47b74781b7" d="M378.64,68.47h-1V62.32h1v1a2.07,2.07,0,0,1,2-1.11v1h-.27c-1,0-1.72.44-1.72,1.87Z"/><path class="f42506ee-cacd-4fd1-8e51-dd47b74781b7" d="M385.06,62.22A2.9,2.9,0,0,1,388,65.37a3,3,0,0,1-2.91,3.2,2.66,2.66,0,0,1-2.31-1.23v4h-1V62.32h1v1.13A2.6,2.6,0,0,1,385.06,62.22Zm-.22.88a2.3,2.3,0,1,0,2.09,2.27A2.08,2.08,0,0,0,384.84,63.1Z"/><path class="f42506ee-cacd-4fd1-8e51-dd47b74781b7" d="M390.38,68.47h-1V62.32h1v1a2.07,2.07,0,0,1,2-1.11v1h-.27c-1,0-1.72.44-1.72,1.87Z"/><path class="f42506ee-cacd-4fd1-8e51-dd47b74781b7" d="M396.05,68.57a3,3,0,0,1-3-3.19,2.93,2.93,0,0,1,3-3.16,2.82,2.82,0,0,1,3,2.94,4.3,4.3,0,0,1,0,.62h-4.92a1.94,1.94,0,0,0,2,1.93,1.68,1.68,0,0,0,1.73-1.14h1.1A2.75,2.75,0,0,1,396.05,68.57Zm-2-3.62H398A1.81,1.81,0,0,0,396,63.08,1.9,1.9,0,0,0,394.07,65Z"/><path class="f42506ee-cacd-4fd1-8e51-dd47b74781b7" d="M400.49,63.16h-.8v-.84h.8V60.77h1v1.55h1.61v.84h-1.61v3.63c0,.6.23.82.86.82h.75v.86h-.92c-1.09,0-1.71-.45-1.71-1.68Z"/><path class="f42506ee-cacd-4fd1-8e51-dd47b74781b7" d="M406.67,62.22A2.56,2.56,0,0,1,409,63.44V62.32h1v6.15h-1V67.33a2.57,2.57,0,0,1-2.3,1.24,3,3,0,0,1-2.91-3.2A2.91,2.91,0,0,1,406.67,62.22Zm.2.88a2.08,2.08,0,0,0-2.08,2.27,2.09,2.09,0,1,0,2.08-2.27Z"/><path class="f42506ee-cacd-4fd1-8e51-dd47b74781b7" d="M414.38,62.22a2.68,2.68,0,0,1,2.84,2.07h-1.1a1.68,1.68,0,0,0-1.74-1.21c-1.13,0-2,.8-2,2.3s.83,2.33,2,2.33a1.66,1.66,0,0,0,1.74-1.21h1.1a2.74,2.74,0,0,1-2.84,2.07,3.18,3.18,0,0,1,0-6.35Z"/><path class="f42506ee-cacd-4fd1-8e51-dd47b74781b7" d="M418.38,60.62a.69.69,0,1,1,.7.7A.68.68,0,0,1,418.38,60.62Zm.17,1.7h1v6.15h-1Z"/><path class="f42506ee-cacd-4fd1-8e51-dd47b74781b7" d="M424,68.57a3.18,3.18,0,1,1,3.16-3.19A3.05,3.05,0,0,1,424,68.57Zm0-.89a2.09,2.09,0,0,0,2.11-2.3A2.07,2.07,0,0,0,424,63.1a2.31,2.31,0,0,0,0,4.58Zm1.15-8.07v.89l-2.4,1.28V61Z"/><path class="f42506ee-cacd-4fd1-8e51-dd47b74781b7" d="M433,65c0-1.26-.68-1.9-1.72-1.9s-1.76.65-1.76,2v3.4h-1V62.32h1v.87a2.28,2.28,0,0,1,2-1A2.38,2.38,0,0,1,434,64.84v3.63h-1Z"/><ellipse class="efa63a1e-43e0-4777-b061-a6fcf2f99d3e" cx="395" cy="66.93" rx="62.84" ry="33.41"/><polygon class="b3fb01c9-d92b-4c64-9db4-20b5b18ad62a" points="331.18 66.93 325.06 63.4 325.06 70.46 331.18 66.93"/></svg>