<svg xmlns="http://www.w3.org/2000/svg" xmlns:xlink="http://www.w3.org/1999/xlink" viewBox="0 0 998.73 316.89"><defs><style>.a,.bc,.f,.g{fill:none;}.b{isolation:isolate;}.c{clip-path:url(#a);}.d,.e{opacity:0.3;mix-blend-mode:multiply;}.d{fill:url(#b);}.e{fill:url(#c);}.f{stroke:#b3b3b3;}.bc,.f{stroke-linecap:round;stroke-linejoin:round;}.bc,.f,.g{stroke-width:2px;}.bc,.g{stroke:#fd893b;}.g{stroke-miterlimit:10;}.h{font-size:23.99px;fill:#272b31;font-family:Poppins-Regular, Poppins;}.i{letter-spacing:-0.02em;}.j{letter-spacing:0em;}.k{letter-spacing:-0.01em;}.l{letter-spacing:0em;}.m{letter-spacing:0em;}.n{letter-spacing:-0.01em;}.o{letter-spacing:-0.01em;}.p{letter-spacing:0em;}.q{letter-spacing:-0.02em;}.r{letter-spacing:-0.01em;}.s{letter-spacing:-0.01em;}.t{letter-spacing:-0.01em;}.u{letter-spacing:-0.01em;}.v{letter-spacing:-0.01em;}.w{letter-spacing:-0.01em;}.x{letter-spacing:0em;}.y{letter-spacing:-0.01em;}.z{letter-spacing:-0.03em;}.aa{letter-spacing:-0.01em;}.ab{letter-spacing:-0.02em;}.ac{letter-spacing:-0.04em;}.ad{letter-spacing:-0.02em;}.ae{letter-spacing:-0.02em;}.af{letter-spacing:-0.02em;}.ag{letter-spacing:-0.02em;}.ah{letter-spacing:-0.09em;}.ai{letter-spacing:-0.09em;}.aj{letter-spacing:-0.01em;}.ak{letter-spacing:-0.04em;}.al{letter-spacing:-0.01em;}.am{letter-spacing:-0.02em;}.an{letter-spacing:-0.01em;}.ao{letter-spacing:-0.01em;}.ap{letter-spacing:-0.03em;}.aq{letter-spacing:-0.01em;}.ar{letter-spacing:-0.02em;}.as{letter-spacing:-0.01em;}.at{letter-spacing:-0.03em;}.au{letter-spacing:-0.01em;}.av{letter-spacing:0em;}.aw{letter-spacing:-0.02em;}.ax{letter-spacing:-0.03em;}.ay{letter-spacing:-0.01em;}.az{letter-spacing:-0.02em;}.ba{letter-spacing:-0.02em;}.bb{letter-spacing:-0.01em;}.bd{fill:#b3b3b3;}</style><clipPath id="a"><rect class="a" x="-173.08" y="-1613.94" width="1366" height="1529.63"/></clipPath><linearGradient id="b" x1="-357.6" y1="-336.49" x2="194.85" y2="215.96" gradientUnits="userSpaceOnUse"><stop offset="0" stop-color="#272b31" stop-opacity="0"/><stop offset="0.02" stop-color="#272b31" stop-opacity="0.04"/><stop offset="0.4" stop-color="#272b31" stop-opacity="0.57"/><stop offset="0.73" stop-color="#272b31" stop-opacity="0.89"/><stop offset="1" stop-color="#272b31"/></linearGradient><linearGradient id="c" x1="521.3" y1="225.52" x2="849.34" y2="553.56" xlink:href="#b"/></defs><g class="b"><g class="c"><circle class="d" cx="-81.37" cy="-60.26" r="390.64"/><circle class="e" cx="685.32" cy="389.54" r="231.96"/></g><line class="f" x1="448.53" y1="151.75" x2="699.95" y2="151.75"/><rect class="g" x="20.2" y="28.64" width="428.33" height="269.34" rx="42.42"/><text class="h" transform="translate(96 74.67)"><tspan class="i">R</tspan><tspan class="j" x="14.05" y="0">e</tspan><tspan class="k" x="28.89" y="0">c</tspan><tspan class="l" x="43.21" y="0">o</tspan><tspan class="m" x="58.46" y="0">l</tspan><tspan class="j" x="64.24" y="0">e</tspan><tspan class="n" x="79.08" y="0">cc</tspan><tspan class="o" x="107.75" y="0">i</tspan><tspan class="p" x="113.47" y="0">ó</tspan><tspan x="128.72" y="0">n y </tspan><tspan class="q" x="170.39" y="0">A</tspan><tspan class="r" x="186.17" y="0">n</tspan><tspan class="s" x="201.4" y="0">á</tspan><tspan class="t" x="217.45" y="0">l</tspan><tspan class="u" x="223.17" y="0">i</tspan><tspan class="v" x="228.84" y="0">s</tspan><tspan class="w" x="241.2" y="0">i</tspan><tspan x="246.87" y="0">s</tspan><tspan class="p" x="-13.67" y="35.98">d</tspan><tspan x="2.45" y="35.98">e </tspan><tspan class="x" x="23.73" y="35.98">D</tspan><tspan class="y" x="40.72" y="35.98">a</tspan><tspan class="z" x="56.76" y="35.98">t</tspan><tspan class="aa" x="64.77" y="35.98">o</tspan><tspan x="79.92" y="35.98">s </tspan><tspan class="ab" x="98.85" y="35.98">C</tspan><tspan class="ac" x="116.96" y="35.98">U</tspan><tspan class="ad" x="132.22" y="35.98">A</tspan><tspan class="ae" x="147.99" y="35.98">N</tspan><tspan class="af" x="164.43" y="35.98">T</tspan><tspan class="ag" x="176.97" y="35.98">I</tspan><tspan class="ah" x="182.41" y="35.98">T</tspan><tspan class="ai" x="193.16" y="35.98">A</tspan><tspan class="af" x="207.1" y="35.98">T</tspan><tspan class="aj" x="219.64" y="35.98">I</tspan><tspan class="ak" x="225.23" y="35.98">V</tspan><tspan class="al" x="240.46" y="35.98">O</tspan><tspan x="258.97" y="35.98">S</tspan></text><rect class="g" x="62.29" y="151.75" width="325.34" height="117.11" rx="24.38"/><text class="h" transform="translate(96 197.78)"><tspan class="i">R</tspan><tspan class="j" x="14.05" y="0">e</tspan><tspan class="k" x="28.89" y="0">c</tspan><tspan class="l" x="43.21" y="0">o</tspan><tspan class="m" x="58.46" y="0">l</tspan><tspan class="j" x="64.24" y="0">e</tspan><tspan class="n" x="79.08" y="0">cc</tspan><tspan class="o" x="107.75" y="0">i</tspan><tspan class="p" x="113.47" y="0">ó</tspan><tspan x="128.72" y="0">n y </tspan><tspan class="q" x="170.39" y="0">A</tspan><tspan class="r" x="186.17" y="0">n</tspan><tspan class="s" x="201.4" y="0">á</tspan><tspan class="t" x="217.45" y="0">l</tspan><tspan class="u" x="223.17" y="0">i</tspan><tspan class="v" x="228.84" y="0">s</tspan><tspan class="w" x="241.2" y="0">i</tspan><tspan x="246.87" y="0">s</tspan><tspan class="p" x="3.76" y="35.98">d</tspan><tspan x="19.88" y="35.98">e </tspan><tspan class="x" x="41.16" y="35.98">D</tspan><tspan class="y" x="58.15" y="35.98">a</tspan><tspan class="z" x="74.19" y="35.98">t</tspan><tspan class="aa" x="82.2" y="35.98">o</tspan><tspan x="97.35" y="35.98">s </tspan><tspan class="am" x="116.28" y="35.98">C</tspan><tspan class="l" x="134.36" y="35.98">u</tspan><tspan class="s" x="149.61" y="35.98">a</tspan><tspan class="an" x="165.66" y="35.98">l</tspan><tspan class="ao" x="171.38" y="35.98">i</tspan><tspan class="ap" x="177" y="35.98">t</tspan><tspan class="aq" x="185.07" y="35.98">a</tspan><tspan class="ar" x="201.1" y="35.98">t</tspan><tspan class="as" x="209.43" y="35.98">i</tspan><tspan class="at" x="215.15" y="35.98">v</tspan><tspan class="au" x="227.96" y="35.98">o</tspan><tspan x="243.11" y="35.98">s</tspan></text><text class="h" transform="translate(765.85 155.05)"><tspan class="av">I</tspan><tspan class="aw" x="5.82" y="0">n</tspan><tspan class="ax" x="20.8" y="0">t</tspan><tspan class="p" x="28.87" y="0">e</tspan><tspan class="ay" x="43.64" y="0">r</tspan><tspan class="p" x="52.24" y="0">p</tspan><tspan class="az" x="68.36" y="0">r</tspan><tspan class="ba" x="76.79" y="0">e</tspan><tspan class="ap" x="91.29" y="0">t</tspan><tspan class="p" x="99.36" y="0">a</tspan><tspan class="bb" x="115.48" y="0">c</tspan><tspan class="o" x="129.81" y="0">i</tspan><tspan class="p" x="135.52" y="0">ó</tspan><tspan x="150.78" y="0">n</tspan></text><ellipse class="bc" cx="848.02" cy="151.75" rx="134.16" ry="71.33"/><polygon class="bd" points="711.74 151.75 698.67 144.21 698.67 159.3 711.74 151.75"/></g></svg>