<svg id="abd8c711-b97f-43a6-b15c-40fe2f2dd163" data-name="Capa 1" xmlns="http://www.w3.org/2000/svg" viewBox="0 0 988.17 312.92"><defs><style>.a61b3c61-e01e-45f4-8dd2-2c3a890ba60e,.aabec80d-e835-4513-b201-86a08bfd974d{fill:none;stroke-width:2px;}.aabec80d-e835-4513-b201-86a08bfd974d{stroke:#b3b3b3;stroke-linecap:round;stroke-linejoin:round;}.a61b3c61-e01e-45f4-8dd2-2c3a890ba60e{stroke:#fd893b;stroke-miterlimit:10;}.a74fbd36-29c7-4b00-9c3b-692d32e138b7{fill:#272b31;}.b9e88dd9-87d4-4bdc-afbd-a9c29abe2513{fill:#b3b3b3;}</style></defs><path class="aabec80d-e835-4513-b201-86a08bfd974d" d="M338.41,260.67H495.85a26.69,26.69,0,0,0,26.7-26.7"/><path class="aabec80d-e835-4513-b201-86a08bfd974d" d="M338.41,53.78H495.85A26.72,26.72,0,0,1,521.66,73.6"/><rect class="a61b3c61-e01e-45f4-8dd2-2c3a890ba60e" x="13.05" y="15.53" width="325.36" height="117.12" rx="24.38"/><path class="a74fbd36-29c7-4b00-9c3b-692d32e138b7" d="M54,44.83c3.93,0,5.8,2.18,5.8,4.92a4.72,4.72,0,0,1-4,4.8l4.2,7H57.41l-4-6.84H50.79v6.84H48.61V44.83Zm0,1.8H50.79V53H54c2.47,0,3.55-1.34,3.55-3.21S56.5,46.63,54,46.63Z"/><path class="a74fbd36-29c7-4b00-9c3b-692d32e138b7" d="M68.34,61.77c-3.74,0-6.5-2.64-6.5-6.82s2.66-6.76,6.5-6.76a6,6,0,0,1,6.31,6.28,11.31,11.31,0,0,1-.07,1.32H64.07a4.13,4.13,0,0,0,4.27,4.13A3.62,3.62,0,0,0,72,57.5h2.35A5.93,5.93,0,0,1,68.34,61.77ZM64.1,54h8.3a3.86,3.86,0,0,0-4.15-4A4.06,4.06,0,0,0,64.1,54Z"/><path class="a74fbd36-29c7-4b00-9c3b-692d32e138b7" d="M83.09,48.19c3.26,0,5.4,1.68,6.07,4.44H86.81A3.58,3.58,0,0,0,83.09,50c-2.4,0-4.17,1.7-4.17,4.91s1.77,5,4.17,5a3.54,3.54,0,0,0,3.72-2.59h2.35a5.86,5.86,0,0,1-6.07,4.44c-3.74,0-6.4-2.64-6.4-6.82S79.35,48.19,83.09,48.19Z"/><path class="a74fbd36-29c7-4b00-9c3b-692d32e138b7" d="M97.56,61.77C93.84,61.77,91,59.13,91,55a6.65,6.65,0,1,1,13.29,0A6.52,6.52,0,0,1,97.56,61.77Zm0-1.92c2.28,0,4.51-1.56,4.51-4.9s-2.19-4.87-4.44-4.87S93.24,51.64,93.24,55,95.28,59.85,97.56,59.85Z"/><path class="a74fbd36-29c7-4b00-9c3b-692d32e138b7" d="M107.07,43.8h2.18V61.55h-2.18Z"/><path class="a74fbd36-29c7-4b00-9c3b-692d32e138b7" d="M118.54,61.77c-3.74,0-6.5-2.64-6.5-6.82s2.66-6.76,6.5-6.76a6,6,0,0,1,6.31,6.28c0,.48,0,.87-.07,1.32H114.27a4.13,4.13,0,0,0,4.27,4.13,3.61,3.61,0,0,0,3.69-2.42h2.35A5.91,5.91,0,0,1,118.54,61.77ZM114.29,54h8.3a3.85,3.85,0,0,0-4.15-4A4.07,4.07,0,0,0,114.29,54Z"/><path class="a74fbd36-29c7-4b00-9c3b-692d32e138b7" d="M133.29,48.19c3.26,0,5.39,1.68,6.07,4.44H137A3.58,3.58,0,0,0,133.29,50c-2.4,0-4.18,1.7-4.18,4.91s1.78,5,4.18,5A3.54,3.54,0,0,0,137,57.33h2.35a5.86,5.86,0,0,1-6.07,4.44c-3.74,0-6.41-2.64-6.41-6.82S129.55,48.19,133.29,48.19Z"/><path class="a74fbd36-29c7-4b00-9c3b-692d32e138b7" d="M147.62,48.19c3.26,0,5.4,1.68,6.07,4.44h-2.35A3.57,3.57,0,0,0,147.62,50c-2.4,0-4.17,1.7-4.17,4.91s1.77,5,4.17,5a3.53,3.53,0,0,0,3.72-2.59h2.35a5.86,5.86,0,0,1-6.07,4.44c-3.74,0-6.4-2.64-6.4-6.82S143.88,48.19,147.62,48.19Z"/><path class="a74fbd36-29c7-4b00-9c3b-692d32e138b7" d="M156,44.78a1.47,1.47,0,1,1,1.49,1.49A1.46,1.46,0,0,1,156,44.78Zm.36,3.63h2.18V61.55h-2.18Z"/><path class="a74fbd36-29c7-4b00-9c3b-692d32e138b7" d="M167.82,61.77c-3.72,0-6.55-2.64-6.55-6.82a6.65,6.65,0,1,1,13.29,0A6.52,6.52,0,0,1,167.82,61.77Zm0-1.92c2.27,0,4.5-1.56,4.5-4.9s-2.18-4.87-4.43-4.87S163.5,51.64,163.5,55,165.54,59.85,167.82,59.85Zm2.44-17.23v1.9l-5.11,2.73V45.62Z"/><path class="a74fbd36-29c7-4b00-9c3b-692d32e138b7" d="M187,54.11c0-2.68-1.47-4-3.67-4s-3.77,1.39-3.77,4.22v7.27h-2.18V48.41h2.18v1.87a4.86,4.86,0,0,1,4.22-2.11c3,0,5.38,1.87,5.38,5.63v7.75H187Z"/><path class="a74fbd36-29c7-4b00-9c3b-692d32e138b7" d="M208.16,48.41h2.26L202.5,67.74h-2.25l2.59-6.33-5.3-13H200l4.13,10.65Z"/><path class="a74fbd36-29c7-4b00-9c3b-692d32e138b7" d="M228.89,57.83H221.6l-1.35,3.72H218L224,44.93h2.51l6,16.62h-2.31Zm-3.65-10.22-3,8.45h6.05Z"/><path class="a74fbd36-29c7-4b00-9c3b-692d32e138b7" d="M244.4,54.11c0-2.68-1.46-4-3.67-4S237,51.45,237,54.28v7.27h-2.19V48.41H237v1.87a4.84,4.84,0,0,1,4.22-2.11c3,0,5.37,1.87,5.37,5.63v7.75H244.4Z"/><path class="a74fbd36-29c7-4b00-9c3b-692d32e138b7" d="M255.44,48.19a5.47,5.47,0,0,1,4.89,2.61V48.41h2.21V61.55h-2.21V59.1a5.48,5.48,0,0,1-4.92,2.67c-3.5,0-6.21-2.76-6.21-6.84S251.91,48.19,255.44,48.19Zm.43,1.89c-2.4,0-4.44,1.76-4.44,4.85s2,4.92,4.44,4.92,4.46-1.8,4.46-4.9S258.27,50.08,255.87,50.08Zm2.76-7.29v1.9l-5.11,2.73V45.79Z"/><path class="a74fbd36-29c7-4b00-9c3b-692d32e138b7" d="M266.07,43.8h2.19V61.55h-2.19Z"/><path class="a74fbd36-29c7-4b00-9c3b-692d32e138b7" d="M271.43,44.78a1.47,1.47,0,1,1,1.49,1.49A1.46,1.46,0,0,1,271.43,44.78Zm.36,3.63H274V61.55h-2.18Z"/><path class="a74fbd36-29c7-4b00-9c3b-692d32e138b7" d="M282.11,61.77c-3.07,0-5.23-1.68-5.37-4.08H279c.12,1.27,1.25,2.23,3.1,2.23s2.68-.86,2.68-1.94c0-2.93-7.77-1.23-7.77-6.12,0-2,1.9-3.67,4.82-3.67s4.82,1.56,5,4.13h-2.18C284.51,51,283.5,50,281.75,50s-2.57.76-2.57,1.82c0,3.12,7.63,1.41,7.73,6.12C286.91,60.14,285,61.77,282.11,61.77Z"/><path class="a74fbd36-29c7-4b00-9c3b-692d32e138b7" d="M289.46,44.78A1.47,1.47,0,1,1,291,46.27,1.46,1.46,0,0,1,289.46,44.78Zm.36,3.63H292V61.55h-2.19Z"/><path class="a74fbd36-29c7-4b00-9c3b-692d32e138b7" d="M300.14,61.77c-3.07,0-5.23-1.68-5.37-4.08H297c.12,1.27,1.25,2.23,3.1,2.23s2.68-.86,2.68-1.94c0-2.93-7.77-1.23-7.77-6.12,0-2,1.9-3.67,4.82-3.67s4.82,1.56,5,4.13h-2.18c-.1-1.32-1.11-2.28-2.86-2.28s-2.57.76-2.57,1.82c0,3.12,7.63,1.41,7.73,6.12C304.94,60.14,303,61.77,300.14,61.77Z"/><path class="a74fbd36-29c7-4b00-9c3b-692d32e138b7" d="M57.82,84.17a5.72,5.72,0,0,1,4.86,2.57v-7h2.21V97.53H62.68V95.06a5.38,5.38,0,0,1-4.89,2.69c-3.52,0-6.24-2.76-6.24-6.84S54.27,84.17,57.82,84.17Zm.4,1.9c-2.4,0-4.44,1.75-4.44,4.84s2,4.92,4.44,4.92,4.46-1.8,4.46-4.89S60.62,86.07,58.22,86.07Z"/><path class="a74fbd36-29c7-4b00-9c3b-692d32e138b7" d="M74.18,97.75c-3.75,0-6.51-2.64-6.51-6.81s2.67-6.77,6.51-6.77a6,6,0,0,1,6.3,6.29,11.43,11.43,0,0,1-.07,1.32H69.91a4.12,4.12,0,0,0,4.27,4.12,3.62,3.62,0,0,0,3.69-2.42h2.35A5.9,5.9,0,0,1,74.18,97.75ZM69.93,90h8.3a3.86,3.86,0,0,0-4.15-4A4.06,4.06,0,0,0,69.93,90Z"/><path class="a74fbd36-29c7-4b00-9c3b-692d32e138b7" d="M103.85,89.21c0,5.18-3.38,8.32-8.88,8.32h-5.2V80.81H95C100.47,80.81,103.85,84,103.85,89.21ZM95,95.73c4.37,0,6.65-2.44,6.65-6.52S99.34,82.59,95,82.59H92V95.73Z"/><path class="a74fbd36-29c7-4b00-9c3b-692d32e138b7" d="M112.18,84.17a5.46,5.46,0,0,1,4.9,2.62v-2.4h2.2V97.53h-2.2V95.09a5.5,5.5,0,0,1-4.92,2.66c-3.5,0-6.21-2.76-6.21-6.84S108.66,84.17,112.18,84.17Zm.44,1.9c-2.4,0-4.44,1.75-4.44,4.84s2,4.92,4.44,4.92,4.46-1.8,4.46-4.89S115,86.07,112.62,86.07Z"/><path class="a74fbd36-29c7-4b00-9c3b-692d32e138b7" d="M123.28,86.19h-1.7v-1.8h1.7V81.08h2.18v3.31h3.43v1.8h-3.43v7.75c0,1.29.48,1.75,1.82,1.75h1.61v1.84h-2c-2.32,0-3.64-1-3.64-3.59Z"/><path class="a74fbd36-29c7-4b00-9c3b-692d32e138b7" d="M136.55,97.75c-3.72,0-6.55-2.64-6.55-6.81a6.65,6.65,0,1,1,13.29,0A6.52,6.52,0,0,1,136.55,97.75Zm0-1.92c2.28,0,4.51-1.56,4.51-4.89s-2.19-4.87-4.44-4.87-4.39,1.56-4.39,4.87S134.27,95.83,136.55,95.83Z"/><path class="a74fbd36-29c7-4b00-9c3b-692d32e138b7" d="M150.62,97.75c-3.07,0-5.23-1.68-5.38-4.08h2.26c.12,1.27,1.25,2.23,3.09,2.23s2.69-.86,2.69-1.94c0-2.93-7.77-1.22-7.77-6.12,0-2,1.89-3.67,4.82-3.67s4.82,1.56,5,4.13h-2.19C153,87,152,86,150.26,86s-2.57.77-2.57,1.82c0,3.12,7.63,1.42,7.73,6.12C155.42,96.12,153.52,97.75,150.62,97.75Z"/><path class="a74fbd36-29c7-4b00-9c3b-692d32e138b7" d="M172.42,80.6a7.86,7.86,0,0,1,7.75,5.06h-2.61a5.26,5.26,0,0,0-5.14-3.14c-3.5,0-6.11,2.54-6.11,6.64s2.61,6.62,6.11,6.62a5.28,5.28,0,0,0,5.14-3.12h2.61a7.86,7.86,0,0,1-7.75,5,8.54,8.54,0,0,1,0-17.08Z"/><path class="a74fbd36-29c7-4b00-9c3b-692d32e138b7" d="M194.64,97.53h-2.19V95.59a4.82,4.82,0,0,1-4.2,2.14c-3,0-5.39-1.88-5.39-5.64v-7.7H185V91.8c0,2.66,1.46,4,3.67,4s3.76-1.39,3.76-4.22V84.39h2.19Z"/><path class="a74fbd36-29c7-4b00-9c3b-692d32e138b7" d="M203.64,84.17a5.46,5.46,0,0,1,4.9,2.62v-2.4h2.2V97.53h-2.2V95.09a5.5,5.5,0,0,1-4.92,2.66c-3.5,0-6.21-2.76-6.21-6.84S200.12,84.17,203.64,84.17Zm.44,1.9c-2.4,0-4.44,1.75-4.44,4.84s2,4.92,4.44,4.92,4.46-1.8,4.46-4.89S206.47,86.07,204.08,86.07Z"/><path class="a74fbd36-29c7-4b00-9c3b-692d32e138b7" d="M214.28,79.78h2.18V97.53h-2.18Z"/><path class="a74fbd36-29c7-4b00-9c3b-692d32e138b7" d="M219.64,80.77a1.47,1.47,0,0,1,1.49-1.49,1.49,1.49,0,1,1-1.49,1.49Zm.36,3.62h2.18V97.53H220Z"/><path class="a74fbd36-29c7-4b00-9c3b-692d32e138b7" d="M226.1,86.19h-1.7v-1.8h1.7V81.08h2.18v3.31h3.43v1.8h-3.43v7.75c0,1.29.48,1.75,1.82,1.75h1.61v1.84h-2c-2.32,0-3.64-1-3.64-3.59Z"/><path class="a74fbd36-29c7-4b00-9c3b-692d32e138b7" d="M239.11,84.17A5.46,5.46,0,0,1,244,86.79v-2.4h2.21V97.53H244V95.09a5.5,5.5,0,0,1-4.92,2.66c-3.5,0-6.21-2.76-6.21-6.84S235.58,84.17,239.11,84.17Zm.43,1.9c-2.4,0-4.44,1.75-4.44,4.84s2,4.92,4.44,4.92S244,94,244,90.94,241.94,86.07,239.54,86.07Z"/><path class="a74fbd36-29c7-4b00-9c3b-692d32e138b7" d="M250.2,86.19h-1.7v-1.8h1.7V81.08h2.18v3.31h3.43v1.8h-3.43v7.75c0,1.29.48,1.75,1.83,1.75h1.6v1.84h-2c-2.33,0-3.65-1-3.65-3.59Z"/><path class="a74fbd36-29c7-4b00-9c3b-692d32e138b7" d="M257.68,80.77a1.47,1.47,0,1,1,2.93,0,1.47,1.47,0,1,1-2.93,0Zm.36,3.62h2.19V97.53H258Z"/><path class="a74fbd36-29c7-4b00-9c3b-692d32e138b7" d="M264.56,84.39l4.1,11.13,4.08-11.13h2.33l-5.16,13.14h-2.54l-5.16-13.14Z"/><path class="a74fbd36-29c7-4b00-9c3b-692d32e138b7" d="M282.31,97.75c-3.72,0-6.55-2.64-6.55-6.81a6.65,6.65,0,1,1,13.29,0A6.52,6.52,0,0,1,282.31,97.75Zm0-1.92c2.28,0,4.51-1.56,4.51-4.89s-2.18-4.87-4.44-4.87S278,87.63,278,90.94,280,95.83,282.31,95.83Z"/><path class="a74fbd36-29c7-4b00-9c3b-692d32e138b7" d="M296.38,97.75c-3.07,0-5.23-1.68-5.37-4.08h2.25c.12,1.27,1.25,2.23,3.1,2.23S299,95,299,94c0-2.93-7.77-1.22-7.77-6.12,0-2,1.89-3.67,4.82-3.67s4.82,1.56,5,4.13h-2.19C298.78,87,297.77,86,296,86s-2.57.77-2.57,1.82c0,3.12,7.63,1.42,7.73,6.12C301.18,96.12,299.28,97.75,296.38,97.75Z"/><rect class="a61b3c61-e01e-45f4-8dd2-2c3a890ba60e" x="13.05" y="174.27" width="325.36" height="117.12" rx="24.38"/><path class="a74fbd36-29c7-4b00-9c3b-692d32e138b7" d="M54,203.58c3.93,0,5.8,2.18,5.8,4.91a4.71,4.71,0,0,1-4,4.8l4.2,7H57.41l-4-6.84H50.79v6.84H48.61V203.58Zm0,1.8H50.79v6.33H54c2.47,0,3.55-1.34,3.55-3.22S56.5,205.38,54,205.38Z"/><path class="a74fbd36-29c7-4b00-9c3b-692d32e138b7" d="M68.34,220.51c-3.74,0-6.5-2.64-6.5-6.81s2.66-6.76,6.5-6.76a6,6,0,0,1,6.31,6.28,11.43,11.43,0,0,1-.07,1.32H64.07a4.14,4.14,0,0,0,4.27,4.13,3.62,3.62,0,0,0,3.7-2.43h2.35A5.92,5.92,0,0,1,68.34,220.51Zm-4.24-7.75h8.3a3.86,3.86,0,0,0-4.15-4A4.07,4.07,0,0,0,64.1,212.76Z"/><path class="a74fbd36-29c7-4b00-9c3b-692d32e138b7" d="M83.09,206.94c3.26,0,5.4,1.67,6.07,4.43H86.81a3.59,3.59,0,0,0-3.72-2.59c-2.4,0-4.17,1.71-4.17,4.92s1.77,5,4.17,5a3.53,3.53,0,0,0,3.72-2.6h2.35a5.85,5.85,0,0,1-6.07,4.44c-3.74,0-6.4-2.64-6.4-6.81S79.35,206.94,83.09,206.94Z"/><path class="a74fbd36-29c7-4b00-9c3b-692d32e138b7" d="M97.56,220.51c-3.72,0-6.55-2.64-6.55-6.81a6.65,6.65,0,1,1,13.29,0A6.52,6.52,0,0,1,97.56,220.51Zm0-1.92c2.28,0,4.51-1.56,4.51-4.89s-2.19-4.87-4.44-4.87-4.39,1.56-4.39,4.87S95.28,218.59,97.56,218.59Z"/><path class="a74fbd36-29c7-4b00-9c3b-692d32e138b7" d="M107.07,202.55h2.18V220.3h-2.18Z"/><path class="a74fbd36-29c7-4b00-9c3b-692d32e138b7" d="M118.54,220.51c-3.74,0-6.5-2.64-6.5-6.81s2.66-6.76,6.5-6.76a6,6,0,0,1,6.31,6.28c0,.48,0,.86-.07,1.32H114.27a4.14,4.14,0,0,0,4.27,4.13,3.6,3.6,0,0,0,3.69-2.43h2.35A5.9,5.9,0,0,1,118.54,220.51Zm-4.25-7.75h8.3a3.85,3.85,0,0,0-4.15-4A4.08,4.08,0,0,0,114.29,212.76Z"/><path class="a74fbd36-29c7-4b00-9c3b-692d32e138b7" d="M133.29,206.94c3.26,0,5.39,1.67,6.07,4.43H137a3.59,3.59,0,0,0-3.72-2.59c-2.4,0-4.18,1.71-4.18,4.92s1.78,5,4.18,5a3.53,3.53,0,0,0,3.72-2.6h2.35a5.85,5.85,0,0,1-6.07,4.44c-3.74,0-6.41-2.64-6.41-6.81S129.55,206.94,133.29,206.94Z"/><path class="a74fbd36-29c7-4b00-9c3b-692d32e138b7" d="M147.62,206.94c3.26,0,5.4,1.67,6.07,4.43h-2.35a3.58,3.58,0,0,0-3.72-2.59c-2.4,0-4.17,1.71-4.17,4.92s1.77,5,4.17,5a3.53,3.53,0,0,0,3.72-2.6h2.35a5.85,5.85,0,0,1-6.07,4.44c-3.74,0-6.4-2.64-6.4-6.81S143.88,206.94,147.62,206.94Z"/><path class="a74fbd36-29c7-4b00-9c3b-692d32e138b7" d="M156,203.53A1.47,1.47,0,1,1,157.5,205,1.47,1.47,0,0,1,156,203.53Zm.36,3.62h2.18V220.3h-2.18Z"/><path class="a74fbd36-29c7-4b00-9c3b-692d32e138b7" d="M167.82,220.51c-3.72,0-6.55-2.64-6.55-6.81a6.65,6.65,0,1,1,13.29,0A6.52,6.52,0,0,1,167.82,220.51Zm0-1.92c2.27,0,4.5-1.56,4.5-4.89s-2.18-4.87-4.43-4.87-4.39,1.56-4.39,4.87S165.54,218.59,167.82,218.59Zm2.44-17.22v1.9L165.15,206v-1.63Z"/><path class="a74fbd36-29c7-4b00-9c3b-692d32e138b7" d="M187,212.86c0-2.69-1.47-4.05-3.67-4.05s-3.77,1.39-3.77,4.22v7.27h-2.18V207.15h2.18V209a4.88,4.88,0,0,1,4.22-2.11c3,0,5.38,1.87,5.38,5.64v7.75H187Z"/><path class="a74fbd36-29c7-4b00-9c3b-692d32e138b7" d="M208.16,207.15h2.26l-7.92,19.33h-2.25l2.59-6.33-5.3-13H200l4.13,10.65Z"/><path class="a74fbd36-29c7-4b00-9c3b-692d32e138b7" d="M228.89,216.58H221.6l-1.35,3.72H218L224,203.67h2.51l6,16.63h-2.31Zm-3.65-10.22-3,8.44h6.05Z"/><path class="a74fbd36-29c7-4b00-9c3b-692d32e138b7" d="M244.4,212.86c0-2.69-1.46-4.05-3.67-4.05S237,210.2,237,213v7.27h-2.19V207.15H237V209a4.86,4.86,0,0,1,4.22-2.11c3,0,5.37,1.87,5.37,5.64v7.75H244.4Z"/><path class="a74fbd36-29c7-4b00-9c3b-692d32e138b7" d="M255.44,206.94a5.45,5.45,0,0,1,4.89,2.61v-2.4h2.21V220.3h-2.21v-2.45a5.47,5.47,0,0,1-4.92,2.66c-3.5,0-6.21-2.76-6.21-6.83S251.91,206.94,255.44,206.94Zm.43,1.89c-2.4,0-4.44,1.75-4.44,4.85s2,4.91,4.44,4.91,4.46-1.8,4.46-4.89S258.27,208.83,255.87,208.83Zm2.76-7.29v1.89l-5.11,2.74v-1.63Z"/><path class="a74fbd36-29c7-4b00-9c3b-692d32e138b7" d="M266.07,202.55h2.19V220.3h-2.19Z"/><path class="a74fbd36-29c7-4b00-9c3b-692d32e138b7" d="M271.43,203.53a1.47,1.47,0,1,1,1.49,1.49A1.47,1.47,0,0,1,271.43,203.53Zm.36,3.62H274V220.3h-2.18Z"/><path class="a74fbd36-29c7-4b00-9c3b-692d32e138b7" d="M282.11,220.51c-3.07,0-5.23-1.68-5.37-4.08H279c.12,1.28,1.25,2.24,3.1,2.24s2.68-.87,2.68-1.95c0-2.92-7.77-1.22-7.77-6.11,0-2,1.9-3.67,4.82-3.67s4.82,1.55,5,4.12h-2.18c-.1-1.32-1.11-2.28-2.86-2.28s-2.57.77-2.57,1.83c0,3.11,7.63,1.41,7.73,6.11C286.91,218.88,285,220.51,282.11,220.51Z"/><path class="a74fbd36-29c7-4b00-9c3b-692d32e138b7" d="M289.46,203.53A1.47,1.47,0,1,1,291,205,1.47,1.47,0,0,1,289.46,203.53Zm.36,3.62H292V220.3h-2.19Z"/><path class="a74fbd36-29c7-4b00-9c3b-692d32e138b7" d="M300.14,220.51c-3.07,0-5.23-1.68-5.37-4.08H297c.12,1.28,1.25,2.24,3.1,2.24s2.68-.87,2.68-1.95c0-2.92-7.77-1.22-7.77-6.11,0-2,1.9-3.67,4.82-3.67s4.82,1.55,5,4.12h-2.18c-.1-1.32-1.11-2.28-2.86-2.28s-2.57.77-2.57,1.83c0,3.11,7.63,1.41,7.73,6.11C304.94,218.88,303,220.51,300.14,220.51Z"/><path class="a74fbd36-29c7-4b00-9c3b-692d32e138b7" d="M49,242.92a5.72,5.72,0,0,1,4.87,2.57v-7H56.1v17.75H53.89v-2.47A5.42,5.42,0,0,1,49,256.5c-3.52,0-6.23-2.76-6.23-6.84S45.47,242.92,49,242.92Zm.41,1.89c-2.4,0-4.44,1.75-4.44,4.85s2,4.92,4.44,4.92,4.46-1.8,4.46-4.9S51.83,244.81,49.43,244.81Z"/><path class="a74fbd36-29c7-4b00-9c3b-692d32e138b7" d="M65.38,256.5c-3.74,0-6.5-2.64-6.5-6.82s2.66-6.76,6.5-6.76a6,6,0,0,1,6.31,6.28c0,.48,0,.87-.07,1.32H61.11a4.13,4.13,0,0,0,4.27,4.13,3.61,3.61,0,0,0,3.69-2.42h2.35A5.91,5.91,0,0,1,65.38,256.5Zm-4.25-7.75h8.3a3.85,3.85,0,0,0-4.15-4A4.07,4.07,0,0,0,61.13,248.75Z"/><path class="a74fbd36-29c7-4b00-9c3b-692d32e138b7" d="M95.05,248c0,5.18-3.38,8.32-8.87,8.32H81V239.56h5.21C91.67,239.56,95.05,242.77,95.05,248Zm-8.87,6.52c4.36,0,6.64-2.45,6.64-6.52s-2.28-6.62-6.64-6.62h-3v13.14Z"/><path class="a74fbd36-29c7-4b00-9c3b-692d32e138b7" d="M103.39,242.92a5.46,5.46,0,0,1,4.89,2.61v-2.4h2.21v13.15h-2.21v-2.45a5.48,5.48,0,0,1-4.92,2.67c-3.5,0-6.21-2.76-6.21-6.84S99.86,242.92,103.39,242.92Zm.43,1.89c-2.4,0-4.44,1.75-4.44,4.85s2,4.92,4.44,4.92,4.46-1.8,4.46-4.9S106.22,244.81,103.82,244.81Z"/><path class="a74fbd36-29c7-4b00-9c3b-692d32e138b7" d="M114.48,244.93h-1.7v-1.8h1.7v-3.31h2.19v3.31h3.43v1.8h-3.43v7.75c0,1.3.48,1.75,1.82,1.75h1.61v1.85h-2c-2.33,0-3.65-1-3.65-3.6Z"/><path class="a74fbd36-29c7-4b00-9c3b-692d32e138b7" d="M127.75,256.5c-3.72,0-6.55-2.64-6.55-6.82a6.65,6.65,0,1,1,13.29,0A6.52,6.52,0,0,1,127.75,256.5Zm0-1.92c2.28,0,4.51-1.56,4.51-4.9s-2.18-4.87-4.44-4.87-4.38,1.56-4.38,4.87S125.47,254.58,127.75,254.58Z"/><path class="a74fbd36-29c7-4b00-9c3b-692d32e138b7" d="M141.82,256.5c-3.07,0-5.23-1.68-5.37-4.08h2.25c.12,1.27,1.25,2.23,3.1,2.23s2.69-.87,2.69-1.94c0-2.93-7.78-1.23-7.78-6.12,0-2,1.9-3.67,4.82-3.67s4.83,1.56,5,4.12h-2.18c-.1-1.31-1.11-2.27-2.86-2.27-1.6,0-2.56.76-2.56,1.82,0,3.12,7.62,1.41,7.72,6.12C146.62,254.86,144.72,256.5,141.82,256.5Z"/><path class="a74fbd36-29c7-4b00-9c3b-692d32e138b7" d="M163.63,239.34a7.88,7.88,0,0,1,7.75,5.07h-2.62a5.26,5.26,0,0,0-5.13-3.15c-3.5,0-6.12,2.55-6.12,6.65s2.62,6.62,6.12,6.62a5.28,5.28,0,0,0,5.13-3.12h2.62a7.87,7.87,0,0,1-7.75,5,8.54,8.54,0,0,1,0-17.08Z"/><path class="a74fbd36-29c7-4b00-9c3b-692d32e138b7" d="M185.84,256.28h-2.18v-1.94a4.85,4.85,0,0,1-4.2,2.13c-3,0-5.4-1.87-5.4-5.64v-7.7h2.16v7.42c0,2.66,1.46,4,3.67,4s3.77-1.39,3.77-4.23v-7.22h2.18Z"/><path class="a74fbd36-29c7-4b00-9c3b-692d32e138b7" d="M194.85,242.92a5.47,5.47,0,0,1,4.89,2.61v-2.4H202v13.15h-2.21v-2.45a5.48,5.48,0,0,1-4.92,2.67c-3.5,0-6.21-2.76-6.21-6.84S191.32,242.92,194.85,242.92Zm.43,1.89c-2.4,0-4.44,1.75-4.44,4.85s2,4.92,4.44,4.92,4.46-1.8,4.46-4.9S197.68,244.81,195.28,244.81Z"/><path class="a74fbd36-29c7-4b00-9c3b-692d32e138b7" d="M215.11,248.84c0-2.68-1.47-4.05-3.67-4.05s-3.77,1.39-3.77,4.22v7.27h-2.18V243.13h2.18V245a4.86,4.86,0,0,1,4.22-2.12c3.05,0,5.37,1.88,5.37,5.64v7.75h-2.15Z"/><path class="a74fbd36-29c7-4b00-9c3b-692d32e138b7" d="M221,244.93h-1.7v-1.8H221v-3.31h2.18v3.31h3.43v1.8h-3.43v7.75c0,1.3.48,1.75,1.83,1.75h1.6v1.85h-2c-2.33,0-3.65-1-3.65-3.6Z"/><path class="a74fbd36-29c7-4b00-9c3b-692d32e138b7" d="M228.44,239.51a1.46,1.46,0,1,1,1.48,1.49A1.45,1.45,0,0,1,228.44,239.51Zm.36,3.62H231v13.15H228.8Z"/><path class="a74fbd36-29c7-4b00-9c3b-692d32e138b7" d="M234.9,244.93h-1.71v-1.8h1.71v-3.31h2.18v3.31h3.43v1.8h-3.43v7.75c0,1.3.48,1.75,1.82,1.75h1.61v1.85h-2c-2.33,0-3.64-1-3.64-3.6Z"/><path class="a74fbd36-29c7-4b00-9c3b-692d32e138b7" d="M247.9,242.92a5.48,5.48,0,0,1,4.9,2.61v-2.4H255v13.15h-2.2v-2.45a5.49,5.49,0,0,1-4.92,2.67c-3.5,0-6.21-2.76-6.21-6.84S244.38,242.92,247.9,242.92Zm.44,1.89c-2.4,0-4.44,1.75-4.44,4.85s2,4.92,4.44,4.92,4.46-1.8,4.46-4.9S250.73,244.81,248.34,244.81Z"/><path class="a74fbd36-29c7-4b00-9c3b-692d32e138b7" d="M259,244.93h-1.7v-1.8H259v-3.31h2.18v3.31h3.43v1.8h-3.43v7.75c0,1.3.48,1.75,1.82,1.75h1.61v1.85h-2c-2.32,0-3.64-1-3.64-3.6Z"/><path class="a74fbd36-29c7-4b00-9c3b-692d32e138b7" d="M266.48,239.51A1.47,1.47,0,1,1,268,241,1.46,1.46,0,0,1,266.48,239.51Zm.36,3.62H269v13.15h-2.19Z"/><path class="a74fbd36-29c7-4b00-9c3b-692d32e138b7" d="M273.36,243.13l4.1,11.13,4.08-11.13h2.32l-5.16,13.15h-2.54L271,243.13Z"/><path class="a74fbd36-29c7-4b00-9c3b-692d32e138b7" d="M291.11,256.5c-3.72,0-6.55-2.64-6.55-6.82a6.65,6.65,0,1,1,13.29,0A6.52,6.52,0,0,1,291.11,256.5Zm0-1.92c2.28,0,4.51-1.56,4.51-4.9s-2.19-4.87-4.44-4.87-4.39,1.56-4.39,4.87S288.83,254.58,291.11,254.58Z"/><path class="a74fbd36-29c7-4b00-9c3b-692d32e138b7" d="M305.18,256.5c-3.07,0-5.23-1.68-5.38-4.08h2.26c.12,1.27,1.25,2.23,3.09,2.23s2.69-.87,2.69-1.94c0-2.93-7.77-1.23-7.77-6.12,0-2,1.89-3.67,4.82-3.67s4.82,1.56,5,4.12h-2.18c-.1-1.31-1.1-2.27-2.85-2.27s-2.57.76-2.57,1.82c0,3.12,7.63,1.41,7.72,6.12C310,254.86,308.08,256.5,305.18,256.5Z"/><line class="aabec80d-e835-4513-b201-86a08bfd974d" x1="656.72" y1="156.46" x2="692.84" y2="156.46"/><path class="a74fbd36-29c7-4b00-9c3b-692d32e138b7" d="M450.07,126.82a7.89,7.89,0,0,1,7.75,5.06H455.2a5.27,5.27,0,0,0-5.13-3.14c-3.5,0-6.12,2.55-6.12,6.65s2.62,6.62,6.12,6.62a5.28,5.28,0,0,0,5.13-3.12h2.62a7.87,7.87,0,0,1-7.75,5,8.54,8.54,0,0,1,0-17.08Z"/><path class="a74fbd36-29c7-4b00-9c3b-692d32e138b7" d="M466.47,144c-3.72,0-6.55-2.63-6.55-6.81a6.65,6.65,0,1,1,13.29,0A6.51,6.51,0,0,1,466.47,144Zm0-1.91c2.28,0,4.51-1.56,4.51-4.9s-2.18-4.87-4.44-4.87-4.39,1.56-4.39,4.87S464.19,142.06,466.47,142.06Z"/><path class="a74fbd36-29c7-4b00-9c3b-692d32e138b7" d="M495,136.32c0-2.68-1.44-4-3.6-4s-3.72,1.41-3.72,4.24v7.25h-2.16v-7.44c0-2.68-1.44-4-3.6-4s-3.71,1.41-3.71,4.24v7.25H476V130.61h2.19v1.9a4.75,4.75,0,0,1,4.15-2.14,5,5,0,0,1,4.82,2.93,4.87,4.87,0,0,1,4.65-2.93c3,0,5.33,1.87,5.33,5.64v7.75H495Z"/><path class="a74fbd36-29c7-4b00-9c3b-692d32e138b7" d="M507.7,130.4c3.52,0,6.24,2.64,6.24,6.74S511.22,144,507.7,144a5.7,5.7,0,0,1-4.92-2.63V150H500.6V130.61h2.18V133A5.54,5.54,0,0,1,507.7,130.4Zm-.46,1.89a4.52,4.52,0,0,0-4.46,4.87c0,3.1,2.09,4.9,4.46,4.9s4.46-1.83,4.46-4.92S509.67,132.29,507.24,132.29Z"/><path class="a74fbd36-29c7-4b00-9c3b-692d32e138b7" d="M522.21,130.4A5.45,5.45,0,0,1,527.1,133v-2.4h2.21v13.15H527.1v-2.45a5.47,5.47,0,0,1-4.92,2.66c-3.5,0-6.21-2.75-6.21-6.83S518.68,130.4,522.21,130.4Zm.43,1.89c-2.4,0-4.44,1.75-4.44,4.85s2,4.92,4.44,4.92,4.46-1.8,4.46-4.9S525,132.29,522.64,132.29Z"/><path class="a74fbd36-29c7-4b00-9c3b-692d32e138b7" d="M535,143.76h-2.18V130.61H535v2.14a4.43,4.43,0,0,1,4.24-2.38v2.26h-.57c-2.09,0-3.67.93-3.67,4Z"/><path class="a74fbd36-29c7-4b00-9c3b-692d32e138b7" d="M546.69,130.4a5.46,5.46,0,0,1,4.9,2.61v-2.4h2.21v13.15h-2.21v-2.45a5.48,5.48,0,0,1-4.92,2.66c-3.5,0-6.21-2.75-6.21-6.83S543.17,130.4,546.69,130.4Zm.44,1.89c-2.4,0-4.44,1.75-4.44,4.85s2,4.92,4.44,4.92,4.46-1.8,4.46-4.9S549.53,132.29,547.13,132.29Z"/><path class="a74fbd36-29c7-4b00-9c3b-692d32e138b7" d="M563,130.4c3.27,0,5.4,1.68,6.07,4.44H566.7a3.57,3.57,0,0,0-3.72-2.6c-2.4,0-4.17,1.71-4.17,4.92s1.77,5,4.17,5a3.53,3.53,0,0,0,3.72-2.59h2.35A5.84,5.84,0,0,1,563,144c-3.74,0-6.4-2.63-6.4-6.81S559.24,130.4,563,130.4Z"/><path class="a74fbd36-29c7-4b00-9c3b-692d32e138b7" d="M571.36,127a1.47,1.47,0,1,1,1.49,1.49A1.47,1.47,0,0,1,571.36,127Zm.36,3.62h2.19v13.15h-2.19Z"/><path class="a74fbd36-29c7-4b00-9c3b-692d32e138b7" d="M583.17,144c-3.72,0-6.55-2.63-6.55-6.81a6.65,6.65,0,1,1,13.29,0A6.51,6.51,0,0,1,583.17,144Zm0-1.91c2.28,0,4.51-1.56,4.51-4.9s-2.18-4.87-4.44-4.87-4.39,1.56-4.39,4.87S580.89,142.06,583.17,142.06Zm2.45-17.23v1.9l-5.11,2.73v-1.63Z"/><path class="a74fbd36-29c7-4b00-9c3b-692d32e138b7" d="M602.31,136.32c0-2.68-1.46-4-3.67-4s-3.76,1.39-3.76,4.22v7.27h-2.19V130.61h2.19v1.87a4.86,4.86,0,0,1,4.22-2.11c3,0,5.37,1.87,5.37,5.64v7.75h-2.16Z"/><path class="a74fbd36-29c7-4b00-9c3b-692d32e138b7" d="M468.11,166.6h2.26l-7.92,19.33H460.2l2.59-6.33-5.3-13h2.42L464,177.25Z"/><path class="a74fbd36-29c7-4b00-9c3b-692d32e138b7" d="M484.55,166.38c3.26,0,5.39,1.68,6.07,4.44h-2.35a3.58,3.58,0,0,0-3.72-2.59c-2.4,0-4.18,1.7-4.18,4.91s1.78,5,4.18,5a3.54,3.54,0,0,0,3.72-2.59h2.35a5.86,5.86,0,0,1-6.07,4.44c-3.74,0-6.41-2.64-6.41-6.82S480.81,166.38,484.55,166.38Z"/><path class="a74fbd36-29c7-4b00-9c3b-692d32e138b7" d="M499,180c-3.71,0-6.54-2.64-6.54-6.82a6.64,6.64,0,1,1,13.28,0A6.52,6.52,0,0,1,499,180Zm0-1.92c2.28,0,4.51-1.56,4.51-4.9s-2.18-4.86-4.43-4.86-4.39,1.55-4.39,4.86S496.74,178,499,178Z"/><path class="a74fbd36-29c7-4b00-9c3b-692d32e138b7" d="M518.16,172.31c0-2.69-1.47-4.06-3.67-4.06s-3.77,1.39-3.77,4.22v7.27h-2.18V166.6h2.18v1.87a4.85,4.85,0,0,1,4.22-2.11c3,0,5.38,1.87,5.38,5.63v7.75h-2.16Z"/><path class="a74fbd36-29c7-4b00-9c3b-692d32e138b7" d="M524,168.4h-1.7v-1.8H524v-3.31h2.19v3.31h3.43v1.8h-3.43v7.74c0,1.3.48,1.75,1.82,1.75h1.61v1.85h-2c-2.33,0-3.65-1-3.65-3.6Z"/><path class="a74fbd36-29c7-4b00-9c3b-692d32e138b7" d="M534,179.74h-2.18V166.6H534v2.13a4.43,4.43,0,0,1,4.25-2.37v2.25h-.58c-2.09,0-3.67.94-3.67,4Z"/><path class="a74fbd36-29c7-4b00-9c3b-692d32e138b7" d="M545.7,166.38a5.46,5.46,0,0,1,4.89,2.62v-2.4h2.21v13.14h-2.21v-2.45a5.48,5.48,0,0,1-4.92,2.67c-3.5,0-6.21-2.76-6.21-6.84S542.17,166.38,545.7,166.38Zm.43,1.9c-2.4,0-4.44,1.75-4.44,4.84s2,4.92,4.44,4.92,4.46-1.8,4.46-4.9S548.53,168.28,546.13,168.28Z"/><path class="a74fbd36-29c7-4b00-9c3b-692d32e138b7" d="M561,180c-3.07,0-5.23-1.68-5.37-4.08h2.25c.12,1.27,1.25,2.23,3.1,2.23s2.68-.86,2.68-1.94c0-2.93-7.77-1.23-7.77-6.12,0-2,1.9-3.67,4.82-3.67s4.82,1.56,5,4.13H563.5c-.1-1.32-1.11-2.28-2.86-2.28s-2.57.77-2.57,1.82c0,3.12,7.63,1.42,7.73,6.12C565.8,178.33,563.9,180,561,180Z"/><path class="a74fbd36-29c7-4b00-9c3b-692d32e138b7" d="M569.08,168.4h-1.71v-1.8h1.71v-3.31h2.18v3.31h3.43v1.8h-3.43v7.74c0,1.3.48,1.75,1.82,1.75h1.61v1.85h-2c-2.33,0-3.64-1-3.64-3.6Z"/><path class="a74fbd36-29c7-4b00-9c3b-692d32e138b7" d="M582.35,180c-3.74,0-6.5-2.64-6.5-6.82s2.66-6.76,6.5-6.76a6,6,0,0,1,6.31,6.29,11.24,11.24,0,0,1-.08,1.31h-10.5a4.13,4.13,0,0,0,4.27,4.13,3.61,3.61,0,0,0,3.69-2.42h2.35A5.9,5.9,0,0,1,582.35,180Zm-4.25-7.75h8.3a3.85,3.85,0,0,0-4.15-4A4.07,4.07,0,0,0,578.1,172.21Z"/><ellipse class="a61b3c61-e01e-45f4-8dd2-2c3a890ba60e" cx="522.55" cy="156.46" rx="134.17" ry="71.34"/><path class="a74fbd36-29c7-4b00-9c3b-692d32e138b7" d="M760.58,143h2.18v16.72h-2.18Z"/><path class="a74fbd36-29c7-4b00-9c3b-692d32e138b7" d="M776,152.32c0-2.69-1.47-4.06-3.67-4.06s-3.77,1.39-3.77,4.22v7.27H766.4V146.61h2.18v1.87a4.85,4.85,0,0,1,4.22-2.11c3.05,0,5.38,1.87,5.38,5.63v7.75H776Z"/><path class="a74fbd36-29c7-4b00-9c3b-692d32e138b7" d="M781.86,148.41h-1.7v-1.8h1.7V143.3h2.19v3.31h3.43v1.8h-3.43v7.74c0,1.3.48,1.75,1.82,1.75h1.61v1.85h-2c-2.33,0-3.65-1-3.65-3.6Z"/><path class="a74fbd36-29c7-4b00-9c3b-692d32e138b7" d="M795.14,160c-3.75,0-6.51-2.64-6.51-6.81s2.67-6.77,6.51-6.77a6,6,0,0,1,6.3,6.29,11.14,11.14,0,0,1-.07,1.31H790.86a4.14,4.14,0,0,0,4.28,4.13,3.62,3.62,0,0,0,3.69-2.42h2.35A5.9,5.9,0,0,1,795.14,160Zm-4.25-7.75h8.3a3.86,3.86,0,0,0-4.15-4A4.06,4.06,0,0,0,790.89,152.22Z"/><path class="a74fbd36-29c7-4b00-9c3b-692d32e138b7" d="M806.41,159.75h-2.18V146.61h2.18v2.13a4.43,4.43,0,0,1,4.25-2.37v2.25h-.58c-2.09,0-3.67.94-3.67,4Z"/><path class="a74fbd36-29c7-4b00-9c3b-692d32e138b7" d="M819.93,146.39c3.52,0,6.23,2.64,6.23,6.74s-2.71,6.84-6.23,6.84a5.69,5.69,0,0,1-4.92-2.64V166h-2.18V146.61H815V149A5.56,5.56,0,0,1,819.93,146.39Zm-.46,1.9a4.52,4.52,0,0,0-4.46,4.87c0,3.09,2.09,4.89,4.46,4.89s4.46-1.82,4.46-4.92S821.89,148.29,819.47,148.29Z"/><path class="a74fbd36-29c7-4b00-9c3b-692d32e138b7" d="M831.13,159.75H829V146.61h2.18v2.13a4.42,4.42,0,0,1,4.24-2.37v2.25h-.57c-2.09,0-3.67.94-3.67,4Z"/><path class="a74fbd36-29c7-4b00-9c3b-692d32e138b7" d="M843.06,160c-3.74,0-6.5-2.64-6.5-6.81s2.66-6.77,6.5-6.77a6,6,0,0,1,6.31,6.29c0,.48,0,.86-.07,1.31H838.79a4.13,4.13,0,0,0,4.27,4.13,3.61,3.61,0,0,0,3.69-2.42h2.35A5.9,5.9,0,0,1,843.06,160Zm-4.25-7.75h8.3a3.85,3.85,0,0,0-4.15-4A4.07,4.07,0,0,0,838.81,152.22Z"/><path class="a74fbd36-29c7-4b00-9c3b-692d32e138b7" d="M852.36,148.41h-1.71v-1.8h1.71V143.3h2.18v3.31H858v1.8h-3.43v7.74c0,1.3.48,1.75,1.82,1.75H858v1.85h-2c-2.32,0-3.64-1-3.64-3.6Z"/><path class="a74fbd36-29c7-4b00-9c3b-692d32e138b7" d="M865.36,146.39a5.46,5.46,0,0,1,4.9,2.62v-2.4h2.2v13.14h-2.2V157.3a5.49,5.49,0,0,1-4.92,2.67c-3.5,0-6.21-2.76-6.21-6.84S861.84,146.39,865.36,146.39Zm.44,1.9c-2.4,0-4.44,1.75-4.44,4.84s2,4.92,4.44,4.92,4.46-1.8,4.46-4.89S868.19,148.29,865.8,148.29Z"/><path class="a74fbd36-29c7-4b00-9c3b-692d32e138b7" d="M881.65,146.39c3.26,0,5.4,1.68,6.07,4.44h-2.35a3.58,3.58,0,0,0-3.72-2.59c-2.4,0-4.17,1.7-4.17,4.92s1.77,5,4.17,5a3.52,3.52,0,0,0,3.72-2.59h2.35a5.86,5.86,0,0,1-6.07,4.44c-3.74,0-6.4-2.64-6.4-6.81S877.91,146.39,881.65,146.39Z"/><path class="a74fbd36-29c7-4b00-9c3b-692d32e138b7" d="M890,143a1.47,1.47,0,1,1,1.49,1.49A1.46,1.46,0,0,1,890,143Zm.36,3.63h2.19v13.14h-2.19Z"/><path class="a74fbd36-29c7-4b00-9c3b-692d32e138b7" d="M901.84,160c-3.72,0-6.55-2.64-6.55-6.81a6.65,6.65,0,1,1,13.29,0A6.52,6.52,0,0,1,901.84,160Zm0-1.92c2.28,0,4.51-1.56,4.51-4.89s-2.18-4.87-4.44-4.87-4.39,1.55-4.39,4.87S899.56,158.05,901.84,158.05Zm2.45-17.22v1.89l-5.11,2.74v-1.64Z"/><path class="a74fbd36-29c7-4b00-9c3b-692d32e138b7" d="M921,152.32c0-2.69-1.46-4.06-3.67-4.06s-3.76,1.39-3.76,4.22v7.27h-2.19V146.61h2.19v1.87a4.84,4.84,0,0,1,4.22-2.11c3,0,5.37,1.87,5.37,5.63v7.75H921Z"/><ellipse class="a61b3c61-e01e-45f4-8dd2-2c3a890ba60e" cx="840.91" cy="156.46" rx="134.17" ry="71.34"/><polygon class="b9e88dd9-87d4-4bdc-afbd-a9c29abe2513" points="523.42 229.76 513.48 241.11 528.28 244.04 523.42 229.76"/><polygon class="b9e88dd9-87d4-4bdc-afbd-a9c29abe2513" points="522.9 83.11 512.96 71.76 527.76 68.83 522.9 83.11"/><polygon class="b9e88dd9-87d4-4bdc-afbd-a9c29abe2513" points="704.62 156.46 691.55 148.91 691.55 164 704.62 156.46"/></svg>