<svg id="b84c3fa1-1940-4b6c-adb2-05cdba4ebdc9" data-name="Capa 1" xmlns="http://www.w3.org/2000/svg" viewBox="0 0 1000.57 325.07"><defs><style>.b270ea1c-83b3-4302-8cdf-fa419da4f475,.e5433659-2926-463d-861e-8a75d6d0dfbd,.f936e2c5-f762-444e-810d-47ad3195f1b5{fill:none;stroke-width:2px;}.b270ea1c-83b3-4302-8cdf-fa419da4f475{stroke:#b3b3b3;}.b270ea1c-83b3-4302-8cdf-fa419da4f475,.f936e2c5-f762-444e-810d-47ad3195f1b5{stroke-linecap:round;stroke-linejoin:round;}.e5433659-2926-463d-861e-8a75d6d0dfbd,.f936e2c5-f762-444e-810d-47ad3195f1b5{stroke:#fd893b;}.e5433659-2926-463d-861e-8a75d6d0dfbd{stroke-miterlimit:10;}.a9773d7b-5ad9-45b8-acf3-a6cf45eae2e5{fill:#272b31;}.a2ccd2ab-78c2-4b49-8124-37a521f5a3d8{fill:#b3b3b3;}</style></defs><line class="b270ea1c-83b3-4302-8cdf-fa419da4f475" x1="447.6" y1="150.98" x2="699.03" y2="150.98"/><rect class="e5433659-2926-463d-861e-8a75d6d0dfbd" x="19.27" y="27.87" width="428.33" height="269.34" rx="42.42"/><path class="a9773d7b-5ad9-45b8-acf3-a6cf45eae2e5" d="M102.32,57.17c3.94,0,5.81,2.18,5.81,4.92a4.71,4.71,0,0,1-4,4.79l4.2,7h-2.61l-4-6.84H99.11v6.84H96.92V57.17Zm0,1.8H99.11V65.3h3.21c2.47,0,3.55-1.34,3.55-3.21S104.82,59,102.32,59Z"/><path class="a9773d7b-5ad9-45b8-acf3-a6cf45eae2e5" d="M116.66,74.1c-3.75,0-6.5-2.64-6.5-6.81s2.66-6.76,6.5-6.76A6,6,0,0,1,123,66.81a11.28,11.28,0,0,1-.08,1.32h-10.5a4.13,4.13,0,0,0,4.27,4.13,3.61,3.61,0,0,0,3.69-2.43h2.35A5.9,5.9,0,0,1,116.66,74.1Zm-4.25-7.74h8.3a3.87,3.87,0,0,0-4.15-4A4.08,4.08,0,0,0,112.41,66.36Z"/><path class="a9773d7b-5ad9-45b8-acf3-a6cf45eae2e5" d="M131.4,60.53c3.27,0,5.4,1.68,6.07,4.43h-2.35a3.58,3.58,0,0,0-3.72-2.59c-2.4,0-4.17,1.71-4.17,4.92s1.77,5,4.17,5a3.53,3.53,0,0,0,3.72-2.59h2.35a5.84,5.84,0,0,1-6.07,4.43c-3.74,0-6.4-2.64-6.4-6.81S127.66,60.53,131.4,60.53Z"/><path class="a9773d7b-5ad9-45b8-acf3-a6cf45eae2e5" d="M145.87,74.1c-3.72,0-6.55-2.64-6.55-6.81a6.65,6.65,0,1,1,13.29,0A6.52,6.52,0,0,1,145.87,74.1Zm0-1.92c2.28,0,4.51-1.55,4.51-4.89s-2.18-4.87-4.44-4.87-4.39,1.56-4.39,4.87S143.59,72.18,145.87,72.18Z"/><path class="a9773d7b-5ad9-45b8-acf3-a6cf45eae2e5" d="M155.38,56.14h2.18V73.89h-2.18Z"/><path class="a9773d7b-5ad9-45b8-acf3-a6cf45eae2e5" d="M166.85,74.1c-3.74,0-6.5-2.64-6.5-6.81s2.66-6.76,6.5-6.76a6,6,0,0,1,6.31,6.28,11.31,11.31,0,0,1-.07,1.32H162.58a4.14,4.14,0,0,0,4.27,4.13,3.62,3.62,0,0,0,3.7-2.43h2.35A5.92,5.92,0,0,1,166.85,74.1Zm-4.24-7.74h8.3a3.87,3.87,0,0,0-4.15-4A4.07,4.07,0,0,0,162.61,66.36Z"/><path class="a9773d7b-5ad9-45b8-acf3-a6cf45eae2e5" d="M181.6,60.53c3.26,0,5.4,1.68,6.07,4.43h-2.35a3.59,3.59,0,0,0-3.72-2.59c-2.4,0-4.18,1.71-4.18,4.92s1.78,5,4.18,5a3.54,3.54,0,0,0,3.72-2.59h2.35a5.85,5.85,0,0,1-6.07,4.43c-3.74,0-6.41-2.64-6.41-6.81S177.86,60.53,181.6,60.53Z"/><path class="a9773d7b-5ad9-45b8-acf3-a6cf45eae2e5" d="M195.93,60.53c3.27,0,5.4,1.68,6.07,4.43h-2.35a3.58,3.58,0,0,0-3.72-2.59c-2.39,0-4.17,1.71-4.17,4.92s1.78,5,4.17,5a3.53,3.53,0,0,0,3.72-2.59H202a5.84,5.84,0,0,1-6.07,4.43c-3.74,0-6.4-2.64-6.4-6.81S192.19,60.53,195.93,60.53Z"/><path class="a9773d7b-5ad9-45b8-acf3-a6cf45eae2e5" d="M204.32,57.12a1.47,1.47,0,1,1,1.49,1.49A1.47,1.47,0,0,1,204.32,57.12Zm.36,3.62h2.18V73.89h-2.18Z"/><path class="a9773d7b-5ad9-45b8-acf3-a6cf45eae2e5" d="M216.13,74.1c-3.72,0-6.55-2.64-6.55-6.81a6.65,6.65,0,1,1,13.29,0A6.52,6.52,0,0,1,216.13,74.1Zm0-1.92c2.27,0,4.5-1.55,4.5-4.89s-2.18-4.87-4.43-4.87-4.39,1.56-4.39,4.87S213.85,72.18,216.13,72.18ZM218.57,55v1.9l-5.11,2.73V58Z"/><path class="a9773d7b-5ad9-45b8-acf3-a6cf45eae2e5" d="M235.27,66.45c0-2.68-1.47-4.05-3.67-4.05s-3.77,1.39-3.77,4.22v7.27h-2.18V60.74h2.18v1.87a4.88,4.88,0,0,1,4.22-2.11c3,0,5.38,1.87,5.38,5.64v7.75h-2.16Z"/><path class="a9773d7b-5ad9-45b8-acf3-a6cf45eae2e5" d="M256.47,60.74h2.26l-7.92,19.34h-2.25l2.59-6.34-5.3-13h2.42l4.12,10.65Z"/><path class="a9773d7b-5ad9-45b8-acf3-a6cf45eae2e5" d="M277.2,70.17h-7.3l-1.34,3.72h-2.3l6-16.63h2.52l6,16.63h-2.3ZM273.55,60l-3,8.44h6Z"/><path class="a9773d7b-5ad9-45b8-acf3-a6cf45eae2e5" d="M292.71,66.45c0-2.68-1.46-4.05-3.67-4.05s-3.77,1.39-3.77,4.22v7.27h-2.18V60.74h2.18v1.87a4.88,4.88,0,0,1,4.22-2.11c3.05,0,5.38,1.87,5.38,5.64v7.75h-2.16Z"/><path class="a9773d7b-5ad9-45b8-acf3-a6cf45eae2e5" d="M303.74,60.53a5.43,5.43,0,0,1,4.89,2.61v-2.4h2.21V73.89h-2.21V71.44a5.47,5.47,0,0,1-4.91,2.66c-3.5,0-6.21-2.75-6.21-6.83S300.22,60.53,303.74,60.53Zm.43,1.89c-2.39,0-4.43,1.75-4.43,4.85s2,4.91,4.43,4.91,4.46-1.79,4.46-4.89S306.57,62.42,304.17,62.42Zm2.76-7.29V57l-5.11,2.74V58.13Z"/><path class="a9773d7b-5ad9-45b8-acf3-a6cf45eae2e5" d="M314.38,56.14h2.18V73.89h-2.18Z"/><path class="a9773d7b-5ad9-45b8-acf3-a6cf45eae2e5" d="M319.74,57.12a1.46,1.46,0,1,1,1.48,1.49A1.46,1.46,0,0,1,319.74,57.12Zm.36,3.62h2.18V73.89H320.1Z"/><path class="a9773d7b-5ad9-45b8-acf3-a6cf45eae2e5" d="M330.41,74.1c-3.07,0-5.22-1.68-5.37-4.07h2.26c.12,1.27,1.25,2.23,3.09,2.23s2.69-.87,2.69-2c0-2.92-7.77-1.22-7.77-6.11,0-2,1.89-3.67,4.82-3.67s4.82,1.56,5,4.12h-2.18c-.1-1.32-1.1-2.28-2.86-2.28-1.6,0-2.56.77-2.56,1.83,0,3.12,7.63,1.41,7.72,6.11C335.21,72.47,333.32,74.1,330.41,74.1Z"/><path class="a9773d7b-5ad9-45b8-acf3-a6cf45eae2e5" d="M337.77,57.12a1.46,1.46,0,1,1,1.48,1.49A1.46,1.46,0,0,1,337.77,57.12Zm.36,3.62h2.18V73.89h-2.18Z"/><path class="a9773d7b-5ad9-45b8-acf3-a6cf45eae2e5" d="M348.45,74.1c-3.07,0-5.23-1.68-5.38-4.07h2.26c.12,1.27,1.25,2.23,3.09,2.23s2.69-.87,2.69-2c0-2.92-7.77-1.22-7.77-6.11,0-2,1.89-3.67,4.82-3.67s4.82,1.56,5,4.12h-2.18c-.09-1.32-1.1-2.28-2.85-2.28s-2.57.77-2.57,1.83c0,3.12,7.63,1.41,7.72,6.11C353.24,72.47,351.35,74.1,348.45,74.1Z"/><path class="a9773d7b-5ad9-45b8-acf3-a6cf45eae2e5" d="M88.7,96.51a5.73,5.73,0,0,1,4.87,2.56V92.12h2.21v17.75H93.57V107.4a5.39,5.39,0,0,1-4.89,2.68c-3.53,0-6.24-2.75-6.24-6.83S85.15,96.51,88.7,96.51Zm.41,1.89c-2.4,0-4.44,1.75-4.44,4.85s2,4.92,4.44,4.92,4.46-1.8,4.46-4.9S91.51,98.4,89.11,98.4Z"/><path class="a9773d7b-5ad9-45b8-acf3-a6cf45eae2e5" d="M105.06,110.08c-3.74,0-6.5-2.63-6.5-6.81s2.66-6.76,6.5-6.76a6,6,0,0,1,6.31,6.28c0,.48,0,.87-.07,1.32H100.79a4.14,4.14,0,0,0,4.27,4.13,3.6,3.6,0,0,0,3.69-2.43h2.35A5.9,5.9,0,0,1,105.06,110.08Zm-4.25-7.74h8.3a3.86,3.86,0,0,0-4.15-4A4.08,4.08,0,0,0,100.81,102.34Z"/><path class="a9773d7b-5ad9-45b8-acf3-a6cf45eae2e5" d="M134.73,101.55c0,5.18-3.38,8.32-8.87,8.32h-5.21V93.15h5.21C131.35,93.15,134.73,96.36,134.73,101.55Zm-8.87,6.52c4.36,0,6.64-2.45,6.64-6.52s-2.28-6.63-6.64-6.63h-3v13.15Z"/><path class="a9773d7b-5ad9-45b8-acf3-a6cf45eae2e5" d="M143.07,96.51A5.47,5.47,0,0,1,148,99.12v-2.4h2.21v13.15H148v-2.45a5.47,5.47,0,0,1-4.92,2.66c-3.5,0-6.21-2.75-6.21-6.83S139.54,96.51,143.07,96.51Zm.43,1.89c-2.4,0-4.44,1.75-4.44,4.85s2,4.92,4.44,4.92,4.46-1.8,4.46-4.9S145.9,98.4,143.5,98.4Z"/><path class="a9773d7b-5ad9-45b8-acf3-a6cf45eae2e5" d="M154.16,98.52h-1.7v-1.8h1.7V93.41h2.18v3.31h3.43v1.8h-3.43v7.75c0,1.3.48,1.75,1.83,1.75h1.6v1.85h-2c-2.33,0-3.65-1-3.65-3.6Z"/><path class="a9773d7b-5ad9-45b8-acf3-a6cf45eae2e5" d="M167.43,110.08c-3.72,0-6.55-2.63-6.55-6.81a6.65,6.65,0,1,1,13.29,0A6.51,6.51,0,0,1,167.43,110.08Zm0-1.91c2.28,0,4.51-1.56,4.51-4.9s-2.18-4.87-4.44-4.87-4.39,1.56-4.39,4.87S165.15,108.17,167.43,108.17Z"/><path class="a9773d7b-5ad9-45b8-acf3-a6cf45eae2e5" d="M181.5,110.08c-3.07,0-5.23-1.67-5.37-4.07h2.25c.12,1.27,1.25,2.23,3.09,2.23s2.69-.87,2.69-1.95c0-2.92-7.77-1.22-7.77-6.11,0-2,1.9-3.67,4.82-3.67s4.82,1.56,5,4.12H184c-.09-1.32-1.1-2.28-2.85-2.28s-2.57.77-2.57,1.83c0,3.12,7.63,1.41,7.73,6.11C186.3,108.45,184.4,110.08,181.5,110.08Z"/><path class="a9773d7b-5ad9-45b8-acf3-a6cf45eae2e5" d="M203.3,92.93A7.87,7.87,0,0,1,211.05,98h-2.61a5.26,5.26,0,0,0-5.14-3.15c-3.5,0-6.11,2.55-6.11,6.65s2.61,6.62,6.11,6.62a5.28,5.28,0,0,0,5.14-3.12h2.61a7.86,7.86,0,0,1-7.75,5,8.54,8.54,0,0,1,0-17.08Z"/><path class="a9773d7b-5ad9-45b8-acf3-a6cf45eae2e5" d="M213.84,93.15H216v10.58c0,3.07,1.66,4.39,4.13,4.39s4.1-1.32,4.1-4.39V93.15h2.18V103.7c0,4.35-2.85,6.34-6.31,6.34s-6.28-2-6.28-6.34Z"/><path class="a9773d7b-5ad9-45b8-acf3-a6cf45eae2e5" d="M239,106.15h-7.3l-1.34,3.72h-2.3l6-16.62h2.52l6,16.62h-2.3Zm-3.65-10.22-3,8.45h6Z"/><path class="a9773d7b-5ad9-45b8-acf3-a6cf45eae2e5" d="M258.06,93.13v16.74h-2.18L247.1,96.56v13.31h-2.19V93.13h2.19l8.78,13.28V93.13Z"/><path class="a9773d7b-5ad9-45b8-acf3-a6cf45eae2e5" d="M260.32,93.15h11.32v1.77h-4.55v15H264.9v-15h-4.58Z"/><path class="a9773d7b-5ad9-45b8-acf3-a6cf45eae2e5" d="M273.89,93.15h2.19v16.72h-2.19Z"/><path class="a9773d7b-5ad9-45b8-acf3-a6cf45eae2e5" d="M278.31,93.15h11.32v1.77h-4.56v15h-2.18v-15h-4.58Z"/><path class="a9773d7b-5ad9-45b8-acf3-a6cf45eae2e5" d="M300,106.15h-7.29l-1.34,3.72H289l6-16.62h2.52l6,16.62h-2.3Zm-3.64-10.22-3,8.45h6Z"/><path class="a9773d7b-5ad9-45b8-acf3-a6cf45eae2e5" d="M303,93.15h11.33v1.77h-4.56v15h-2.18v-15H303Z"/><path class="a9773d7b-5ad9-45b8-acf3-a6cf45eae2e5" d="M316.57,93.15h2.18v16.72h-2.18Z"/><path class="a9773d7b-5ad9-45b8-acf3-a6cf45eae2e5" d="M333.67,93.15H336l-6.31,16.72h-2.51l-6.31-16.72h2.32l5.26,14.42Z"/><path class="a9773d7b-5ad9-45b8-acf3-a6cf45eae2e5" d="M345,110a8.54,8.54,0,1,1,8.4-8.54A8.25,8.25,0,0,1,345,110Zm0-1.9c3.53,0,6.17-2.56,6.17-6.64s-2.64-6.65-6.17-6.65-6.16,2.55-6.16,6.65S341.44,108.14,345,108.14Z"/><path class="a9773d7b-5ad9-45b8-acf3-a6cf45eae2e5" d="M361.2,110c-3.36,0-5.73-1.87-5.78-4.63h2.33c.14,1.39,1.12,2.78,3.45,2.78,2.11,0,3.36-1.2,3.36-2.78,0-4.51-9-1.63-9-7.85,0-2.76,2.23-4.63,5.54-4.63s5.27,1.76,5.54,4.3h-2.4A3,3,0,0,0,361,94.8c-1.8,0-3.21.89-3.21,2.69,0,4.32,9,1.63,9,7.82C366.77,107.69,364.82,110,361.2,110Z"/><rect class="e5433659-2926-463d-861e-8a75d6d0dfbd" x="61.37" y="150.98" width="325.34" height="117.11" rx="24.38"/><path class="a9773d7b-5ad9-45b8-acf3-a6cf45eae2e5" d="M102.32,180.28c3.94,0,5.81,2.18,5.81,4.92a4.71,4.71,0,0,1-4,4.79l4.2,7h-2.61l-4-6.84H99.11V197H96.92V180.28Zm0,1.8H99.11v6.33h3.21c2.47,0,3.55-1.34,3.55-3.21S104.82,182.08,102.32,182.08Z"/><path class="a9773d7b-5ad9-45b8-acf3-a6cf45eae2e5" d="M116.66,197.21c-3.75,0-6.5-2.63-6.5-6.81s2.66-6.76,6.5-6.76a6,6,0,0,1,6.31,6.28,11.28,11.28,0,0,1-.08,1.32h-10.5a4.13,4.13,0,0,0,4.27,4.13,3.61,3.61,0,0,0,3.69-2.43h2.35A5.9,5.9,0,0,1,116.66,197.21Zm-4.25-7.74h8.3a3.87,3.87,0,0,0-4.15-4A4.08,4.08,0,0,0,112.41,189.47Z"/><path class="a9773d7b-5ad9-45b8-acf3-a6cf45eae2e5" d="M131.4,183.64c3.27,0,5.4,1.68,6.07,4.44h-2.35a3.57,3.57,0,0,0-3.72-2.6c-2.4,0-4.17,1.71-4.17,4.92s1.77,5,4.17,5a3.53,3.53,0,0,0,3.72-2.59h2.35a5.84,5.84,0,0,1-6.07,4.43c-3.74,0-6.4-2.63-6.4-6.81S127.66,183.64,131.4,183.64Z"/><path class="a9773d7b-5ad9-45b8-acf3-a6cf45eae2e5" d="M145.87,197.21c-3.72,0-6.55-2.63-6.55-6.81a6.65,6.65,0,1,1,13.29,0A6.51,6.51,0,0,1,145.87,197.21Zm0-1.92c2.28,0,4.51-1.55,4.51-4.89s-2.18-4.87-4.44-4.87-4.39,1.56-4.39,4.87S143.59,195.29,145.87,195.29Z"/><path class="a9773d7b-5ad9-45b8-acf3-a6cf45eae2e5" d="M155.38,179.25h2.18V197h-2.18Z"/><path class="a9773d7b-5ad9-45b8-acf3-a6cf45eae2e5" d="M166.85,197.21c-3.74,0-6.5-2.63-6.5-6.81s2.66-6.76,6.5-6.76a6,6,0,0,1,6.31,6.28,11.31,11.31,0,0,1-.07,1.32H162.58a4.14,4.14,0,0,0,4.27,4.13,3.62,3.62,0,0,0,3.7-2.43h2.35A5.92,5.92,0,0,1,166.85,197.21Zm-4.24-7.74h8.3a3.87,3.87,0,0,0-4.15-4A4.07,4.07,0,0,0,162.61,189.47Z"/><path class="a9773d7b-5ad9-45b8-acf3-a6cf45eae2e5" d="M181.6,183.64c3.26,0,5.4,1.68,6.07,4.44h-2.35a3.59,3.59,0,0,0-3.72-2.6c-2.4,0-4.18,1.71-4.18,4.92s1.78,5,4.18,5a3.54,3.54,0,0,0,3.72-2.59h2.35a5.85,5.85,0,0,1-6.07,4.43c-3.74,0-6.41-2.63-6.41-6.81S177.86,183.64,181.6,183.64Z"/><path class="a9773d7b-5ad9-45b8-acf3-a6cf45eae2e5" d="M195.93,183.64c3.27,0,5.4,1.68,6.07,4.44h-2.35a3.57,3.57,0,0,0-3.72-2.6c-2.39,0-4.17,1.71-4.17,4.92s1.78,5,4.17,5a3.53,3.53,0,0,0,3.72-2.59H202a5.84,5.84,0,0,1-6.07,4.43c-3.74,0-6.4-2.63-6.4-6.81S192.19,183.64,195.93,183.64Z"/><path class="a9773d7b-5ad9-45b8-acf3-a6cf45eae2e5" d="M204.32,180.23a1.47,1.47,0,1,1,1.49,1.49A1.47,1.47,0,0,1,204.32,180.23Zm.36,3.62h2.18V197h-2.18Z"/><path class="a9773d7b-5ad9-45b8-acf3-a6cf45eae2e5" d="M216.13,197.21c-3.72,0-6.55-2.63-6.55-6.81a6.65,6.65,0,1,1,13.29,0A6.51,6.51,0,0,1,216.13,197.21Zm0-1.92c2.27,0,4.5-1.55,4.5-4.89s-2.18-4.87-4.43-4.87-4.39,1.56-4.39,4.87S213.85,195.29,216.13,195.29Zm2.44-17.22V180l-5.11,2.73v-1.63Z"/><path class="a9773d7b-5ad9-45b8-acf3-a6cf45eae2e5" d="M235.27,189.56c0-2.68-1.47-4.05-3.67-4.05s-3.77,1.39-3.77,4.22V197h-2.18V183.85h2.18v1.87a4.88,4.88,0,0,1,4.22-2.11c3,0,5.38,1.87,5.38,5.64V197h-2.16Z"/><path class="a9773d7b-5ad9-45b8-acf3-a6cf45eae2e5" d="M256.47,183.85h2.26l-7.92,19.34h-2.25l2.59-6.34-5.3-13h2.42l4.12,10.65Z"/><path class="a9773d7b-5ad9-45b8-acf3-a6cf45eae2e5" d="M277.2,193.28h-7.3L268.56,197h-2.3l6-16.63h2.52l6,16.63h-2.3Zm-3.65-10.22-3,8.44h6Z"/><path class="a9773d7b-5ad9-45b8-acf3-a6cf45eae2e5" d="M292.71,189.56c0-2.68-1.46-4.05-3.67-4.05s-3.77,1.39-3.77,4.22V197h-2.18V183.85h2.18v1.87a4.88,4.88,0,0,1,4.22-2.11c3.05,0,5.38,1.87,5.38,5.64V197h-2.16Z"/><path class="a9773d7b-5ad9-45b8-acf3-a6cf45eae2e5" d="M303.74,183.64a5.43,5.43,0,0,1,4.89,2.61v-2.4h2.21V197h-2.21v-2.45a5.47,5.47,0,0,1-4.91,2.66c-3.5,0-6.21-2.75-6.21-6.83S300.22,183.64,303.74,183.64Zm.43,1.89c-2.39,0-4.43,1.75-4.43,4.85s2,4.91,4.43,4.91,4.46-1.79,4.46-4.89S306.57,185.53,304.17,185.53Zm2.76-7.29v1.9l-5.11,2.73v-1.63Z"/><path class="a9773d7b-5ad9-45b8-acf3-a6cf45eae2e5" d="M314.38,179.25h2.18V197h-2.18Z"/><path class="a9773d7b-5ad9-45b8-acf3-a6cf45eae2e5" d="M319.74,180.23a1.46,1.46,0,1,1,1.48,1.49A1.46,1.46,0,0,1,319.74,180.23Zm.36,3.62h2.18V197H320.1Z"/><path class="a9773d7b-5ad9-45b8-acf3-a6cf45eae2e5" d="M330.41,197.21c-3.07,0-5.22-1.68-5.37-4.07h2.26c.12,1.27,1.25,2.23,3.09,2.23s2.69-.87,2.69-2c0-2.92-7.77-1.22-7.77-6.11,0-2,1.89-3.67,4.82-3.67s4.82,1.56,5,4.12h-2.18c-.1-1.32-1.1-2.28-2.86-2.28-1.6,0-2.56.77-2.56,1.83,0,3.12,7.63,1.41,7.72,6.11C335.21,195.58,333.32,197.21,330.41,197.21Z"/><path class="a9773d7b-5ad9-45b8-acf3-a6cf45eae2e5" d="M337.77,180.23a1.46,1.46,0,1,1,1.48,1.49A1.46,1.46,0,0,1,337.77,180.23Zm.36,3.62h2.18V197h-2.18Z"/><path class="a9773d7b-5ad9-45b8-acf3-a6cf45eae2e5" d="M348.45,197.21c-3.07,0-5.23-1.68-5.38-4.07h2.26c.12,1.27,1.25,2.23,3.09,2.23s2.69-.87,2.69-2c0-2.92-7.77-1.22-7.77-6.11,0-2,1.89-3.67,4.82-3.67s4.82,1.56,5,4.12h-2.18c-.09-1.32-1.1-2.28-2.85-2.28s-2.57.77-2.57,1.83c0,3.12,7.63,1.41,7.72,6.11C353.24,195.58,351.35,197.21,348.45,197.21Z"/><path class="a9773d7b-5ad9-45b8-acf3-a6cf45eae2e5" d="M106.13,219.62a5.72,5.72,0,0,1,4.87,2.57v-7h2.21V233H111v-2.47a5.39,5.39,0,0,1-4.89,2.68c-3.53,0-6.24-2.75-6.24-6.83S102.58,219.62,106.13,219.62Zm.41,1.89c-2.4,0-4.44,1.75-4.44,4.85s2,4.92,4.44,4.92,4.46-1.8,4.46-4.9S108.94,221.51,106.54,221.51Z"/><path class="a9773d7b-5ad9-45b8-acf3-a6cf45eae2e5" d="M122.49,233.19c-3.74,0-6.5-2.63-6.5-6.81s2.66-6.76,6.5-6.76a6,6,0,0,1,6.31,6.28c0,.48,0,.87-.07,1.32H118.22a4.14,4.14,0,0,0,4.27,4.13,3.61,3.61,0,0,0,3.69-2.42h2.35A5.91,5.91,0,0,1,122.49,233.19Zm-4.25-7.74h8.3a3.85,3.85,0,0,0-4.15-4A4.07,4.07,0,0,0,118.24,225.45Z"/><path class="a9773d7b-5ad9-45b8-acf3-a6cf45eae2e5" d="M152.16,224.66c0,5.18-3.38,8.32-8.87,8.32h-5.21V216.26h5.21C148.78,216.26,152.16,219.47,152.16,224.66Zm-8.87,6.52c4.36,0,6.64-2.45,6.64-6.52s-2.28-6.62-6.64-6.62h-3v13.14Z"/><path class="a9773d7b-5ad9-45b8-acf3-a6cf45eae2e5" d="M160.5,219.62a5.47,5.47,0,0,1,4.89,2.61v-2.4h2.21V233h-2.21v-2.45a5.47,5.47,0,0,1-4.92,2.66c-3.5,0-6.21-2.75-6.21-6.83S157,219.62,160.5,219.62Zm.43,1.89c-2.4,0-4.44,1.75-4.44,4.85s2,4.92,4.44,4.92,4.46-1.8,4.46-4.9S163.33,221.51,160.93,221.51Z"/><path class="a9773d7b-5ad9-45b8-acf3-a6cf45eae2e5" d="M171.59,221.63h-1.7v-1.8h1.7v-3.31h2.18v3.31h3.43v1.8h-3.43v7.75c0,1.3.48,1.75,1.83,1.75h1.6V233h-2c-2.33,0-3.65-1-3.65-3.6Z"/><path class="a9773d7b-5ad9-45b8-acf3-a6cf45eae2e5" d="M184.86,233.19c-3.72,0-6.55-2.63-6.55-6.81a6.65,6.65,0,1,1,13.29,0A6.51,6.51,0,0,1,184.86,233.19Zm0-1.91c2.28,0,4.51-1.56,4.51-4.9s-2.18-4.87-4.44-4.87-4.39,1.56-4.39,4.87S182.58,231.28,184.86,231.28Z"/><path class="a9773d7b-5ad9-45b8-acf3-a6cf45eae2e5" d="M198.93,233.19c-3.07,0-5.23-1.67-5.38-4.07h2.26c.12,1.27,1.25,2.23,3.09,2.23s2.69-.87,2.69-1.95c0-2.92-7.77-1.22-7.77-6.11,0-2,1.9-3.67,4.82-3.67s4.82,1.56,5,4.12h-2.19c-.09-1.32-1.1-2.27-2.85-2.27s-2.57.76-2.57,1.82c0,3.12,7.63,1.41,7.73,6.11C203.73,231.56,201.83,233.19,198.93,233.19Z"/><path class="a9773d7b-5ad9-45b8-acf3-a6cf45eae2e5" d="M220.73,216a7.87,7.87,0,0,1,7.75,5.07h-2.61a5.26,5.26,0,0,0-5.14-3.15c-3.5,0-6.11,2.55-6.11,6.65s2.61,6.62,6.11,6.62a5.28,5.28,0,0,0,5.14-3.12h2.61a7.86,7.86,0,0,1-7.75,5,8.54,8.54,0,0,1,0-17.08Z"/><path class="a9773d7b-5ad9-45b8-acf3-a6cf45eae2e5" d="M242.94,233h-2.18V231a4.85,4.85,0,0,1-4.2,2.13c-3,0-5.39-1.87-5.39-5.64v-7.7h2.15v7.42c0,2.66,1.47,4,3.67,4s3.77-1.4,3.77-4.23v-7.22h2.18Z"/><path class="a9773d7b-5ad9-45b8-acf3-a6cf45eae2e5" d="M252,219.62a5.45,5.45,0,0,1,4.89,2.61v-2.4h2.21V233h-2.21v-2.45a5.47,5.47,0,0,1-4.91,2.66c-3.5,0-6.21-2.75-6.21-6.83S248.43,219.62,252,219.62Zm.43,1.89c-2.4,0-4.43,1.75-4.43,4.85s2,4.92,4.43,4.92,4.46-1.8,4.46-4.9S254.78,221.51,252.38,221.51Z"/><path class="a9773d7b-5ad9-45b8-acf3-a6cf45eae2e5" d="M262.59,215.23h2.18V233h-2.18Z"/><path class="a9773d7b-5ad9-45b8-acf3-a6cf45eae2e5" d="M268,216.21a1.46,1.46,0,1,1,1.48,1.49A1.45,1.45,0,0,1,268,216.21Zm.35,3.62h2.19V233H268.3Z"/><path class="a9773d7b-5ad9-45b8-acf3-a6cf45eae2e5" d="M274.4,221.63h-1.7v-1.8h1.7v-3.31h2.19v3.31H280v1.8h-3.43v7.75c0,1.3.48,1.75,1.82,1.75H280V233h-2c-2.33,0-3.65-1-3.65-3.6Z"/><path class="a9773d7b-5ad9-45b8-acf3-a6cf45eae2e5" d="M287.41,219.62a5.45,5.45,0,0,1,4.89,2.61v-2.4h2.21V233H292.3v-2.45a5.47,5.47,0,0,1-4.91,2.66c-3.5,0-6.21-2.75-6.21-6.83S283.89,219.62,287.41,219.62Zm.43,1.89c-2.39,0-4.43,1.75-4.43,4.85s2,4.92,4.43,4.92,4.46-1.8,4.46-4.9S290.24,221.51,287.84,221.51Z"/><path class="a9773d7b-5ad9-45b8-acf3-a6cf45eae2e5" d="M298.51,221.63H296.8v-1.8h1.71v-3.31h2.18v3.31h3.43v1.8h-3.43v7.75c0,1.3.48,1.75,1.82,1.75h1.61V233h-2c-2.33,0-3.64-1-3.64-3.6Z"/><path class="a9773d7b-5ad9-45b8-acf3-a6cf45eae2e5" d="M306,216.21a1.47,1.47,0,1,1,1.49,1.49A1.46,1.46,0,0,1,306,216.21Zm.36,3.62h2.18V233h-2.18Z"/><path class="a9773d7b-5ad9-45b8-acf3-a6cf45eae2e5" d="M312.87,219.83,317,231l4.08-11.13h2.32L318.21,233h-2.54l-5.16-13.15Z"/><path class="a9773d7b-5ad9-45b8-acf3-a6cf45eae2e5" d="M330.62,233.19c-3.72,0-6.55-2.63-6.55-6.81a6.65,6.65,0,1,1,13.29,0A6.51,6.51,0,0,1,330.62,233.19Zm0-1.91c2.27,0,4.51-1.56,4.51-4.9s-2.19-4.87-4.44-4.87-4.39,1.56-4.39,4.87S328.34,231.28,330.62,231.28Z"/><path class="a9773d7b-5ad9-45b8-acf3-a6cf45eae2e5" d="M344.68,233.19c-3.07,0-5.22-1.67-5.37-4.07h2.25c.13,1.27,1.25,2.23,3.1,2.23s2.69-.87,2.69-1.95c0-2.92-7.78-1.22-7.78-6.11,0-2,1.9-3.67,4.83-3.67s4.82,1.56,5,4.12h-2.18c-.1-1.32-1.11-2.27-2.86-2.27-1.6,0-2.56.76-2.56,1.82,0,3.12,7.62,1.41,7.72,6.11C349.48,231.56,347.59,233.19,344.68,233.19Z"/><path class="a9773d7b-5ad9-45b8-acf3-a6cf45eae2e5" d="M766.77,137.55H769v16.72h-2.18Z"/><path class="a9773d7b-5ad9-45b8-acf3-a6cf45eae2e5" d="M782.2,146.83c0-2.68-1.46-4.05-3.67-4.05s-3.76,1.39-3.76,4.22v7.27h-2.19V141.13h2.19V143a4.85,4.85,0,0,1,4.22-2.11c3,0,5.37,1.87,5.37,5.63v7.75H782.2Z"/><path class="a9773d7b-5ad9-45b8-acf3-a6cf45eae2e5" d="M788.05,142.92h-1.7v-1.79h1.7v-3.31h2.18v3.31h3.43v1.79h-3.43v7.75c0,1.3.48,1.75,1.82,1.75h1.61v1.85h-2c-2.33,0-3.65-1-3.65-3.6Z"/><path class="a9773d7b-5ad9-45b8-acf3-a6cf45eae2e5" d="M801.32,154.49c-3.74,0-6.5-2.64-6.5-6.82s2.66-6.76,6.5-6.76a6,6,0,0,1,6.31,6.28,11.31,11.31,0,0,1-.07,1.32H797.05a4.13,4.13,0,0,0,4.27,4.13,3.62,3.62,0,0,0,3.7-2.42h2.35A5.92,5.92,0,0,1,801.32,154.49Zm-4.24-7.75h8.3a3.86,3.86,0,0,0-4.16-4A4.06,4.06,0,0,0,797.08,146.74Z"/><path class="a9773d7b-5ad9-45b8-acf3-a6cf45eae2e5" d="M812.6,154.27h-2.19V141.13h2.19v2.13a4.41,4.41,0,0,1,4.24-2.37v2.25h-.57c-2.09,0-3.67.94-3.67,4Z"/><path class="a9773d7b-5ad9-45b8-acf3-a6cf45eae2e5" d="M826.11,140.91c3.53,0,6.24,2.64,6.24,6.74s-2.71,6.84-6.24,6.84a5.7,5.7,0,0,1-4.92-2.64v8.66H819V141.13h2.18v2.42A5.57,5.57,0,0,1,826.11,140.91Zm-.45,1.89a4.52,4.52,0,0,0-4.47,4.87c0,3.1,2.09,4.9,4.47,4.9s4.46-1.83,4.46-4.92S828.08,142.8,825.66,142.8Z"/><path class="a9773d7b-5ad9-45b8-acf3-a6cf45eae2e5" d="M837.31,154.27h-2.18V141.13h2.18v2.13a4.44,4.44,0,0,1,4.25-2.37v2.25H841c-2.08,0-3.67.94-3.67,4Z"/><path class="a9773d7b-5ad9-45b8-acf3-a6cf45eae2e5" d="M849.25,154.49c-3.75,0-6.51-2.64-6.51-6.82s2.67-6.76,6.51-6.76a6,6,0,0,1,6.3,6.28,11.31,11.31,0,0,1-.07,1.32H845a4.14,4.14,0,0,0,4.28,4.13,3.62,3.62,0,0,0,3.69-2.42h2.35A5.9,5.9,0,0,1,849.25,154.49ZM845,146.74h8.3a3.86,3.86,0,0,0-4.15-4A4.06,4.06,0,0,0,845,146.74Z"/><path class="a9773d7b-5ad9-45b8-acf3-a6cf45eae2e5" d="M858.54,142.92h-1.7v-1.79h1.7v-3.31h2.18v3.31h3.43v1.79h-3.43v7.75c0,1.3.48,1.75,1.83,1.75h1.6v1.85h-2c-2.33,0-3.65-1-3.65-3.6Z"/><path class="a9773d7b-5ad9-45b8-acf3-a6cf45eae2e5" d="M871.55,140.91a5.47,5.47,0,0,1,4.89,2.61v-2.39h2.21v13.14h-2.21v-2.45a5.48,5.48,0,0,1-4.92,2.67c-3.5,0-6.21-2.76-6.21-6.84S868,140.91,871.55,140.91Zm.43,1.89c-2.4,0-4.44,1.76-4.44,4.85s2,4.92,4.44,4.92,4.46-1.8,4.46-4.9S874.38,142.8,872,142.8Z"/><path class="a9773d7b-5ad9-45b8-acf3-a6cf45eae2e5" d="M887.83,140.91c3.27,0,5.4,1.68,6.07,4.44h-2.35a3.57,3.57,0,0,0-3.72-2.59c-2.39,0-4.17,1.7-4.17,4.91s1.78,5,4.17,5a3.53,3.53,0,0,0,3.72-2.59h2.35a5.85,5.85,0,0,1-6.07,4.44c-3.74,0-6.4-2.64-6.4-6.82S884.09,140.91,887.83,140.91Z"/><path class="a9773d7b-5ad9-45b8-acf3-a6cf45eae2e5" d="M896.22,137.5A1.46,1.46,0,1,1,897.7,139,1.45,1.45,0,0,1,896.22,137.5Zm.36,3.63h2.18v13.14h-2.18Z"/><path class="a9773d7b-5ad9-45b8-acf3-a6cf45eae2e5" d="M908,154.49c-3.72,0-6.55-2.64-6.55-6.82a6.65,6.65,0,1,1,13.29,0A6.52,6.52,0,0,1,908,154.49Zm0-1.92c2.28,0,4.51-1.56,4.51-4.9s-2.18-4.87-4.44-4.87-4.38,1.56-4.38,4.87S905.74,152.57,908,152.57Zm2.45-17.23v1.9L905.36,140v-1.63Z"/><path class="a9773d7b-5ad9-45b8-acf3-a6cf45eae2e5" d="M927.16,146.83c0-2.68-1.46-4.05-3.67-4.05s-3.76,1.39-3.76,4.22v7.27h-2.18V141.13h2.18V143a4.85,4.85,0,0,1,4.22-2.11c3,0,5.37,1.87,5.37,5.63v7.75h-2.16Z"/><ellipse class="f936e2c5-f762-444e-810d-47ad3195f1b5" cx="847.09" cy="150.98" rx="134.16" ry="71.33"/><polygon class="a2ccd2ab-78c2-4b49-8124-37a521f5a3d8" points="710.81 150.98 697.75 143.43 697.75 158.52 710.81 150.98"/></svg>