<svg xmlns="http://www.w3.org/2000/svg" viewBox="0 0 480.48 371.49"><defs><style>.a,.al,.b{fill:none;stroke-width:1.87px;}.a{stroke:#b3b3b3;}.a,.al{stroke-linecap:round;stroke-linejoin:round;}.al,.b{stroke:#e7514f;}.b{stroke-miterlimit:10;}.c{font-size:11.23px;fill:#272b31;font-family:Poppins-Regular, Poppins;}.d{letter-spacing:-0.01em;}.e{letter-spacing:0.01em;}.f{letter-spacing:0em;}.g{letter-spacing:0em;}.h{letter-spacing:0em;}.i{letter-spacing:0em;}.j{letter-spacing:0em;}.k{letter-spacing:-0.01em;}.l{letter-spacing:0em;}.m{letter-spacing:0em;}.n{letter-spacing:0.01em;}.o{letter-spacing:0em;}.p{letter-spacing:-0.02em;}.q{letter-spacing:0em;}.r{letter-spacing:-0.01em;}.s{letter-spacing:0em;}.t{letter-spacing:-0.02em;}.u{letter-spacing:-0.01em;}.v{letter-spacing:-0.02em;}.w{letter-spacing:-0.04em;}.x{letter-spacing:-0.06em;}.y{letter-spacing:-0.01em;}.z{letter-spacing:0em;}.aa{letter-spacing:0em;}.ab{letter-spacing:-0.01em;}.ac{letter-spacing:0em;}.ad{letter-spacing:-0.01em;}.ae{letter-spacing:-0.01em;}.af{letter-spacing:-0.01em;}.ag{letter-spacing:0em;}.ah{letter-spacing:0em;}.ai{letter-spacing:-0.01em;}.aj{letter-spacing:0em;}.ak{letter-spacing:0em;}.am{letter-spacing:0em;}.an{letter-spacing:-0.01em;}.ao{letter-spacing:-0.01em;}.ap{letter-spacing:-0.02em;}.aq{letter-spacing:0em;}.ar{fill:#b3b3b3;}</style></defs><path class="a" d="M166.85,151.42h73.74a12.5,12.5,0,0,0,12.5-12.5"/><path class="a" d="M166.85,54.53h73.74a12.51,12.51,0,0,1,12.08,9.28"/><rect class="b" x="14.47" y="36.61" width="152.38" height="54.85" rx="11.42"/><text class="c" transform="translate(29.59 58.17)"><tspan class="d">R</tspan><tspan class="e" x="6.66" y="0">e</tspan><tspan class="f" x="13.69" y="0">c</tspan><tspan class="g" x="20.48" y="0">ol</tspan><tspan class="e" x="30.49" y="0">e</tspan><tspan class="h" x="37.52" y="0">cc</tspan><tspan class="i" x="51.11" y="0">i</tspan><tspan class="j" x="53.86" y="0">ó</tspan><tspan x="61.09" y="0">n y </tspan><tspan class="k" x="80.6" y="0">A</tspan><tspan class="l" x="88.07" y="0">n</tspan><tspan x="95.28" y="0">á</tspan><tspan class="m" x="102.88" y="0">l</tspan><tspan class="f" x="105.63" y="0">i</tspan><tspan x="108.37" y="0">s</tspan><tspan class="f" x="114.23" y="0">i</tspan><tspan x="116.97" y="0">s</tspan><tspan class="j" x="1.79" y="16.85">d</tspan><tspan x="9.42" y="16.85">e </tspan><tspan class="n" x="19.38" y="16.85">D</tspan><tspan class="o" x="27.42" y="16.85">a</tspan><tspan class="p" x="35" y="16.85">t</tspan><tspan class="q" x="38.85" y="16.85">o</tspan><tspan x="46.02" y="16.85">s </tspan><tspan class="r" x="54.88" y="16.85">C</tspan><tspan class="g" x="63.44" y="16.85">u</tspan><tspan x="70.66" y="16.85">a</tspan><tspan class="m" x="78.25" y="16.85">l</tspan><tspan class="s" x="81.01" y="16.85">i</tspan><tspan class="t" x="83.72" y="16.85">t</tspan><tspan class="o" x="87.58" y="16.85">a</tspan><tspan class="u" x="95.17" y="16.85">t</tspan><tspan x="99.15" y="16.85">i</tspan><tspan class="v" x="101.92" y="16.85">v</tspan><tspan class="q" x="108" y="16.85">o</tspan><tspan x="115.18" y="16.85">s</tspan></text><line class="a" x1="215.09" y1="270.62" x2="332.85" y2="270.62"/><rect class="b" x="14.47" y="212.96" width="200.61" height="126.15" rx="19.87"/><text class="c" transform="translate(49.31 234.51)"><tspan class="d">R</tspan><tspan class="e" x="6.66" y="0">e</tspan><tspan class="f" x="13.69" y="0">c</tspan><tspan class="g" x="20.48" y="0">ol</tspan><tspan class="e" x="30.49" y="0">e</tspan><tspan class="h" x="37.52" y="0">cc</tspan><tspan class="i" x="51.11" y="0">i</tspan><tspan class="j" x="53.86" y="0">ó</tspan><tspan x="61.09" y="0">n y </tspan><tspan class="k" x="80.6" y="0">A</tspan><tspan class="l" x="88.07" y="0">n</tspan><tspan x="95.28" y="0">á</tspan><tspan class="m" x="102.88" y="0">l</tspan><tspan class="f" x="105.63" y="0">i</tspan><tspan x="108.37" y="0">s</tspan><tspan class="f" x="114.23" y="0">i</tspan><tspan x="116.97" y="0">s</tspan><tspan class="j" x="-0.3" y="16.85">d</tspan><tspan x="7.33" y="16.85">e </tspan><tspan class="n" x="17.29" y="16.85">D</tspan><tspan class="o" x="25.33" y="16.85">a</tspan><tspan class="p" x="32.92" y="16.85">t</tspan><tspan class="q" x="36.76" y="16.85">o</tspan><tspan x="43.94" y="16.85">s </tspan><tspan class="r" x="52.8" y="16.85">C</tspan><tspan class="g" x="61.35" y="16.85">u</tspan><tspan x="68.57" y="16.85">a</tspan><tspan class="m" x="76.16" y="16.85">l</tspan><tspan class="w" x="78.92" y="16.85">i</tspan><tspan class="x" x="81.24" y="16.85">/</tspan><tspan class="y" x="85.91" y="16.85">C</tspan><tspan class="z" x="94.47" y="16.85">u</tspan><tspan class="aa" x="101.68" y="16.85">a</tspan><tspan class="ab" x="109.28" y="16.85">n</tspan><tspan class="u" x="116.38" y="16.85">t</tspan><tspan x="120.36" y="16.85">i</tspan></text><rect class="b" x="34.19" y="270.62" width="152.38" height="54.85" rx="11.42"/><text class="c" transform="translate(49.31 292.17)"><tspan class="d">R</tspan><tspan class="e" x="6.66" y="0">e</tspan><tspan class="f" x="13.69" y="0">c</tspan><tspan class="g" x="20.48" y="0">ol</tspan><tspan class="e" x="30.49" y="0">e</tspan><tspan class="h" x="37.52" y="0">cc</tspan><tspan class="i" x="51.11" y="0">i</tspan><tspan class="j" x="53.86" y="0">ó</tspan><tspan x="61.09" y="0">n y </tspan><tspan class="k" x="80.6" y="0">A</tspan><tspan class="l" x="88.07" y="0">n</tspan><tspan x="95.28" y="0">á</tspan><tspan class="m" x="102.88" y="0">l</tspan><tspan class="f" x="105.63" y="0">i</tspan><tspan x="108.37" y="0">s</tspan><tspan class="f" x="114.23" y="0">i</tspan><tspan x="116.97" y="0">s</tspan><tspan class="j" x="-0.3" y="16.85">d</tspan><tspan x="7.33" y="16.85">e </tspan><tspan class="n" x="17.29" y="16.85">D</tspan><tspan class="o" x="25.33" y="16.85">a</tspan><tspan class="p" x="32.92" y="16.85">t</tspan><tspan class="q" x="36.76" y="16.85">o</tspan><tspan x="43.93" y="16.85">s </tspan><tspan class="r" x="52.8" y="16.85">C</tspan><tspan class="g" x="61.35" y="16.85">u</tspan><tspan x="68.57" y="16.85">a</tspan><tspan class="m" x="76.16" y="16.85">l</tspan><tspan class="w" x="78.92" y="16.85">i</tspan><tspan class="x" x="81.24" y="16.85">/</tspan><tspan class="y" x="85.91" y="16.85">C</tspan><tspan class="z" x="94.47" y="16.85">u</tspan><tspan class="aa" x="101.68" y="16.85">a</tspan><tspan class="ab" x="109.28" y="16.85">n</tspan><tspan class="u" x="116.38" y="16.85">t</tspan><tspan x="120.36" y="16.85">i</tspan></text><rect class="b" x="14.47" y="110.96" width="152.38" height="54.85" rx="11.42"/><text class="c" transform="translate(29.59 132.51)"><tspan class="d">R</tspan><tspan class="e" x="6.66" y="0">e</tspan><tspan class="f" x="13.69" y="0">c</tspan><tspan class="g" x="20.48" y="0">ol</tspan><tspan class="e" x="30.49" y="0">e</tspan><tspan class="h" x="37.52" y="0">cc</tspan><tspan class="i" x="51.11" y="0">i</tspan><tspan class="j" x="53.86" y="0">ó</tspan><tspan x="61.09" y="0">n y </tspan><tspan class="k" x="80.6" y="0">A</tspan><tspan class="l" x="88.07" y="0">n</tspan><tspan x="95.28" y="0">á</tspan><tspan class="m" x="102.88" y="0">l</tspan><tspan class="f" x="105.63" y="0">i</tspan><tspan x="108.37" y="0">s</tspan><tspan class="f" x="114.23" y="0">i</tspan><tspan x="116.97" y="0">s</tspan><tspan class="j" x="-2.38" y="16.85">d</tspan><tspan x="5.25" y="16.85">e </tspan><tspan class="n" x="15.22" y="16.85">D</tspan><tspan class="o" x="23.25" y="16.85">a</tspan><tspan class="p" x="30.84" y="16.85">t</tspan><tspan class="q" x="34.68" y="16.85">o</tspan><tspan x="41.86" y="16.85">s </tspan><tspan class="r" x="50.72" y="16.85">C</tspan><tspan class="g" x="59.27" y="16.85">u</tspan><tspan class="ac" x="66.49" y="16.85">a</tspan><tspan class="ab" x="74.09" y="16.85">n</tspan><tspan class="ad" x="81.19" y="16.85">t</tspan><tspan class="s" x="85.17" y="16.85">i</tspan><tspan class="t" x="87.88" y="16.85">t</tspan><tspan class="o" x="91.75" y="16.85">a</tspan><tspan class="u" x="99.34" y="16.85">t</tspan><tspan x="103.32" y="16.85">i</tspan><tspan class="v" x="106.08" y="16.85">v</tspan><tspan class="q" x="112.17" y="16.85">o</tspan><tspan x="119.34" y="16.85">s</tspan></text><line class="a" x1="315.93" y1="102.61" x2="332.85" y2="102.61"/><text class="c" transform="translate(214.36 96.67)"><tspan class="ae">C</tspan><tspan class="j" x="8.6" y="0">om</tspan><tspan class="e" x="27.43" y="0">p</tspan><tspan class="aa" x="35.09" y="0">a</tspan><tspan class="af" x="42.69" y="0">r</tspan><tspan class="j" x="46.72" y="0">a</tspan><tspan class="ag" x="54.35" y="0">c</tspan><tspan class="ah" x="61.14" y="0">i</tspan><tspan class="j" x="63.9" y="0">ó</tspan><tspan x="71.12" y="0">n </tspan><tspan x="7.81" y="16.85">y </tspan><tspan class="f" x="17.13" y="16.85">c</tspan><tspan class="j" x="23.92" y="16.85">o</tspan><tspan class="ab" x="31.14" y="16.85">n</tspan><tspan class="u" x="38.24" y="16.85">t</tspan><tspan class="ai" x="42.22" y="16.85">r</tspan><tspan class="aj" x="46.25" y="16.85">a</tspan><tspan class="ak" x="53.86" y="16.85">s</tspan><tspan class="t" x="59.68" y="16.85">t</tspan><tspan x="63.54" y="16.85">e</tspan></text><ellipse class="al" cx="253.09" cy="102.61" rx="62.84" ry="33.41"/><text class="c" transform="translate(363.18 104.16)"><tspan class="am">I</tspan><tspan class="ab" x="2.8" y="0">n</tspan><tspan class="t" x="9.9" y="0">t</tspan><tspan class="j" x="13.77" y="0">e</tspan><tspan class="an" x="20.77" y="0">r</tspan><tspan class="j" x="24.88" y="0">p</tspan><tspan class="af" x="32.5" y="0">r</tspan><tspan class="ao" x="36.54" y="0">e</tspan><tspan class="ap" x="43.41" y="0">t</tspan><tspan class="j" x="47.27" y="0">a</tspan><tspan class="aq" x="54.9" y="0">c</tspan><tspan class="ah" x="61.69" y="0">i</tspan><tspan class="j" x="64.45" y="0">ó</tspan><tspan x="71.67" y="0">n</tspan></text><ellipse class="al" cx="402.19" cy="102.61" rx="62.84" ry="33.41"/><polygon class="ar" points="253.5 136.95 248.85 142.26 255.78 143.63 253.5 136.95"/><polygon class="ar" points="253.26 68.26 248.6 62.95 255.53 61.57 253.26 68.26"/><polygon class="ar" points="338.36 102.61 332.24 99.08 332.24 106.15 338.36 102.61"/><text class="c" transform="translate(363.18 272.16)"><tspan class="am">I</tspan><tspan class="ab" x="2.8" y="0">n</tspan><tspan class="t" x="9.9" y="0">t</tspan><tspan class="j" x="13.77" y="0">e</tspan><tspan class="an" x="20.77" y="0">r</tspan><tspan class="j" x="24.88" y="0">p</tspan><tspan class="af" x="32.5" y="0">r</tspan><tspan class="ao" x="36.54" y="0">e</tspan><tspan class="ap" x="43.41" y="0">t</tspan><tspan class="j" x="47.27" y="0">a</tspan><tspan class="aq" x="54.9" y="0">c</tspan><tspan class="ah" x="61.69" y="0">i</tspan><tspan class="j" x="64.45" y="0">ó</tspan><tspan x="71.67" y="0">n</tspan></text><ellipse class="al" cx="402.19" cy="270.62" rx="62.84" ry="33.41"/><polygon class="ar" points="338.36 270.62 332.24 267.09 332.24 274.15 338.36 270.62"/></svg>