<svg xmlns="http://www.w3.org/2000/svg" viewBox="0 0 480.48 371.49"><defs><style>.a,.am,.b{fill:none;stroke-width:1.87px;}.a{stroke:#b3b3b3;}.a,.am{stroke-linecap:round;stroke-linejoin:round;}.am,.b{stroke:#e7514f;}.b{stroke-miterlimit:10;}.c{font-size:11.23px;fill:#272b31;font-family:Poppins-Regular, Poppins;}.d{letter-spacing:-0.01em;}.e{letter-spacing:0.01em;}.f{letter-spacing:0em;}.g{letter-spacing:0em;}.h{letter-spacing:0.01em;}.i{letter-spacing:0em;}.j{letter-spacing:0em;}.k{letter-spacing:0em;}.l{letter-spacing:-0.01em;}.m{letter-spacing:0em;}.n{letter-spacing:0em;}.o{letter-spacing:0.01em;}.p{letter-spacing:0em;}.q{letter-spacing:-0.02em;}.r{letter-spacing:0em;}.s{letter-spacing:-0.01em;}.t{letter-spacing:0em;}.u{letter-spacing:-0.02em;}.v{letter-spacing:-0.01em;}.w{letter-spacing:-0.02em;}.x{letter-spacing:0em;}.y{letter-spacing:0em;}.z{letter-spacing:-0.01em;}.aa{fill:#b3b3b3;}.ab{letter-spacing:0em;}.ac{letter-spacing:0em;}.ad{letter-spacing:0em;}.ae{letter-spacing:0em;}.af{letter-spacing:0em;}.ag{letter-spacing:-0.02em;}.ah{letter-spacing:0em;}.ai{letter-spacing:0em;}.aj{letter-spacing:-0.01em;}.ak{letter-spacing:-0.02em;}.al{letter-spacing:0em;}.an{letter-spacing:0em;}.ao{letter-spacing:-0.01em;}.ap{letter-spacing:-0.01em;}.aq{letter-spacing:-0.01em;}.ar{letter-spacing:0em;}</style></defs><line class="a" x1="141.99" y1="45.7" x2="170.79" y2="45.7"/><rect class="b" x="14.64" y="13.11" width="127.35" height="70.47" rx="11.83"/><line class="a" x1="402.78" y1="83.57" x2="402.78" y2="101.48"/><rect class="b" x="337.75" y="13.11" width="127.35" height="70.47" rx="11.83"/><text class="c" transform="translate(44.52 34.66)"><tspan class="d">R</tspan><tspan class="e" x="6.66" y="0">e</tspan><tspan class="f" x="13.69" y="0">c</tspan><tspan class="g" x="20.48" y="0">ol</tspan><tspan class="h" x="30.49" y="0">e</tspan><tspan class="i" x="37.52" y="0">cc</tspan><tspan class="j" x="51.11" y="0">i</tspan><tspan class="k" x="53.86" y="0">ó</tspan><tspan x="61.09" y="0">n </tspan><tspan x="-18.19" y="16.85">y </tspan><tspan class="l" x="-8.86" y="16.85">A</tspan><tspan class="m" x="-1.39" y="16.85">n</tspan><tspan x="5.82" y="16.85">á</tspan><tspan class="n" x="13.42" y="16.85">l</tspan><tspan class="f" x="16.17" y="16.85">i</tspan><tspan x="18.91" y="16.85">s</tspan><tspan class="f" x="24.77" y="16.85">i</tspan><tspan x="27.5" y="16.85">s </tspan><tspan class="k" x="36.37" y="16.85">d</tspan><tspan x="44" y="16.85">e </tspan><tspan class="o" x="53.96" y="16.85">D</tspan><tspan class="p" x="62" y="16.85">a</tspan><tspan class="q" x="69.58" y="16.85">t</tspan><tspan class="r" x="73.43" y="16.85">o</tspan><tspan x="80.6" y="16.85">s </tspan><tspan class="s" x="1.06" y="33.7">C</tspan><tspan class="g" x="9.61" y="33.7">u</tspan><tspan x="16.83" y="33.7">a</tspan><tspan class="n" x="24.43" y="33.7">l</tspan><tspan class="t" x="27.18" y="33.7">i</tspan><tspan class="u" x="29.9" y="33.7">t</tspan><tspan class="p" x="33.76" y="33.7">a</tspan><tspan class="v" x="41.35" y="33.7">t</tspan><tspan x="45.33" y="33.7">i</tspan><tspan class="w" x="48.1" y="33.7">v</tspan><tspan class="x" x="54.18" y="33.7">o</tspan><tspan x="61.36" y="33.7">s</tspan></text><text class="c" transform="translate(367.28 34.97)"><tspan class="d">R</tspan><tspan class="e" x="6.66" y="0">e</tspan><tspan class="f" x="13.69" y="0">c</tspan><tspan class="g" x="20.48" y="0">ol</tspan><tspan class="h" x="30.49" y="0">e</tspan><tspan class="i" x="37.52" y="0">cc</tspan><tspan class="j" x="51.11" y="0">i</tspan><tspan class="k" x="53.86" y="0">ó</tspan><tspan x="61.09" y="0">n </tspan><tspan x="-18.19" y="16.85">y </tspan><tspan class="l" x="-8.86" y="16.85">A</tspan><tspan class="m" x="-1.39" y="16.85">n</tspan><tspan x="5.82" y="16.85">á</tspan><tspan class="n" x="13.42" y="16.85">l</tspan><tspan class="f" x="16.17" y="16.85">i</tspan><tspan x="18.91" y="16.85">s</tspan><tspan class="f" x="24.77" y="16.85">i</tspan><tspan x="27.5" y="16.85">s </tspan><tspan class="k" x="36.37" y="16.85">d</tspan><tspan x="44" y="16.85">e </tspan><tspan class="o" x="53.96" y="16.85">D</tspan><tspan class="p" x="62" y="16.85">a</tspan><tspan class="q" x="69.58" y="16.85">t</tspan><tspan class="r" x="73.43" y="16.85">o</tspan><tspan x="80.6" y="16.85">s </tspan><tspan class="s" x="-3.1" y="33.7">C</tspan><tspan class="g" x="5.45" y="33.7">u</tspan><tspan class="y" x="12.67" y="33.7">a</tspan><tspan class="z" x="20.27" y="33.7">n</tspan><tspan class="v" x="27.37" y="33.7">t</tspan><tspan class="t" x="31.35" y="33.7">i</tspan><tspan class="u" x="34.06" y="33.7">t</tspan><tspan class="p" x="37.93" y="33.7">a</tspan><tspan class="v" x="45.52" y="33.7">t</tspan><tspan x="49.5" y="33.7">i</tspan><tspan class="w" x="52.26" y="33.7">v</tspan><tspan class="x" x="58.35" y="33.7">o</tspan><tspan x="65.52" y="33.7">s</tspan></text><line class="a" x1="302.78" y1="45.7" x2="331.58" y2="45.7"/><polygon class="aa" points="337.1 45.7 330.98 42.17 330.98 49.23 337.1 45.7"/><text class="c" transform="translate(204.38 39.75)"><tspan class="ab">S</tspan><tspan x="6.58" y="0">e </tspan><tspan class="f" x="16.54" y="0">c</tspan><tspan class="k" x="23.33" y="0">o</tspan><tspan class="ac" x="30.55" y="0">n</tspan><tspan class="ad" x="37.72" y="0">s</tspan><tspan class="v" x="43.54" y="0">t</tspan><tspan class="ae" x="47.52" y="0">r</tspan><tspan class="af" x="51.66" y="0">u</tspan><tspan class="ag" x="58.86" y="0">y</tspan><tspan x="64.96" y="0">e </tspan><tspan class="m" x="9.28" y="16.85">h</tspan><tspan x="16.49" y="16.85">a</tspan><tspan class="ah" x="24.08" y="16.85">l</tspan><tspan class="ai" x="26.83" y="16.85">l</tspan><tspan class="aj" x="29.62" y="16.85">a</tspan><tspan class="ak" x="37.12" y="16.85">z</tspan><tspan class="al" x="41.97" y="16.85">g</tspan><tspan class="r" x="49.6" y="16.85">o</tspan><tspan x="56.78" y="16.85">s</tspan></text><ellipse class="am" cx="239.92" cy="45.7" rx="62.84" ry="33.41"/><text class="c" transform="translate(363.35 143.08)"><tspan class="an">I</tspan><tspan class="z" x="2.8" y="0">n</tspan><tspan class="u" x="9.9" y="0">t</tspan><tspan class="k" x="13.77" y="0">e</tspan><tspan class="ao" x="20.77" y="0">r</tspan><tspan class="al" x="24.88" y="0">p</tspan><tspan class="ap" x="32.5" y="0">r</tspan><tspan class="aq" x="36.54" y="0">e</tspan><tspan class="u" x="43.41" y="0">t</tspan><tspan class="al" x="47.28" y="0">a</tspan><tspan class="ar" x="54.91" y="0">c</tspan><tspan class="j" x="61.7" y="0">i</tspan><tspan class="k" x="64.45" y="0">ó</tspan><tspan x="71.68" y="0">n</tspan></text><ellipse class="am" cx="402.36" cy="141.53" rx="62.84" ry="33.41"/><polygon class="aa" points="176.31 45.7 170.19 42.17 170.19 49.23 176.31 45.7"/><polygon class="aa" points="402.78 107 406.31 100.88 399.25 100.88 402.78 107"/><line class="a" x1="141.99" y1="234.65" x2="170.79" y2="234.65"/><rect class="b" x="14.64" y="202.05" width="127.35" height="70.47" rx="11.83"/><line class="a" x1="402.78" y1="272.52" x2="402.78" y2="290.43"/><rect class="b" x="337.75" y="202.05" width="127.35" height="70.47" rx="11.83"/><text class="c" transform="translate(44.52 223.61)"><tspan class="d">R</tspan><tspan class="e" x="6.66" y="0">e</tspan><tspan class="f" x="13.69" y="0">c</tspan><tspan class="g" x="20.48" y="0">ol</tspan><tspan class="h" x="30.49" y="0">e</tspan><tspan class="i" x="37.52" y="0">cc</tspan><tspan class="j" x="51.11" y="0">i</tspan><tspan class="k" x="53.86" y="0">ó</tspan><tspan x="61.09" y="0">n </tspan><tspan x="-18.19" y="16.85">y </tspan><tspan class="l" x="-8.86" y="16.85">A</tspan><tspan class="m" x="-1.39" y="16.85">n</tspan><tspan x="5.82" y="16.85">á</tspan><tspan class="n" x="13.42" y="16.85">l</tspan><tspan class="f" x="16.17" y="16.85">i</tspan><tspan x="18.91" y="16.85">s</tspan><tspan class="f" x="24.77" y="16.85">i</tspan><tspan x="27.5" y="16.85">s </tspan><tspan class="k" x="36.37" y="16.85">d</tspan><tspan x="44" y="16.85">e </tspan><tspan class="o" x="53.96" y="16.85">D</tspan><tspan class="p" x="62" y="16.85">a</tspan><tspan class="q" x="69.58" y="16.85">t</tspan><tspan class="r" x="73.43" y="16.85">o</tspan><tspan x="80.6" y="16.85">s </tspan><tspan class="s" x="-3.1" y="33.7">C</tspan><tspan class="g" x="5.45" y="33.7">u</tspan><tspan class="y" x="12.67" y="33.7">a</tspan><tspan class="z" x="20.27" y="33.7">n</tspan><tspan class="v" x="27.37" y="33.7">t</tspan><tspan class="t" x="31.35" y="33.7">i</tspan><tspan class="u" x="34.06" y="33.7">t</tspan><tspan class="p" x="37.93" y="33.7">a</tspan><tspan class="v" x="45.52" y="33.7">t</tspan><tspan x="49.5" y="33.7">i</tspan><tspan class="w" x="52.26" y="33.7">v</tspan><tspan class="x" x="58.35" y="33.7">o</tspan><tspan x="65.52" y="33.7">s</tspan></text><text class="c" transform="translate(367.28 223.91)"><tspan class="d">R</tspan><tspan class="e" x="6.66" y="0">e</tspan><tspan class="f" x="13.69" y="0">c</tspan><tspan class="g" x="20.48" y="0">ol</tspan><tspan class="h" x="30.49" y="0">e</tspan><tspan class="i" x="37.52" y="0">cc</tspan><tspan class="j" x="51.11" y="0">i</tspan><tspan class="k" x="53.86" y="0">ó</tspan><tspan x="61.09" y="0">n </tspan><tspan x="-18.19" y="16.85">y </tspan><tspan class="l" x="-8.86" y="16.85">A</tspan><tspan class="m" x="-1.39" y="16.85">n</tspan><tspan x="5.82" y="16.85">á</tspan><tspan class="n" x="13.42" y="16.85">l</tspan><tspan class="f" x="16.17" y="16.85">i</tspan><tspan x="18.91" y="16.85">s</tspan><tspan class="f" x="24.77" y="16.85">i</tspan><tspan x="27.5" y="16.85">s </tspan><tspan class="k" x="36.37" y="16.85">d</tspan><tspan x="44" y="16.85">e </tspan><tspan class="o" x="53.96" y="16.85">D</tspan><tspan class="p" x="62" y="16.85">a</tspan><tspan class="q" x="69.58" y="16.85">t</tspan><tspan class="r" x="73.43" y="16.85">o</tspan><tspan x="80.6" y="16.85">s </tspan><tspan class="s" x="1.06" y="33.7">C</tspan><tspan class="g" x="9.61" y="33.7">u</tspan><tspan x="16.83" y="33.7">a</tspan><tspan class="n" x="24.43" y="33.7">l</tspan><tspan class="t" x="27.18" y="33.7">i</tspan><tspan class="u" x="29.9" y="33.7">t</tspan><tspan class="p" x="33.76" y="33.7">a</tspan><tspan class="v" x="41.35" y="33.7">t</tspan><tspan x="45.33" y="33.7">i</tspan><tspan class="w" x="48.1" y="33.7">v</tspan><tspan class="x" x="54.18" y="33.7">o</tspan><tspan x="61.36" y="33.7">s</tspan></text><line class="a" x1="302.78" y1="234.65" x2="331.58" y2="234.65"/><polygon class="aa" points="337.1 234.65 330.98 231.11 330.98 238.18 337.1 234.65"/><text class="c" transform="translate(204.38 228.7)"><tspan class="ab">S</tspan><tspan x="6.58" y="0">e </tspan><tspan class="f" x="16.54" y="0">c</tspan><tspan class="k" x="23.33" y="0">o</tspan><tspan class="ac" x="30.55" y="0">n</tspan><tspan class="ad" x="37.72" y="0">s</tspan><tspan class="v" x="43.54" y="0">t</tspan><tspan class="ae" x="47.52" y="0">r</tspan><tspan class="af" x="51.66" y="0">u</tspan><tspan class="ag" x="58.86" y="0">y</tspan><tspan x="64.96" y="0">e </tspan><tspan class="m" x="9.28" y="16.85">h</tspan><tspan x="16.49" y="16.85">a</tspan><tspan class="ah" x="24.08" y="16.85">l</tspan><tspan class="ai" x="26.83" y="16.85">l</tspan><tspan class="aj" x="29.62" y="16.85">a</tspan><tspan class="ak" x="37.12" y="16.85">z</tspan><tspan class="al" x="41.97" y="16.85">g</tspan><tspan class="r" x="49.6" y="16.85">o</tspan><tspan x="56.78" y="16.85">s</tspan></text><ellipse class="am" cx="239.92" cy="234.65" rx="62.84" ry="33.41"/><text class="c" transform="translate(363.35 332.02)"><tspan class="an">I</tspan><tspan class="z" x="2.8" y="0">n</tspan><tspan class="u" x="9.9" y="0">t</tspan><tspan class="k" x="13.77" y="0">e</tspan><tspan class="ao" x="20.77" y="0">r</tspan><tspan class="al" x="24.88" y="0">p</tspan><tspan class="ap" x="32.5" y="0">r</tspan><tspan class="aq" x="36.54" y="0">e</tspan><tspan class="u" x="43.41" y="0">t</tspan><tspan class="al" x="47.28" y="0">a</tspan><tspan class="ar" x="54.91" y="0">c</tspan><tspan class="j" x="61.7" y="0">i</tspan><tspan class="k" x="64.45" y="0">ó</tspan><tspan x="71.68" y="0">n</tspan></text><ellipse class="am" cx="402.36" cy="330.48" rx="62.84" ry="33.41"/><polygon class="aa" points="176.31 234.65 170.19 231.11 170.19 238.18 176.31 234.65"/><polygon class="aa" points="402.78 295.95 406.31 289.83 399.25 289.83 402.78 295.95"/></svg>