<svg id="a1269c62-4a5b-49e9-bbaf-194cbd407d59" data-name="Capa 1" xmlns="http://www.w3.org/2000/svg" viewBox="0 0 993.03 311.16"><defs><style>.a5d2d2e1-d0ff-48a6-83b0-7d1518167b89,.b1a29c14-06f2-4151-b6a4-cde0f3ebd0b9,.fcda8e66-52a6-41e4-bc39-ff8deac2dc01{fill:none;stroke-width:2px;}.a5d2d2e1-d0ff-48a6-83b0-7d1518167b89{stroke:#b3b3b3;}.a5d2d2e1-d0ff-48a6-83b0-7d1518167b89,.b1a29c14-06f2-4151-b6a4-cde0f3ebd0b9{stroke-linecap:round;stroke-linejoin:round;}.b1a29c14-06f2-4151-b6a4-cde0f3ebd0b9,.fcda8e66-52a6-41e4-bc39-ff8deac2dc01{stroke:#fd893b;}.fcda8e66-52a6-41e4-bc39-ff8deac2dc01{stroke-miterlimit:10;}.bce160a5-e119-4bc6-9de1-75e7163443ee{fill:#272b31;}.b536bf80-fc43-46bc-99c8-638fc16e5be4{fill:#b3b3b3;}</style></defs><line class="a5d2d2e1-d0ff-48a6-83b0-7d1518167b89" x1="443.83" y1="144.02" x2="695.26" y2="144.02"/><rect class="fcda8e66-52a6-41e4-bc39-ff8deac2dc01" x="15.5" y="20.91" width="428.33" height="269.34" rx="42.42"/><path class="bce160a5-e119-4bc6-9de1-75e7163443ee" d="M98.55,50.21c3.94,0,5.81,2.19,5.81,4.92a4.72,4.72,0,0,1-4,4.8l4.2,7H102L98,60.1H95.34v6.83H93.15V50.21Zm0,1.8H95.34v6.34h3.21c2.47,0,3.55-1.35,3.55-3.22S101.05,52,98.55,52Z"/><path class="bce160a5-e119-4bc6-9de1-75e7163443ee" d="M112.89,67.15c-3.75,0-6.5-2.64-6.5-6.81s2.66-6.77,6.5-6.77a6,6,0,0,1,6.31,6.29,11.41,11.41,0,0,1-.08,1.32h-10.5a4.12,4.12,0,0,0,4.27,4.12,3.62,3.62,0,0,0,3.69-2.42h2.35A5.9,5.9,0,0,1,112.89,67.15Zm-4.25-7.75h8.3a3.86,3.86,0,0,0-4.15-4A4.06,4.06,0,0,0,108.64,59.4Z"/><path class="bce160a5-e119-4bc6-9de1-75e7163443ee" d="M127.63,53.57c3.27,0,5.4,1.68,6.07,4.44h-2.35a3.58,3.58,0,0,0-3.72-2.59c-2.4,0-4.17,1.7-4.17,4.92s1.77,5,4.17,5a3.52,3.52,0,0,0,3.72-2.59h2.35a5.84,5.84,0,0,1-6.07,4.44c-3.74,0-6.4-2.64-6.4-6.81S123.89,53.57,127.63,53.57Z"/><path class="bce160a5-e119-4bc6-9de1-75e7163443ee" d="M142.1,67.15c-3.72,0-6.55-2.64-6.55-6.81a6.65,6.65,0,1,1,13.29,0A6.52,6.52,0,0,1,142.1,67.15Zm0-1.92c2.28,0,4.51-1.56,4.51-4.89s-2.18-4.87-4.44-4.87-4.39,1.56-4.39,4.87S139.82,65.23,142.1,65.23Z"/><path class="bce160a5-e119-4bc6-9de1-75e7163443ee" d="M151.61,49.18h2.18V66.93h-2.18Z"/><path class="bce160a5-e119-4bc6-9de1-75e7163443ee" d="M163.08,67.15c-3.74,0-6.5-2.64-6.5-6.81s2.66-6.77,6.5-6.77a6,6,0,0,1,6.31,6.29,11.43,11.43,0,0,1-.07,1.32H158.81a4.13,4.13,0,0,0,4.27,4.12,3.62,3.62,0,0,0,3.7-2.42h2.35A5.92,5.92,0,0,1,163.08,67.15Zm-4.24-7.75h8.3a3.86,3.86,0,0,0-4.15-4A4.06,4.06,0,0,0,158.84,59.4Z"/><path class="bce160a5-e119-4bc6-9de1-75e7163443ee" d="M177.83,53.57c3.26,0,5.4,1.68,6.07,4.44h-2.35a3.59,3.59,0,0,0-3.72-2.59c-2.4,0-4.18,1.7-4.18,4.92s1.78,5,4.18,5a3.53,3.53,0,0,0,3.72-2.59h2.35a5.85,5.85,0,0,1-6.07,4.44c-3.74,0-6.41-2.64-6.41-6.81S174.09,53.57,177.83,53.57Z"/><path class="bce160a5-e119-4bc6-9de1-75e7163443ee" d="M192.16,53.57c3.27,0,5.4,1.68,6.07,4.44h-2.35a3.58,3.58,0,0,0-3.72-2.59c-2.4,0-4.17,1.7-4.17,4.92s1.77,5,4.17,5a3.52,3.52,0,0,0,3.72-2.59h2.35a5.84,5.84,0,0,1-6.07,4.44c-3.74,0-6.4-2.64-6.4-6.81S188.42,53.57,192.16,53.57Z"/><path class="bce160a5-e119-4bc6-9de1-75e7163443ee" d="M200.55,50.17a1.47,1.47,0,1,1,2.93,0,1.47,1.47,0,1,1-2.93,0Zm.36,3.62h2.18V66.93h-2.18Z"/><path class="bce160a5-e119-4bc6-9de1-75e7163443ee" d="M212.36,67.15c-3.72,0-6.55-2.64-6.55-6.81a6.65,6.65,0,1,1,13.29,0A6.52,6.52,0,0,1,212.36,67.15Zm0-1.92c2.27,0,4.5-1.56,4.5-4.89s-2.18-4.87-4.43-4.87S208,57,208,60.34,210.08,65.23,212.36,65.23ZM214.8,48V49.9l-5.11,2.74V51Z"/><path class="bce160a5-e119-4bc6-9de1-75e7163443ee" d="M231.5,59.5c0-2.69-1.47-4.06-3.67-4.06s-3.77,1.39-3.77,4.22v7.27h-2.18V53.79h2.18v1.87a4.86,4.86,0,0,1,4.22-2.11c3.05,0,5.38,1.87,5.38,5.64v7.74H231.5Z"/><path class="bce160a5-e119-4bc6-9de1-75e7163443ee" d="M252.7,53.79H255L247,73.12h-2.25l2.59-6.33-5.3-13h2.42l4.12,10.65Z"/><path class="bce160a5-e119-4bc6-9de1-75e7163443ee" d="M273.43,63.21h-7.3l-1.34,3.72h-2.3l6-16.62h2.52l6,16.62h-2.3ZM269.78,53l-3,8.44h6Z"/><path class="bce160a5-e119-4bc6-9de1-75e7163443ee" d="M288.94,59.5c0-2.69-1.46-4.06-3.67-4.06s-3.77,1.39-3.77,4.22v7.27h-2.18V53.79h2.18v1.87a4.86,4.86,0,0,1,4.22-2.11c3,0,5.38,1.87,5.38,5.64v7.74h-2.16Z"/><path class="bce160a5-e119-4bc6-9de1-75e7163443ee" d="M300,53.57a5.43,5.43,0,0,1,4.89,2.62v-2.4h2.21V66.93h-2.21V64.49A5.49,5.49,0,0,1,300,67.15c-3.5,0-6.21-2.76-6.21-6.84S296.45,53.57,300,53.57Zm.43,1.9c-2.4,0-4.43,1.75-4.43,4.84s2,4.92,4.43,4.92,4.46-1.8,4.46-4.89S302.8,55.47,300.4,55.47Zm2.76-7.3v1.9l-5.11,2.73V51.17Z"/><path class="bce160a5-e119-4bc6-9de1-75e7163443ee" d="M310.61,49.18h2.18V66.93h-2.18Z"/><path class="bce160a5-e119-4bc6-9de1-75e7163443ee" d="M316,50.17a1.46,1.46,0,1,1,1.48,1.48A1.46,1.46,0,0,1,316,50.17Zm.36,3.62h2.18V66.93h-2.18Z"/><path class="bce160a5-e119-4bc6-9de1-75e7163443ee" d="M326.64,67.15c-3.07,0-5.22-1.68-5.37-4.08h2.26c.12,1.27,1.24,2.23,3.09,2.23s2.69-.86,2.69-1.94c0-2.93-7.77-1.22-7.77-6.12,0-2,1.89-3.67,4.82-3.67s4.82,1.56,5,4.13h-2.18c-.1-1.32-1.1-2.28-2.86-2.28-1.6,0-2.56.77-2.56,1.82,0,3.12,7.63,1.42,7.72,6.12C331.44,65.52,329.55,67.15,326.64,67.15Z"/><path class="bce160a5-e119-4bc6-9de1-75e7163443ee" d="M334,50.17a1.46,1.46,0,1,1,2.92,0,1.46,1.46,0,1,1-2.92,0Zm.36,3.62h2.18V66.93h-2.18Z"/><path class="bce160a5-e119-4bc6-9de1-75e7163443ee" d="M344.68,67.15c-3.07,0-5.23-1.68-5.38-4.08h2.26c.12,1.27,1.25,2.23,3.09,2.23s2.69-.86,2.69-1.94c0-2.93-7.77-1.22-7.77-6.12,0-2,1.89-3.67,4.82-3.67s4.82,1.56,5,4.13h-2.18c-.1-1.32-1.1-2.28-2.85-2.28s-2.57.77-2.57,1.82c0,3.12,7.63,1.42,7.72,6.12C349.47,65.52,347.58,67.15,344.68,67.15Z"/><path class="bce160a5-e119-4bc6-9de1-75e7163443ee" d="M94.37,89.55a5.73,5.73,0,0,1,4.87,2.57v-7h2.21v17.75H99.24v-2.47a5.38,5.38,0,0,1-4.89,2.69c-3.53,0-6.24-2.76-6.24-6.84S90.82,89.55,94.37,89.55Zm.41,1.9c-2.4,0-4.44,1.75-4.44,4.84s2,4.92,4.44,4.92,4.46-1.8,4.46-4.89S97.18,91.45,94.78,91.45Z"/><path class="bce160a5-e119-4bc6-9de1-75e7163443ee" d="M110.73,103.13c-3.74,0-6.5-2.64-6.5-6.81s2.66-6.77,6.5-6.77A6,6,0,0,1,117,95.84a11.43,11.43,0,0,1-.07,1.32H106.46a4.13,4.13,0,0,0,4.27,4.12,3.62,3.62,0,0,0,3.7-2.42h2.35A5.92,5.92,0,0,1,110.73,103.13Zm-4.24-7.75h8.3a3.86,3.86,0,0,0-4.15-4A4.06,4.06,0,0,0,106.49,95.38Z"/><path class="bce160a5-e119-4bc6-9de1-75e7163443ee" d="M140.4,94.59c0,5.18-3.38,8.32-8.87,8.32h-5.21V86.19h5.21C137,86.19,140.4,89.41,140.4,94.59Zm-8.87,6.52c4.36,0,6.64-2.44,6.64-6.52S135.89,88,131.53,88h-3v13.14Z"/><path class="bce160a5-e119-4bc6-9de1-75e7163443ee" d="M148.74,89.55a5.45,5.45,0,0,1,4.89,2.62v-2.4h2.21v13.14h-2.21v-2.44a5.49,5.49,0,0,1-4.91,2.66c-3.51,0-6.22-2.76-6.22-6.84S145.21,89.55,148.74,89.55Zm.43,1.9c-2.4,0-4.44,1.75-4.44,4.84s2,4.92,4.44,4.92,4.46-1.8,4.46-4.89S151.57,91.45,149.17,91.45Z"/><path class="bce160a5-e119-4bc6-9de1-75e7163443ee" d="M159.83,91.57h-1.7v-1.8h1.7V86.46H162v3.31h3.43v1.8H162v7.75c0,1.29.47,1.75,1.82,1.75h1.61v1.84h-2c-2.33,0-3.65-1-3.65-3.59Z"/><path class="bce160a5-e119-4bc6-9de1-75e7163443ee" d="M173.1,103.13c-3.72,0-6.55-2.64-6.55-6.81a6.65,6.65,0,1,1,13.29,0A6.52,6.52,0,0,1,173.1,103.13Zm0-1.92c2.28,0,4.51-1.56,4.51-4.89s-2.18-4.87-4.44-4.87-4.39,1.56-4.39,4.87S170.82,101.21,173.1,101.21Z"/><path class="bce160a5-e119-4bc6-9de1-75e7163443ee" d="M187.17,103.13c-3.07,0-5.23-1.68-5.37-4.08h2.25c.12,1.27,1.25,2.23,3.1,2.23s2.68-.86,2.68-1.94c0-2.93-7.77-1.22-7.77-6.12,0-2,1.9-3.67,4.82-3.67s4.82,1.56,5,4.13h-2.18c-.1-1.32-1.11-2.28-2.86-2.28s-2.57.77-2.57,1.82c0,3.12,7.63,1.42,7.73,6.12C192,101.5,190.07,103.13,187.17,103.13Z"/><path class="bce160a5-e119-4bc6-9de1-75e7163443ee" d="M209,86A7.85,7.85,0,0,1,216.72,91h-2.61A5.27,5.27,0,0,0,209,87.9c-3.51,0-6.12,2.54-6.12,6.64s2.61,6.62,6.12,6.62A5.26,5.26,0,0,0,214.11,98h2.61a7.85,7.85,0,0,1-7.74,5A8.54,8.54,0,0,1,209,86Z"/><path class="bce160a5-e119-4bc6-9de1-75e7163443ee" d="M219.51,86.19h2.18V96.77c0,3.07,1.66,4.39,4.13,4.39s4.1-1.32,4.1-4.39V86.19h2.18V96.75c0,4.34-2.85,6.33-6.31,6.33s-6.28-2-6.28-6.33Z"/><path class="bce160a5-e119-4bc6-9de1-75e7163443ee" d="M244.7,99.2h-7.29l-1.35,3.71h-2.3l6-16.62h2.52l6,16.62H246ZM241.05,89l-3,8.44h6Z"/><path class="bce160a5-e119-4bc6-9de1-75e7163443ee" d="M252.77,86.19v15h5.85v1.77h-8V86.19Z"/><path class="bce160a5-e119-4bc6-9de1-75e7163443ee" d="M260.68,86.19h2.19v16.72h-2.19Z"/><path class="bce160a5-e119-4bc6-9de1-75e7163443ee" d="M265.09,86.19h11.33V88h-4.56v14.94h-2.18V88h-4.59Z"/><path class="bce160a5-e119-4bc6-9de1-75e7163443ee" d="M286.75,99.2h-7.29l-1.34,3.71h-2.31l6.05-16.62h2.52l6,16.62h-2.3ZM283.11,89l-3,8.44h6.05Z"/><path class="bce160a5-e119-4bc6-9de1-75e7163443ee" d="M289.78,86.19h11.33V88h-4.56v14.94h-2.19V88h-4.58Z"/><path class="bce160a5-e119-4bc6-9de1-75e7163443ee" d="M303.36,86.19h2.18v16.72h-2.18Z"/><path class="bce160a5-e119-4bc6-9de1-75e7163443ee" d="M320.46,86.19h2.3l-6.31,16.72h-2.52l-6.3-16.72H310l5.26,14.42Z"/><path class="bce160a5-e119-4bc6-9de1-75e7163443ee" d="M331.75,103.08a8.54,8.54,0,1,1,8.4-8.54A8.24,8.24,0,0,1,331.75,103.08Zm0-1.89c3.53,0,6.17-2.57,6.17-6.65s-2.64-6.64-6.17-6.64-6.16,2.54-6.16,6.64S328.23,101.19,331.75,101.19Z"/><path class="bce160a5-e119-4bc6-9de1-75e7163443ee" d="M348,103.08c-3.36,0-5.73-1.87-5.78-4.63h2.32c.15,1.39,1.13,2.78,3.46,2.78,2.11,0,3.36-1.19,3.36-2.78,0-4.51-9.05-1.63-9.05-7.84,0-2.76,2.23-4.63,5.54-4.63s5.28,1.75,5.55,4.29H351a3,3,0,0,0-3.24-2.42c-1.8,0-3.22.89-3.22,2.69,0,4.31,9,1.63,9,7.82C353.55,100.73,351.61,103.08,348,103.08Z"/><rect class="fcda8e66-52a6-41e4-bc39-ff8deac2dc01" x="57.6" y="144.02" width="325.34" height="117.11" rx="24.38"/><path class="bce160a5-e119-4bc6-9de1-75e7163443ee" d="M98.55,173.32c3.94,0,5.81,2.19,5.81,4.92a4.72,4.72,0,0,1-4,4.8l4.2,7H102l-4-6.83H95.34V190H93.15V173.32Zm0,1.8H95.34v6.34h3.21c2.47,0,3.55-1.35,3.55-3.22S101.05,175.12,98.55,175.12Z"/><path class="bce160a5-e119-4bc6-9de1-75e7163443ee" d="M112.89,190.26c-3.75,0-6.5-2.64-6.5-6.81s2.66-6.77,6.5-6.77A6,6,0,0,1,119.2,183a11.41,11.41,0,0,1-.08,1.32h-10.5a4.12,4.12,0,0,0,4.27,4.12,3.62,3.62,0,0,0,3.69-2.42h2.35A5.9,5.9,0,0,1,112.89,190.26Zm-4.25-7.75h8.3a3.86,3.86,0,0,0-4.15-4A4.06,4.06,0,0,0,108.64,182.51Z"/><path class="bce160a5-e119-4bc6-9de1-75e7163443ee" d="M127.63,176.68c3.27,0,5.4,1.68,6.07,4.44h-2.35a3.58,3.58,0,0,0-3.72-2.59c-2.4,0-4.17,1.7-4.17,4.92s1.77,5,4.17,5a3.52,3.52,0,0,0,3.72-2.59h2.35a5.84,5.84,0,0,1-6.07,4.44c-3.74,0-6.4-2.64-6.4-6.81S123.89,176.68,127.63,176.68Z"/><path class="bce160a5-e119-4bc6-9de1-75e7163443ee" d="M142.1,190.26c-3.72,0-6.55-2.64-6.55-6.81a6.65,6.65,0,1,1,13.29,0A6.52,6.52,0,0,1,142.1,190.26Zm0-1.92c2.28,0,4.51-1.56,4.51-4.89s-2.18-4.87-4.44-4.87-4.39,1.56-4.39,4.87S139.82,188.34,142.1,188.34Z"/><path class="bce160a5-e119-4bc6-9de1-75e7163443ee" d="M151.61,172.29h2.18V190h-2.18Z"/><path class="bce160a5-e119-4bc6-9de1-75e7163443ee" d="M163.08,190.26c-3.74,0-6.5-2.64-6.5-6.81s2.66-6.77,6.5-6.77a6,6,0,0,1,6.31,6.29,11.43,11.43,0,0,1-.07,1.32H158.81a4.13,4.13,0,0,0,4.27,4.12,3.62,3.62,0,0,0,3.7-2.42h2.35A5.92,5.92,0,0,1,163.08,190.26Zm-4.24-7.75h8.3a3.86,3.86,0,0,0-4.15-4A4.06,4.06,0,0,0,158.84,182.51Z"/><path class="bce160a5-e119-4bc6-9de1-75e7163443ee" d="M177.83,176.68c3.26,0,5.4,1.68,6.07,4.44h-2.35a3.59,3.59,0,0,0-3.72-2.59c-2.4,0-4.18,1.7-4.18,4.92s1.78,5,4.18,5a3.53,3.53,0,0,0,3.72-2.59h2.35a5.85,5.85,0,0,1-6.07,4.44c-3.74,0-6.41-2.64-6.41-6.81S174.09,176.68,177.83,176.68Z"/><path class="bce160a5-e119-4bc6-9de1-75e7163443ee" d="M192.16,176.68c3.27,0,5.4,1.68,6.07,4.44h-2.35a3.58,3.58,0,0,0-3.72-2.59c-2.4,0-4.17,1.7-4.17,4.92s1.77,5,4.17,5a3.52,3.52,0,0,0,3.72-2.59h2.35a5.84,5.84,0,0,1-6.07,4.44c-3.74,0-6.4-2.64-6.4-6.81S188.42,176.68,192.16,176.68Z"/><path class="bce160a5-e119-4bc6-9de1-75e7163443ee" d="M200.55,173.28a1.47,1.47,0,1,1,2.93,0,1.47,1.47,0,1,1-2.93,0Zm.36,3.62h2.18V190h-2.18Z"/><path class="bce160a5-e119-4bc6-9de1-75e7163443ee" d="M212.36,190.26c-3.72,0-6.55-2.64-6.55-6.81a6.65,6.65,0,1,1,13.29,0A6.52,6.52,0,0,1,212.36,190.26Zm0-1.92c2.27,0,4.5-1.56,4.5-4.89s-2.18-4.87-4.43-4.87-4.39,1.56-4.39,4.87S210.08,188.34,212.36,188.34Zm2.44-17.22V173l-5.11,2.74v-1.63Z"/><path class="bce160a5-e119-4bc6-9de1-75e7163443ee" d="M231.5,182.61c0-2.69-1.47-4.06-3.67-4.06s-3.77,1.39-3.77,4.22V190h-2.18V176.9h2.18v1.87a4.86,4.86,0,0,1,4.22-2.11c3.05,0,5.38,1.87,5.38,5.64V190H231.5Z"/><path class="bce160a5-e119-4bc6-9de1-75e7163443ee" d="M252.7,176.9H255L247,196.23h-2.25l2.59-6.33-5.3-13h2.42l4.12,10.65Z"/><path class="bce160a5-e119-4bc6-9de1-75e7163443ee" d="M273.43,186.33h-7.3L264.79,190h-2.3l6-16.62h2.52l6,16.62h-2.3Zm-3.65-10.22-3,8.44h6Z"/><path class="bce160a5-e119-4bc6-9de1-75e7163443ee" d="M288.94,182.61c0-2.69-1.46-4.06-3.67-4.06s-3.77,1.39-3.77,4.22V190h-2.18V176.9h2.18v1.87a4.86,4.86,0,0,1,4.22-2.11c3,0,5.38,1.87,5.38,5.64V190h-2.16Z"/><path class="bce160a5-e119-4bc6-9de1-75e7163443ee" d="M300,176.68a5.43,5.43,0,0,1,4.89,2.62v-2.4h2.21V190h-2.21V187.6a5.49,5.49,0,0,1-4.91,2.66c-3.5,0-6.21-2.76-6.21-6.84S296.45,176.68,300,176.68Zm.43,1.9c-2.4,0-4.43,1.75-4.43,4.84s2,4.92,4.43,4.92,4.46-1.8,4.46-4.89S302.8,178.58,300.4,178.58Zm2.76-7.29v1.89l-5.11,2.73v-1.63Z"/><path class="bce160a5-e119-4bc6-9de1-75e7163443ee" d="M310.61,172.29h2.18V190h-2.18Z"/><path class="bce160a5-e119-4bc6-9de1-75e7163443ee" d="M316,173.28a1.46,1.46,0,1,1,1.48,1.48A1.46,1.46,0,0,1,316,173.28Zm.36,3.62h2.18V190h-2.18Z"/><path class="bce160a5-e119-4bc6-9de1-75e7163443ee" d="M326.64,190.26c-3.07,0-5.22-1.68-5.37-4.08h2.26c.12,1.27,1.24,2.23,3.09,2.23s2.69-.86,2.69-1.94c0-2.93-7.77-1.22-7.77-6.12,0-2,1.89-3.67,4.82-3.67s4.82,1.56,5,4.13h-2.18c-.1-1.32-1.1-2.28-2.86-2.28-1.6,0-2.56.77-2.56,1.82,0,3.12,7.63,1.42,7.72,6.12C331.44,188.63,329.55,190.26,326.64,190.26Z"/><path class="bce160a5-e119-4bc6-9de1-75e7163443ee" d="M334,173.28a1.46,1.46,0,1,1,2.92,0,1.46,1.46,0,1,1-2.92,0Zm.36,3.62h2.18V190h-2.18Z"/><path class="bce160a5-e119-4bc6-9de1-75e7163443ee" d="M344.68,190.26c-3.07,0-5.23-1.68-5.38-4.08h2.26c.12,1.27,1.25,2.23,3.09,2.23s2.69-.86,2.69-1.94c0-2.93-7.77-1.22-7.77-6.12,0-2,1.89-3.67,4.82-3.67s4.82,1.56,5,4.13h-2.18c-.1-1.32-1.1-2.28-2.85-2.28s-2.57.77-2.57,1.82c0,3.12,7.63,1.42,7.72,6.12C349.47,188.63,347.58,190.26,344.68,190.26Z"/><path class="bce160a5-e119-4bc6-9de1-75e7163443ee" d="M93.56,212.66a5.73,5.73,0,0,1,4.87,2.57v-7h2.21V226H98.43v-2.47a5.38,5.38,0,0,1-4.89,2.69c-3.53,0-6.24-2.76-6.24-6.84S90,212.66,93.56,212.66Zm.41,1.9c-2.4,0-4.44,1.75-4.44,4.84s2,4.92,4.44,4.92,4.46-1.8,4.46-4.89S96.37,214.56,94,214.56Z"/><path class="bce160a5-e119-4bc6-9de1-75e7163443ee" d="M109.92,226.24c-3.74,0-6.5-2.64-6.5-6.81s2.67-6.77,6.5-6.77a6,6,0,0,1,6.31,6.29,11.43,11.43,0,0,1-.07,1.32H105.65a4.13,4.13,0,0,0,4.27,4.12,3.61,3.61,0,0,0,3.7-2.42H116A5.91,5.91,0,0,1,109.92,226.24Zm-4.24-7.75H114a3.86,3.86,0,0,0-4.15-4A4.07,4.07,0,0,0,105.68,218.49Z"/><path class="bce160a5-e119-4bc6-9de1-75e7163443ee" d="M139.6,217.7c0,5.18-3.39,8.32-8.88,8.32h-5.21V209.31h5.21C136.21,209.31,139.6,212.52,139.6,217.7Zm-8.88,6.53c4.37,0,6.64-2.45,6.64-6.53s-2.27-6.62-6.64-6.62h-3v13.15Z"/><path class="bce160a5-e119-4bc6-9de1-75e7163443ee" d="M147.93,212.66a5.43,5.43,0,0,1,4.89,2.62v-2.4H155V226h-2.21v-2.44a5.49,5.49,0,0,1-4.91,2.66c-3.51,0-6.22-2.76-6.22-6.84S144.4,212.66,147.93,212.66Zm.43,1.9c-2.4,0-4.43,1.75-4.43,4.84s2,4.92,4.43,4.92,4.46-1.8,4.46-4.89S150.76,214.56,148.36,214.56Z"/><path class="bce160a5-e119-4bc6-9de1-75e7163443ee" d="M159,214.68h-1.7v-1.8H159v-3.31h2.19v3.31h3.43v1.8h-3.43v7.75c0,1.29.48,1.75,1.82,1.75h1.61V226h-2c-2.33,0-3.65-1-3.65-3.59Z"/><path class="bce160a5-e119-4bc6-9de1-75e7163443ee" d="M172.29,226.24c-3.71,0-6.55-2.64-6.55-6.81a6.65,6.65,0,1,1,13.29,0A6.52,6.52,0,0,1,172.29,226.24Zm0-1.92c2.28,0,4.51-1.56,4.51-4.89s-2.18-4.87-4.44-4.87-4.38,1.56-4.38,4.87S170,224.32,172.29,224.32Z"/><path class="bce160a5-e119-4bc6-9de1-75e7163443ee" d="M186.36,226.24c-3.07,0-5.23-1.68-5.37-4.08h2.25c.12,1.27,1.25,2.23,3.1,2.23s2.69-.86,2.69-1.94c0-2.93-7.78-1.22-7.78-6.12,0-2,1.9-3.67,4.82-3.67s4.83,1.56,5,4.13h-2.18c-.1-1.32-1.11-2.28-2.86-2.28-1.6,0-2.56.77-2.56,1.82,0,3.12,7.62,1.42,7.72,6.12C191.16,224.61,189.27,226.24,186.36,226.24Z"/><path class="bce160a5-e119-4bc6-9de1-75e7163443ee" d="M208.17,209.09a7.85,7.85,0,0,1,7.74,5.06H213.3a5.27,5.27,0,0,0-5.13-3.14c-3.51,0-6.12,2.54-6.12,6.64s2.61,6.62,6.12,6.62a5.26,5.26,0,0,0,5.13-3.12h2.61a7.85,7.85,0,0,1-7.74,5,8.54,8.54,0,0,1,0-17.08Z"/><path class="bce160a5-e119-4bc6-9de1-75e7163443ee" d="M230.38,226H228.2v-1.94a4.84,4.84,0,0,1-4.2,2.14c-3,0-5.4-1.88-5.4-5.64v-7.7h2.16v7.41c0,2.66,1.46,4,3.67,4s3.77-1.39,3.77-4.22v-7.22h2.18Z"/><path class="bce160a5-e119-4bc6-9de1-75e7163443ee" d="M239.38,212.66a5.46,5.46,0,0,1,4.9,2.62v-2.4h2.21V226h-2.21v-2.44a5.5,5.5,0,0,1-4.92,2.66c-3.5,0-6.21-2.76-6.21-6.84S235.86,212.66,239.38,212.66Zm.44,1.9c-2.4,0-4.44,1.75-4.44,4.84s2,4.92,4.44,4.92,4.46-1.8,4.46-4.89S242.22,214.56,239.82,214.56Z"/><path class="bce160a5-e119-4bc6-9de1-75e7163443ee" d="M259.64,218.59c0-2.69-1.46-4.06-3.67-4.06s-3.77,1.4-3.77,4.23V226H250V212.88h2.18v1.87a4.87,4.87,0,0,1,4.23-2.11c3,0,5.37,1.87,5.37,5.64V226h-2.16Z"/><path class="bce160a5-e119-4bc6-9de1-75e7163443ee" d="M265.49,214.68h-1.71v-1.8h1.71v-3.31h2.18v3.31h3.43v1.8h-3.43v7.75c0,1.29.48,1.75,1.82,1.75h1.61V226h-2c-2.32,0-3.64-1-3.64-3.59Z"/><path class="bce160a5-e119-4bc6-9de1-75e7163443ee" d="M273,209.26a1.47,1.47,0,1,1,2.93,0,1.47,1.47,0,1,1-2.93,0Zm.36,3.62h2.18V226h-2.18Z"/><path class="bce160a5-e119-4bc6-9de1-75e7163443ee" d="M279.43,214.68h-1.7v-1.8h1.7v-3.31h2.18v3.31H285v1.8h-3.43v7.75c0,1.29.48,1.75,1.83,1.75H285V226h-2c-2.33,0-3.65-1-3.65-3.59Z"/><path class="bce160a5-e119-4bc6-9de1-75e7163443ee" d="M292.44,212.66a5.45,5.45,0,0,1,4.89,2.62v-2.4h2.21V226h-2.21v-2.44a5.49,5.49,0,0,1-4.92,2.66c-3.5,0-6.21-2.76-6.21-6.84S288.91,212.66,292.44,212.66Zm.43,1.9c-2.4,0-4.44,1.75-4.44,4.84s2,4.92,4.44,4.92,4.46-1.8,4.46-4.89S295.27,214.56,292.87,214.56Z"/><path class="bce160a5-e119-4bc6-9de1-75e7163443ee" d="M303.53,214.68h-1.7v-1.8h1.7v-3.31h2.19v3.31h3.43v1.8h-3.43v7.75c0,1.29.48,1.75,1.82,1.75h1.61V226h-2c-2.33,0-3.65-1-3.65-3.59Z"/><path class="bce160a5-e119-4bc6-9de1-75e7163443ee" d="M311,209.26a1.46,1.46,0,1,1,1.48,1.48A1.46,1.46,0,0,1,311,209.26Zm.36,3.62h2.18V226h-2.18Z"/><path class="bce160a5-e119-4bc6-9de1-75e7163443ee" d="M317.89,212.88,322,224l4.08-11.13h2.33L323.24,226H320.7l-5.16-13.14Z"/><path class="bce160a5-e119-4bc6-9de1-75e7163443ee" d="M335.64,226.24c-3.72,0-6.55-2.64-6.55-6.81a6.65,6.65,0,1,1,13.29,0A6.52,6.52,0,0,1,335.64,226.24Zm0-1.92c2.28,0,4.51-1.56,4.51-4.89s-2.18-4.87-4.44-4.87-4.39,1.56-4.39,4.87S333.36,224.32,335.64,224.32Z"/><path class="bce160a5-e119-4bc6-9de1-75e7163443ee" d="M349.71,226.24c-3.07,0-5.23-1.68-5.37-4.08h2.25c.12,1.27,1.25,2.23,3.1,2.23s2.68-.86,2.68-1.94c0-2.93-7.77-1.22-7.77-6.12,0-2,1.9-3.67,4.82-3.67s4.82,1.56,5,4.13H352.2c-.09-1.32-1.1-2.28-2.85-2.28s-2.57.77-2.57,1.82c0,3.12,7.63,1.42,7.73,6.12C354.51,224.61,352.61,226.24,349.71,226.24Z"/><path class="bce160a5-e119-4bc6-9de1-75e7163443ee" d="M763,130.6h2.18v16.72H763Z"/><path class="bce160a5-e119-4bc6-9de1-75e7163443ee" d="M778.43,139.88c0-2.69-1.46-4-3.67-4s-3.76,1.39-3.76,4.22v7.27h-2.19V134.17H771V136a4.84,4.84,0,0,1,4.22-2.11c3,0,5.37,1.87,5.37,5.64v7.75h-2.16Z"/><path class="bce160a5-e119-4bc6-9de1-75e7163443ee" d="M784.28,136h-1.7v-1.8h1.7v-3.31h2.18v3.31h3.43V136h-3.43v7.75c0,1.29.48,1.75,1.82,1.75h1.61v1.85h-2c-2.32,0-3.64-1-3.64-3.6Z"/><path class="bce160a5-e119-4bc6-9de1-75e7163443ee" d="M797.55,147.53c-3.74,0-6.5-2.64-6.5-6.81s2.66-6.77,6.5-6.77a6,6,0,0,1,6.31,6.29,11.43,11.43,0,0,1-.07,1.32H793.28a4.13,4.13,0,0,0,4.27,4.12,3.59,3.59,0,0,0,3.69-2.42h2.36A5.92,5.92,0,0,1,797.55,147.53Zm-4.24-7.75h8.3a3.87,3.87,0,0,0-4.16-4A4.07,4.07,0,0,0,793.31,139.78Z"/><path class="bce160a5-e119-4bc6-9de1-75e7163443ee" d="M808.83,147.32h-2.19V134.17h2.19v2.14a4.4,4.4,0,0,1,4.24-2.38v2.26h-.57c-2.09,0-3.67.93-3.67,4Z"/><path class="bce160a5-e119-4bc6-9de1-75e7163443ee" d="M822.34,134c3.53,0,6.24,2.64,6.24,6.75s-2.71,6.83-6.24,6.83a5.68,5.68,0,0,1-4.92-2.64v8.66h-2.18V134.17h2.18v2.42A5.57,5.57,0,0,1,822.34,134Zm-.45,1.9a4.52,4.52,0,0,0-4.47,4.87c0,3.09,2.09,4.89,4.47,4.89s4.46-1.82,4.46-4.91S824.31,135.85,821.89,135.85Z"/><path class="bce160a5-e119-4bc6-9de1-75e7163443ee" d="M833.54,147.32h-2.18V134.17h2.18v2.14a4.43,4.43,0,0,1,4.25-2.38v2.26h-.58c-2.08,0-3.67.93-3.67,4Z"/><path class="bce160a5-e119-4bc6-9de1-75e7163443ee" d="M845.48,147.53c-3.75,0-6.51-2.64-6.51-6.81s2.67-6.77,6.51-6.77a6,6,0,0,1,6.3,6.29,11.43,11.43,0,0,1-.07,1.32H841.2a4.13,4.13,0,0,0,4.28,4.12,3.61,3.61,0,0,0,3.69-2.42h2.35A5.9,5.9,0,0,1,845.48,147.53Zm-4.25-7.75h8.3a3.86,3.86,0,0,0-4.15-4A4.07,4.07,0,0,0,841.23,139.78Z"/><path class="bce160a5-e119-4bc6-9de1-75e7163443ee" d="M854.77,136h-1.7v-1.8h1.7v-3.31H857v3.31h3.43V136H857v7.75c0,1.29.48,1.75,1.83,1.75h1.6v1.85h-2c-2.33,0-3.65-1-3.65-3.6Z"/><path class="bce160a5-e119-4bc6-9de1-75e7163443ee" d="M867.78,134a5.46,5.46,0,0,1,4.89,2.62v-2.4h2.21v13.15h-2.21v-2.45a5.49,5.49,0,0,1-4.92,2.66c-3.5,0-6.21-2.76-6.21-6.83S864.25,134,867.78,134Zm.43,1.9c-2.4,0-4.44,1.75-4.44,4.85s2,4.91,4.44,4.91,4.46-1.8,4.46-4.89S870.61,135.85,868.21,135.85Z"/><path class="bce160a5-e119-4bc6-9de1-75e7163443ee" d="M884.06,134c3.27,0,5.4,1.68,6.07,4.44h-2.35a3.58,3.58,0,0,0-3.72-2.59c-2.39,0-4.17,1.7-4.17,4.92s1.78,5,4.17,5a3.52,3.52,0,0,0,3.72-2.59h2.35a5.84,5.84,0,0,1-6.07,4.44c-3.74,0-6.4-2.64-6.4-6.81S880.32,134,884.06,134Z"/><path class="bce160a5-e119-4bc6-9de1-75e7163443ee" d="M892.45,130.55a1.46,1.46,0,1,1,1.48,1.49A1.46,1.46,0,0,1,892.45,130.55Zm.36,3.62H895v13.15h-2.18Z"/><path class="bce160a5-e119-4bc6-9de1-75e7163443ee" d="M904.25,147.53c-3.72,0-6.55-2.64-6.55-6.81a6.65,6.65,0,1,1,13.29,0A6.52,6.52,0,0,1,904.25,147.53Zm0-1.92c2.28,0,4.51-1.56,4.51-4.89s-2.18-4.87-4.44-4.87-4.38,1.56-4.38,4.87S902,145.61,904.25,145.61Zm2.45-17.22v1.89L901.59,133v-1.63Z"/><path class="bce160a5-e119-4bc6-9de1-75e7163443ee" d="M923.39,139.88c0-2.69-1.46-4-3.67-4s-3.76,1.39-3.76,4.22v7.27h-2.18V134.17H916V136a4.84,4.84,0,0,1,4.22-2.11c3.05,0,5.37,1.87,5.37,5.64v7.75h-2.16Z"/><ellipse class="b1a29c14-06f2-4151-b6a4-cde0f3ebd0b9" cx="843.32" cy="144.02" rx="134.16" ry="71.33"/><polygon class="b536bf80-fc43-46bc-99c8-638fc16e5be4" points="707.04 144.02 693.97 136.48 693.97 151.56 707.04 144.02"/></svg>