<svg xmlns="http://www.w3.org/2000/svg" xmlns:xlink="http://www.w3.org/1999/xlink" viewBox="0 0 1003.01 330.05"><defs><style>.a,.f,.g{fill:none;}.b{isolation:isolate;}.c{clip-path:url(#a);}.d,.e{opacity:0.3;mix-blend-mode:multiply;}.d{fill:url(#b);}.e{fill:url(#c);}.f{stroke:#b3b3b3;stroke-linecap:round;stroke-linejoin:round;}.f,.g{stroke-width:2px;}.g{stroke:#fd893b;stroke-miterlimit:10;}.h{font-size:23.99px;fill:#272b31;font-family:Poppins-Regular, Poppins;}.i{letter-spacing:-0.02em;}.j{letter-spacing:0em;}.k{letter-spacing:-0.01em;}.l{letter-spacing:0em;}.m{letter-spacing:0em;}.n{letter-spacing:-0.01em;}.o{letter-spacing:-0.01em;}.p{letter-spacing:0em;}.q{letter-spacing:-0.02em;}.r{letter-spacing:-0.01em;}.s{letter-spacing:-0.01em;}.t{letter-spacing:-0.01em;}.u{letter-spacing:-0.01em;}.v{letter-spacing:-0.01em;}.w{letter-spacing:-0.01em;}.x{letter-spacing:0em;}.y{letter-spacing:-0.01em;}.z{letter-spacing:-0.03em;}.aa{letter-spacing:-0.01em;}.ab{letter-spacing:-0.02em;}.ac{letter-spacing:-0.01em;}.ad{letter-spacing:-0.03em;}.ae{letter-spacing:-0.01em;}.af{letter-spacing:-0.02em;}.ag{letter-spacing:-0.01em;}.ah{letter-spacing:-0.03em;}.ai{letter-spacing:-0.02em;}.aj{letter-spacing:-0.02em;}.ak{letter-spacing:-0.01em;}.al{letter-spacing:-0.03em;}.am{letter-spacing:-0.01em;}.an{letter-spacing:-0.03em;}.ao{letter-spacing:-0.01em;}.ap{letter-spacing:-0.01em;}.aq{letter-spacing:0em;}.ar{letter-spacing:0em;}.as{letter-spacing:-0.01em;}.at{letter-spacing:-0.02em;}.au{letter-spacing:-0.01em;}.av{letter-spacing:-0.01em;}.aw{letter-spacing:-0.02em;}.ax{letter-spacing:-0.01em;}.ay{letter-spacing:-0.01em;}.az{letter-spacing:0em;}.ba{letter-spacing:-0.01em;}.bb{letter-spacing:-0.02em;}.bc{fill:#b3b3b3;}</style><clipPath id="a"><rect class="a" x="-150.22" y="-1605.39" width="1366" height="1529.63"/></clipPath><linearGradient id="b" x1="-334.74" y1="-327.93" x2="217.7" y2="224.51" gradientUnits="userSpaceOnUse"><stop offset="0" stop-color="#272b31" stop-opacity="0"/><stop offset="0.02" stop-color="#272b31" stop-opacity="0.04"/><stop offset="0.4" stop-color="#272b31" stop-opacity="0.57"/><stop offset="0.73" stop-color="#272b31" stop-opacity="0.89"/><stop offset="1" stop-color="#272b31"/></linearGradient><linearGradient id="c" x1="544.15" y1="234.07" x2="872.2" y2="562.11" xlink:href="#b"/></defs><g class="b"><g class="c"><circle class="d" cx="-58.52" cy="-51.71" r="390.64"/><circle class="e" cx="708.18" cy="398.09" r="231.96"/></g><path class="f" d="M342.72,268.55H500.17a26.7,26.7,0,0,0,26.7-26.7"/><path class="f" d="M342.72,61.66H500.17A26.72,26.72,0,0,1,526,81.48"/><rect class="g" x="17.36" y="23.41" width="325.36" height="117.12" rx="24.38"/><text class="h" transform="translate(51.08 69.43)"><tspan class="i">R</tspan><tspan class="j" x="14.05" y="0">e</tspan><tspan class="k" x="28.89" y="0">c</tspan><tspan class="l" x="43.21" y="0">o</tspan><tspan class="m" x="58.46" y="0">l</tspan><tspan class="j" x="64.25" y="0">e</tspan><tspan class="n" x="79.09" y="0">cc</tspan><tspan class="o" x="107.76" y="0">i</tspan><tspan class="p" x="113.47" y="0">ó</tspan><tspan x="128.73" y="0">n y </tspan><tspan class="q" x="170.4" y="0">A</tspan><tspan class="r" x="186.17" y="0">n</tspan><tspan class="s" x="201.41" y="0">á</tspan><tspan class="t" x="217.46" y="0">l</tspan><tspan class="u" x="223.18" y="0">i</tspan><tspan class="v" x="228.85" y="0">s</tspan><tspan class="w" x="241.21" y="0">i</tspan><tspan x="246.88" y="0">s</tspan><tspan class="p" x="3.76" y="35.98">d</tspan><tspan x="19.88" y="35.98">e </tspan><tspan class="x" x="41.16" y="35.98">D</tspan><tspan class="y" x="58.15" y="35.98">a</tspan><tspan class="z" x="74.19" y="35.98">t</tspan><tspan class="aa" x="82.21" y="35.98">o</tspan><tspan x="97.36" y="35.98">s </tspan><tspan class="ab" x="116.28" y="35.98">C</tspan><tspan class="l" x="134.37" y="35.98">u</tspan><tspan class="s" x="149.61" y="35.98">a</tspan><tspan class="t" x="165.67" y="35.98">l</tspan><tspan class="ac" x="171.39" y="35.98">i</tspan><tspan class="ad" x="177.01" y="35.98">t</tspan><tspan class="ae" x="185.08" y="35.98">a</tspan><tspan class="af" x="201.11" y="35.98">t</tspan><tspan class="ag" x="209.43" y="35.98">i</tspan><tspan class="ah" x="215.16" y="35.98">v</tspan><tspan class="aa" x="227.97" y="35.98">o</tspan><tspan x="243.12" y="35.98">s</tspan></text><rect class="g" x="17.36" y="182.15" width="325.36" height="117.12" rx="24.38"/><text class="h" transform="translate(51.08 228.18)"><tspan class="i">R</tspan><tspan class="j" x="14.05" y="0">e</tspan><tspan class="k" x="28.89" y="0">c</tspan><tspan class="l" x="43.21" y="0">o</tspan><tspan class="m" x="58.46" y="0">l</tspan><tspan class="j" x="64.25" y="0">e</tspan><tspan class="n" x="79.09" y="0">cc</tspan><tspan class="o" x="107.76" y="0">i</tspan><tspan class="p" x="113.47" y="0">ó</tspan><tspan x="128.73" y="0">n y </tspan><tspan class="q" x="170.4" y="0">A</tspan><tspan class="r" x="186.17" y="0">n</tspan><tspan class="s" x="201.41" y="0">á</tspan><tspan class="t" x="217.46" y="0">l</tspan><tspan class="u" x="223.18" y="0">i</tspan><tspan class="v" x="228.85" y="0">s</tspan><tspan class="w" x="241.21" y="0">i</tspan><tspan x="246.88" y="0">s</tspan><tspan class="p" x="-5.04" y="35.98">d</tspan><tspan x="11.08" y="35.98">e </tspan><tspan class="x" x="32.36" y="35.98">D</tspan><tspan class="y" x="49.36" y="35.98">a</tspan><tspan class="z" x="65.39" y="35.98">t</tspan><tspan class="aa" x="73.41" y="35.98">o</tspan><tspan x="88.56" y="35.98">s </tspan><tspan class="ab" x="107.49" y="35.98">C</tspan><tspan class="l" x="125.57" y="35.98">u</tspan><tspan class="v" x="140.82" y="35.98">a</tspan><tspan class="ai" x="156.88" y="35.98">n</tspan><tspan class="aj" x="171.86" y="35.98">t</tspan><tspan class="ak" x="180.19" y="35.98">i</tspan><tspan class="al" x="185.81" y="35.98">t</tspan><tspan class="ae" x="193.87" y="35.98">a</tspan><tspan class="af" x="209.91" y="35.98">t</tspan><tspan class="am" x="218.23" y="35.98">i</tspan><tspan class="an" x="223.96" y="35.98">v</tspan><tspan class="ao" x="236.76" y="35.98">o</tspan><tspan x="251.91" y="35.98">s</tspan></text><line class="f" x1="661.04" y1="164.34" x2="697.15" y2="164.34"/><text class="h" transform="translate(445 151.64)"><tspan class="ap">C</tspan><tspan class="aq" x="18.2" y="0">o</tspan><tspan class="ar" x="33.46" y="0">m</tspan><tspan class="j" x="58.06" y="0">p</tspan><tspan class="as" x="74.25" y="0">a</tspan><tspan class="at" x="90.31" y="0">r</tspan><tspan class="p" x="98.74" y="0">a</tspan><tspan class="au" x="114.86" y="0">c</tspan><tspan class="av" x="129.19" y="0">i</tspan><tspan class="p" x="134.9" y="0">ó</tspan><tspan x="150.16" y="0">n </tspan><tspan x="16.51" y="35.98">y </tspan><tspan class="k" x="36.42" y="35.98">c</tspan><tspan class="p" x="50.75" y="35.98">o</tspan><tspan class="ai" x="66" y="35.98">n</tspan><tspan class="af" x="80.99" y="35.98">t</tspan><tspan class="aw" x="89.31" y="35.98">r</tspan><tspan class="ax" x="97.74" y="35.98">a</tspan><tspan class="ay" x="113.81" y="35.98">s</tspan><tspan class="al" x="126.06" y="35.98">t</tspan><tspan x="134.13" y="35.98">e</tspan></text><ellipse class="g" cx="526.87" cy="164.34" rx="134.17" ry="71.34"/><text class="h" transform="translate(763.05 167.63)"><tspan class="az">I</tspan><tspan class="ai" x="5.82" y="0">n</tspan><tspan class="al" x="20.8" y="0">t</tspan><tspan class="p" x="28.87" y="0">e</tspan><tspan class="ba" x="43.65" y="0">r</tspan><tspan class="p" x="52.25" y="0">p</tspan><tspan class="at" x="68.37" y="0">r</tspan><tspan class="bb" x="76.79" y="0">e</tspan><tspan class="ad" x="91.3" y="0">t</tspan><tspan class="p" x="99.36" y="0">a</tspan><tspan class="au" x="115.48" y="0">c</tspan><tspan class="o" x="129.81" y="0">i</tspan><tspan class="aq" x="135.53" y="0">ó</tspan><tspan x="150.78" y="0">n</tspan></text><ellipse class="g" cx="845.22" cy="164.34" rx="134.17" ry="71.34"/><polygon class="bc" points="527.74 237.64 517.8 248.99 532.6 251.93 527.74 237.64"/><polygon class="bc" points="527.21 90.99 517.27 79.64 532.07 76.71 527.21 90.99"/><polygon class="bc" points="708.93 164.34 695.87 156.79 695.87 171.88 708.93 164.34"/></g></svg>