<svg id="a90a70ca-23d0-4902-a639-b86d411d6685" data-name="Capa 1" xmlns="http://www.w3.org/2000/svg" viewBox="0 0 982.34 380.67"><defs><style>.a5174e4b-dc52-44b5-ac19-921c778c1c34,.eade81c0-d195-4aff-a126-244df6eba67b{fill:none;stroke-width:2px;}.eade81c0-d195-4aff-a126-244df6eba67b{stroke:#b3b3b3;stroke-linecap:round;stroke-linejoin:round;}.a5174e4b-dc52-44b5-ac19-921c778c1c34{stroke:#fd893b;stroke-miterlimit:10;}.bc2a56e5-74a6-4dbb-8e95-0d9c482d99a8{fill:#272b31;}.f37e7a1a-3b0b-4969-b554-023b4ca8efb4{fill:#b3b3b3;}</style></defs><line class="eade81c0-d195-4aff-a126-244df6eba67b" x1="282.05" y1="88.02" x2="343.54" y2="88.02"/><rect class="a5174e4b-dc52-44b5-ac19-921c778c1c34" x="10.13" y="18.43" width="271.92" height="150.46" rx="25.26"/><line class="eade81c0-d195-4aff-a126-244df6eba67b" x1="838.88" y1="168.89" x2="838.88" y2="207.13"/><rect class="a5174e4b-dc52-44b5-ac19-921c778c1c34" x="700.03" y="18.43" width="271.92" height="150.46" rx="25.26"/><path class="bc2a56e5-74a6-4dbb-8e95-0d9c482d99a8" d="M82,47.74c3.93,0,5.8,2.18,5.8,4.91a4.71,4.71,0,0,1-4,4.8l4.2,7H85.43l-4-6.83H78.81v6.83H76.63V47.74Zm0,1.79H78.81v6.34H82c2.47,0,3.55-1.35,3.55-3.22S84.52,49.53,82,49.53Z"/><path class="bc2a56e5-74a6-4dbb-8e95-0d9c482d99a8" d="M96.36,64.67c-3.74,0-6.5-2.64-6.5-6.81s2.66-6.77,6.5-6.77a6,6,0,0,1,6.31,6.29,11.43,11.43,0,0,1-.07,1.32H92.09a4.13,4.13,0,0,0,4.27,4.12,3.61,3.61,0,0,0,3.7-2.42h2.35A5.92,5.92,0,0,1,96.36,64.67Zm-4.24-7.75h8.3a3.86,3.86,0,0,0-4.15-4A4.07,4.07,0,0,0,92.12,56.92Z"/><path class="bc2a56e5-74a6-4dbb-8e95-0d9c482d99a8" d="M111.11,51.09c3.26,0,5.4,1.68,6.07,4.44h-2.35a3.59,3.59,0,0,0-3.72-2.59c-2.4,0-4.17,1.7-4.17,4.92s1.77,5,4.17,5a3.53,3.53,0,0,0,3.72-2.59h2.35a5.85,5.85,0,0,1-6.07,4.44c-3.74,0-6.4-2.64-6.4-6.81S107.37,51.09,111.11,51.09Z"/><path class="bc2a56e5-74a6-4dbb-8e95-0d9c482d99a8" d="M125.58,64.67c-3.72,0-6.55-2.64-6.55-6.81a6.65,6.65,0,1,1,13.29,0A6.52,6.52,0,0,1,125.58,64.67Zm0-1.92c2.28,0,4.51-1.56,4.51-4.89S127.9,53,125.65,53s-4.39,1.56-4.39,4.87S123.3,62.75,125.58,62.75Z"/><path class="bc2a56e5-74a6-4dbb-8e95-0d9c482d99a8" d="M135.09,46.7h2.18V64.45h-2.18Z"/><path class="bc2a56e5-74a6-4dbb-8e95-0d9c482d99a8" d="M146.56,64.67c-3.74,0-6.5-2.64-6.5-6.81s2.66-6.77,6.5-6.77a6,6,0,0,1,6.31,6.29c0,.48,0,.86-.07,1.32H142.29a4.13,4.13,0,0,0,4.27,4.12,3.6,3.6,0,0,0,3.69-2.42h2.35A5.9,5.9,0,0,1,146.56,64.67Zm-4.25-7.75h8.3a3.85,3.85,0,0,0-4.15-4A4.08,4.08,0,0,0,142.31,56.92Z"/><path class="bc2a56e5-74a6-4dbb-8e95-0d9c482d99a8" d="M161.31,51.09c3.26,0,5.39,1.68,6.07,4.44H165a3.57,3.57,0,0,0-3.71-2.59c-2.4,0-4.18,1.7-4.18,4.92s1.78,5,4.18,5A3.51,3.51,0,0,0,165,60.23h2.36a5.85,5.85,0,0,1-6.07,4.44c-3.75,0-6.41-2.64-6.41-6.81S157.56,51.09,161.31,51.09Z"/><path class="bc2a56e5-74a6-4dbb-8e95-0d9c482d99a8" d="M175.64,51.09c3.26,0,5.4,1.68,6.07,4.44h-2.35a3.58,3.58,0,0,0-3.72-2.59c-2.4,0-4.17,1.7-4.17,4.92s1.77,5,4.17,5a3.52,3.52,0,0,0,3.72-2.59h2.35a5.85,5.85,0,0,1-6.07,4.44c-3.74,0-6.4-2.64-6.4-6.81S171.9,51.09,175.64,51.09Z"/><path class="bc2a56e5-74a6-4dbb-8e95-0d9c482d99a8" d="M184,47.69a1.47,1.47,0,0,1,1.49-1.49A1.49,1.49,0,1,1,184,47.69Zm.36,3.62h2.18V64.45h-2.18Z"/><path class="bc2a56e5-74a6-4dbb-8e95-0d9c482d99a8" d="M195.83,64.67c-3.71,0-6.54-2.64-6.54-6.81a6.65,6.65,0,1,1,13.29,0A6.52,6.52,0,0,1,195.83,64.67Zm0-1.92c2.28,0,4.51-1.56,4.51-4.89S198.16,53,195.91,53s-4.39,1.56-4.39,4.87S193.56,62.75,195.83,62.75Zm2.45-17.22v1.89l-5.11,2.74V48.53Z"/><path class="bc2a56e5-74a6-4dbb-8e95-0d9c482d99a8" d="M215,57c0-2.69-1.47-4.06-3.67-4.06s-3.77,1.4-3.77,4.23v7.26h-2.18V51.31h2.18v1.87a4.86,4.86,0,0,1,4.22-2.11c3.05,0,5.38,1.87,5.38,5.64v7.74H215Z"/><path class="bc2a56e5-74a6-4dbb-8e95-0d9c482d99a8" d="M47,87.29h2.26l-7.92,19.34H39.1l2.6-6.34-5.31-13h2.43l4.12,10.65Z"/><path class="bc2a56e5-74a6-4dbb-8e95-0d9c482d99a8" d="M67.75,96.72h-7.3l-1.34,3.72h-2.3l6-16.63h2.52l6,16.63h-2.3ZM64.1,86.5l-3,8.44h6Z"/><path class="bc2a56e5-74a6-4dbb-8e95-0d9c482d99a8" d="M83.26,93c0-2.69-1.46-4-3.67-4s-3.77,1.39-3.77,4.22v7.27H73.64V87.29h2.18v1.87A4.88,4.88,0,0,1,80,87.05c3,0,5.38,1.87,5.38,5.64v7.75H83.26Z"/><path class="bc2a56e5-74a6-4dbb-8e95-0d9c482d99a8" d="M94.29,87.08a5.46,5.46,0,0,1,4.9,2.61v-2.4h2.2v13.15h-2.2V98a5.48,5.48,0,0,1-4.92,2.66c-3.5,0-6.21-2.76-6.21-6.83S90.77,87.08,94.29,87.08ZM94.73,89c-2.4,0-4.44,1.75-4.44,4.85s2,4.91,4.44,4.91,4.46-1.79,4.46-4.89S97.12,89,94.73,89Zm2.75-7.29v1.89l-5.1,2.74V84.68Z"/><path class="bc2a56e5-74a6-4dbb-8e95-0d9c482d99a8" d="M104.93,82.69h2.18v17.75h-2.18Z"/><path class="bc2a56e5-74a6-4dbb-8e95-0d9c482d99a8" d="M110.29,83.67a1.47,1.47,0,1,1,1.49,1.49A1.47,1.47,0,0,1,110.29,83.67Zm.36,3.62h2.18v13.15h-2.18Z"/><path class="bc2a56e5-74a6-4dbb-8e95-0d9c482d99a8" d="M121,100.65c-3.07,0-5.23-1.68-5.37-4.07h2.25c.12,1.27,1.25,2.23,3.09,2.23s2.69-.87,2.69-2c0-2.92-7.77-1.22-7.77-6.11,0-2,1.89-3.67,4.82-3.67s4.82,1.56,5,4.12h-2.19c-.09-1.32-1.1-2.28-2.85-2.28s-2.57.77-2.57,1.83c0,3.12,7.63,1.41,7.73,6.11C125.77,99,123.87,100.65,121,100.65Z"/><path class="bc2a56e5-74a6-4dbb-8e95-0d9c482d99a8" d="M128.32,83.67a1.47,1.47,0,1,1,1.49,1.49A1.47,1.47,0,0,1,128.32,83.67Zm.36,3.62h2.18v13.15h-2.18Z"/><path class="bc2a56e5-74a6-4dbb-8e95-0d9c482d99a8" d="M139,100.65c-3.07,0-5.23-1.68-5.37-4.07h2.25c.12,1.27,1.25,2.23,3.1,2.23s2.68-.87,2.68-2c0-2.92-7.77-1.22-7.77-6.11,0-2,1.9-3.67,4.82-3.67s4.82,1.56,5,4.12h-2.19c-.09-1.32-1.1-2.28-2.85-2.28s-2.57.77-2.57,1.83c0,3.12,7.63,1.41,7.73,6.11C143.8,99,141.9,100.65,139,100.65Z"/><path class="bc2a56e5-74a6-4dbb-8e95-0d9c482d99a8" d="M158.72,87.08a5.73,5.73,0,0,1,4.87,2.56v-7h2.2v17.75h-2.2V98a5.41,5.41,0,0,1-4.9,2.68c-3.52,0-6.23-2.76-6.23-6.83S155.17,87.08,158.72,87.08Zm.41,1.89c-2.4,0-4.44,1.75-4.44,4.85s2,4.91,4.44,4.91,4.46-1.79,4.46-4.89S161.52,89,159.13,89Z"/><path class="bc2a56e5-74a6-4dbb-8e95-0d9c482d99a8" d="M175.08,100.65c-3.74,0-6.5-2.64-6.5-6.81s2.66-6.76,6.5-6.76a6,6,0,0,1,6.31,6.28,11.41,11.41,0,0,1-.08,1.32h-10.5a4.14,4.14,0,0,0,4.27,4.13,3.61,3.61,0,0,0,3.69-2.43h2.35A5.9,5.9,0,0,1,175.08,100.65Zm-4.25-7.74h8.3a3.86,3.86,0,0,0-4.15-4A4.08,4.08,0,0,0,170.83,92.91Z"/><path class="bc2a56e5-74a6-4dbb-8e95-0d9c482d99a8" d="M204.75,92.11c0,5.19-3.38,8.33-8.88,8.33h-5.2V83.72h5.2C201.37,83.72,204.75,86.93,204.75,92.11Zm-8.88,6.53c4.37,0,6.65-2.45,6.65-6.53s-2.28-6.62-6.65-6.62h-3V98.64Z"/><path class="bc2a56e5-74a6-4dbb-8e95-0d9c482d99a8" d="M213.09,87.08A5.45,5.45,0,0,1,218,89.69v-2.4h2.21v13.15H218V98a5.48,5.48,0,0,1-4.92,2.66c-3.5,0-6.21-2.76-6.21-6.83S209.56,87.08,213.09,87.08Zm.43,1.89c-2.4,0-4.44,1.75-4.44,4.85s2,4.91,4.44,4.91S218,96.94,218,93.84,215.92,89,213.52,89Z"/><path class="bc2a56e5-74a6-4dbb-8e95-0d9c482d99a8" d="M224.18,89.09h-1.7v-1.8h1.7V84h2.18v3.31h3.43v1.8h-3.43v7.75c0,1.29.48,1.75,1.83,1.75h1.6v1.85h-2c-2.33,0-3.65-1-3.65-3.6Z"/><path class="bc2a56e5-74a6-4dbb-8e95-0d9c482d99a8" d="M237.45,100.65c-3.72,0-6.55-2.64-6.55-6.81a6.65,6.65,0,1,1,13.29,0A6.52,6.52,0,0,1,237.45,100.65Zm0-1.92c2.28,0,4.51-1.55,4.51-4.89S239.78,89,237.52,89s-4.39,1.56-4.39,4.87S235.17,98.73,237.45,98.73Z"/><path class="bc2a56e5-74a6-4dbb-8e95-0d9c482d99a8" d="M251.52,100.65c-3.07,0-5.23-1.68-5.37-4.07h2.25c.12,1.27,1.25,2.23,3.1,2.23s2.68-.87,2.68-2c0-2.92-7.77-1.22-7.77-6.11,0-2,1.9-3.67,4.82-3.67s4.82,1.56,5,4.12H254c-.1-1.32-1.11-2.28-2.86-2.28s-2.57.77-2.57,1.83c0,3.12,7.63,1.41,7.73,6.11C256.32,99,254.42,100.65,251.52,100.65Z"/><path class="bc2a56e5-74a6-4dbb-8e95-0d9c482d99a8" d="M69.09,119.49a7.86,7.86,0,0,1,7.75,5.06H74.23a5.27,5.27,0,0,0-5.14-3.15c-3.5,0-6.11,2.55-6.11,6.65s2.61,6.62,6.11,6.62a5.29,5.29,0,0,0,5.14-3.12h2.61a7.86,7.86,0,0,1-7.75,5,8.54,8.54,0,0,1,0-17.07Z"/><path class="bc2a56e5-74a6-4dbb-8e95-0d9c482d99a8" d="M79.63,119.7h2.18v10.58c0,3.07,1.66,4.39,4.13,4.39s4.1-1.32,4.1-4.39V119.7h2.18v10.56c0,4.34-2.85,6.33-6.31,6.33s-6.28-2-6.28-6.33Z"/><path class="bc2a56e5-74a6-4dbb-8e95-0d9c482d99a8" d="M104.82,132.7H97.53l-1.35,3.72h-2.3l6.05-16.62h2.51l6,16.62h-2.3Zm-3.65-10.22-3,8.45h6Z"/><path class="bc2a56e5-74a6-4dbb-8e95-0d9c482d99a8" d="M123.85,119.68v16.74h-2.18l-8.78-13.31v13.31h-2.18V119.68h2.18L121.67,133V119.68Z"/><path class="bc2a56e5-74a6-4dbb-8e95-0d9c482d99a8" d="M126.11,119.7h11.33v1.78h-4.56v14.94H130.7V121.48h-4.59Z"/><path class="bc2a56e5-74a6-4dbb-8e95-0d9c482d99a8" d="M139.69,119.7h2.18v16.72h-2.18Z"/><path class="bc2a56e5-74a6-4dbb-8e95-0d9c482d99a8" d="M144.1,119.7h11.32v1.78h-4.55v14.94h-2.19V121.48H144.1Z"/><path class="bc2a56e5-74a6-4dbb-8e95-0d9c482d99a8" d="M165.76,132.7h-7.29l-1.35,3.72h-2.3l6.05-16.62h2.51l6,16.62H167.1Zm-3.65-10.22-3,8.45h6Z"/><path class="bc2a56e5-74a6-4dbb-8e95-0d9c482d99a8" d="M168.79,119.7h11.32v1.78h-4.55v14.94h-2.19V121.48h-4.58Z"/><path class="bc2a56e5-74a6-4dbb-8e95-0d9c482d99a8" d="M182.37,119.7h2.18v16.72h-2.18Z"/><path class="bc2a56e5-74a6-4dbb-8e95-0d9c482d99a8" d="M199.47,119.7h2.3l-6.31,16.72H193l-6.31-16.72H189l5.26,14.42Z"/><path class="bc2a56e5-74a6-4dbb-8e95-0d9c482d99a8" d="M210.76,136.59a8.54,8.54,0,1,1,8.4-8.54A8.25,8.25,0,0,1,210.76,136.59Zm0-1.9c3.53,0,6.17-2.56,6.17-6.64s-2.64-6.65-6.17-6.65-6.16,2.55-6.16,6.65S207.24,134.69,210.76,134.69Z"/><path class="bc2a56e5-74a6-4dbb-8e95-0d9c482d99a8" d="M227,136.59c-3.36,0-5.73-1.87-5.78-4.63h2.33c.14,1.39,1.12,2.78,3.45,2.78,2.11,0,3.36-1.2,3.36-2.78,0-4.51-9-1.63-9-7.85,0-2.75,2.23-4.62,5.54-4.62s5.27,1.75,5.54,4.29H230a3,3,0,0,0-3.24-2.42c-1.8,0-3.21.88-3.21,2.68,0,4.32,9,1.63,9,7.82C232.57,134.24,230.62,136.59,227,136.59Z"/><path class="bc2a56e5-74a6-4dbb-8e95-0d9c482d99a8" d="M771.2,48.39c3.93,0,5.8,2.18,5.8,4.92a4.71,4.71,0,0,1-4,4.79l4.2,7H774.6l-4-6.84H768v6.84H765.8V48.39Zm0,1.8H768v6.33h3.22c2.47,0,3.55-1.34,3.55-3.21S773.69,50.19,771.2,50.19Z"/><path class="bc2a56e5-74a6-4dbb-8e95-0d9c482d99a8" d="M785.53,65.32c-3.74,0-6.5-2.64-6.5-6.81s2.66-6.76,6.5-6.76A6,6,0,0,1,791.84,58a11.43,11.43,0,0,1-.07,1.32H781.26a4.14,4.14,0,0,0,4.27,4.13,3.6,3.6,0,0,0,3.69-2.43h2.36A5.92,5.92,0,0,1,785.53,65.32Zm-4.24-7.74h8.29a3.86,3.86,0,0,0-4.15-4A4.07,4.07,0,0,0,781.29,57.58Z"/><path class="bc2a56e5-74a6-4dbb-8e95-0d9c482d99a8" d="M800.28,51.75c3.26,0,5.4,1.68,6.07,4.43H804a3.59,3.59,0,0,0-3.72-2.59c-2.4,0-4.18,1.71-4.18,4.92s1.78,5,4.18,5A3.54,3.54,0,0,0,804,60.89h2.35a5.85,5.85,0,0,1-6.07,4.43c-3.74,0-6.41-2.64-6.41-6.81S796.54,51.75,800.28,51.75Z"/><path class="bc2a56e5-74a6-4dbb-8e95-0d9c482d99a8" d="M814.75,65.32c-3.72,0-6.55-2.64-6.55-6.81a6.65,6.65,0,1,1,13.29,0A6.52,6.52,0,0,1,814.75,65.32Zm0-1.92c2.27,0,4.5-1.55,4.5-4.89s-2.18-4.87-4.43-4.87-4.39,1.56-4.39,4.87S812.47,63.4,814.75,63.4Z"/><path class="bc2a56e5-74a6-4dbb-8e95-0d9c482d99a8" d="M824.26,47.36h2.18V65.11h-2.18Z"/><path class="bc2a56e5-74a6-4dbb-8e95-0d9c482d99a8" d="M835.73,65.32c-3.74,0-6.5-2.64-6.5-6.81s2.66-6.76,6.5-6.76A6,6,0,0,1,842,58a11.41,11.41,0,0,1-.08,1.32h-10.5a4.14,4.14,0,0,0,4.27,4.13,3.6,3.6,0,0,0,3.69-2.43h2.35A5.9,5.9,0,0,1,835.73,65.32Zm-4.25-7.74h8.3a3.86,3.86,0,0,0-4.15-4A4.08,4.08,0,0,0,831.48,57.58Z"/><path class="bc2a56e5-74a6-4dbb-8e95-0d9c482d99a8" d="M850.48,51.75c3.26,0,5.39,1.68,6.06,4.43h-2.35a3.57,3.57,0,0,0-3.71-2.59c-2.4,0-4.18,1.71-4.18,4.92s1.78,5,4.18,5a3.52,3.52,0,0,0,3.71-2.59h2.35a5.84,5.84,0,0,1-6.06,4.43c-3.75,0-6.41-2.64-6.41-6.81S846.73,51.75,850.48,51.75Z"/><path class="bc2a56e5-74a6-4dbb-8e95-0d9c482d99a8" d="M864.81,51.75c3.26,0,5.4,1.68,6.07,4.43h-2.35a3.59,3.59,0,0,0-3.72-2.59c-2.4,0-4.17,1.71-4.17,4.92s1.77,5,4.17,5a3.54,3.54,0,0,0,3.72-2.59h2.35a5.85,5.85,0,0,1-6.07,4.43c-3.74,0-6.4-2.64-6.4-6.81S861.07,51.75,864.81,51.75Z"/><path class="bc2a56e5-74a6-4dbb-8e95-0d9c482d99a8" d="M873.2,48.34a1.46,1.46,0,1,1,1.48,1.49A1.46,1.46,0,0,1,873.2,48.34Zm.36,3.62h2.18V65.11h-2.18Z"/><path class="bc2a56e5-74a6-4dbb-8e95-0d9c482d99a8" d="M885,65.32c-3.71,0-6.55-2.64-6.55-6.81a6.65,6.65,0,1,1,13.29,0A6.51,6.51,0,0,1,885,65.32Zm0-1.92c2.28,0,4.51-1.55,4.51-4.89s-2.18-4.87-4.43-4.87-4.39,1.56-4.39,4.87S882.72,63.4,885,63.4Zm2.45-17.22v1.9l-5.11,2.73V49.18Z"/><path class="bc2a56e5-74a6-4dbb-8e95-0d9c482d99a8" d="M904.15,57.67c0-2.69-1.47-4.05-3.67-4.05s-3.77,1.39-3.77,4.22v7.27h-2.18V52h2.18v1.87a4.87,4.87,0,0,1,4.22-2.11c3.05,0,5.38,1.87,5.38,5.64v7.75h-2.16Z"/><path class="bc2a56e5-74a6-4dbb-8e95-0d9c482d99a8" d="M736.19,88h2.25l-7.91,19.33h-2.26l2.59-6.33-5.3-13H728l4.12,10.65Z"/><path class="bc2a56e5-74a6-4dbb-8e95-0d9c482d99a8" d="M756.91,97.37h-7.29l-1.34,3.72H746l6-16.62h2.52l6,16.62h-2.3Zm-3.64-10.22-3,8.45h6Z"/><path class="bc2a56e5-74a6-4dbb-8e95-0d9c482d99a8" d="M772.43,93.65c0-2.68-1.47-4.05-3.67-4.05S765,91,765,93.82v7.27h-2.18V88H765v1.87a4.86,4.86,0,0,1,4.22-2.11c3,0,5.38,1.87,5.38,5.63v7.75h-2.16Z"/><path class="bc2a56e5-74a6-4dbb-8e95-0d9c482d99a8" d="M783.46,87.73a5.48,5.48,0,0,1,4.9,2.61V88h2.2v13.14h-2.2V98.64a5.5,5.5,0,0,1-4.92,2.67c-3.5,0-6.21-2.76-6.21-6.84S779.94,87.73,783.46,87.73Zm.43,1.89c-2.39,0-4.43,1.76-4.43,4.85s2,4.92,4.43,4.92,4.47-1.8,4.47-4.9A4.51,4.51,0,0,0,783.89,89.62Zm2.76-7.29v1.9L781.54,87V85.33Z"/><path class="bc2a56e5-74a6-4dbb-8e95-0d9c482d99a8" d="M794.1,83.34h2.18v17.75H794.1Z"/><path class="bc2a56e5-74a6-4dbb-8e95-0d9c482d99a8" d="M799.46,84.32a1.46,1.46,0,1,1,1.48,1.49A1.45,1.45,0,0,1,799.46,84.32Zm.36,3.63H802v13.14h-2.18Z"/><path class="bc2a56e5-74a6-4dbb-8e95-0d9c482d99a8" d="M810.13,101.31c-3.07,0-5.22-1.68-5.37-4.08H807c.12,1.27,1.24,2.23,3.09,2.23s2.69-.86,2.69-1.94c0-2.93-7.77-1.23-7.77-6.12,0-2,1.89-3.67,4.82-3.67s4.82,1.56,5,4.13h-2.18c-.1-1.32-1.1-2.28-2.85-2.28s-2.57.76-2.57,1.82c0,3.12,7.63,1.41,7.72,6.12C814.93,99.68,813,101.31,810.13,101.31Z"/><path class="bc2a56e5-74a6-4dbb-8e95-0d9c482d99a8" d="M817.49,84.32A1.46,1.46,0,0,1,819,82.84a1.49,1.49,0,0,1,0,3A1.47,1.47,0,0,1,817.49,84.32Zm.36,3.63H820v13.14h-2.18Z"/><path class="bc2a56e5-74a6-4dbb-8e95-0d9c482d99a8" d="M828.17,101.31c-3.07,0-5.23-1.68-5.38-4.08h2.26c.12,1.27,1.25,2.23,3.09,2.23s2.69-.86,2.69-1.94c0-2.93-7.77-1.23-7.77-6.12,0-2,1.89-3.67,4.82-3.67s4.82,1.56,5,4.13h-2.18c-.09-1.32-1.1-2.28-2.85-2.28s-2.57.76-2.57,1.82c0,3.12,7.63,1.41,7.72,6.12C833,99.68,831.07,101.31,828.17,101.31Z"/><path class="bc2a56e5-74a6-4dbb-8e95-0d9c482d99a8" d="M847.88,87.73a5.7,5.7,0,0,1,4.87,2.57v-7H855v17.75h-2.21V98.62a5.4,5.4,0,0,1-4.89,2.69c-3.53,0-6.24-2.76-6.24-6.84S844.33,87.73,847.88,87.73Zm.41,1.89c-2.4,0-4.44,1.76-4.44,4.85s2,4.92,4.44,4.92,4.46-1.8,4.46-4.9S850.69,89.62,848.29,89.62Z"/><path class="bc2a56e5-74a6-4dbb-8e95-0d9c482d99a8" d="M864.25,101.31c-3.75,0-6.51-2.64-6.51-6.82s2.67-6.76,6.51-6.76a6,6,0,0,1,6.3,6.28,11.31,11.31,0,0,1-.07,1.32H860a4.12,4.12,0,0,0,4.27,4.13A3.62,3.62,0,0,0,867.94,97h2.35A5.91,5.91,0,0,1,864.25,101.31ZM860,93.56h8.3a3.86,3.86,0,0,0-4.15-4A4.06,4.06,0,0,0,860,93.56Z"/><path class="bc2a56e5-74a6-4dbb-8e95-0d9c482d99a8" d="M893.92,92.77c0,5.18-3.38,8.32-8.88,8.32h-5.2V84.37H885C890.54,84.37,893.92,87.59,893.92,92.77ZM885,99.29c4.37,0,6.65-2.45,6.65-6.52s-2.28-6.62-6.65-6.62h-3V99.29Z"/><path class="bc2a56e5-74a6-4dbb-8e95-0d9c482d99a8" d="M902.25,87.73a5.48,5.48,0,0,1,4.9,2.61V88h2.2v13.14h-2.2V98.64a5.49,5.49,0,0,1-4.92,2.67c-3.5,0-6.21-2.76-6.21-6.84S898.73,87.73,902.25,87.73Zm.44,1.89c-2.4,0-4.44,1.76-4.44,4.85s2,4.92,4.44,4.92,4.46-1.8,4.46-4.9S905.08,89.62,902.69,89.62Z"/><path class="bc2a56e5-74a6-4dbb-8e95-0d9c482d99a8" d="M913.35,89.74h-1.7V88h1.7V84.64h2.18V88H919v1.79h-3.43v7.75c0,1.3.48,1.75,1.82,1.75H919v1.85h-2c-2.32,0-3.64-1-3.64-3.6Z"/><path class="bc2a56e5-74a6-4dbb-8e95-0d9c482d99a8" d="M926.62,101.31c-3.72,0-6.55-2.64-6.55-6.82a6.65,6.65,0,1,1,13.29,0A6.52,6.52,0,0,1,926.62,101.31Zm0-1.92c2.28,0,4.51-1.56,4.51-4.9s-2.19-4.87-4.44-4.87-4.39,1.56-4.39,4.87S924.34,99.39,926.62,99.39Z"/><path class="bc2a56e5-74a6-4dbb-8e95-0d9c482d99a8" d="M940.69,101.31c-3.07,0-5.23-1.68-5.38-4.08h2.26c.12,1.27,1.25,2.23,3.09,2.23s2.69-.86,2.69-1.94c0-2.93-7.77-1.23-7.77-6.12,0-2,1.89-3.67,4.82-3.67s4.82,1.56,5,4.13h-2.18c-.09-1.32-1.1-2.28-2.85-2.28s-2.57.76-2.57,1.82c0,3.12,7.63,1.41,7.72,6.12C945.48,99.68,943.59,101.31,940.69,101.31Z"/><path class="bc2a56e5-74a6-4dbb-8e95-0d9c482d99a8" d="M775.69,120.14a7.87,7.87,0,0,1,7.75,5.06h-2.61a5.27,5.27,0,0,0-5.14-3.14c-3.5,0-6.11,2.54-6.11,6.64s2.61,6.62,6.11,6.62a5.29,5.29,0,0,0,5.14-3.12h2.61a7.87,7.87,0,0,1-7.75,5,8.54,8.54,0,0,1,0-17.08Z"/><path class="bc2a56e5-74a6-4dbb-8e95-0d9c482d99a8" d="M797.91,137.07h-2.19v-1.94a4.82,4.82,0,0,1-4.2,2.13c-3,0-5.39-1.87-5.39-5.63v-7.7h2.16v7.41c0,2.66,1.46,4,3.67,4s3.76-1.39,3.76-4.22v-7.22h2.19Z"/><path class="bc2a56e5-74a6-4dbb-8e95-0d9c482d99a8" d="M806.91,123.71a5.46,5.46,0,0,1,4.9,2.62v-2.4H814v13.14h-2.2v-2.44a5.52,5.52,0,0,1-4.92,2.66c-3.5,0-6.21-2.76-6.21-6.84S803.39,123.71,806.91,123.71Zm.43,1.9c-2.39,0-4.43,1.75-4.43,4.84s2,4.92,4.43,4.92,4.47-1.8,4.47-4.89S809.74,125.61,807.34,125.61Z"/><path class="bc2a56e5-74a6-4dbb-8e95-0d9c482d99a8" d="M817.55,119.32h2.18v17.75h-2.18Z"/><path class="bc2a56e5-74a6-4dbb-8e95-0d9c482d99a8" d="M822.91,120.31a1.46,1.46,0,1,1,2.92,0,1.46,1.46,0,1,1-2.92,0Zm.36,3.62h2.18v13.14h-2.18Z"/><path class="bc2a56e5-74a6-4dbb-8e95-0d9c482d99a8" d="M829.37,125.73h-1.71v-1.8h1.71v-3.31h2.18v3.31H835v1.8h-3.43v7.74c0,1.3.48,1.76,1.82,1.76H835v1.84h-2c-2.32,0-3.64-1-3.64-3.6Z"/><path class="bc2a56e5-74a6-4dbb-8e95-0d9c482d99a8" d="M842.37,123.71a5.46,5.46,0,0,1,4.9,2.62v-2.4h2.21v13.14h-2.21v-2.44a5.5,5.5,0,0,1-4.92,2.66c-3.5,0-6.21-2.76-6.21-6.84S838.85,123.71,842.37,123.71Zm.44,1.9c-2.4,0-4.44,1.75-4.44,4.84s2,4.92,4.44,4.92,4.46-1.8,4.46-4.89S845.21,125.61,842.81,125.61Z"/><path class="bc2a56e5-74a6-4dbb-8e95-0d9c482d99a8" d="M853.47,125.73h-1.7v-1.8h1.7v-3.31h2.18v3.31h3.43v1.8h-3.43v7.74c0,1.3.48,1.76,1.83,1.76h1.6v1.84h-2c-2.33,0-3.65-1-3.65-3.6Z"/><path class="bc2a56e5-74a6-4dbb-8e95-0d9c482d99a8" d="M861,120.31a1.47,1.47,0,1,1,2.93,0,1.47,1.47,0,1,1-2.93,0Zm.36,3.62h2.19v13.14h-2.19Z"/><path class="bc2a56e5-74a6-4dbb-8e95-0d9c482d99a8" d="M867.83,123.93l4.1,11.13L876,123.93h2.32l-5.15,13.14h-2.55l-5.15-13.14Z"/><path class="bc2a56e5-74a6-4dbb-8e95-0d9c482d99a8" d="M885.58,137.29c-3.72,0-6.55-2.64-6.55-6.81a6.65,6.65,0,1,1,13.29,0A6.52,6.52,0,0,1,885.58,137.29Zm0-1.92c2.28,0,4.51-1.56,4.51-4.89s-2.18-4.87-4.44-4.87-4.39,1.56-4.39,4.87S883.3,135.37,885.58,135.37Z"/><path class="bc2a56e5-74a6-4dbb-8e95-0d9c482d99a8" d="M899.65,137.29c-3.07,0-5.23-1.68-5.38-4.08h2.26c.12,1.27,1.25,2.23,3.09,2.23s2.69-.86,2.69-1.94c0-2.93-7.77-1.22-7.77-6.12,0-2,1.89-3.67,4.82-3.67s4.82,1.56,5,4.13h-2.19c-.09-1.32-1.1-2.28-2.85-2.28s-2.57.77-2.57,1.82c0,3.12,7.63,1.42,7.73,6.12C904.45,135.66,902.55,137.29,899.65,137.29Z"/><line class="eade81c0-d195-4aff-a126-244df6eba67b" x1="625.36" y1="88.02" x2="686.86" y2="88.02"/><polygon class="f37e7a1a-3b0b-4969-b554-023b4ca8efb4" points="698.64 88.02 685.57 80.48 685.57 95.57 698.64 88.02"/><path class="bc2a56e5-74a6-4dbb-8e95-0d9c482d99a8" d="M423.18,75.49c-3.35,0-5.73-1.87-5.78-4.63h2.33c.14,1.4,1.13,2.79,3.45,2.79,2.11,0,3.36-1.2,3.36-2.79,0-4.51-9-1.63-9-7.84,0-2.76,2.23-4.63,5.54-4.63s5.28,1.75,5.54,4.29h-2.4a3,3,0,0,0-3.24-2.42c-1.79,0-3.21.89-3.21,2.69,0,4.32,9,1.63,9,7.82C428.75,73.14,426.81,75.49,423.18,75.49Z"/><path class="bc2a56e5-74a6-4dbb-8e95-0d9c482d99a8" d="M437.44,75.54c-3.74,0-6.5-2.64-6.5-6.81S433.6,62,437.44,62a6,6,0,0,1,6.31,6.29,11.41,11.41,0,0,1-.08,1.32h-10.5a4.13,4.13,0,0,0,4.27,4.12,3.6,3.6,0,0,0,3.69-2.42h2.35A5.9,5.9,0,0,1,437.44,75.54Zm-4.25-7.75h8.3a3.85,3.85,0,0,0-4.15-4A4.08,4.08,0,0,0,433.19,67.79Z"/><path class="bc2a56e5-74a6-4dbb-8e95-0d9c482d99a8" d="M458.62,62c3.26,0,5.4,1.68,6.07,4.44h-2.35a3.59,3.59,0,0,0-3.72-2.59c-2.4,0-4.17,1.7-4.17,4.92s1.77,5,4.17,5a3.53,3.53,0,0,0,3.72-2.59h2.35a5.85,5.85,0,0,1-6.07,4.44c-3.74,0-6.41-2.64-6.41-6.81S454.88,62,458.62,62Z"/><path class="bc2a56e5-74a6-4dbb-8e95-0d9c482d99a8" d="M473.09,75.54c-3.72,0-6.55-2.64-6.55-6.81a6.65,6.65,0,1,1,13.29,0A6.52,6.52,0,0,1,473.09,75.54Zm0-1.92c2.27,0,4.51-1.56,4.51-4.89s-2.19-4.87-4.44-4.87-4.39,1.56-4.39,4.87S470.81,73.62,473.09,73.62Z"/><path class="bc2a56e5-74a6-4dbb-8e95-0d9c482d99a8" d="M492.23,67.89c0-2.69-1.46-4-3.67-4s-3.77,1.39-3.77,4.22v7.27h-2.18V62.18h2.18v1.87A4.86,4.86,0,0,1,489,61.94c3.05,0,5.38,1.87,5.38,5.64v7.75h-2.16Z"/><path class="bc2a56e5-74a6-4dbb-8e95-0d9c482d99a8" d="M502.4,75.54c-3.07,0-5.23-1.68-5.38-4.08h2.26c.12,1.27,1.25,2.23,3.09,2.23s2.69-.86,2.69-1.94c0-2.93-7.77-1.22-7.77-6.11,0-2,1.89-3.68,4.82-3.68s4.82,1.56,5,4.13h-2.19c-.09-1.32-1.1-2.28-2.85-2.28s-2.57.77-2.57,1.83c0,3.11,7.63,1.41,7.73,6.11C507.2,73.91,505.3,75.54,502.4,75.54Z"/><path class="bc2a56e5-74a6-4dbb-8e95-0d9c482d99a8" d="M510.47,64h-1.7v-1.8h1.7V58.87h2.19v3.31h3.42V64h-3.42v7.75c0,1.29.47,1.75,1.82,1.75h1.6v1.85h-2c-2.33,0-3.65-1-3.65-3.6Z"/><path class="bc2a56e5-74a6-4dbb-8e95-0d9c482d99a8" d="M520.5,75.33h-2.18V62.18h2.18v2.14a4.41,4.41,0,0,1,4.24-2.38V64.2h-.57c-2.09,0-3.67.93-3.67,4Z"/><path class="bc2a56e5-74a6-4dbb-8e95-0d9c482d99a8" d="M538.64,75.33h-2.19v-2a4.82,4.82,0,0,1-4.2,2.14c-3,0-5.39-1.87-5.39-5.64v-7.7H529v7.41c0,2.67,1.46,4,3.67,4s3.76-1.39,3.76-4.22V62.18h2.19Z"/><path class="bc2a56e5-74a6-4dbb-8e95-0d9c482d99a8" d="M551.26,62.18h2.25L545.6,81.51h-2.26l2.59-6.33-5.3-13h2.42l4.13,10.65Z"/><path class="bc2a56e5-74a6-4dbb-8e95-0d9c482d99a8" d="M560.7,75.54c-3.74,0-6.5-2.64-6.5-6.81S556.86,62,560.7,62A6,6,0,0,1,567,68.25a11.43,11.43,0,0,1-.07,1.32H556.43a4.13,4.13,0,0,0,4.27,4.12,3.61,3.61,0,0,0,3.7-2.42h2.35A5.92,5.92,0,0,1,560.7,75.54Zm-4.24-7.75h8.3a3.86,3.86,0,0,0-4.15-4A4.07,4.07,0,0,0,556.46,67.79Z"/><path class="bc2a56e5-74a6-4dbb-8e95-0d9c482d99a8" d="M437.6,93.56h2.18v6.5a4.94,4.94,0,0,1,4.34-2.14c2.93,0,5.25,1.87,5.25,5.64v7.75h-2.16v-7.44c0-2.68-1.46-4.05-3.67-4.05s-3.76,1.39-3.76,4.22v7.27H437.6Z"/><path class="bc2a56e5-74a6-4dbb-8e95-0d9c482d99a8" d="M458.25,98a5.46,5.46,0,0,1,4.89,2.61v-2.4h2.21v13.15h-2.21v-2.45a5.47,5.47,0,0,1-4.92,2.66c-3.5,0-6.21-2.75-6.21-6.83S454.72,98,458.25,98Zm.43,1.89c-2.4,0-4.44,1.75-4.44,4.85s2,4.92,4.44,4.92,4.46-1.8,4.46-4.9S461.08,99.84,458.68,99.84Z"/><path class="bc2a56e5-74a6-4dbb-8e95-0d9c482d99a8" d="M468.89,93.56h2.18v17.75h-2.18Z"/><path class="bc2a56e5-74a6-4dbb-8e95-0d9c482d99a8" d="M474.58,93.56h2.18v17.75h-2.18Z"/><path class="bc2a56e5-74a6-4dbb-8e95-0d9c482d99a8" d="M485.78,98a5.45,5.45,0,0,1,4.89,2.61v-2.4h2.21v13.15h-2.21v-2.45a5.47,5.47,0,0,1-4.91,2.66c-3.5,0-6.22-2.75-6.22-6.83S482.26,98,485.78,98Zm.43,1.89c-2.39,0-4.43,1.75-4.43,4.85s2,4.92,4.43,4.92,4.46-1.8,4.46-4.9S488.61,99.84,486.21,99.84Z"/><path class="bc2a56e5-74a6-4dbb-8e95-0d9c482d99a8" d="M504.25,99.94l-6.41,9.57h6.46v1.8h-8.95v-1.8l6.38-9.57H495.4V98.16h8.85Z"/><path class="bc2a56e5-74a6-4dbb-8e95-0d9c482d99a8" d="M511.81,98a5.42,5.42,0,0,1,4.89,2.61v-2.4h2.21V111.6a5.89,5.89,0,0,1-6.29,6.18c-3.45,0-5.92-1.75-6.35-4.55h2.16a4.08,4.08,0,0,0,4.19,2.66c2.33,0,4.08-1.49,4.08-4.29v-2.76a5.49,5.49,0,0,1-4.89,2.68c-3.53,0-6.24-2.75-6.24-6.83S508.28,98,511.81,98Zm.43,1.89c-2.4,0-4.44,1.75-4.44,4.85s2,4.92,4.44,4.92,4.46-1.8,4.46-4.9S514.64,99.84,512.24,99.84Z"/><path class="bc2a56e5-74a6-4dbb-8e95-0d9c482d99a8" d="M528.24,111.52c-3.72,0-6.55-2.63-6.55-6.81a6.65,6.65,0,1,1,13.29,0A6.51,6.51,0,0,1,528.24,111.52Zm0-1.91c2.28,0,4.51-1.56,4.51-4.9s-2.18-4.87-4.44-4.87-4.39,1.56-4.39,4.87S526,109.61,528.24,109.61Z"/><path class="bc2a56e5-74a6-4dbb-8e95-0d9c482d99a8" d="M542.31,111.52c-3.07,0-5.23-1.67-5.37-4.07h2.25c.12,1.27,1.25,2.23,3.1,2.23s2.68-.87,2.68-2c0-2.92-7.77-1.22-7.77-6.11,0-2,1.9-3.67,4.82-3.67s4.82,1.56,5,4.12H544.8c-.09-1.32-1.1-2.28-2.85-2.28s-2.57.77-2.57,1.83c0,3.12,7.63,1.41,7.73,6.11C547.11,109.89,545.21,111.52,542.31,111.52Z"/><ellipse class="a5174e4b-dc52-44b5-ac19-921c778c1c34" cx="491.15" cy="88.02" rx="134.17" ry="71.34"/><path class="bc2a56e5-74a6-4dbb-8e95-0d9c482d99a8" d="M757.66,279.22h2.19v16.72h-2.19Z"/><path class="bc2a56e5-74a6-4dbb-8e95-0d9c482d99a8" d="M773.1,288.51c0-2.69-1.46-4.06-3.67-4.06s-3.77,1.39-3.77,4.22v7.27h-2.18V282.8h2.18v1.87a4.86,4.86,0,0,1,4.22-2.11c3,0,5.38,1.87,5.38,5.64v7.74H773.1Z"/><path class="bc2a56e5-74a6-4dbb-8e95-0d9c482d99a8" d="M779,284.6h-1.71v-1.8H779v-3.31h2.18v3.31h3.43v1.8h-3.43v7.74c0,1.3.48,1.76,1.82,1.76h1.61v1.84h-2c-2.33,0-3.64-1-3.64-3.6Z"/><path class="bc2a56e5-74a6-4dbb-8e95-0d9c482d99a8" d="M792.22,296.16c-3.74,0-6.5-2.64-6.5-6.81s2.66-6.77,6.5-6.77a6,6,0,0,1,6.31,6.29,11.41,11.41,0,0,1-.08,1.32H788a4.13,4.13,0,0,0,4.27,4.12,3.62,3.62,0,0,0,3.69-2.42h2.35A5.9,5.9,0,0,1,792.22,296.16ZM788,288.41h8.3a3.85,3.85,0,0,0-4.15-4A4.07,4.07,0,0,0,788,288.41Z"/><path class="bc2a56e5-74a6-4dbb-8e95-0d9c482d99a8" d="M803.49,295.94h-2.18V282.8h2.18v2.13a4.44,4.44,0,0,1,4.25-2.37v2.25h-.58c-2.08,0-3.67.94-3.67,4Z"/><path class="bc2a56e5-74a6-4dbb-8e95-0d9c482d99a8" d="M817,282.58c3.52,0,6.24,2.64,6.24,6.74s-2.72,6.84-6.24,6.84a5.7,5.7,0,0,1-4.92-2.64v8.66h-2.18V282.8h2.18v2.42A5.56,5.56,0,0,1,817,282.58Zm-.46,1.9a4.52,4.52,0,0,0-4.46,4.87c0,3.09,2.09,4.89,4.46,4.89s4.46-1.82,4.46-4.92S819,284.48,816.55,284.48Z"/><path class="bc2a56e5-74a6-4dbb-8e95-0d9c482d99a8" d="M828.21,295.94H826V282.8h2.18v2.13a4.43,4.43,0,0,1,4.25-2.37v2.25h-.58c-2.09,0-3.67.94-3.67,4Z"/><path class="bc2a56e5-74a6-4dbb-8e95-0d9c482d99a8" d="M840.14,296.16c-3.74,0-6.5-2.64-6.5-6.81s2.66-6.77,6.5-6.77a6,6,0,0,1,6.31,6.29,11.43,11.43,0,0,1-.07,1.32H835.87a4.13,4.13,0,0,0,4.27,4.12,3.62,3.62,0,0,0,3.7-2.42h2.35A5.92,5.92,0,0,1,840.14,296.16Zm-4.24-7.75h8.3a3.86,3.86,0,0,0-4.15-4A4.06,4.06,0,0,0,835.9,288.41Z"/><path class="bc2a56e5-74a6-4dbb-8e95-0d9c482d99a8" d="M849.44,284.6h-1.7v-1.8h1.7v-3.31h2.18v3.31h3.43v1.8h-3.43v7.74c0,1.3.48,1.76,1.82,1.76h1.61v1.84h-2c-2.32,0-3.64-1-3.64-3.6Z"/><path class="bc2a56e5-74a6-4dbb-8e95-0d9c482d99a8" d="M862.45,282.58a5.46,5.46,0,0,1,4.89,2.62v-2.4h2.21v13.14h-2.21V293.5a5.49,5.49,0,0,1-4.92,2.66c-3.5,0-6.21-2.76-6.21-6.84S858.92,282.58,862.45,282.58Zm.43,1.9c-2.4,0-4.44,1.75-4.44,4.84s2,4.92,4.44,4.92,4.46-1.8,4.46-4.89S865.28,284.48,862.88,284.48Z"/><path class="bc2a56e5-74a6-4dbb-8e95-0d9c482d99a8" d="M878.73,282.58c3.27,0,5.4,1.68,6.07,4.44h-2.35a3.58,3.58,0,0,0-3.72-2.59c-2.39,0-4.17,1.7-4.17,4.92s1.78,5,4.17,5a3.52,3.52,0,0,0,3.72-2.59h2.35a5.84,5.84,0,0,1-6.07,4.44c-3.74,0-6.4-2.64-6.4-6.81S875,282.58,878.73,282.58Z"/><path class="bc2a56e5-74a6-4dbb-8e95-0d9c482d99a8" d="M887.12,279.18a1.46,1.46,0,1,1,1.48,1.48A1.46,1.46,0,0,1,887.12,279.18Zm.36,3.62h2.18v13.14h-2.18Z"/><path class="bc2a56e5-74a6-4dbb-8e95-0d9c482d99a8" d="M898.92,296.16c-3.72,0-6.55-2.64-6.55-6.81a6.65,6.65,0,1,1,13.29,0A6.52,6.52,0,0,1,898.92,296.16Zm0-1.92c2.28,0,4.51-1.56,4.51-4.89s-2.18-4.87-4.44-4.87-4.39,1.56-4.39,4.87S896.64,294.24,898.92,294.24ZM901.37,277v1.89l-5.11,2.74V280Z"/><path class="bc2a56e5-74a6-4dbb-8e95-0d9c482d99a8" d="M918.06,288.51c0-2.69-1.46-4.06-3.67-4.06s-3.76,1.39-3.76,4.22v7.27h-2.18V282.8h2.18v1.87a4.85,4.85,0,0,1,4.22-2.11c3,0,5.37,1.87,5.37,5.64v7.74h-2.16Z"/><ellipse class="a5174e4b-dc52-44b5-ac19-921c778c1c34" cx="837.99" cy="292.65" rx="134.17" ry="71.34"/><polygon class="f37e7a1a-3b0b-4969-b554-023b4ca8efb4" points="355.33 88.02 342.26 80.48 342.26 95.57 355.33 88.02"/><polygon class="f37e7a1a-3b0b-4969-b554-023b4ca8efb4" points="838.88 218.91 846.43 205.85 831.34 205.85 838.88 218.91"/></svg>