<svg id="a8fde49d-ba9e-4dc5-8483-89e868856b36" data-name="Capa 1" xmlns="http://www.w3.org/2000/svg" viewBox="0 0 460.04 176.32"><defs><style>.a90aa91c-cfc8-4f3b-be26-fbbd32ff5148,.b822bf20-135d-45a0-a46b-4b6f5daa3e09{fill:none;stroke-width:1.87px;}.b822bf20-135d-45a0-a46b-4b6f5daa3e09{stroke:#b3b3b3;stroke-linecap:round;stroke-linejoin:round;}.a90aa91c-cfc8-4f3b-be26-fbbd32ff5148{stroke:#5f9eb5;stroke-miterlimit:10;}.e5297cba-8456-4cb7-9c32-c626ae61d75e{fill:#272b31;}.ba3c13a1-ff6e-4c8f-9f03-e0d3bf58f0a9{fill:#b3b3b3;}</style></defs><line class="b822bf20-135d-45a0-a46b-4b6f5daa3e09" x1="132.92" y1="40.67" x2="161.72" y2="40.67"/><rect class="a90aa91c-cfc8-4f3b-be26-fbbd32ff5148" x="5.57" y="8.08" width="127.35" height="70.47" rx="11.83"/><line class="b822bf20-135d-45a0-a46b-4b6f5daa3e09" x1="393.71" y1="78.55" x2="393.71" y2="96.46"/><rect class="a90aa91c-cfc8-4f3b-be26-fbbd32ff5148" x="328.68" y="8.08" width="127.35" height="70.47" rx="11.83"/><path class="e5297cba-8456-4cb7-9c32-c626ae61d75e" d="M38.84,21.81c1.84,0,2.72,1,2.72,2.3a2.21,2.21,0,0,1-1.87,2.25l2,3.28H40.43l-1.86-3.2H37.34v3.2h-1V21.81Zm0,.84h-1.5v3h1.5c1.16,0,1.66-.63,1.66-1.51S40,22.65,38.84,22.65Z"/><path class="e5297cba-8456-4cb7-9c32-c626ae61d75e" d="M45.64,29.74a3,3,0,0,1-3-3.19,2.93,2.93,0,0,1,3-3.17,2.82,2.82,0,0,1,3,2.94,6.13,6.13,0,0,1,0,.62H43.64a1.94,1.94,0,0,0,2,1.93,1.7,1.7,0,0,0,1.73-1.13h1.1A2.77,2.77,0,0,1,45.64,29.74Zm-2-3.63h3.89a1.81,1.81,0,0,0-1.95-1.86A1.91,1.91,0,0,0,43.65,26.11Z"/><path class="e5297cba-8456-4cb7-9c32-c626ae61d75e" d="M52.62,23.38a2.67,2.67,0,0,1,2.84,2.08h-1.1a1.67,1.67,0,0,0-1.74-1.21c-1.12,0-1.95.79-1.95,2.3s.83,2.32,1.95,2.32a1.65,1.65,0,0,0,1.74-1.21h1.1a2.74,2.74,0,0,1-2.84,2.08,2.94,2.94,0,0,1-3-3.19A2.93,2.93,0,0,1,52.62,23.38Z"/><path class="e5297cba-8456-4cb7-9c32-c626ae61d75e" d="M59.48,29.74a3,3,0,0,1-3.07-3.19,3.11,3.11,0,1,1,6.22,0A3.05,3.05,0,0,1,59.48,29.74Zm0-.9a2.09,2.09,0,0,0,2.11-2.29,2.07,2.07,0,0,0-2.08-2.28,2,2,0,0,0-2,2.28A2,2,0,0,0,59.48,28.84Z"/><path class="e5297cba-8456-4cb7-9c32-c626ae61d75e" d="M64,21.33h1v8.31H64Z"/><path class="e5297cba-8456-4cb7-9c32-c626ae61d75e" d="M69.47,29.74a3,3,0,0,1-3-3.19,2.94,2.94,0,0,1,3-3.17,2.82,2.82,0,0,1,3,2.94,6.13,6.13,0,0,1,0,.62H67.47a1.93,1.93,0,0,0,2,1.93,1.68,1.68,0,0,0,1.72-1.13H72.3A2.78,2.78,0,0,1,69.47,29.74Zm-2-3.63h3.88a1.8,1.8,0,0,0-1.94-1.86A1.9,1.9,0,0,0,67.48,26.11Z"/><path class="e5297cba-8456-4cb7-9c32-c626ae61d75e" d="M76.45,23.38a2.67,2.67,0,0,1,2.84,2.08h-1.1a1.67,1.67,0,0,0-1.74-1.21c-1.12,0-2,.79-2,2.3s.83,2.32,2,2.32a1.65,1.65,0,0,0,1.74-1.21h1.1a2.74,2.74,0,0,1-2.84,2.08,2.94,2.94,0,0,1-3-3.19A2.93,2.93,0,0,1,76.45,23.38Z"/><path class="e5297cba-8456-4cb7-9c32-c626ae61d75e" d="M83.25,23.38a2.69,2.69,0,0,1,2.84,2.08H85a1.68,1.68,0,0,0-1.74-1.21c-1.13,0-2,.79-2,2.3s.83,2.32,2,2.32A1.66,1.66,0,0,0,85,27.66h1.1a2.75,2.75,0,0,1-2.84,2.08,2.93,2.93,0,0,1-3-3.19A2.92,2.92,0,0,1,83.25,23.38Z"/><path class="e5297cba-8456-4cb7-9c32-c626ae61d75e" d="M87.25,21.79a.69.69,0,0,1,.7-.7.7.7,0,0,1,0,1.39A.69.69,0,0,1,87.25,21.79Zm.17,1.69h1v6.16h-1Z"/><path class="e5297cba-8456-4cb7-9c32-c626ae61d75e" d="M92.86,29.74a3,3,0,0,1-3.06-3.19,3.11,3.11,0,1,1,6.22,0A3.06,3.06,0,0,1,92.86,29.74Zm0-.9A2.09,2.09,0,0,0,95,26.55a2.07,2.07,0,0,0-2.07-2.28,2,2,0,0,0-2.06,2.28A2,2,0,0,0,92.86,28.84ZM94,20.78v.88l-2.39,1.28v-.76Z"/><path class="e5297cba-8456-4cb7-9c32-c626ae61d75e" d="M101.91,26.15a1.65,1.65,0,0,0-1.72-1.89c-1,0-1.76.65-1.76,2v3.41h-1V23.48h1v.88a2.26,2.26,0,0,1,2-1A2.39,2.39,0,0,1,102.92,26v3.63h-1Z"/><path class="e5297cba-8456-4cb7-9c32-c626ae61d75e" d="M22.37,40.33h1.06l-3.71,9.06h-1l1.21-3L17.4,40.33h1.13l1.93,5Z"/><path class="e5297cba-8456-4cb7-9c32-c626ae61d75e" d="M32.08,44.75H28.67L28,46.49H27l2.83-7.78H31l2.82,7.78H32.71ZM30.37,40l-1.41,4h2.83Z"/><path class="e5297cba-8456-4cb7-9c32-c626ae61d75e" d="M39.43,43a1.66,1.66,0,0,0-1.72-1.9c-1.05,0-1.77.65-1.77,2v3.4h-1V40.33h1v.88a2.29,2.29,0,0,1,2-1,2.39,2.39,0,0,1,2.52,2.64v3.63h-1Z"/><path class="e5297cba-8456-4cb7-9c32-c626ae61d75e" d="M44.67,40.23A2.55,2.55,0,0,1,47,41.46V40.33h1v6.16H47V45.34a2.55,2.55,0,0,1-2.3,1.25,3,3,0,0,1-2.91-3.2A2.92,2.92,0,0,1,44.67,40.23Zm.2.89a2.07,2.07,0,0,0-2.07,2.27,2.09,2.09,0,1,0,2.07-2.27Zm1.3-3.41v.88l-2.4,1.28v-.76Z"/><path class="e5297cba-8456-4cb7-9c32-c626ae61d75e" d="M49.73,38.18h1v8.31h-1Z"/><path class="e5297cba-8456-4cb7-9c32-c626ae61d75e" d="M52.32,38.64a.69.69,0,1,1,.69.69A.68.68,0,0,1,52.32,38.64Zm.17,1.69h1v6.16h-1Z"/><path class="e5297cba-8456-4cb7-9c32-c626ae61d75e" d="M57.4,46.59c-1.44,0-2.45-.79-2.52-1.91h1.06c.05.6.58,1,1.45,1s1.25-.4,1.25-.9c0-1.38-3.63-.58-3.63-2.87,0-.94.88-1.72,2.25-1.72a2.07,2.07,0,0,1,2.33,1.93h-1a1.19,1.19,0,0,0-1.34-1.06c-.75,0-1.2.36-1.2.85,0,1.46,3.57.66,3.61,2.87C59.64,45.83,58.76,46.59,57.4,46.59Z"/><path class="e5297cba-8456-4cb7-9c32-c626ae61d75e" d="M60.92,38.64a.68.68,0,1,1,1.36,0,.68.68,0,1,1-1.36,0Zm.16,1.69h1v6.16h-1Z"/><path class="e5297cba-8456-4cb7-9c32-c626ae61d75e" d="M66,46.59c-1.44,0-2.45-.79-2.52-1.91h1.06c0,.6.58,1,1.44,1s1.26-.4,1.26-.9c0-1.38-3.64-.58-3.64-2.87,0-.94.89-1.72,2.26-1.72a2.06,2.06,0,0,1,2.32,1.93h-1a1.17,1.17,0,0,0-1.33-1.06c-.75,0-1.2.36-1.2.85,0,1.46,3.57.66,3.61,2.87C68.24,45.83,67.35,46.59,66,46.59Z"/><path class="e5297cba-8456-4cb7-9c32-c626ae61d75e" d="M75.23,40.23a2.7,2.7,0,0,1,2.28,1.2V38.18h1v8.31h-1V45.33a2.52,2.52,0,0,1-2.29,1.26,3,3,0,0,1-2.92-3.2A2.92,2.92,0,0,1,75.23,40.23Zm.19.89a2.08,2.08,0,0,0-2.08,2.27,2.09,2.09,0,1,0,2.08-2.27Z"/><path class="e5297cba-8456-4cb7-9c32-c626ae61d75e" d="M83,46.59a3,3,0,0,1-3-3.19,2.93,2.93,0,0,1,3-3.17,2.83,2.83,0,0,1,3,3,6,6,0,0,1,0,.61H81a1.94,1.94,0,0,0,2,1.93,1.69,1.69,0,0,0,1.73-1.13h1.1A2.77,2.77,0,0,1,83,46.59ZM81,43h3.89a1.8,1.8,0,0,0-1.94-1.86A1.91,1.91,0,0,0,81,43Z"/><path class="e5297cba-8456-4cb7-9c32-c626ae61d75e" d="M96.87,42.59c0,2.43-1.59,3.9-4.16,3.9H90.28V38.66h2.43C95.28,38.66,96.87,40.17,96.87,42.59Zm-4.16,3.06a2.79,2.79,0,0,0,3.11-3.06,2.82,2.82,0,0,0-3.11-3.1H91.3v6.16Z"/><path class="e5297cba-8456-4cb7-9c32-c626ae61d75e" d="M100.85,40.23a2.56,2.56,0,0,1,2.29,1.23V40.33h1v6.16h-1V45.34a2.56,2.56,0,0,1-2.3,1.25,3,3,0,0,1-2.91-3.2A2.92,2.92,0,0,1,100.85,40.23Zm.2.89A2.08,2.08,0,0,0,99,43.39a2.09,2.09,0,1,0,2.08-2.27Z"/><path class="e5297cba-8456-4cb7-9c32-c626ae61d75e" d="M106.12,41.18h-.79v-.85h.79V38.78h1v1.55h1.6v.85h-1.6V44.8c0,.61.22.82.85.82h.75v.87h-.92c-1.09,0-1.71-.45-1.71-1.69Z"/><path class="e5297cba-8456-4cb7-9c32-c626ae61d75e" d="M112.43,46.59a3.18,3.18,0,1,1,3.15-3.19A3.05,3.05,0,0,1,112.43,46.59Zm0-.9a2.29,2.29,0,0,0,0-4.57,2,2,0,0,0-2.06,2.28A2,2,0,0,0,112.43,45.69Z"/><path class="e5297cba-8456-4cb7-9c32-c626ae61d75e" d="M119.1,46.59c-1.44,0-2.45-.79-2.52-1.91h1.06c0,.6.58,1,1.44,1s1.26-.4,1.26-.9c0-1.38-3.64-.58-3.64-2.87,0-.94.89-1.72,2.26-1.72a2.06,2.06,0,0,1,2.32,1.93h-1a1.17,1.17,0,0,0-1.33-1.06c-.75,0-1.2.36-1.2.85,0,1.46,3.57.66,3.61,2.87C121.34,45.83,120.45,46.59,119.1,46.59Z"/><path class="e5297cba-8456-4cb7-9c32-c626ae61d75e" d="M32.66,55.41a3.68,3.68,0,0,1,3.62,2.37H35.06a2.47,2.47,0,0,0-2.4-1.47,3.11,3.11,0,0,0,0,6.21,2.48,2.48,0,0,0,2.4-1.46h1.22a3.67,3.67,0,0,1-3.62,2.35,4,4,0,0,1,0-8Z"/><path class="e5297cba-8456-4cb7-9c32-c626ae61d75e" d="M37.68,55.51h1v5a1.79,1.79,0,0,0,1.93,2.05c1.16,0,1.92-.62,1.92-2.05v-5h1v4.94a2.74,2.74,0,0,1-3,3,2.73,2.73,0,0,1-2.94-3Z"/><path class="e5297cba-8456-4cb7-9c32-c626ae61d75e" d="M49.56,61.6H46.15l-.63,1.74H44.44l2.83-7.78h1.18l2.82,7.78H50.19Zm-1.71-4.78-1.41,4h2.83Z"/><path class="e5297cba-8456-4cb7-9c32-c626ae61d75e" d="M58.56,55.5v7.84h-1l-4.1-6.23v6.23h-1V55.5h1l4.1,6.22V55.5Z"/><path class="e5297cba-8456-4cb7-9c32-c626ae61d75e" d="M59.7,55.51H65v.83H62.87v7h-1v-7H59.7Z"/><path class="e5297cba-8456-4cb7-9c32-c626ae61d75e" d="M66.14,55.51h1v7.83h-1Z"/><path class="e5297cba-8456-4cb7-9c32-c626ae61d75e" d="M68.29,55.51h5.3v.83H71.46v7h-1v-7H68.29Z"/><path class="e5297cba-8456-4cb7-9c32-c626ae61d75e" d="M78.54,61.6H75.13l-.63,1.74H73.42l2.83-7.78h1.18l2.82,7.78H79.17Zm-1.7-4.78-1.42,4h2.83Z"/><path class="e5297cba-8456-4cb7-9c32-c626ae61d75e" d="M80.07,55.51h5.3v.83H83.24v7h-1v-7H80.07Z"/><path class="e5297cba-8456-4cb7-9c32-c626ae61d75e" d="M86.51,55.51h1v7.83h-1Z"/><path class="e5297cba-8456-4cb7-9c32-c626ae61d75e" d="M94.6,55.51h1.08l-3,7.83H91.54l-3-7.83h1.09l2.46,6.75Z"/><path class="e5297cba-8456-4cb7-9c32-c626ae61d75e" d="M100,63.42a4,4,0,1,1,3.93-4A3.86,3.86,0,0,1,100,63.42Zm0-.89a3.12,3.12,0,1,0-2.89-3.11A2.85,2.85,0,0,0,100,62.53Z"/><path class="e5297cba-8456-4cb7-9c32-c626ae61d75e" d="M107.66,63.42c-1.57,0-2.68-.88-2.7-2.17h1.09a1.44,1.44,0,0,0,1.61,1.3c1,0,1.58-.56,1.58-1.3,0-2.11-4.24-.76-4.24-3.67,0-1.29,1-2.17,2.6-2.17a2.34,2.34,0,0,1,2.59,2h-1.12a1.41,1.41,0,0,0-1.52-1.13c-.84,0-1.5.41-1.5,1.26,0,2,4.22.76,4.22,3.66A2.35,2.35,0,0,1,107.66,63.42Z"/><path class="e5297cba-8456-4cb7-9c32-c626ae61d75e" d="M361.6,22.11c1.85,0,2.72,1,2.72,2.31a2.2,2.2,0,0,1-1.86,2.24l2,3.28H363.2l-1.86-3.2H360.1v3.2h-1V22.11Zm0,.85h-1.5v3h1.5c1.16,0,1.67-.63,1.67-1.5S362.77,23,361.6,23Z"/><path class="e5297cba-8456-4cb7-9c32-c626ae61d75e" d="M368.4,30a3,3,0,0,1-3-3.19,2.93,2.93,0,0,1,3-3.16,2.82,2.82,0,0,1,3,2.94,4.3,4.3,0,0,1,0,.62H366.4a1.94,1.94,0,0,0,2,1.93A1.68,1.68,0,0,0,370.13,28h1.1A2.75,2.75,0,0,1,368.4,30Zm-2-3.62h3.88a1.81,1.81,0,0,0-1.94-1.87A1.9,1.9,0,0,0,366.42,26.42Z"/><path class="e5297cba-8456-4cb7-9c32-c626ae61d75e" d="M375.39,23.69a2.68,2.68,0,0,1,2.84,2.07h-1.1a1.68,1.68,0,0,0-1.74-1.21c-1.13,0-2,.8-2,2.3s.83,2.33,2,2.33A1.66,1.66,0,0,0,377.13,28h1.1A2.74,2.74,0,0,1,375.39,30a2.93,2.93,0,0,1-3-3.19A2.92,2.92,0,0,1,375.39,23.69Z"/><path class="e5297cba-8456-4cb7-9c32-c626ae61d75e" d="M382.24,30a3,3,0,0,1-3.06-3.19,3.11,3.11,0,1,1,6.22,0A3,3,0,0,1,382.24,30Zm0-.9a2.09,2.09,0,0,0,2.11-2.29,2.07,2.07,0,0,0-2.07-2.28,2,2,0,0,0-2.06,2.28A2,2,0,0,0,382.24,29.14Z"/><path class="e5297cba-8456-4cb7-9c32-c626ae61d75e" d="M386.78,21.63h1v8.31h-1Z"/><path class="e5297cba-8456-4cb7-9c32-c626ae61d75e" d="M392.23,30a3,3,0,0,1-3-3.19,2.92,2.92,0,0,1,3-3.16,2.81,2.81,0,0,1,2.95,2.94c0,.22,0,.4,0,.62h-4.92a1.94,1.94,0,0,0,2,1.93A1.68,1.68,0,0,0,394,28h1.1A2.75,2.75,0,0,1,392.23,30Zm-2-3.62h3.89a1.81,1.81,0,0,0-1.95-1.87A1.91,1.91,0,0,0,390.24,26.42Z"/><path class="e5297cba-8456-4cb7-9c32-c626ae61d75e" d="M399.21,23.69a2.68,2.68,0,0,1,2.85,2.07H401a1.69,1.69,0,0,0-1.75-1.21c-1.12,0-1.95.8-1.95,2.3s.83,2.33,1.95,2.33A1.67,1.67,0,0,0,401,28h1.1A2.75,2.75,0,0,1,399.21,30a2.92,2.92,0,0,1-3-3.19A2.91,2.91,0,0,1,399.21,23.69Z"/><path class="e5297cba-8456-4cb7-9c32-c626ae61d75e" d="M406,23.69a2.66,2.66,0,0,1,2.84,2.07h-1.1A1.67,1.67,0,0,0,406,24.55c-1.12,0-1.95.8-1.95,2.3s.83,2.33,1.95,2.33A1.65,1.65,0,0,0,407.75,28h1.1A2.73,2.73,0,0,1,406,30a2.93,2.93,0,0,1-3-3.19A2.92,2.92,0,0,1,406,23.69Z"/><path class="e5297cba-8456-4cb7-9c32-c626ae61d75e" d="M410,22.09a.69.69,0,1,1,.69.7A.68.68,0,0,1,410,22.09Zm.17,1.7h1v6.15h-1Z"/><path class="e5297cba-8456-4cb7-9c32-c626ae61d75e" d="M415.63,30a3,3,0,0,1-3.07-3.19,3.11,3.11,0,1,1,6.22,0A3,3,0,0,1,415.63,30Zm0-.9a2.09,2.09,0,0,0,2.11-2.29,2.07,2.07,0,0,0-2.08-2.28,2,2,0,0,0-2.06,2.28A2,2,0,0,0,415.63,29.14Zm1.14-8.06V22l-2.39,1.28v-.76Z"/><path class="e5297cba-8456-4cb7-9c32-c626ae61d75e" d="M424.67,26.46c0-1.26-.68-1.9-1.72-1.9s-1.76.65-1.76,2v3.4h-1V23.79h1v.87a2.27,2.27,0,0,1,2-1,2.38,2.38,0,0,1,2.51,2.63v3.63h-1Z"/><path class="e5297cba-8456-4cb7-9c32-c626ae61d75e" d="M345.14,40.64h1.05l-3.7,9h-1.06l1.21-3-2.48-6.09h1.14l1.93,5Z"/><path class="e5297cba-8456-4cb7-9c32-c626ae61d75e" d="M354.85,45.05h-3.42l-.63,1.74h-1.08L352.55,39h1.18l2.82,7.78h-1.08Zm-1.71-4.78-1.42,3.95h2.83Z"/><path class="e5297cba-8456-4cb7-9c32-c626ae61d75e" d="M362.19,43.31c0-1.26-.68-1.9-1.72-1.9s-1.76.66-1.76,2v3.4h-1V40.64h1v.88a2.27,2.27,0,0,1,2-1,2.38,2.38,0,0,1,2.51,2.64v3.62h-1Z"/><path class="e5297cba-8456-4cb7-9c32-c626ae61d75e" d="M367.44,40.54a2.56,2.56,0,0,1,2.29,1.22V40.64h1v6.15h-1V45.65a2.58,2.58,0,0,1-2.3,1.25,3,3,0,0,1-2.91-3.21A2.91,2.91,0,0,1,367.44,40.54Zm.2.89a2.08,2.08,0,0,0-2.08,2.26,2.09,2.09,0,1,0,2.08-2.26ZM368.93,38v.89l-2.39,1.28v-.76Z"/><path class="e5297cba-8456-4cb7-9c32-c626ae61d75e" d="M372.49,38.48h1v8.31h-1Z"/><path class="e5297cba-8456-4cb7-9c32-c626ae61d75e" d="M375.08,38.94a.69.69,0,0,1,.7-.69.7.7,0,0,1,0,1.39A.69.69,0,0,1,375.08,38.94Zm.17,1.7h1v6.15h-1Z"/><path class="e5297cba-8456-4cb7-9c32-c626ae61d75e" d="M380.16,46.9c-1.43,0-2.45-.79-2.51-1.91h1.05c.06.59.59,1,1.45,1s1.26-.4,1.26-.91c0-1.37-3.64-.57-3.64-2.86,0-.95.89-1.72,2.26-1.72a2.06,2.06,0,0,1,2.32,1.93h-1A1.18,1.18,0,0,0,380,41.4c-.75,0-1.2.36-1.2.86,0,1.46,3.57.66,3.62,2.86C382.41,46.13,381.52,46.9,380.16,46.9Z"/><path class="e5297cba-8456-4cb7-9c32-c626ae61d75e" d="M383.68,38.94a.69.69,0,1,1,.7.7A.68.68,0,0,1,383.68,38.94Zm.17,1.7h1v6.15h-1Z"/><path class="e5297cba-8456-4cb7-9c32-c626ae61d75e" d="M388.76,46.9c-1.44,0-2.45-.79-2.51-1.91h1.05c.06.59.58,1,1.45,1s1.26-.4,1.26-.91c0-1.37-3.64-.57-3.64-2.86,0-.95.89-1.72,2.26-1.72A2.07,2.07,0,0,1,391,42.47h-1a1.19,1.19,0,0,0-1.34-1.07c-.75,0-1.2.36-1.2.86,0,1.46,3.57.66,3.62,2.86C391,46.13,390.12,46.9,388.76,46.9Z"/><path class="e5297cba-8456-4cb7-9c32-c626ae61d75e" d="M398,40.54a2.66,2.66,0,0,1,2.27,1.2V38.48h1v8.31h-1V45.64A2.53,2.53,0,0,1,398,46.9a3,3,0,0,1-2.92-3.21A2.92,2.92,0,0,1,398,40.54Zm.19.89a2.07,2.07,0,0,0-2.08,2.26,2.09,2.09,0,1,0,2.08-2.26Z"/><path class="e5297cba-8456-4cb7-9c32-c626ae61d75e" d="M405.74,46.9a3,3,0,0,1-3.05-3.19,2.93,2.93,0,0,1,3.05-3.17,2.82,2.82,0,0,1,2.95,2.94,6.13,6.13,0,0,1,0,.62h-4.92a1.93,1.93,0,0,0,2,1.93,1.7,1.7,0,0,0,1.73-1.13h1.1A2.78,2.78,0,0,1,405.74,46.9Zm-2-3.63h3.88a1.8,1.8,0,0,0-1.94-1.87A1.91,1.91,0,0,0,403.75,43.27Z"/><path class="e5297cba-8456-4cb7-9c32-c626ae61d75e" d="M419.63,42.9c0,2.42-1.58,3.89-4.15,3.89H413V39h2.44C418.05,39,419.63,40.47,419.63,42.9ZM415.48,46a2.79,2.79,0,0,0,3.11-3.05,2.82,2.82,0,0,0-3.11-3.1h-1.42V46Z"/><path class="e5297cba-8456-4cb7-9c32-c626ae61d75e" d="M423.61,40.54a2.55,2.55,0,0,1,2.29,1.22V40.64h1v6.15h-1V45.65a2.57,2.57,0,0,1-2.3,1.25,3,3,0,0,1-2.91-3.21A2.91,2.91,0,0,1,423.61,40.54Zm.21.89a2.07,2.07,0,0,0-2.08,2.26,2.09,2.09,0,1,0,2.08-2.26Z"/><path class="e5297cba-8456-4cb7-9c32-c626ae61d75e" d="M428.89,41.48h-.8v-.84h.8V39.09h1v1.55h1.61v.84h-1.61v3.63c0,.61.22.82.85.82h.76v.86h-.92c-1.09,0-1.71-.45-1.71-1.68Z"/><path class="e5297cba-8456-4cb7-9c32-c626ae61d75e" d="M435.19,46.9a3.18,3.18,0,1,1,3.16-3.19A3.06,3.06,0,0,1,435.19,46.9Zm0-.9a2.29,2.29,0,0,0,0-4.57,2,2,0,0,0-2.05,2.28A2,2,0,0,0,435.19,46Z"/><path class="e5297cba-8456-4cb7-9c32-c626ae61d75e" d="M441.86,46.9c-1.44,0-2.45-.79-2.51-1.91h1c.06.59.58,1,1.45,1s1.26-.4,1.26-.91c0-1.37-3.64-.57-3.64-2.86,0-.95.88-1.72,2.26-1.72a2.07,2.07,0,0,1,2.32,1.93h-1a1.19,1.19,0,0,0-1.34-1.07c-.75,0-1.2.36-1.2.86,0,1.46,3.57.66,3.62,2.86C444.11,46.13,443.22,46.9,441.86,46.9Z"/><path class="e5297cba-8456-4cb7-9c32-c626ae61d75e" d="M363.67,55.72a3.67,3.67,0,0,1,3.62,2.37h-1.22a2.46,2.46,0,0,0-2.4-1.47,3.11,3.11,0,0,0,0,6.21,2.48,2.48,0,0,0,2.4-1.46h1.22a3.67,3.67,0,0,1-3.62,2.34,4,4,0,0,1,0-8Z"/><path class="e5297cba-8456-4cb7-9c32-c626ae61d75e" d="M374.15,63.65h-1v-.91a2.28,2.28,0,0,1-2,1,2.41,2.41,0,0,1-2.53-2.64V57.49h1V61c0,1.25.68,1.89,1.71,1.89s1.77-.65,1.77-2V57.49h1Z"/><path class="e5297cba-8456-4cb7-9c32-c626ae61d75e" d="M378.45,57.39a2.56,2.56,0,0,1,2.29,1.22V57.49h1v6.16h-1V62.5a2.58,2.58,0,0,1-2.3,1.25,3,3,0,0,1-2.91-3.2A2.92,2.92,0,0,1,378.45,57.39Zm.2.89a2.08,2.08,0,0,0-2.08,2.27,2.09,2.09,0,1,0,2.08-2.27Z"/><path class="e5297cba-8456-4cb7-9c32-c626ae61d75e" d="M383.51,55.34h1v8.31h-1Z"/><path class="e5297cba-8456-4cb7-9c32-c626ae61d75e" d="M386.09,55.8a.69.69,0,0,1,.7-.7.7.7,0,0,1,0,1.39A.69.69,0,0,1,386.09,55.8Zm.17,1.69h1v6.16h-1Z"/><path class="e5297cba-8456-4cb7-9c32-c626ae61d75e" d="M389.2,58.33h-.8v-.84h.8V55.94h1v1.55h1.61v.84h-1.61V62c0,.61.22.82.85.82h.76v.87h-.92c-1.09,0-1.71-.45-1.71-1.69Z"/><path class="e5297cba-8456-4cb7-9c32-c626ae61d75e" d="M395.38,57.39a2.56,2.56,0,0,1,2.29,1.22V57.49h1v6.16h-1V62.5a2.58,2.58,0,0,1-2.3,1.25,3,3,0,0,1-2.91-3.2A2.92,2.92,0,0,1,395.38,57.39Zm.2.89a2.08,2.08,0,0,0-2.08,2.27,2.09,2.09,0,1,0,2.08-2.27Z"/><path class="e5297cba-8456-4cb7-9c32-c626ae61d75e" d="M400.65,58.33h-.8v-.84h.8V55.94h1v1.55h1.6v.84h-1.6V62c0,.61.22.82.85.82h.75v.87h-.92c-1.09,0-1.71-.45-1.71-1.69Z"/><path class="e5297cba-8456-4cb7-9c32-c626ae61d75e" d="M404.24,55.8a.69.69,0,1,1,1.37,0,.69.69,0,1,1-1.37,0Zm.17,1.69h1v6.16h-1Z"/><path class="e5297cba-8456-4cb7-9c32-c626ae61d75e" d="M407.54,57.49l1.92,5.21,1.91-5.21h1.09l-2.41,6.16h-1.19l-2.42-6.16Z"/><path class="e5297cba-8456-4cb7-9c32-c626ae61d75e" d="M415.94,63.75a3.18,3.18,0,1,1,3.16-3.19A3.06,3.06,0,0,1,415.94,63.75Zm0-.9a2.09,2.09,0,0,0,2.11-2.29A2.07,2.07,0,0,0,416,58.28a2.3,2.3,0,0,0,0,4.57Z"/><path class="e5297cba-8456-4cb7-9c32-c626ae61d75e" d="M422.61,63.75c-1.43,0-2.45-.79-2.51-1.91h1c.06.59.59,1,1.45,1s1.26-.4,1.26-.91c0-1.37-3.64-.57-3.64-2.86,0-.94.89-1.72,2.26-1.72a2.06,2.06,0,0,1,2.32,1.93h-1c0-.62-.52-1.06-1.34-1.06s-1.2.35-1.2.85c0,1.46,3.57.66,3.62,2.86C424.86,63,424,63.75,422.61,63.75Z"/><line class="b822bf20-135d-45a0-a46b-4b6f5daa3e09" x1="293.71" y1="40.67" x2="322.51" y2="40.67"/><polygon class="ba3c13a1-ff6e-4c8f-9f03-e0d3bf58f0a9" points="328.02 40.67 321.9 37.14 321.9 44.21 328.02 40.67"/><path class="e5297cba-8456-4cb7-9c32-c626ae61d75e" d="M198.65,34.81c-1.57,0-2.68-.88-2.7-2.17H197a1.44,1.44,0,0,0,1.61,1.3c1,0,1.58-.56,1.58-1.3,0-2.11-4.24-.76-4.24-3.67,0-1.29,1-2.17,2.6-2.17a2.34,2.34,0,0,1,2.59,2h-1.12a1.41,1.41,0,0,0-1.52-1.13c-.84,0-1.5.41-1.5,1.25,0,2,4.22.77,4.22,3.66A2.35,2.35,0,0,1,198.65,34.81Z"/><path class="e5297cba-8456-4cb7-9c32-c626ae61d75e" d="M205.41,34.83a3,3,0,0,1-3-3.19,2.93,2.93,0,0,1,3-3.17,2.82,2.82,0,0,1,3,2.94,6.13,6.13,0,0,1,0,.62h-4.92a1.93,1.93,0,0,0,2,1.93,1.7,1.7,0,0,0,1.73-1.13h1.1A2.77,2.77,0,0,1,205.41,34.83Zm-2-3.63h3.89a1.81,1.81,0,0,0-1.95-1.86A1.9,1.9,0,0,0,203.42,31.2Z"/><path class="e5297cba-8456-4cb7-9c32-c626ae61d75e" d="M215.33,28.47a2.67,2.67,0,0,1,2.84,2.08h-1.1a1.67,1.67,0,0,0-1.74-1.21c-1.12,0-2,.79-2,2.3s.83,2.32,2,2.32a1.64,1.64,0,0,0,1.74-1.21h1.1a2.73,2.73,0,0,1-2.84,2.08,2.94,2.94,0,0,1-3-3.19A2.93,2.93,0,0,1,215.33,28.47Z"/><path class="e5297cba-8456-4cb7-9c32-c626ae61d75e" d="M222.19,34.83a3,3,0,0,1-3.07-3.19,3.11,3.11,0,1,1,6.22,0A3.05,3.05,0,0,1,222.19,34.83Zm0-.9a2.09,2.09,0,0,0,2.11-2.29,2.07,2.07,0,0,0-2.08-2.28,2,2,0,0,0-2.05,2.28A2,2,0,0,0,222.19,33.93Z"/><path class="e5297cba-8456-4cb7-9c32-c626ae61d75e" d="M231.23,31.25c0-1.26-.68-1.9-1.72-1.9s-1.76.65-1.76,2v3.4h-1V28.57h1v.88a2.27,2.27,0,0,1,2-1,2.39,2.39,0,0,1,2.51,2.64v3.63h-1Z"/><path class="e5297cba-8456-4cb7-9c32-c626ae61d75e" d="M236.07,34.83a2.24,2.24,0,0,1-2.51-1.91h1.05c.06.6.59,1,1.45,1s1.26-.4,1.26-.91c0-1.37-3.64-.57-3.64-2.86,0-.94.89-1.72,2.26-1.72a2.06,2.06,0,0,1,2.32,1.93h-1a1.17,1.17,0,0,0-1.33-1.06c-.76,0-1.21.36-1.21.85,0,1.46,3.57.66,3.62,2.86C238.32,34.07,237.43,34.83,236.07,34.83Z"/><path class="e5297cba-8456-4cb7-9c32-c626ae61d75e" d="M239.93,29.42h-.79v-.85h.79V27h1v1.55h1.6v.85H241V33c0,.61.22.82.85.82h.75v.87h-.92c-1.09,0-1.71-.45-1.71-1.69Z"/><path class="e5297cba-8456-4cb7-9c32-c626ae61d75e" d="M244.71,34.73h-1V28.57h1v1a2.08,2.08,0,0,1,2-1.11v1.06h-.27c-1,0-1.72.43-1.72,1.86Z"/><path class="e5297cba-8456-4cb7-9c32-c626ae61d75e" d="M253.29,34.73h-1v-.91a2.25,2.25,0,0,1-2,1,2.41,2.41,0,0,1-2.53-2.64V28.57h1V32a1.65,1.65,0,0,0,1.72,1.89c1.06,0,1.76-.65,1.76-2V28.57h1Z"/><path class="e5297cba-8456-4cb7-9c32-c626ae61d75e" d="M259.28,28.57h1.06l-3.71,9.06h-1.06l1.22-3-2.49-6.09h1.14l1.93,5Z"/><path class="e5297cba-8456-4cb7-9c32-c626ae61d75e" d="M263.79,34.83a3,3,0,0,1-3-3.19,2.93,2.93,0,0,1,3-3.17,2.82,2.82,0,0,1,2.95,2.94,6.13,6.13,0,0,1,0,.62h-4.92a1.94,1.94,0,0,0,2,1.93,1.7,1.7,0,0,0,1.73-1.13h1.1A2.77,2.77,0,0,1,263.79,34.83Zm-2-3.63h3.89a1.8,1.8,0,0,0-1.94-1.86A1.91,1.91,0,0,0,261.8,31.2Z"/><path class="e5297cba-8456-4cb7-9c32-c626ae61d75e" d="M205.45,43.27h1v3a2.33,2.33,0,0,1,2-1A2.37,2.37,0,0,1,211,48v3.63h-1V48.1c0-1.26-.68-1.9-1.71-1.9s-1.77.65-1.77,2v3.4h-1Z"/><path class="e5297cba-8456-4cb7-9c32-c626ae61d75e" d="M215.2,45.32a2.55,2.55,0,0,1,2.29,1.23V45.43h1v6.15h-1V50.43a2.56,2.56,0,0,1-2.3,1.25,3,3,0,0,1-2.91-3.2A2.92,2.92,0,0,1,215.2,45.32Zm.2.89a2.08,2.08,0,0,0-2.08,2.27,2.09,2.09,0,1,0,2.08-2.27Z"/><path class="e5297cba-8456-4cb7-9c32-c626ae61d75e" d="M220.26,43.27h1v8.31h-1Z"/><path class="e5297cba-8456-4cb7-9c32-c626ae61d75e" d="M223,43.27h1v8.31h-1Z"/><path class="e5297cba-8456-4cb7-9c32-c626ae61d75e" d="M228.33,45.32a2.56,2.56,0,0,1,2.29,1.23V45.43h1v6.15h-1V50.43a2.56,2.56,0,0,1-2.31,1.25,3,3,0,0,1-2.9-3.2A2.92,2.92,0,0,1,228.33,45.32Zm.2.89a2.08,2.08,0,0,0-2.08,2.27,2.09,2.09,0,1,0,2.08-2.27Z"/><path class="e5297cba-8456-4cb7-9c32-c626ae61d75e" d="M237.05,46.26l-3,4.48h3v.84h-4.19v-.84l3-4.48h-3v-.83h4.14Z"/><path class="e5297cba-8456-4cb7-9c32-c626ae61d75e" d="M240.68,45.32A2.54,2.54,0,0,1,243,46.55V45.43h1v6.28a2.76,2.76,0,0,1-2.94,2.9c-1.62,0-2.78-.82-3-2.13h1a1.9,1.9,0,0,0,2,1.24,1.82,1.82,0,0,0,1.9-2V50.42a2.55,2.55,0,0,1-2.29,1.26,3,3,0,0,1-2.92-3.2A2.92,2.92,0,0,1,240.68,45.32Zm.21.89a2.08,2.08,0,0,0-2.08,2.27,2.09,2.09,0,1,0,2.08-2.27Z"/><path class="e5297cba-8456-4cb7-9c32-c626ae61d75e" d="M248.46,51.68a3.18,3.18,0,1,1,3.15-3.19A3,3,0,0,1,248.46,51.68Zm0-.9a2.09,2.09,0,0,0,2.11-2.29,2.07,2.07,0,0,0-2.08-2.28,2,2,0,0,0-2.06,2.28A2,2,0,0,0,248.46,50.78Z"/><path class="e5297cba-8456-4cb7-9c32-c626ae61d75e" d="M255.13,51.68c-1.44,0-2.45-.79-2.52-1.91h1.06c.05.6.58,1,1.44,1s1.26-.41,1.26-.91c0-1.37-3.64-.58-3.64-2.87,0-.94.89-1.72,2.26-1.72a2.07,2.07,0,0,1,2.33,1.94h-1A1.18,1.18,0,0,0,255,46.19c-.75,0-1.2.36-1.2.85,0,1.46,3.57.67,3.61,2.87C257.37,50.92,256.49,51.68,255.13,51.68Z"/><ellipse class="a90aa91c-cfc8-4f3b-be26-fbbd32ff5148" cx="230.85" cy="40.67" rx="62.84" ry="33.41"/><path class="e5297cba-8456-4cb7-9c32-c626ae61d75e" d="M355.14,130.22h1v7.83h-1Z"/><path class="e5297cba-8456-4cb7-9c32-c626ae61d75e" d="M362.44,134.57c0-1.26-.68-1.9-1.71-1.9s-1.77.65-1.77,2v3.4h-1V131.9h1v.87a2.29,2.29,0,0,1,2-1,2.39,2.39,0,0,1,2.52,2.64v3.63h-1Z"/><path class="e5297cba-8456-4cb7-9c32-c626ae61d75e" d="M365.27,132.74h-.8v-.84h.8v-1.55h1v1.55h1.61v.84h-1.61v3.63c0,.6.22.82.85.82h.76v.86H367c-1.09,0-1.7-.45-1.7-1.68Z"/><path class="e5297cba-8456-4cb7-9c32-c626ae61d75e" d="M371.57,138.15a3,3,0,0,1-3-3.19,2.92,2.92,0,0,1,3-3.16,2.82,2.82,0,0,1,2.95,2.94c0,.22,0,.4,0,.62h-4.92a1.94,1.94,0,0,0,2,1.93,1.69,1.69,0,0,0,1.73-1.14h1.1A2.75,2.75,0,0,1,371.57,138.15Zm-2-3.63h3.89a1.81,1.81,0,0,0-2-1.86A1.9,1.9,0,0,0,369.58,134.52Z"/><path class="e5297cba-8456-4cb7-9c32-c626ae61d75e" d="M376.93,138.05h-1V131.9h1v1a2.07,2.07,0,0,1,2-1.12v1.06h-.27c-1,0-1.72.44-1.72,1.86Z"/><path class="e5297cba-8456-4cb7-9c32-c626ae61d75e" d="M383.34,131.8a2.91,2.91,0,0,1,2.92,3.15,3,3,0,0,1-2.92,3.2,2.65,2.65,0,0,1-2.3-1.23V141h-1V131.9h1V133A2.6,2.6,0,0,1,383.34,131.8Zm-.21.88a2.29,2.29,0,1,0,2.09,2.27A2.08,2.08,0,0,0,383.13,132.68Z"/><path class="e5297cba-8456-4cb7-9c32-c626ae61d75e" d="M388.67,138.05h-1V131.9h1v1a2.06,2.06,0,0,1,2-1.12v1.06h-.27c-1,0-1.72.44-1.72,1.86Z"/><path class="e5297cba-8456-4cb7-9c32-c626ae61d75e" d="M394.34,138.15a3,3,0,0,1-3-3.19,2.92,2.92,0,0,1,3-3.16,2.82,2.82,0,0,1,3,2.94c0,.22,0,.4,0,.62h-4.92a1.94,1.94,0,0,0,2,1.93,1.69,1.69,0,0,0,1.73-1.14h1.1A2.76,2.76,0,0,1,394.34,138.15Zm-2-3.63h3.89a1.81,1.81,0,0,0-1.95-1.86A1.9,1.9,0,0,0,392.35,134.52Z"/><path class="e5297cba-8456-4cb7-9c32-c626ae61d75e" d="M398.78,132.74H398v-.84h.8v-1.55h1v1.55h1.61v.84H399.8v3.63c0,.6.22.82.85.82h.76v.86h-.93c-1.09,0-1.7-.45-1.7-1.68Z"/><path class="e5297cba-8456-4cb7-9c32-c626ae61d75e" d="M405,131.8a2.56,2.56,0,0,1,2.29,1.22V131.9h1v6.15h-1v-1.14a2.58,2.58,0,0,1-2.31,1.24A3,3,0,0,1,402,135,2.91,2.91,0,0,1,405,131.8Zm.2.88a2.08,2.08,0,0,0-2.08,2.27,2.09,2.09,0,1,0,2.08-2.27Z"/><path class="e5297cba-8456-4cb7-9c32-c626ae61d75e" d="M412.66,131.8a2.66,2.66,0,0,1,2.84,2.07h-1.1a1.67,1.67,0,0,0-1.74-1.21c-1.12,0-2,.8-2,2.3s.83,2.33,2,2.33a1.65,1.65,0,0,0,1.74-1.22h1.1a2.73,2.73,0,0,1-2.84,2.08,3.18,3.18,0,0,1,0-6.35Z"/><path class="e5297cba-8456-4cb7-9c32-c626ae61d75e" d="M416.67,130.2a.69.69,0,1,1,.69.7A.69.69,0,0,1,416.67,130.2Zm.17,1.7h1v6.15h-1Z"/><path class="e5297cba-8456-4cb7-9c32-c626ae61d75e" d="M422.28,138.15a3.18,3.18,0,1,1,3.15-3.19A3,3,0,0,1,422.28,138.15Zm0-.9a2.09,2.09,0,0,0,2.11-2.29,2.07,2.07,0,0,0-2.08-2.28,2.3,2.3,0,0,0,0,4.57Zm1.14-8.06v.89L421,131.36v-.77Z"/><path class="e5297cba-8456-4cb7-9c32-c626ae61d75e" d="M431.32,134.57c0-1.26-.68-1.9-1.72-1.9s-1.76.65-1.76,2v3.4h-1V131.9h1v.87a2.27,2.27,0,0,1,2-1,2.39,2.39,0,0,1,2.51,2.64v3.63h-1Z"/><ellipse class="a90aa91c-cfc8-4f3b-be26-fbbd32ff5148" cx="393.29" cy="136.51" rx="62.84" ry="33.41"/><polygon class="ba3c13a1-ff6e-4c8f-9f03-e0d3bf58f0a9" points="167.24 40.67 161.12 37.14 161.12 44.21 167.24 40.67"/><polygon class="ba3c13a1-ff6e-4c8f-9f03-e0d3bf58f0a9" points="393.71 101.98 397.24 95.86 390.17 95.86 393.71 101.98"/></svg>