<svg xmlns="http://www.w3.org/2000/svg" xmlns:xlink="http://www.w3.org/1999/xlink" viewBox="0 0 996.59 314.38"><defs><style>.a,.bb,.f,.g{fill:none;}.b{isolation:isolate;}.c{clip-path:url(#a);}.d,.e{opacity:0.3;mix-blend-mode:multiply;}.d{fill:url(#b);}.e{fill:url(#c);}.f{stroke:#b3b3b3;}.bb,.f{stroke-linecap:round;stroke-linejoin:round;}.bb,.f,.g{stroke-width:2px;}.bb,.g{stroke:#fd893b;}.g{stroke-miterlimit:10;}.h{font-size:23.99px;fill:#272b31;font-family:Poppins-Regular, Poppins;}.i{letter-spacing:-0.02em;}.j{letter-spacing:0em;}.k{letter-spacing:-0.01em;}.l{letter-spacing:0em;}.m{letter-spacing:0em;}.n{letter-spacing:-0.01em;}.o{letter-spacing:-0.01em;}.p{letter-spacing:0em;}.q{letter-spacing:-0.02em;}.r{letter-spacing:-0.01em;}.s{letter-spacing:-0.01em;}.t{letter-spacing:-0.01em;}.u{letter-spacing:-0.01em;}.v{letter-spacing:-0.01em;}.w{letter-spacing:-0.01em;}.x{letter-spacing:0em;}.y{letter-spacing:-0.01em;}.z{letter-spacing:-0.03em;}.aa{letter-spacing:-0.01em;}.ab{letter-spacing:-0.02em;}.ac{letter-spacing:-0.04em;}.ad{letter-spacing:-0.02em;}.ae{letter-spacing:-0.01em;}.af{letter-spacing:-0.02em;}.ag{letter-spacing:-0.09em;}.ah{letter-spacing:-0.09em;}.ai{letter-spacing:-0.02em;}.aj{letter-spacing:-0.01em;}.ak{letter-spacing:-0.04em;}.al{letter-spacing:-0.01em;}.am{letter-spacing:-0.02em;}.an{letter-spacing:-0.02em;}.ao{letter-spacing:-0.02em;}.ap{letter-spacing:-0.01em;}.aq{letter-spacing:-0.03em;}.ar{letter-spacing:-0.01em;}.as{letter-spacing:-0.02em;}.at{letter-spacing:-0.01em;}.au{letter-spacing:-0.03em;}.av{letter-spacing:0em;}.aw{letter-spacing:-0.03em;}.ax{letter-spacing:-0.01em;}.ay{letter-spacing:-0.02em;}.az{letter-spacing:-0.02em;}.ba{letter-spacing:-0.01em;}.bc{fill:#b3b3b3;}</style><clipPath id="a"><rect class="a" x="-129.61" y="-1639.61" width="1366" height="1529.63"/></clipPath><linearGradient id="b" x1="-314.13" y1="-362.15" x2="238.32" y2="190.3" gradientUnits="userSpaceOnUse"><stop offset="0" stop-color="#272b31" stop-opacity="0"/><stop offset="0.02" stop-color="#272b31" stop-opacity="0.04"/><stop offset="0.4" stop-color="#272b31" stop-opacity="0.57"/><stop offset="0.73" stop-color="#272b31" stop-opacity="0.89"/><stop offset="1" stop-color="#272b31"/></linearGradient><linearGradient id="c" x1="564.77" y1="199.85" x2="892.81" y2="527.89" xlink:href="#b"/></defs><g class="b"><g class="c"><circle class="d" cx="-37.9" cy="-85.93" r="390.64"/><circle class="e" cx="728.79" cy="363.87" r="231.96"/></g><line class="f" x1="441.59" y1="146" x2="693.01" y2="146"/><rect class="g" x="13.26" y="22.89" width="428.33" height="269.34" rx="42.42"/><text class="h" transform="translate(89.06 68.91)"><tspan class="i">R</tspan><tspan class="j" x="14.05" y="0">e</tspan><tspan class="k" x="28.89" y="0">c</tspan><tspan class="l" x="43.21" y="0">o</tspan><tspan class="m" x="58.46" y="0">l</tspan><tspan class="j" x="64.24" y="0">e</tspan><tspan class="n" x="79.08" y="0">cc</tspan><tspan class="o" x="107.75" y="0">i</tspan><tspan class="p" x="113.47" y="0">ó</tspan><tspan x="128.72" y="0">n y </tspan><tspan class="q" x="170.39" y="0">A</tspan><tspan class="r" x="186.17" y="0">n</tspan><tspan class="s" x="201.4" y="0">á</tspan><tspan class="t" x="217.45" y="0">l</tspan><tspan class="u" x="223.17" y="0">i</tspan><tspan class="v" x="228.84" y="0">s</tspan><tspan class="w" x="241.2" y="0">i</tspan><tspan x="246.87" y="0">s</tspan><tspan class="p" x="-4.23" y="35.98">d</tspan><tspan x="11.89" y="35.98">e </tspan><tspan class="x" x="33.17" y="35.98">D</tspan><tspan class="y" x="50.16" y="35.98">a</tspan><tspan class="z" x="66.2" y="35.98">t</tspan><tspan class="aa" x="74.21" y="35.98">o</tspan><tspan x="89.36" y="35.98">s </tspan><tspan class="ab" x="108.29" y="35.98">C</tspan><tspan class="ac" x="126.4" y="35.98">U</tspan><tspan class="ad" x="141.66" y="35.98">A</tspan><tspan class="ae" x="157.43" y="35.98">L</tspan><tspan class="af" x="167.53" y="35.98">I</tspan><tspan class="ag" x="172.97" y="35.98">T</tspan><tspan class="ah" x="183.71" y="35.98">A</tspan><tspan class="ai" x="197.66" y="35.98">T</tspan><tspan class="aj" x="210.2" y="35.98">I</tspan><tspan class="ak" x="215.79" y="35.98">V</tspan><tspan class="al" x="231.02" y="35.98">O</tspan><tspan x="249.53" y="35.98">S</tspan></text><rect class="g" x="55.35" y="146" width="325.34" height="117.11" rx="24.38"/><text class="h" transform="translate(89.06 192.02)"><tspan class="i">R</tspan><tspan class="j" x="14.05" y="0">e</tspan><tspan class="k" x="28.89" y="0">c</tspan><tspan class="l" x="43.21" y="0">o</tspan><tspan class="m" x="58.46" y="0">l</tspan><tspan class="j" x="64.24" y="0">e</tspan><tspan class="n" x="79.08" y="0">cc</tspan><tspan class="o" x="107.75" y="0">i</tspan><tspan class="p" x="113.47" y="0">ó</tspan><tspan x="128.72" y="0">n y </tspan><tspan class="q" x="170.39" y="0">A</tspan><tspan class="r" x="186.17" y="0">n</tspan><tspan class="s" x="201.4" y="0">á</tspan><tspan class="t" x="217.45" y="0">l</tspan><tspan class="u" x="223.17" y="0">i</tspan><tspan class="v" x="228.84" y="0">s</tspan><tspan class="w" x="241.2" y="0">i</tspan><tspan x="246.87" y="0">s</tspan><tspan class="p" x="-5.04" y="35.98">d</tspan><tspan x="11.08" y="35.98">e </tspan><tspan class="x" x="32.36" y="35.98">D</tspan><tspan class="y" x="49.36" y="35.98">a</tspan><tspan class="z" x="65.39" y="35.98">t</tspan><tspan class="aa" x="73.41" y="35.98">o</tspan><tspan x="88.55" y="35.98">s </tspan><tspan class="am" x="107.48" y="35.98">C</tspan><tspan class="l" x="125.57" y="35.98">u</tspan><tspan class="v" x="140.81" y="35.98">a</tspan><tspan class="an" x="156.87" y="35.98">n</tspan><tspan class="ao" x="171.85" y="35.98">t</tspan><tspan class="ap" x="180.18" y="35.98">i</tspan><tspan class="aq" x="185.8" y="35.98">t</tspan><tspan class="ar" x="193.86" y="35.98">a</tspan><tspan class="as" x="209.9" y="35.98">t</tspan><tspan class="at" x="218.22" y="35.98">i</tspan><tspan class="au" x="223.95" y="35.98">v</tspan><tspan class="aa" x="236.75" y="35.98">o</tspan><tspan x="251.9" y="35.98">s</tspan></text><text class="h" transform="translate(758.91 149.3)"><tspan class="av">I</tspan><tspan class="an" x="5.82" y="0">n</tspan><tspan class="aw" x="20.8" y="0">t</tspan><tspan class="p" x="28.87" y="0">e</tspan><tspan class="ax" x="43.64" y="0">r</tspan><tspan class="p" x="52.24" y="0">p</tspan><tspan class="ay" x="68.36" y="0">r</tspan><tspan class="az" x="76.79" y="0">e</tspan><tspan class="aq" x="91.29" y="0">t</tspan><tspan class="p" x="99.36" y="0">a</tspan><tspan class="ba" x="115.48" y="0">c</tspan><tspan class="o" x="129.81" y="0">i</tspan><tspan class="p" x="135.52" y="0">ó</tspan><tspan x="150.78" y="0">n</tspan></text><ellipse class="bb" cx="841.08" cy="146" rx="134.16" ry="71.33"/><polygon class="bc" points="704.8 146 691.73 138.46 691.73 153.54 704.8 146"/></g></svg>