<svg id="f531a256-2223-4c64-b5dc-4ccd1f721c44" data-name="Capa 1" xmlns="http://www.w3.org/2000/svg" viewBox="0 0 461.47 176.32"><defs><style>.a1639ac0-884f-44a3-a178-ee4b968f4517,.a2e2ed22-3069-467b-8a0c-50ef0cfd9d0e,.a473dee0-8f05-41e2-a9eb-3e4c10158323{fill:none;stroke-width:1.87px;}.a1639ac0-884f-44a3-a178-ee4b968f4517{stroke:#b3b3b3;}.a1639ac0-884f-44a3-a178-ee4b968f4517,.a2e2ed22-3069-467b-8a0c-50ef0cfd9d0e{stroke-linecap:round;stroke-linejoin:round;}.a2e2ed22-3069-467b-8a0c-50ef0cfd9d0e,.a473dee0-8f05-41e2-a9eb-3e4c10158323{stroke:#5f9eb5;}.a473dee0-8f05-41e2-a9eb-3e4c10158323{stroke-miterlimit:10;}.fefa3f1f-3609-424a-9147-69ff14ffb2d7{fill:#272b31;}.b0a92baa-cf20-4f82-bc63-15f1c4051e0d{fill:#b3b3b3;}</style></defs><line class="a1639ac0-884f-44a3-a178-ee4b968f4517" x1="132.2" y1="40.67" x2="161" y2="40.67"/><rect class="a473dee0-8f05-41e2-a9eb-3e4c10158323" x="4.85" y="8.08" width="127.35" height="70.47" rx="11.83"/><line class="a1639ac0-884f-44a3-a178-ee4b968f4517" x1="392.99" y1="78.55" x2="392.99" y2="96.46"/><rect class="a473dee0-8f05-41e2-a9eb-3e4c10158323" x="327.96" y="8.08" width="127.35" height="70.47" rx="11.83"/><path class="fefa3f1f-3609-424a-9147-69ff14ffb2d7" d="M38.12,21.81c1.84,0,2.72,1,2.72,2.3A2.21,2.21,0,0,1,39,26.36l2,3.28H39.72l-1.87-3.2H36.62v3.2h-1V21.81Zm0,.84h-1.5v3h1.5c1.16,0,1.66-.63,1.66-1.51S39.29,22.65,38.12,22.65Z"/><path class="fefa3f1f-3609-424a-9147-69ff14ffb2d7" d="M44.92,29.74a3,3,0,0,1-3-3.19,2.93,2.93,0,0,1,3-3.17,2.82,2.82,0,0,1,2.95,2.94,6.13,6.13,0,0,1,0,.62H42.92a1.94,1.94,0,0,0,2,1.93,1.7,1.7,0,0,0,1.73-1.13h1.1A2.77,2.77,0,0,1,44.92,29.74Zm-2-3.63h3.89a1.8,1.8,0,0,0-1.94-1.86A1.91,1.91,0,0,0,42.93,26.11Z"/><path class="fefa3f1f-3609-424a-9147-69ff14ffb2d7" d="M51.9,23.38a2.69,2.69,0,0,1,2.85,2.08H53.64a1.67,1.67,0,0,0-1.74-1.21c-1.12,0-1.95.79-1.95,2.3s.83,2.32,1.95,2.32a1.65,1.65,0,0,0,1.74-1.21h1.11a2.76,2.76,0,0,1-2.85,2.08,2.93,2.93,0,0,1-3-3.19A2.92,2.92,0,0,1,51.9,23.38Z"/><path class="fefa3f1f-3609-424a-9147-69ff14ffb2d7" d="M58.76,29.74a3,3,0,0,1-3.07-3.19,3.12,3.12,0,1,1,6.23,0A3.06,3.06,0,0,1,58.76,29.74Zm0-.9a2.09,2.09,0,0,0,2.11-2.29,2.07,2.07,0,0,0-2.08-2.28,2,2,0,0,0-2,2.28A2,2,0,0,0,58.76,28.84Z"/><path class="fefa3f1f-3609-424a-9147-69ff14ffb2d7" d="M63.29,21.33h1v8.31h-1Z"/><path class="fefa3f1f-3609-424a-9147-69ff14ffb2d7" d="M68.75,29.74a3,3,0,0,1-3-3.19,2.94,2.94,0,0,1,3-3.17,2.82,2.82,0,0,1,3,2.94,6.13,6.13,0,0,1,0,.62H66.75a1.93,1.93,0,0,0,2,1.93,1.7,1.7,0,0,0,1.73-1.13h1.1A2.78,2.78,0,0,1,68.75,29.74Zm-2-3.63h3.89a1.81,1.81,0,0,0-2-1.86A1.9,1.9,0,0,0,66.76,26.11Z"/><path class="fefa3f1f-3609-424a-9147-69ff14ffb2d7" d="M75.73,23.38a2.67,2.67,0,0,1,2.84,2.08h-1.1a1.67,1.67,0,0,0-1.74-1.21c-1.12,0-2,.79-2,2.3s.83,2.32,2,2.32a1.65,1.65,0,0,0,1.74-1.21h1.1a2.74,2.74,0,0,1-2.84,2.08,2.94,2.94,0,0,1-3-3.19A2.93,2.93,0,0,1,75.73,23.38Z"/><path class="fefa3f1f-3609-424a-9147-69ff14ffb2d7" d="M82.53,23.38a2.69,2.69,0,0,1,2.84,2.08h-1.1a1.68,1.68,0,0,0-1.74-1.21c-1.13,0-2,.79-2,2.3s.83,2.32,2,2.32a1.66,1.66,0,0,0,1.74-1.21h1.1a2.75,2.75,0,0,1-2.84,2.08,2.93,2.93,0,0,1-3-3.19A2.92,2.92,0,0,1,82.53,23.38Z"/><path class="fefa3f1f-3609-424a-9147-69ff14ffb2d7" d="M86.54,21.79a.69.69,0,1,1,.69.69A.68.68,0,0,1,86.54,21.79Zm.16,1.69h1v6.16h-1Z"/><path class="fefa3f1f-3609-424a-9147-69ff14ffb2d7" d="M92.14,29.74a3,3,0,0,1-3.06-3.19,3.11,3.11,0,1,1,6.22,0A3.05,3.05,0,0,1,92.14,29.74Zm0-.9a2.09,2.09,0,0,0,2.11-2.29,2.07,2.07,0,0,0-2.07-2.28,2,2,0,0,0-2.06,2.28A2,2,0,0,0,92.14,28.84Zm1.15-8.06v.88L90.9,22.94v-.76Z"/><path class="fefa3f1f-3609-424a-9147-69ff14ffb2d7" d="M101.19,26.15a1.65,1.65,0,0,0-1.72-1.89c-1,0-1.76.65-1.76,2v3.41h-1V23.48h1v.88a2.26,2.26,0,0,1,2-1A2.39,2.39,0,0,1,102.2,26v3.63h-1Z"/><path class="fefa3f1f-3609-424a-9147-69ff14ffb2d7" d="M21.65,40.33h1.06L19,49.39H18l1.21-3-2.48-6.09h1.13l1.94,5Z"/><path class="fefa3f1f-3609-424a-9147-69ff14ffb2d7" d="M31.36,44.75H28l-.63,1.74H26.24l2.83-7.78h1.18l2.82,7.78H32ZM29.65,40l-1.41,4h2.83Z"/><path class="fefa3f1f-3609-424a-9147-69ff14ffb2d7" d="M38.71,43A1.66,1.66,0,0,0,37,41.11c-1,0-1.76.65-1.76,2v3.4h-1V40.33h1v.88a2.26,2.26,0,0,1,2-1,2.39,2.39,0,0,1,2.52,2.64v3.63h-1Z"/><path class="fefa3f1f-3609-424a-9147-69ff14ffb2d7" d="M44,40.23a2.57,2.57,0,0,1,2.3,1.23V40.33h1v6.16h-1V45.34a2.58,2.58,0,0,1-2.31,1.25A3,3,0,0,1,41,43.39,2.92,2.92,0,0,1,44,40.23Zm.21.89a2.08,2.08,0,0,0-2.08,2.27,2.09,2.09,0,1,0,2.08-2.27Zm1.29-3.41v.88l-2.39,1.28v-.76Z"/><path class="fefa3f1f-3609-424a-9147-69ff14ffb2d7" d="M49,38.18h1v8.31H49Z"/><path class="fefa3f1f-3609-424a-9147-69ff14ffb2d7" d="M51.6,38.64a.69.69,0,1,1,1.37,0,.69.69,0,1,1-1.37,0Zm.17,1.69h1v6.16h-1Z"/><path class="fefa3f1f-3609-424a-9147-69ff14ffb2d7" d="M56.68,46.59c-1.44,0-2.45-.79-2.52-1.91h1.06c.06.6.58,1,1.45,1s1.26-.4,1.26-.91c0-1.37-3.64-.57-3.64-2.86,0-.94.88-1.72,2.25-1.72a2.07,2.07,0,0,1,2.33,1.93h-1a1.19,1.19,0,0,0-1.34-1.06c-.75,0-1.2.36-1.2.85,0,1.46,3.57.66,3.61,2.86C58.92,45.83,58,46.59,56.68,46.59Z"/><path class="fefa3f1f-3609-424a-9147-69ff14ffb2d7" d="M60.2,38.64a.69.69,0,1,1,.69.69A.68.68,0,0,1,60.2,38.64Zm.16,1.69h1v6.16h-1Z"/><path class="fefa3f1f-3609-424a-9147-69ff14ffb2d7" d="M65.28,46.59c-1.44,0-2.45-.79-2.52-1.91h1.06c0,.6.58,1,1.45,1s1.25-.4,1.25-.91c0-1.37-3.64-.57-3.64-2.86,0-.94.89-1.72,2.26-1.72a2.07,2.07,0,0,1,2.33,1.93h-1a1.17,1.17,0,0,0-1.33-1.06c-.75,0-1.2.36-1.2.85,0,1.46,3.57.66,3.61,2.86C67.52,45.83,66.64,46.59,65.28,46.59Z"/><path class="fefa3f1f-3609-424a-9147-69ff14ffb2d7" d="M74.51,40.23a2.7,2.7,0,0,1,2.28,1.2V38.18h1v8.31h-1V45.33a2.52,2.52,0,0,1-2.29,1.26,3,3,0,0,1-2.92-3.2A2.92,2.92,0,0,1,74.51,40.23Zm.19.89a2.07,2.07,0,0,0-2.07,2.27,2.09,2.09,0,1,0,2.07-2.27Z"/><path class="fefa3f1f-3609-424a-9147-69ff14ffb2d7" d="M82.25,46.59a3,3,0,0,1-3-3.19,2.93,2.93,0,0,1,3-3.17,2.83,2.83,0,0,1,3,3,4.08,4.08,0,0,1,0,.61H80.25a1.94,1.94,0,0,0,2,1.93A1.69,1.69,0,0,0,84,44.59h1.1A2.77,2.77,0,0,1,82.25,46.59Zm-2-3.63h3.89a1.8,1.8,0,0,0-1.94-1.86A1.91,1.91,0,0,0,80.26,43Z"/><path class="fefa3f1f-3609-424a-9147-69ff14ffb2d7" d="M96.15,42.59c0,2.43-1.58,3.9-4.16,3.9H89.56V38.66H92C94.57,38.66,96.15,40.17,96.15,42.59ZM92,45.65a2.79,2.79,0,0,0,3.11-3.06A2.82,2.82,0,0,0,92,39.49H90.58v6.16Z"/><path class="fefa3f1f-3609-424a-9147-69ff14ffb2d7" d="M100.13,40.23a2.56,2.56,0,0,1,2.29,1.23V40.33h1v6.16h-1V45.34a2.56,2.56,0,0,1-2.3,1.25,3,3,0,0,1-2.91-3.2A2.92,2.92,0,0,1,100.13,40.23Zm.2.89a2.08,2.08,0,0,0-2.08,2.27,2.09,2.09,0,1,0,2.08-2.27Z"/><path class="fefa3f1f-3609-424a-9147-69ff14ffb2d7" d="M105.41,41.18h-.8v-.85h.8V38.78h1v1.55H108v.85h-1.6V44.8c0,.61.22.82.85.82H108v.87h-.92c-1.09,0-1.7-.45-1.7-1.69Z"/><path class="fefa3f1f-3609-424a-9147-69ff14ffb2d7" d="M111.71,46.59a3.18,3.18,0,1,1,3.15-3.19A3.05,3.05,0,0,1,111.71,46.59Zm0-.9a2.09,2.09,0,0,0,2.11-2.29,2.07,2.07,0,0,0-2.08-2.28,2,2,0,0,0-2,2.28A2,2,0,0,0,111.71,45.69Z"/><path class="fefa3f1f-3609-424a-9147-69ff14ffb2d7" d="M118.38,46.59c-1.44,0-2.45-.79-2.52-1.91h1.06c0,.6.58,1,1.45,1s1.25-.4,1.25-.91c0-1.37-3.64-.57-3.64-2.86,0-.94.89-1.72,2.26-1.72a2.07,2.07,0,0,1,2.33,1.93h-1a1.17,1.17,0,0,0-1.33-1.06c-.75,0-1.2.36-1.2.85,0,1.46,3.57.66,3.61,2.86C120.62,45.83,119.74,46.59,118.38,46.59Z"/><path class="fefa3f1f-3609-424a-9147-69ff14ffb2d7" d="M36.4,55.41A3.69,3.69,0,0,1,40,57.78H38.81a2.47,2.47,0,0,0-2.41-1.47,3.12,3.12,0,0,0,0,6.21,2.48,2.48,0,0,0,2.41-1.46H40a3.67,3.67,0,0,1-3.63,2.35,4,4,0,0,1,0-8Z"/><path class="fefa3f1f-3609-424a-9147-69ff14ffb2d7" d="M41.42,55.51h1v5a1.93,1.93,0,1,0,3.86,0v-5h1v4.94a3,3,0,1,1-5.9,0Z"/><path class="fefa3f1f-3609-424a-9147-69ff14ffb2d7" d="M53.31,61.6H49.89l-.63,1.74H48.19L51,55.56H52.2L55,63.34H53.94ZM51.6,56.82l-1.41,4H53Z"/><path class="fefa3f1f-3609-424a-9147-69ff14ffb2d7" d="M57.17,55.51v7h2.74v.83H56.15V55.51Z"/><path class="fefa3f1f-3609-424a-9147-69ff14ffb2d7" d="M61,55.51h1v7.83H61Z"/><path class="fefa3f1f-3609-424a-9147-69ff14ffb2d7" d="M63.11,55.51h5.3v.83H66.27v7h-1v-7H63.11Z"/><path class="fefa3f1f-3609-424a-9147-69ff14ffb2d7" d="M73.36,61.6H70l-.63,1.74H68.24l2.83-7.78h1.18l2.82,7.78H74Zm-1.71-4.78-1.41,4h2.83Z"/><path class="fefa3f1f-3609-424a-9147-69ff14ffb2d7" d="M74.89,55.51h5.3v.83H78.05v7H77v-7H74.89Z"/><path class="fefa3f1f-3609-424a-9147-69ff14ffb2d7" d="M81.33,55.51h1v7.83h-1Z"/><path class="fefa3f1f-3609-424a-9147-69ff14ffb2d7" d="M89.42,55.51h1.07l-2.95,7.83H86.36l-3-7.83H84.5L87,62.26Z"/><path class="fefa3f1f-3609-424a-9147-69ff14ffb2d7" d="M94.8,63.42a4,4,0,1,1,3.93-4A3.86,3.86,0,0,1,94.8,63.42Zm0-.89a3.12,3.12,0,1,0-2.89-3.11A2.85,2.85,0,0,0,94.8,62.53Z"/><path class="fefa3f1f-3609-424a-9147-69ff14ffb2d7" d="M102.48,63.42c-1.57,0-2.68-.88-2.71-2.17h1.09a1.45,1.45,0,0,0,1.62,1.3c1,0,1.57-.56,1.57-1.3,0-2.11-4.23-.76-4.23-3.67,0-1.29,1-2.17,2.59-2.17a2.35,2.35,0,0,1,2.6,2h-1.13a1.4,1.4,0,0,0-1.51-1.13c-.84,0-1.51.41-1.51,1.26,0,2,4.23.76,4.23,3.66A2.35,2.35,0,0,1,102.48,63.42Z"/><path class="fefa3f1f-3609-424a-9147-69ff14ffb2d7" d="M360.89,22.11c1.84,0,2.71,1,2.71,2.31a2.2,2.2,0,0,1-1.86,2.24l2,3.28h-1.23l-1.86-3.2h-1.24v3.2h-1V22.11Zm0,.85h-1.51v3h1.51c1.15,0,1.66-.63,1.66-1.5S362.05,23,360.89,23Z"/><path class="fefa3f1f-3609-424a-9147-69ff14ffb2d7" d="M367.68,30a3,3,0,0,1-3-3.19,2.93,2.93,0,0,1,3-3.16,2.82,2.82,0,0,1,3,2.94,4.3,4.3,0,0,1,0,.62h-4.91a1.93,1.93,0,0,0,2,1.93A1.68,1.68,0,0,0,369.41,28h1.1A2.75,2.75,0,0,1,367.68,30Zm-2-3.62h3.88a1.8,1.8,0,0,0-1.94-1.87A1.9,1.9,0,0,0,365.7,26.42Z"/><path class="fefa3f1f-3609-424a-9147-69ff14ffb2d7" d="M374.67,23.69a2.67,2.67,0,0,1,2.84,2.07h-1.1a1.67,1.67,0,0,0-1.74-1.21c-1.13,0-2,.8-2,2.3s.83,2.33,2,2.33A1.66,1.66,0,0,0,376.41,28h1.1A2.74,2.74,0,0,1,374.67,30a2.93,2.93,0,0,1-3-3.19A2.92,2.92,0,0,1,374.67,23.69Z"/><path class="fefa3f1f-3609-424a-9147-69ff14ffb2d7" d="M381.52,30a3,3,0,0,1-3.06-3.19,3.11,3.11,0,1,1,6.22,0A3,3,0,0,1,381.52,30Zm0-.9a2.09,2.09,0,0,0,2.12-2.29,2.07,2.07,0,0,0-2.08-2.28,2,2,0,0,0-2.06,2.28A2,2,0,0,0,381.52,29.14Z"/><path class="fefa3f1f-3609-424a-9147-69ff14ffb2d7" d="M386.06,21.63h1v8.31h-1Z"/><path class="fefa3f1f-3609-424a-9147-69ff14ffb2d7" d="M391.51,30a3,3,0,0,1-3-3.19,2.92,2.92,0,0,1,3-3.16,2.82,2.82,0,0,1,3,2.94c0,.22,0,.4,0,.62h-4.92a1.94,1.94,0,0,0,2,1.93A1.68,1.68,0,0,0,393.24,28h1.1A2.75,2.75,0,0,1,391.51,30Zm-2-3.62h3.89a1.81,1.81,0,0,0-1.94-1.87A1.92,1.92,0,0,0,389.52,26.42Z"/><path class="fefa3f1f-3609-424a-9147-69ff14ffb2d7" d="M398.5,23.69a2.68,2.68,0,0,1,2.84,2.07h-1.1a1.68,1.68,0,0,0-1.74-1.21c-1.13,0-2,.8-2,2.3s.83,2.33,2,2.33A1.66,1.66,0,0,0,400.24,28h1.1A2.74,2.74,0,0,1,398.5,30a2.93,2.93,0,0,1-3-3.19A2.92,2.92,0,0,1,398.5,23.69Z"/><path class="fefa3f1f-3609-424a-9147-69ff14ffb2d7" d="M405.29,23.69a2.66,2.66,0,0,1,2.84,2.07H407a1.67,1.67,0,0,0-1.74-1.21c-1.12,0-2,.8-2,2.3s.83,2.33,2,2.33A1.65,1.65,0,0,0,407,28h1.1A2.73,2.73,0,0,1,405.29,30a2.93,2.93,0,0,1-3-3.19A2.92,2.92,0,0,1,405.29,23.69Z"/><path class="fefa3f1f-3609-424a-9147-69ff14ffb2d7" d="M409.3,22.09a.69.69,0,1,1,.7.7A.68.68,0,0,1,409.3,22.09Zm.17,1.7h1v6.15h-1Z"/><path class="fefa3f1f-3609-424a-9147-69ff14ffb2d7" d="M414.91,30a3,3,0,0,1-3.07-3.19,3.11,3.11,0,1,1,6.22,0A3,3,0,0,1,414.91,30Zm0-.9A2.09,2.09,0,0,0,417,26.85a2.07,2.07,0,0,0-2.08-2.28,2,2,0,0,0-2.05,2.28A2,2,0,0,0,414.91,29.14Zm1.14-8.06V22l-2.39,1.28v-.76Z"/><path class="fefa3f1f-3609-424a-9147-69ff14ffb2d7" d="M424,26.46c0-1.26-.68-1.9-1.72-1.9s-1.76.65-1.76,2v3.4h-1V23.79h1v.87a2.28,2.28,0,0,1,2-1A2.38,2.38,0,0,1,425,26.31v3.63h-1Z"/><path class="fefa3f1f-3609-424a-9147-69ff14ffb2d7" d="M344.42,40.64h1.05l-3.7,9h-1.06l1.21-3-2.48-6.09h1.14l1.93,5Z"/><path class="fefa3f1f-3609-424a-9147-69ff14ffb2d7" d="M354.13,45.05h-3.42l-.63,1.74H349L351.83,39H353l2.82,7.78h-1.08Zm-1.71-4.78L351,44.22h2.83Z"/><path class="fefa3f1f-3609-424a-9147-69ff14ffb2d7" d="M361.47,43.31c0-1.26-.68-1.9-1.72-1.9s-1.76.66-1.76,2v3.4h-1V40.64h1v.88a2.29,2.29,0,0,1,2-1,2.38,2.38,0,0,1,2.51,2.64v3.62h-1Z"/><path class="fefa3f1f-3609-424a-9147-69ff14ffb2d7" d="M366.72,40.54A2.56,2.56,0,0,1,369,41.76V40.64h1v6.15h-1V45.65a2.57,2.57,0,0,1-2.3,1.24,3,3,0,0,1-2.91-3.2A2.91,2.91,0,0,1,366.72,40.54Zm.2.89a2.08,2.08,0,0,0-2.08,2.26,2.09,2.09,0,1,0,2.08-2.26ZM368.21,38v.89l-2.39,1.28v-.76Z"/><path class="fefa3f1f-3609-424a-9147-69ff14ffb2d7" d="M371.77,38.48h1v8.31h-1Z"/><path class="fefa3f1f-3609-424a-9147-69ff14ffb2d7" d="M374.36,38.94a.69.69,0,0,1,.7-.69.7.7,0,0,1,0,1.39A.69.69,0,0,1,374.36,38.94Zm.17,1.7h1v6.15h-1Z"/><path class="fefa3f1f-3609-424a-9147-69ff14ffb2d7" d="M379.44,46.89c-1.43,0-2.44-.78-2.51-1.9H378c.06.59.59,1,1.45,1s1.26-.4,1.26-.91c0-1.37-3.64-.57-3.64-2.86,0-.95.89-1.72,2.26-1.72a2.06,2.06,0,0,1,2.32,1.93h-1a1.18,1.18,0,0,0-1.33-1.07c-.76,0-1.21.36-1.21.86,0,1.46,3.58.66,3.62,2.86C381.69,46.13,380.8,46.89,379.44,46.89Z"/><path class="fefa3f1f-3609-424a-9147-69ff14ffb2d7" d="M383,38.94a.69.69,0,1,1,.7.7A.68.68,0,0,1,383,38.94Zm.17,1.7h1v6.15h-1Z"/><path class="fefa3f1f-3609-424a-9147-69ff14ffb2d7" d="M388,46.89c-1.44,0-2.45-.78-2.51-1.9h1.05c.06.59.59,1,1.45,1s1.26-.4,1.26-.91c0-1.37-3.64-.57-3.64-2.86,0-.95.89-1.72,2.26-1.72a2.06,2.06,0,0,1,2.32,1.93h-1a1.18,1.18,0,0,0-1.34-1.07c-.75,0-1.2.36-1.2.86,0,1.46,3.57.66,3.62,2.86C390.29,46.13,389.4,46.89,388,46.89Z"/><path class="fefa3f1f-3609-424a-9147-69ff14ffb2d7" d="M397.28,40.54a2.69,2.69,0,0,1,2.28,1.2V38.48h1v8.31h-1V45.64a2.54,2.54,0,0,1-2.3,1.25,3,3,0,0,1-2.92-3.2A2.92,2.92,0,0,1,397.28,40.54Zm.19.89a2.07,2.07,0,0,0-2.08,2.26,2.09,2.09,0,1,0,2.08-2.26Z"/><path class="fefa3f1f-3609-424a-9147-69ff14ffb2d7" d="M405,46.89a3,3,0,0,1-3-3.18,2.93,2.93,0,0,1,3-3.17,2.82,2.82,0,0,1,3,2.94,6.13,6.13,0,0,1,0,.62H403A1.93,1.93,0,0,0,405,46a1.7,1.7,0,0,0,1.73-1.13h1.1A2.77,2.77,0,0,1,405,46.89Zm-2-3.62h3.89A1.82,1.82,0,0,0,405,41.4,1.91,1.91,0,0,0,403,43.27Z"/><path class="fefa3f1f-3609-424a-9147-69ff14ffb2d7" d="M418.91,42.9c0,2.42-1.58,3.89-4.15,3.89h-2.44V39h2.44C417.33,39,418.91,40.47,418.91,42.9ZM414.76,46a2.79,2.79,0,0,0,3.11-3.05,2.82,2.82,0,0,0-3.11-3.1h-1.42V46Z"/><path class="fefa3f1f-3609-424a-9147-69ff14ffb2d7" d="M422.89,40.54a2.53,2.53,0,0,1,2.29,1.22V40.64h1v6.15h-1V45.65a2.56,2.56,0,0,1-2.3,1.24,3,3,0,0,1-2.91-3.2A2.91,2.91,0,0,1,422.89,40.54Zm.21.89A2.07,2.07,0,0,0,421,43.69a2.09,2.09,0,1,0,2.08-2.26Z"/><path class="fefa3f1f-3609-424a-9147-69ff14ffb2d7" d="M428.17,41.48h-.8v-.84h.8V39.09h1v1.55h1.61v.84h-1.61v3.63c0,.61.23.82.85.82h.76v.86h-.92c-1.09,0-1.71-.45-1.71-1.68Z"/><path class="fefa3f1f-3609-424a-9147-69ff14ffb2d7" d="M434.47,46.89a3,3,0,0,1-3.06-3.18,3.11,3.11,0,1,1,6.22,0A3.05,3.05,0,0,1,434.47,46.89Zm0-.89a2.29,2.29,0,0,0,0-4.57,2,2,0,0,0-2.05,2.28A2,2,0,0,0,434.47,46Z"/><path class="fefa3f1f-3609-424a-9147-69ff14ffb2d7" d="M441.14,46.89c-1.44,0-2.45-.78-2.51-1.9h1.05c.06.59.58,1,1.45,1s1.26-.4,1.26-.91c0-1.37-3.64-.57-3.64-2.86,0-.95.89-1.72,2.26-1.72a2.06,2.06,0,0,1,2.32,1.93h-1A1.19,1.19,0,0,0,441,41.4c-.75,0-1.2.36-1.2.86,0,1.46,3.57.66,3.62,2.86C443.39,46.13,442.5,46.89,441.14,46.89Z"/><path class="fefa3f1f-3609-424a-9147-69ff14ffb2d7" d="M358.78,55.72a3.68,3.68,0,0,1,3.63,2.37h-1.23a2.44,2.44,0,0,0-2.4-1.47,3.12,3.12,0,0,0,0,6.21,2.46,2.46,0,0,0,2.4-1.46h1.23a3.68,3.68,0,0,1-3.63,2.34,4,4,0,0,1,0-8Z"/><path class="fefa3f1f-3609-424a-9147-69ff14ffb2d7" d="M369.27,63.65h-1v-.91a2.25,2.25,0,0,1-2,1,2.4,2.4,0,0,1-2.53-2.64V57.49h1V61a1.65,1.65,0,0,0,1.72,1.89c1.06,0,1.76-.65,1.76-2V57.49h1Z"/><path class="fefa3f1f-3609-424a-9147-69ff14ffb2d7" d="M373.57,57.39a2.56,2.56,0,0,1,2.29,1.22V57.49h1v6.16h-1V62.5a2.58,2.58,0,0,1-2.31,1.25,3,3,0,0,1-2.9-3.2A2.92,2.92,0,0,1,373.57,57.39Zm.2.89a2.08,2.08,0,0,0-2.08,2.27,2.09,2.09,0,1,0,2.08-2.27Z"/><path class="fefa3f1f-3609-424a-9147-69ff14ffb2d7" d="M383.13,60.16a1.65,1.65,0,0,0-1.72-1.89c-1,0-1.76.65-1.76,2v3.41h-1V57.49h1v.88a2.27,2.27,0,0,1,2-1A2.39,2.39,0,0,1,384.14,60v3.63h-1Z"/><path class="fefa3f1f-3609-424a-9147-69ff14ffb2d7" d="M386,58.33h-.8v-.84h.8V55.94h1v1.55h1.61v.84H387V62c0,.61.23.82.86.82h.75v.87h-.92c-1.09,0-1.71-.45-1.71-1.69Z"/><path class="fefa3f1f-3609-424a-9147-69ff14ffb2d7" d="M389.54,55.8a.69.69,0,1,1,1.37,0,.69.69,0,1,1-1.37,0Zm.17,1.69h1v6.16h-1Z"/><path class="fefa3f1f-3609-424a-9147-69ff14ffb2d7" d="M392.65,58.33h-.8v-.84h.8V55.94h1v1.55h1.6v.84h-1.6V62c0,.61.22.82.85.82h.75v.87h-.92c-1.09,0-1.7-.45-1.7-1.69Z"/><path class="fefa3f1f-3609-424a-9147-69ff14ffb2d7" d="M398.83,57.39a2.56,2.56,0,0,1,2.29,1.22V57.49h1v6.16h-1V62.5a2.58,2.58,0,0,1-2.31,1.25,3,3,0,0,1-2.9-3.2A2.92,2.92,0,0,1,398.83,57.39Zm.2.89A2.08,2.08,0,0,0,397,60.55,2.09,2.09,0,1,0,399,58.28Z"/><path class="fefa3f1f-3609-424a-9147-69ff14ffb2d7" d="M404.1,58.33h-.8v-.84h.8V55.94h1v1.55h1.61v.84h-1.61V62c0,.61.23.82.86.82h.75v.87h-.92c-1.09,0-1.71-.45-1.71-1.69Z"/><path class="fefa3f1f-3609-424a-9147-69ff14ffb2d7" d="M407.69,55.8a.69.69,0,1,1,.69.69A.68.68,0,0,1,407.69,55.8Zm.17,1.69h1v6.16h-1Z"/><path class="fefa3f1f-3609-424a-9147-69ff14ffb2d7" d="M411,57.49l1.92,5.21,1.91-5.21h1.09l-2.41,6.16h-1.19l-2.42-6.16Z"/><path class="fefa3f1f-3609-424a-9147-69ff14ffb2d7" d="M419.39,63.75a3.18,3.18,0,1,1,3.16-3.19A3.06,3.06,0,0,1,419.39,63.75Zm0-.9a2.29,2.29,0,0,0,0-4.57,2.3,2.3,0,0,0,0,4.57Z"/><path class="fefa3f1f-3609-424a-9147-69ff14ffb2d7" d="M426.06,63.75c-1.44,0-2.45-.79-2.52-1.91h1.06c.06.59.58,1,1.45,1s1.26-.4,1.26-.91c0-1.37-3.64-.57-3.64-2.86,0-.94.88-1.72,2.25-1.72a2.07,2.07,0,0,1,2.33,1.93h-1a1.18,1.18,0,0,0-1.34-1.06c-.75,0-1.2.35-1.2.85,0,1.46,3.57.66,3.62,2.86C428.31,63,427.42,63.75,426.06,63.75Z"/><line class="a1639ac0-884f-44a3-a178-ee4b968f4517" x1="292.99" y1="40.67" x2="321.79" y2="40.67"/><polygon class="b0a92baa-cf20-4f82-bc63-15f1c4051e0d" points="327.31 40.67 321.19 37.14 321.19 44.21 327.31 40.67"/><path class="fefa3f1f-3609-424a-9147-69ff14ffb2d7" d="M197.94,34.81c-1.58,0-2.69-.88-2.71-2.17h1.09a1.45,1.45,0,0,0,1.62,1.3c1,0,1.57-.56,1.57-1.3,0-2.11-4.24-.76-4.24-3.67,0-1.3,1-2.17,2.6-2.17a2.34,2.34,0,0,1,2.59,2h-1.12a1.43,1.43,0,0,0-1.52-1.14c-.84,0-1.5.42-1.5,1.26,0,2,4.22.77,4.22,3.66A2.34,2.34,0,0,1,197.94,34.81Z"/><path class="fefa3f1f-3609-424a-9147-69ff14ffb2d7" d="M204.69,34.83a3,3,0,0,1-3-3.19,2.93,2.93,0,0,1,3-3.17,2.82,2.82,0,0,1,2.95,2.94,6.13,6.13,0,0,1,0,.62h-4.92a1.94,1.94,0,0,0,2,1.93,1.69,1.69,0,0,0,1.73-1.13h1.1A2.77,2.77,0,0,1,204.69,34.83Zm-2-3.63h3.89a1.8,1.8,0,0,0-1.94-1.86A1.91,1.91,0,0,0,202.7,31.2Z"/><path class="fefa3f1f-3609-424a-9147-69ff14ffb2d7" d="M214.61,28.47a2.67,2.67,0,0,1,2.84,2.08h-1.1a1.67,1.67,0,0,0-1.74-1.21c-1.12,0-2,.79-2,2.3s.83,2.32,2,2.32a1.64,1.64,0,0,0,1.74-1.21h1.1a2.73,2.73,0,0,1-2.84,2.08,2.94,2.94,0,0,1-3-3.19A2.93,2.93,0,0,1,214.61,28.47Z"/><path class="fefa3f1f-3609-424a-9147-69ff14ffb2d7" d="M221.47,34.83a3,3,0,0,1-3.07-3.19,3.11,3.11,0,1,1,6.22,0A3.05,3.05,0,0,1,221.47,34.83Zm0-.9a2.09,2.09,0,0,0,2.11-2.29,2.07,2.07,0,0,0-2.08-2.28,2,2,0,0,0-2.05,2.28A2,2,0,0,0,221.47,33.93Z"/><path class="fefa3f1f-3609-424a-9147-69ff14ffb2d7" d="M230.51,31.25c0-1.26-.68-1.9-1.72-1.9s-1.76.65-1.76,2v3.41h-1V28.57h1v.88a2.28,2.28,0,0,1,2-1,2.39,2.39,0,0,1,2.51,2.64v3.63h-1Z"/><path class="fefa3f1f-3609-424a-9147-69ff14ffb2d7" d="M235.35,34.83a2.24,2.24,0,0,1-2.51-1.91h1.06c0,.59.58,1,1.44,1s1.26-.4,1.26-.91c0-1.37-3.64-.57-3.64-2.86,0-.94.89-1.72,2.26-1.72a2.06,2.06,0,0,1,2.32,1.93h-1a1.17,1.17,0,0,0-1.33-1.06c-.76,0-1.2.36-1.2.85,0,1.46,3.57.66,3.61,2.86C237.6,34.07,236.71,34.83,235.35,34.83Z"/><path class="fefa3f1f-3609-424a-9147-69ff14ffb2d7" d="M239.22,29.42h-.8v-.85h.8V27h1v1.55h1.6v.85h-1.6V33c0,.61.22.82.85.82h.75v.87h-.92c-1.09,0-1.7-.45-1.7-1.69Z"/><path class="fefa3f1f-3609-424a-9147-69ff14ffb2d7" d="M244,34.73h-1V28.57h1v1a2.07,2.07,0,0,1,2-1.11v1.06h-.27c-1,0-1.71.43-1.71,1.86Z"/><path class="fefa3f1f-3609-424a-9147-69ff14ffb2d7" d="M252.57,34.73h-1v-.91a2.28,2.28,0,0,1-2,1,2.41,2.41,0,0,1-2.53-2.64V28.57h1V32c0,1.25.68,1.89,1.71,1.89s1.77-.65,1.77-2V28.57h1Z"/><path class="fefa3f1f-3609-424a-9147-69ff14ffb2d7" d="M258.56,28.57h1.06l-3.71,9.06h-1.06l1.22-3-2.49-6.09h1.14l1.93,5Z"/><path class="fefa3f1f-3609-424a-9147-69ff14ffb2d7" d="M263.07,34.83a3,3,0,0,1-3-3.19,2.93,2.93,0,0,1,3-3.17A2.82,2.82,0,0,1,266,31.41a6.13,6.13,0,0,1,0,.62h-4.92a1.94,1.94,0,0,0,2,1.93,1.69,1.69,0,0,0,1.73-1.13h1.1A2.77,2.77,0,0,1,263.07,34.83Zm-2-3.63H265A1.8,1.8,0,0,0,263,29.34,1.91,1.91,0,0,0,261.08,31.2Z"/><path class="fefa3f1f-3609-424a-9147-69ff14ffb2d7" d="M204.73,43.27h1v3a2.33,2.33,0,0,1,2-1A2.38,2.38,0,0,1,210.25,48v3.63h-1V48.1a1.66,1.66,0,0,0-1.72-1.9c-1.05,0-1.77.65-1.77,2v3.4h-1Z"/><path class="fefa3f1f-3609-424a-9147-69ff14ffb2d7" d="M214.48,45.32a2.55,2.55,0,0,1,2.29,1.23V45.43h1v6.15h-1V50.43a2.56,2.56,0,0,1-2.3,1.25,3,3,0,0,1-2.91-3.2A2.92,2.92,0,0,1,214.48,45.32Zm.2.89a2.07,2.07,0,0,0-2.07,2.27,2.09,2.09,0,1,0,2.07-2.27Z"/><path class="fefa3f1f-3609-424a-9147-69ff14ffb2d7" d="M219.54,43.27h1v8.31h-1Z"/><path class="fefa3f1f-3609-424a-9147-69ff14ffb2d7" d="M222.28,43.27h1v8.31h-1Z"/><path class="fefa3f1f-3609-424a-9147-69ff14ffb2d7" d="M227.61,45.32a2.56,2.56,0,0,1,2.29,1.23V45.43h1v6.15h-1V50.43a2.56,2.56,0,0,1-2.31,1.25,3,3,0,0,1-2.9-3.2A2.92,2.92,0,0,1,227.61,45.32Zm.2.89a2.08,2.08,0,0,0-2.08,2.27,2.09,2.09,0,1,0,2.08-2.27Z"/><path class="fefa3f1f-3609-424a-9147-69ff14ffb2d7" d="M236.34,46.26l-3,4.48h3v.84h-4.19v-.84l3-4.48h-3v-.83h4.15Z"/><path class="fefa3f1f-3609-424a-9147-69ff14ffb2d7" d="M240,45.32a2.52,2.52,0,0,1,2.29,1.23V45.43h1v6.28a2.76,2.76,0,0,1-2.94,2.9c-1.62,0-2.78-.82-3-2.13h1a1.91,1.91,0,0,0,2,1.24,1.82,1.82,0,0,0,1.9-2V50.42A2.55,2.55,0,0,1,240,51.68a3,3,0,0,1-2.92-3.2A2.92,2.92,0,0,1,240,45.32Zm.21.89a2.08,2.08,0,0,0-2.08,2.27,2.09,2.09,0,1,0,2.08-2.27Z"/><path class="fefa3f1f-3609-424a-9147-69ff14ffb2d7" d="M247.74,51.68a3.18,3.18,0,1,1,3.15-3.19A3,3,0,0,1,247.74,51.68Zm0-.9a2.29,2.29,0,0,0,0-4.57,2,2,0,0,0-2.05,2.28A2,2,0,0,0,247.74,50.78Z"/><path class="fefa3f1f-3609-424a-9147-69ff14ffb2d7" d="M254.41,51.68c-1.44,0-2.45-.79-2.52-1.91H253c.05.6.58,1,1.45,1s1.25-.41,1.25-.91c0-1.37-3.63-.58-3.63-2.87,0-.94.88-1.72,2.25-1.72a2.07,2.07,0,0,1,2.33,1.94h-1a1.19,1.19,0,0,0-1.34-1.07c-.75,0-1.2.36-1.2.85,0,1.46,3.57.67,3.61,2.87C256.65,50.92,255.77,51.68,254.41,51.68Z"/><ellipse class="a2e2ed22-3069-467b-8a0c-50ef0cfd9d0e" cx="230.13" cy="40.67" rx="62.84" ry="33.41"/><path class="fefa3f1f-3609-424a-9147-69ff14ffb2d7" d="M354.42,130.22h1v7.83h-1Z"/><path class="fefa3f1f-3609-424a-9147-69ff14ffb2d7" d="M361.73,134.57a1.66,1.66,0,0,0-1.72-1.9c-1.05,0-1.76.65-1.76,2v3.4h-1V131.9h1v.87a2.26,2.26,0,0,1,2-1,2.39,2.39,0,0,1,2.52,2.64v3.63h-1Z"/><path class="fefa3f1f-3609-424a-9147-69ff14ffb2d7" d="M364.55,132.74h-.8v-.84h.8v-1.55h1v1.55h1.61v.84h-1.61v3.63c0,.6.22.82.85.82h.76v.86h-.93c-1.08,0-1.7-.45-1.7-1.68Z"/><path class="fefa3f1f-3609-424a-9147-69ff14ffb2d7" d="M370.85,138.15a3,3,0,0,1-3-3.19,2.92,2.92,0,0,1,3-3.16,2.81,2.81,0,0,1,2.95,2.94c0,.22,0,.4,0,.62h-4.92a1.94,1.94,0,0,0,2,1.93,1.68,1.68,0,0,0,1.73-1.14h1.1A2.75,2.75,0,0,1,370.85,138.15Zm-2-3.62h3.89a1.81,1.81,0,0,0-1.94-1.87A1.92,1.92,0,0,0,368.86,134.53Z"/><path class="fefa3f1f-3609-424a-9147-69ff14ffb2d7" d="M376.21,138.05h-1V131.9h1v1a2.07,2.07,0,0,1,2-1.12v1.06h-.27c-1,0-1.72.44-1.72,1.86Z"/><path class="fefa3f1f-3609-424a-9147-69ff14ffb2d7" d="M382.62,131.8a2.91,2.91,0,0,1,2.92,3.15,3,3,0,0,1-2.92,3.2,2.65,2.65,0,0,1-2.3-1.23V141h-1V131.9h1V133A2.6,2.6,0,0,1,382.62,131.8Zm-.21.88A2.29,2.29,0,1,0,384.5,135,2.08,2.08,0,0,0,382.41,132.68Z"/><path class="fefa3f1f-3609-424a-9147-69ff14ffb2d7" d="M388,138.05h-1V131.9h1v1a2.07,2.07,0,0,1,2-1.12v1.06h-.27c-1,0-1.72.44-1.72,1.86Z"/><path class="fefa3f1f-3609-424a-9147-69ff14ffb2d7" d="M393.62,138.15a3,3,0,0,1-3-3.19,2.92,2.92,0,0,1,3-3.16,2.81,2.81,0,0,1,2.95,2.94c0,.22,0,.4,0,.62h-4.92a1.94,1.94,0,0,0,2,1.93,1.68,1.68,0,0,0,1.73-1.14h1.1A2.75,2.75,0,0,1,393.62,138.15Zm-2-3.62h3.89a1.81,1.81,0,0,0-1.94-1.87A1.92,1.92,0,0,0,391.63,134.53Z"/><path class="fefa3f1f-3609-424a-9147-69ff14ffb2d7" d="M398.06,132.74h-.8v-.84h.8v-1.55h1v1.55h1.61v.84h-1.61v3.63c0,.6.22.82.85.82h.76v.86h-.93c-1.08,0-1.7-.45-1.7-1.68Z"/><path class="fefa3f1f-3609-424a-9147-69ff14ffb2d7" d="M404.24,131.8a2.56,2.56,0,0,1,2.29,1.22V131.9h1v6.15h-1v-1.14a2.57,2.57,0,0,1-2.3,1.24,3,3,0,0,1-2.91-3.2A2.91,2.91,0,0,1,404.24,131.8Zm.2.88a2.08,2.08,0,0,0-2.08,2.27,2.09,2.09,0,1,0,2.08-2.27Z"/><path class="fefa3f1f-3609-424a-9147-69ff14ffb2d7" d="M411.94,131.8a2.66,2.66,0,0,1,2.84,2.07h-1.1a1.67,1.67,0,0,0-1.74-1.21c-1.12,0-1.95.8-1.95,2.3s.83,2.33,1.95,2.33a1.65,1.65,0,0,0,1.74-1.22h1.1a2.73,2.73,0,0,1-2.84,2.08,3.18,3.18,0,0,1,0-6.35Z"/><path class="fefa3f1f-3609-424a-9147-69ff14ffb2d7" d="M416,130.2a.69.69,0,1,1,.7.7A.69.69,0,0,1,416,130.2Zm.17,1.7h1v6.15h-1Z"/><path class="fefa3f1f-3609-424a-9147-69ff14ffb2d7" d="M421.56,138.15a3.18,3.18,0,1,1,3.15-3.19A3,3,0,0,1,421.56,138.15Zm0-.9a2.09,2.09,0,0,0,2.11-2.29,2.07,2.07,0,0,0-2.08-2.28,2.3,2.3,0,0,0,0,4.57Zm1.14-8.06v.89l-2.39,1.28v-.77Z"/><path class="fefa3f1f-3609-424a-9147-69ff14ffb2d7" d="M430.6,134.57c0-1.26-.68-1.9-1.72-1.9s-1.76.65-1.76,2v3.4h-1V131.9h1v.87a2.28,2.28,0,0,1,2-1,2.39,2.39,0,0,1,2.51,2.64v3.63h-1Z"/><ellipse class="a2e2ed22-3069-467b-8a0c-50ef0cfd9d0e" cx="392.57" cy="136.51" rx="62.84" ry="33.41"/><polygon class="b0a92baa-cf20-4f82-bc63-15f1c4051e0d" points="166.52 40.67 160.4 37.14 160.4 44.21 166.52 40.67"/><polygon class="b0a92baa-cf20-4f82-bc63-15f1c4051e0d" points="392.99 101.98 396.52 95.86 389.45 95.86 392.99 101.98"/></svg>