<svg xmlns="http://www.w3.org/2000/svg" xmlns:xlink="http://www.w3.org/1999/xlink" viewBox="0 0 995.17 383.81"><defs><style>.a250cec9-8e6d-4689-9db7-795c591beeba,.acad9fa4-a94a-4d68-b67e-8940d8f3bf0d,.e780efc1-6120-4ee3-9f96-a40529d9d9f8{fill:none;}.bfa9618d-061d-41f6-8ec6-7ca30182aafe{isolation:isolate;}.ff5650fc-4650-469a-921d-e59ac07245bf{clip-path:url(#ac9bb501-47e6-4d99-9ce4-48d1ca387832);}.b9cf020c-343c-4af5-9d3a-9ad91e32f4a3,.e24949f0-16d7-40e7-aad0-7ad5eccf8915{opacity:0.3;mix-blend-mode:multiply;}.e24949f0-16d7-40e7-aad0-7ad5eccf8915{fill:url(#e9e95676-a5e4-438b-9e8a-4f7a8e999e09);}.b9cf020c-343c-4af5-9d3a-9ad91e32f4a3{fill:url(#ab66047c-aee9-4ffa-b5e7-417c479dcab4);}.acad9fa4-a94a-4d68-b67e-8940d8f3bf0d{stroke:#b3b3b3;stroke-linecap:round;stroke-linejoin:round;}.a250cec9-8e6d-4689-9db7-795c591beeba,.acad9fa4-a94a-4d68-b67e-8940d8f3bf0d{stroke-width:2px;}.a250cec9-8e6d-4689-9db7-795c591beeba{stroke:#fd893b;stroke-miterlimit:10;}.b59c9627-d94e-4355-9dbd-7250997bd18c{fill:#272b31;}.a0729804-4ac5-4e57-8a36-b1e620a9c026{fill:#b3b3b3;}</style><clipPath id="ac9bb501-47e6-4d99-9ce4-48d1ca387832"><rect class="e780efc1-6120-4ee3-9f96-a40529d9d9f8" x="-164.93" y="-1674.97" width="1366" height="1529.63"/></clipPath><linearGradient id="e9e95676-a5e4-438b-9e8a-4f7a8e999e09" x1="-349.45" y1="-397.51" x2="203" y2="154.94" gradientUnits="userSpaceOnUse"><stop offset="0" stop-color="#272b31" stop-opacity="0"/><stop offset="0.02" stop-color="#272b31" stop-opacity="0.04"/><stop offset="0.4" stop-color="#272b31" stop-opacity="0.57"/><stop offset="0.73" stop-color="#272b31" stop-opacity="0.89"/><stop offset="1" stop-color="#272b31"/></linearGradient><linearGradient id="ab66047c-aee9-4ffa-b5e7-417c479dcab4" x1="529.45" y1="164.49" x2="857.49" y2="492.54" xlink:href="#e9e95676-a5e4-438b-9e8a-4f7a8e999e09"/></defs><g class="bfa9618d-061d-41f6-8ec6-7ca30182aafe"><g id="bf15b048-e1d9-4db7-9911-f9e9f1933aad" data-name="Capa 1"><g class="ff5650fc-4650-469a-921d-e59ac07245bf"><circle class="e24949f0-16d7-40e7-aad0-7ad5eccf8915" cx="-73.23" cy="-121.29" r="390.64"/><circle class="b9cf020c-343c-4af5-9d3a-9ad91e32f4a3" cx="693.47" cy="328.51" r="231.96"/></g><line class="acad9fa4-a94a-4d68-b67e-8940d8f3bf0d" x1="288.46" y1="89.59" x2="349.96" y2="89.59"/><rect class="a250cec9-8e6d-4689-9db7-795c591beeba" x="16.55" y="20" width="271.92" height="150.46" rx="25.26"/><line class="acad9fa4-a94a-4d68-b67e-8940d8f3bf0d" x1="845.3" y1="170.46" x2="845.3" y2="208.7"/><rect class="a250cec9-8e6d-4689-9db7-795c591beeba" x="706.45" y="20" width="271.92" height="150.46" rx="25.26"/><path class="b59c9627-d94e-4355-9dbd-7250997bd18c" d="M88.44,49.3c3.94,0,5.81,2.19,5.81,4.92a4.72,4.72,0,0,1-4,4.8l4.2,7H91.85l-4-6.83H85.23V66H83V49.3Zm0,1.8H85.23v6.33h3.21c2.47,0,3.55-1.34,3.55-3.21S90.94,51.1,88.44,51.1Z"/><path class="b59c9627-d94e-4355-9dbd-7250997bd18c" d="M102.78,66.24c-3.74,0-6.5-2.64-6.5-6.81s2.66-6.77,6.5-6.77A6,6,0,0,1,109.09,59a11.41,11.41,0,0,1-.08,1.32H98.51a4.13,4.13,0,0,0,4.27,4.12A3.62,3.62,0,0,0,106.47,62h2.35A5.9,5.9,0,0,1,102.78,66.24Zm-4.25-7.75h8.3a3.85,3.85,0,0,0-4.15-4A4.07,4.07,0,0,0,98.53,58.49Z"/><path class="b59c9627-d94e-4355-9dbd-7250997bd18c" d="M117.53,52.66c3.26,0,5.39,1.68,6.06,4.44h-2.35a3.57,3.57,0,0,0-3.71-2.59c-2.4,0-4.18,1.7-4.18,4.92s1.78,5,4.18,5a3.51,3.51,0,0,0,3.71-2.59h2.35a5.83,5.83,0,0,1-6.06,4.44c-3.75,0-6.41-2.64-6.41-6.81S113.78,52.66,117.53,52.66Z"/><path class="b59c9627-d94e-4355-9dbd-7250997bd18c" d="M132,66.24c-3.72,0-6.55-2.64-6.55-6.81a6.65,6.65,0,1,1,13.29,0A6.52,6.52,0,0,1,132,66.24Zm0-1.92c2.28,0,4.51-1.56,4.51-4.89s-2.18-4.87-4.44-4.87-4.39,1.56-4.39,4.87S129.71,64.32,132,64.32Z"/><path class="b59c9627-d94e-4355-9dbd-7250997bd18c" d="M141.5,48.27h2.19V66H141.5Z"/><path class="b59c9627-d94e-4355-9dbd-7250997bd18c" d="M153,66.24c-3.74,0-6.5-2.64-6.5-6.81s2.67-6.77,6.5-6.77A6,6,0,0,1,159.28,59a11.43,11.43,0,0,1-.07,1.32H148.7A4.13,4.13,0,0,0,153,64.39a3.62,3.62,0,0,0,3.7-2.42H159A5.91,5.91,0,0,1,153,66.24Zm-4.24-7.75H157a3.86,3.86,0,0,0-4.15-4A4.06,4.06,0,0,0,148.73,58.49Z"/><path class="b59c9627-d94e-4355-9dbd-7250997bd18c" d="M167.72,52.66c3.26,0,5.4,1.68,6.07,4.44h-2.35a3.58,3.58,0,0,0-3.72-2.59c-2.4,0-4.17,1.7-4.17,4.92s1.77,5,4.17,5a3.52,3.52,0,0,0,3.72-2.59h2.35a5.85,5.85,0,0,1-6.07,4.44c-3.74,0-6.4-2.64-6.4-6.81S164,52.66,167.72,52.66Z"/><path class="b59c9627-d94e-4355-9dbd-7250997bd18c" d="M182.06,52.66c3.26,0,5.39,1.68,6.07,4.44h-2.35a3.59,3.59,0,0,0-3.72-2.59c-2.4,0-4.18,1.7-4.18,4.92s1.78,5,4.18,5a3.53,3.53,0,0,0,3.72-2.59h2.35a5.85,5.85,0,0,1-6.07,4.44c-3.74,0-6.41-2.64-6.41-6.81S178.32,52.66,182.06,52.66Z"/><path class="b59c9627-d94e-4355-9dbd-7250997bd18c" d="M190.44,49.26a1.47,1.47,0,1,1,2.93,0,1.47,1.47,0,1,1-2.93,0Zm.36,3.62H193V66H190.8Z"/><path class="b59c9627-d94e-4355-9dbd-7250997bd18c" d="M202.25,66.24c-3.72,0-6.55-2.64-6.55-6.81a6.65,6.65,0,1,1,13.29,0A6.52,6.52,0,0,1,202.25,66.24Zm0-1.92c2.28,0,4.51-1.56,4.51-4.89s-2.18-4.87-4.44-4.87-4.39,1.56-4.39,4.87S200,64.32,202.25,64.32ZM204.7,47.1V49l-5.11,2.74V50.1Z"/><path class="b59c9627-d94e-4355-9dbd-7250997bd18c" d="M221.39,58.59c0-2.69-1.46-4.06-3.67-4.06S214,55.92,214,58.75V66h-2.19V52.88H214v1.87a4.84,4.84,0,0,1,4.22-2.11c3,0,5.37,1.87,5.37,5.63V66h-2.16Z"/><path class="b59c9627-d94e-4355-9dbd-7250997bd18c" d="M53.44,88.86h2.25l-7.92,19.33H45.52l2.59-6.33-5.3-13h2.42l4.13,10.65Z"/><path class="b59c9627-d94e-4355-9dbd-7250997bd18c" d="M74.16,98.29H66.87L65.53,102H63.22l6-16.63h2.52l6,16.63H75.5ZM70.51,88.07l-3,8.44h6.05Z"/><path class="b59c9627-d94e-4355-9dbd-7250997bd18c" d="M89.67,94.57c0-2.69-1.46-4-3.67-4s-3.76,1.39-3.76,4.22V102H80.06V88.86h2.18v1.87a4.84,4.84,0,0,1,4.22-2.11c3.05,0,5.37,1.87,5.37,5.64V102H89.67Z"/><path class="b59c9627-d94e-4355-9dbd-7250997bd18c" d="M100.71,88.64a5.45,5.45,0,0,1,4.89,2.62v-2.4h2.21V102H105.6V99.56a5.49,5.49,0,0,1-4.91,2.66c-3.51,0-6.22-2.76-6.22-6.84S97.18,88.64,100.71,88.64Zm.43,1.9c-2.4,0-4.44,1.75-4.44,4.84s2,4.92,4.44,4.92,4.46-1.8,4.46-4.89S103.54,90.54,101.14,90.54Zm2.76-7.29v1.89l-5.11,2.74V86.25Z"/><path class="b59c9627-d94e-4355-9dbd-7250997bd18c" d="M111.35,84.25h2.18V102h-2.18Z"/><path class="b59c9627-d94e-4355-9dbd-7250997bd18c" d="M116.7,85.24a1.47,1.47,0,1,1,1.49,1.49A1.47,1.47,0,0,1,116.7,85.24Zm.36,3.62h2.19V102h-2.19Z"/><path class="b59c9627-d94e-4355-9dbd-7250997bd18c" d="M127.38,102.22c-3.07,0-5.23-1.68-5.37-4.08h2.25c.12,1.27,1.25,2.23,3.1,2.23s2.69-.86,2.69-1.94c0-2.93-7.78-1.22-7.78-6.12,0-2,1.9-3.67,4.82-3.67s4.83,1.56,5,4.13h-2.18c-.1-1.32-1.11-2.28-2.86-2.28-1.6,0-2.56.77-2.56,1.82,0,3.12,7.62,1.42,7.72,6.12C132.18,100.59,130.29,102.22,127.38,102.22Z"/><path class="b59c9627-d94e-4355-9dbd-7250997bd18c" d="M134.74,85.24a1.46,1.46,0,1,1,1.48,1.49A1.46,1.46,0,0,1,134.74,85.24Zm.36,3.62h2.18V102H135.1Z"/><path class="b59c9627-d94e-4355-9dbd-7250997bd18c" d="M145.42,102.22c-3.08,0-5.23-1.68-5.38-4.08h2.26c.12,1.27,1.24,2.23,3.09,2.23s2.69-.86,2.69-1.94c0-2.93-7.77-1.22-7.77-6.12,0-2,1.89-3.67,4.82-3.67s4.82,1.56,5,4.13h-2.18c-.1-1.32-1.1-2.28-2.86-2.28-1.6,0-2.56.77-2.56,1.82,0,3.12,7.63,1.42,7.72,6.12C150.21,100.59,148.32,102.22,145.42,102.22Z"/><path class="b59c9627-d94e-4355-9dbd-7250997bd18c" d="M165.13,88.64A5.73,5.73,0,0,1,170,91.21v-7h2.21V102H170V99.53a5.38,5.38,0,0,1-4.89,2.69c-3.53,0-6.24-2.76-6.24-6.84S161.58,88.64,165.13,88.64Zm.41,1.9c-2.4,0-4.44,1.75-4.44,4.84s2,4.92,4.44,4.92S170,98.5,170,95.41,167.94,90.54,165.54,90.54Z"/><path class="b59c9627-d94e-4355-9dbd-7250997bd18c" d="M181.49,102.22c-3.74,0-6.5-2.64-6.5-6.81s2.66-6.77,6.5-6.77a6,6,0,0,1,6.31,6.29,11.43,11.43,0,0,1-.07,1.32H177.22a4.13,4.13,0,0,0,4.27,4.12,3.61,3.61,0,0,0,3.7-2.42h2.35A5.92,5.92,0,0,1,181.49,102.22Zm-4.24-7.75h8.3a3.86,3.86,0,0,0-4.15-4A4.07,4.07,0,0,0,177.25,94.47Z"/><path class="b59c9627-d94e-4355-9dbd-7250997bd18c" d="M211.17,93.68c0,5.18-3.39,8.33-8.88,8.33h-5.21V85.29h5.21C207.78,85.29,211.17,88.5,211.17,93.68Zm-8.88,6.53c4.37,0,6.64-2.45,6.64-6.53s-2.27-6.62-6.64-6.62h-3v13.15Z"/><path class="b59c9627-d94e-4355-9dbd-7250997bd18c" d="M219.5,88.64a5.43,5.43,0,0,1,4.89,2.62v-2.4h2.21V102h-2.21V99.56a5.49,5.49,0,0,1-4.91,2.66c-3.5,0-6.22-2.76-6.22-6.84S216,88.64,219.5,88.64Zm.43,1.9c-2.4,0-4.43,1.75-4.43,4.84s2,4.92,4.43,4.92,4.46-1.8,4.46-4.89S222.33,90.54,219.93,90.54Z"/><path class="b59c9627-d94e-4355-9dbd-7250997bd18c" d="M230.6,90.66h-1.71v-1.8h1.71V85.55h2.18v3.31h3.43v1.8h-3.43v7.75c0,1.29.48,1.75,1.82,1.75h1.61V102h-2c-2.32,0-3.64-1-3.64-3.6Z"/><path class="b59c9627-d94e-4355-9dbd-7250997bd18c" d="M243.87,102.22c-3.72,0-6.55-2.64-6.55-6.81a6.65,6.65,0,1,1,13.29,0A6.52,6.52,0,0,1,243.87,102.22Zm0-1.92c2.27,0,4.5-1.56,4.5-4.89s-2.18-4.87-4.43-4.87-4.39,1.56-4.39,4.87S241.59,100.3,243.87,100.3Z"/><path class="b59c9627-d94e-4355-9dbd-7250997bd18c" d="M257.94,102.22c-3.07,0-5.23-1.68-5.38-4.08h2.26c.12,1.27,1.24,2.23,3.09,2.23s2.69-.86,2.69-1.94c0-2.93-7.77-1.22-7.77-6.12,0-2,1.89-3.67,4.82-3.67s4.82,1.56,5,4.13h-2.18c-.1-1.32-1.1-2.28-2.85-2.28s-2.57.77-2.57,1.82c0,3.12,7.63,1.42,7.72,6.12C262.73,100.59,260.84,102.22,257.94,102.22Z"/><path class="b59c9627-d94e-4355-9dbd-7250997bd18c" d="M85,121.05a7.89,7.89,0,0,1,7.75,5.06H90.08A5.26,5.26,0,0,0,85,123c-3.5,0-6.12,2.54-6.12,6.65s2.62,6.62,6.12,6.62a5.27,5.27,0,0,0,5.13-3.12H92.7a7.87,7.87,0,0,1-7.75,5,8.54,8.54,0,0,1,0-17.08Z"/><path class="b59c9627-d94e-4355-9dbd-7250997bd18c" d="M95.49,121.27h2.18v10.58c0,3.07,1.65,4.39,4.12,4.39s4.11-1.32,4.11-4.39V121.27h2.18v10.55c0,4.34-2.85,6.34-6.31,6.34s-6.28-2-6.28-6.34Z"/><path class="b59c9627-d94e-4355-9dbd-7250997bd18c" d="M120.68,134.27h-7.3L112,138h-2.3l6-16.63h2.52l6,16.63H122ZM117,124.05l-3,8.44h6Z"/><path class="b59c9627-d94e-4355-9dbd-7250997bd18c" d="M128.75,121.27v14.94h5.85V138h-8V121.27Z"/><path class="b59c9627-d94e-4355-9dbd-7250997bd18c" d="M136.66,121.27h2.18V138h-2.18Z"/><path class="b59c9627-d94e-4355-9dbd-7250997bd18c" d="M141.07,121.27h11.32V123h-4.55v15h-2.19V123h-4.58Z"/><path class="b59c9627-d94e-4355-9dbd-7250997bd18c" d="M162.73,134.27h-7.29L154.1,138h-2.31l6.05-16.63h2.52l6,16.63h-2.31Zm-3.65-10.22-3,8.44h6.05Z"/><path class="b59c9627-d94e-4355-9dbd-7250997bd18c" d="M165.76,121.27h11.33V123h-4.56v15h-2.18V123h-4.59Z"/><path class="b59c9627-d94e-4355-9dbd-7250997bd18c" d="M179.34,121.27h2.18V138h-2.18Z"/><path class="b59c9627-d94e-4355-9dbd-7250997bd18c" d="M196.44,121.27h2.3L192.44,138h-2.52l-6.31-16.72h2.33l5.25,14.41Z"/><path class="b59c9627-d94e-4355-9dbd-7250997bd18c" d="M207.74,138.16a8.54,8.54,0,1,1,8.39-8.54A8.25,8.25,0,0,1,207.74,138.16Zm0-1.9c3.52,0,6.16-2.57,6.16-6.64s-2.64-6.65-6.16-6.65-6.17,2.54-6.17,6.65S204.21,136.26,207.74,136.26Z"/><path class="b59c9627-d94e-4355-9dbd-7250997bd18c" d="M224,138.16c-3.35,0-5.73-1.88-5.78-4.63h2.33c.14,1.39,1.13,2.78,3.45,2.78,2.11,0,3.36-1.2,3.36-2.78,0-4.51-9-1.64-9-7.85,0-2.76,2.23-4.63,5.54-4.63s5.28,1.75,5.54,4.3H227a3,3,0,0,0-3.24-2.43c-1.8,0-3.21.89-3.21,2.69,0,4.32,9,1.63,9,7.82C229.54,135.81,227.59,138.16,224,138.16Z"/><path class="b59c9627-d94e-4355-9dbd-7250997bd18c" d="M777.61,50c3.93,0,5.81,2.18,5.81,4.91a4.72,4.72,0,0,1-4,4.8l4.2,7H781l-4-6.84H774.4v6.84h-2.19V50Zm0,1.8H774.4v6.33h3.21c2.47,0,3.55-1.35,3.55-3.22S780.1,51.76,777.61,51.76Z"/><path class="b59c9627-d94e-4355-9dbd-7250997bd18c" d="M792,66.89c-3.75,0-6.5-2.64-6.5-6.81s2.66-6.77,6.5-6.77a6,6,0,0,1,6.3,6.29,11.43,11.43,0,0,1-.07,1.32h-10.5A4.12,4.12,0,0,0,792,65a3.61,3.61,0,0,0,3.69-2.42H798A5.9,5.9,0,0,1,792,66.89Zm-4.25-7.75H796a3.86,3.86,0,0,0-4.15-4A4.07,4.07,0,0,0,787.7,59.14Z"/><path class="b59c9627-d94e-4355-9dbd-7250997bd18c" d="M806.69,53.31c3.27,0,5.4,1.68,6.07,4.44h-2.35a3.58,3.58,0,0,0-3.72-2.59c-2.4,0-4.17,1.7-4.17,4.92s1.77,5,4.17,5a3.52,3.52,0,0,0,3.72-2.59h2.35a5.84,5.84,0,0,1-6.07,4.44c-3.74,0-6.4-2.64-6.4-6.81S803,53.31,806.69,53.31Z"/><path class="b59c9627-d94e-4355-9dbd-7250997bd18c" d="M821.16,66.89c-3.72,0-6.55-2.64-6.55-6.81a6.65,6.65,0,1,1,13.29,0A6.52,6.52,0,0,1,821.16,66.89Zm0-1.92c2.28,0,4.51-1.56,4.51-4.89s-2.18-4.87-4.44-4.87-4.39,1.56-4.39,4.87S818.88,65,821.16,65Z"/><path class="b59c9627-d94e-4355-9dbd-7250997bd18c" d="M830.67,48.92h2.19V66.68h-2.19Z"/><path class="b59c9627-d94e-4355-9dbd-7250997bd18c" d="M842.14,66.89c-3.74,0-6.5-2.64-6.5-6.81s2.67-6.77,6.5-6.77a6,6,0,0,1,6.31,6.29,11.43,11.43,0,0,1-.07,1.32H837.87A4.13,4.13,0,0,0,842.14,65a3.61,3.61,0,0,0,3.7-2.42h2.35A5.91,5.91,0,0,1,842.14,66.89Zm-4.24-7.75h8.3a3.86,3.86,0,0,0-4.15-4A4.07,4.07,0,0,0,837.9,59.14Z"/><path class="b59c9627-d94e-4355-9dbd-7250997bd18c" d="M856.89,53.31c3.26,0,5.4,1.68,6.07,4.44h-2.35a3.59,3.59,0,0,0-3.72-2.59c-2.4,0-4.17,1.7-4.17,4.92s1.77,5,4.17,5a3.53,3.53,0,0,0,3.72-2.59H863a5.85,5.85,0,0,1-6.07,4.44c-3.74,0-6.4-2.64-6.4-6.81S853.15,53.31,856.89,53.31Z"/><path class="b59c9627-d94e-4355-9dbd-7250997bd18c" d="M871.23,53.31c3.26,0,5.39,1.68,6.06,4.44h-2.35a3.57,3.57,0,0,0-3.71-2.59c-2.4,0-4.18,1.7-4.18,4.92s1.78,5,4.18,5a3.51,3.51,0,0,0,3.71-2.59h2.35a5.83,5.83,0,0,1-6.06,4.44c-3.75,0-6.41-2.64-6.41-6.81S867.48,53.31,871.23,53.31Z"/><path class="b59c9627-d94e-4355-9dbd-7250997bd18c" d="M879.61,49.91a1.47,1.47,0,1,1,1.49,1.49A1.47,1.47,0,0,1,879.61,49.91Zm.36,3.62h2.18V66.68H880Z"/><path class="b59c9627-d94e-4355-9dbd-7250997bd18c" d="M891.42,66.89c-3.72,0-6.55-2.64-6.55-6.81a6.65,6.65,0,1,1,13.29,0A6.52,6.52,0,0,1,891.42,66.89Zm0-1.92c2.28,0,4.51-1.56,4.51-4.89s-2.18-4.87-4.44-4.87-4.39,1.56-4.39,4.87S889.14,65,891.42,65Zm2.45-17.22v1.89l-5.11,2.74V50.75Z"/><path class="b59c9627-d94e-4355-9dbd-7250997bd18c" d="M910.56,59.24c0-2.69-1.46-4.05-3.67-4.05s-3.77,1.39-3.77,4.22v7.27h-2.18V53.53h2.18V55.4a4.87,4.87,0,0,1,4.23-2.11c3,0,5.37,1.87,5.37,5.64v7.75h-2.16Z"/><path class="b59c9627-d94e-4355-9dbd-7250997bd18c" d="M742.6,89.51h2.26l-7.92,19.34h-2.25l2.59-6.34-5.3-13h2.42l4.13,10.65Z"/><path class="b59c9627-d94e-4355-9dbd-7250997bd18c" d="M763.33,98.94H756l-1.35,3.72h-2.3L758.44,86H761l6,16.62h-2.31Zm-3.65-10.22-3,8.44h6.05Z"/><path class="b59c9627-d94e-4355-9dbd-7250997bd18c" d="M778.84,95.22c0-2.68-1.46-4-3.67-4s-3.76,1.39-3.76,4.22v7.27h-2.19V89.51h2.19v1.87a4.86,4.86,0,0,1,4.22-2.11c3,0,5.37,1.87,5.37,5.64v7.75h-2.16Z"/><path class="b59c9627-d94e-4355-9dbd-7250997bd18c" d="M789.88,89.3a5.45,5.45,0,0,1,4.89,2.61v-2.4H797v13.15h-2.21v-2.45a5.47,5.47,0,0,1-4.92,2.66c-3.5,0-6.21-2.75-6.21-6.83S786.35,89.3,789.88,89.3Zm.43,1.89c-2.4,0-4.44,1.75-4.44,4.85s2,4.91,4.44,4.91,4.46-1.79,4.46-4.89S792.71,91.19,790.31,91.19Zm2.76-7.29v1.9L788,88.53V86.9Z"/><path class="b59c9627-d94e-4355-9dbd-7250997bd18c" d="M800.51,84.91h2.19v17.75h-2.19Z"/><path class="b59c9627-d94e-4355-9dbd-7250997bd18c" d="M805.87,85.89a1.47,1.47,0,1,1,1.49,1.49A1.47,1.47,0,0,1,805.87,85.89Zm.36,3.62h2.18v13.15h-2.18Z"/><path class="b59c9627-d94e-4355-9dbd-7250997bd18c" d="M816.55,102.87c-3.07,0-5.23-1.68-5.37-4.07h2.25c.12,1.27,1.25,2.23,3.1,2.23s2.68-.87,2.68-2c0-2.92-7.77-1.22-7.77-6.11,0-2,1.9-3.67,4.82-3.67s4.82,1.56,5,4.12H819c-.09-1.32-1.1-2.28-2.85-2.28s-2.57.77-2.57,1.83c0,3.12,7.63,1.41,7.73,6.11C821.35,101.24,819.45,102.87,816.55,102.87Z"/><path class="b59c9627-d94e-4355-9dbd-7250997bd18c" d="M823.9,85.89a1.47,1.47,0,1,1,1.49,1.49A1.47,1.47,0,0,1,823.9,85.89Zm.36,3.62h2.19v13.15h-2.19Z"/><path class="b59c9627-d94e-4355-9dbd-7250997bd18c" d="M834.58,102.87c-3.07,0-5.23-1.68-5.37-4.07h2.25c.12,1.27,1.25,2.23,3.1,2.23s2.68-.87,2.68-2c0-2.92-7.77-1.22-7.77-6.11,0-2,1.9-3.67,4.82-3.67s4.83,1.56,5,4.12h-2.18c-.1-1.32-1.11-2.28-2.86-2.28s-2.56.77-2.56,1.83c0,3.12,7.62,1.41,7.72,6.11C839.38,101.24,837.48,102.87,834.58,102.87Z"/><path class="b59c9627-d94e-4355-9dbd-7250997bd18c" d="M854.3,89.3a5.73,5.73,0,0,1,4.87,2.56v-7h2.21v17.75h-2.21v-2.47a5.4,5.4,0,0,1-4.89,2.68c-3.53,0-6.24-2.75-6.24-6.83S850.75,89.3,854.3,89.3Zm.41,1.89c-2.4,0-4.44,1.75-4.44,4.85s2,4.91,4.44,4.91,4.46-1.79,4.46-4.89S857.11,91.19,854.71,91.19Z"/><path class="b59c9627-d94e-4355-9dbd-7250997bd18c" d="M870.66,102.87c-3.74,0-6.5-2.63-6.5-6.81s2.66-6.76,6.5-6.76A6,6,0,0,1,877,95.58c0,.48,0,.87-.07,1.32H866.39a4.14,4.14,0,0,0,4.27,4.13,3.6,3.6,0,0,0,3.69-2.43h2.35A5.9,5.9,0,0,1,870.66,102.87Zm-4.25-7.74h8.3a3.86,3.86,0,0,0-4.15-4A4.08,4.08,0,0,0,866.41,95.13Z"/><path class="b59c9627-d94e-4355-9dbd-7250997bd18c" d="M900.33,94.33c0,5.19-3.38,8.33-8.87,8.33h-5.21V85.94h5.21C897,85.94,900.33,89.15,900.33,94.33Zm-8.87,6.53c4.36,0,6.64-2.45,6.64-6.53s-2.28-6.62-6.64-6.62h-3v13.15Z"/><path class="b59c9627-d94e-4355-9dbd-7250997bd18c" d="M908.67,89.3a5.44,5.44,0,0,1,4.89,2.61v-2.4h2.21v13.15h-2.21v-2.45a5.47,5.47,0,0,1-4.92,2.66c-3.5,0-6.21-2.75-6.21-6.83S905.14,89.3,908.67,89.3Zm.43,1.89c-2.4,0-4.44,1.75-4.44,4.85s2,4.91,4.44,4.91,4.46-1.79,4.46-4.89S911.5,91.19,909.1,91.19Z"/><path class="b59c9627-d94e-4355-9dbd-7250997bd18c" d="M919.76,91.31h-1.7v-1.8h1.7V86.2H922v3.31h3.43v1.8H922v7.75c0,1.3.48,1.75,1.82,1.75h1.61v1.85h-2c-2.33,0-3.65-1-3.65-3.6Z"/><path class="b59c9627-d94e-4355-9dbd-7250997bd18c" d="M933,102.87c-3.71,0-6.55-2.63-6.55-6.81a6.65,6.65,0,1,1,13.29,0A6.51,6.51,0,0,1,933,102.87Zm0-1.92c2.28,0,4.51-1.55,4.51-4.89s-2.18-4.87-4.44-4.87-4.39,1.56-4.39,4.87S930.75,101,933,101Z"/><path class="b59c9627-d94e-4355-9dbd-7250997bd18c" d="M947.1,102.87c-3.07,0-5.23-1.68-5.37-4.07H944c.12,1.27,1.25,2.23,3.1,2.23s2.68-.87,2.68-2c0-2.92-7.77-1.22-7.77-6.11,0-2,1.9-3.67,4.82-3.67s4.83,1.56,5,4.12H949.6c-.1-1.32-1.11-2.28-2.86-2.28s-2.56.77-2.56,1.83c0,3.12,7.62,1.41,7.72,6.11C951.9,101.24,950,102.87,947.1,102.87Z"/><path class="b59c9627-d94e-4355-9dbd-7250997bd18c" d="M773.31,121.71a7.87,7.87,0,0,1,7.75,5.06h-2.62a5.25,5.25,0,0,0-5.13-3.15c-3.5,0-6.12,2.55-6.12,6.65s2.62,6.62,6.12,6.62a5.27,5.27,0,0,0,5.13-3.12h2.62a7.86,7.86,0,0,1-7.75,5,8.54,8.54,0,0,1,0-17.07Z"/><path class="b59c9627-d94e-4355-9dbd-7250997bd18c" d="M795.52,138.64h-2.18V136.7a4.85,4.85,0,0,1-4.2,2.13c-3,0-5.39-1.87-5.39-5.63v-7.7h2.15v7.41c0,2.66,1.47,4,3.67,4s3.77-1.39,3.77-4.22V125.5h2.18Z"/><path class="b59c9627-d94e-4355-9dbd-7250997bd18c" d="M804.53,125.28a5.45,5.45,0,0,1,4.89,2.61V125.5h2.21v13.14h-2.21v-2.45a5.47,5.47,0,0,1-4.91,2.67c-3.51,0-6.22-2.76-6.22-6.84S801,125.28,804.53,125.28Zm.43,1.89c-2.4,0-4.43,1.76-4.43,4.85s2,4.92,4.43,4.92,4.46-1.8,4.46-4.9S807.36,127.17,805,127.17Z"/><path class="b59c9627-d94e-4355-9dbd-7250997bd18c" d="M824.79,131.2c0-2.68-1.46-4-3.67-4s-3.77,1.39-3.77,4.22v7.27h-2.18V125.5h2.18v1.87a4.86,4.86,0,0,1,4.22-2.11c3,0,5.38,1.87,5.38,5.63v7.75h-2.16Z"/><path class="b59c9627-d94e-4355-9dbd-7250997bd18c" d="M830.64,127.29h-1.71V125.5h1.71v-3.31h2.18v3.31h3.43v1.79h-3.43V135c0,1.3.48,1.75,1.82,1.75h1.61v1.85h-2c-2.32,0-3.64-1-3.64-3.6Z"/><path class="b59c9627-d94e-4355-9dbd-7250997bd18c" d="M838.12,121.87a1.46,1.46,0,0,1,1.49-1.48,1.49,1.49,0,0,1,0,3A1.47,1.47,0,0,1,838.12,121.87Zm.36,3.63h2.18v13.14h-2.18Z"/><path class="b59c9627-d94e-4355-9dbd-7250997bd18c" d="M844.58,127.29h-1.7V125.5h1.7v-3.31h2.18v3.31h3.43v1.79h-3.43V135c0,1.3.48,1.75,1.82,1.75h1.61v1.85h-2c-2.32,0-3.64-1-3.64-3.6Z"/><path class="b59c9627-d94e-4355-9dbd-7250997bd18c" d="M857.59,125.28a5.47,5.47,0,0,1,4.89,2.61V125.5h2.21v13.14h-2.21v-2.45a5.48,5.48,0,0,1-4.92,2.67c-3.5,0-6.21-2.76-6.21-6.84S854.06,125.28,857.59,125.28Zm.43,1.89c-2.4,0-4.44,1.76-4.44,4.85s2,4.92,4.44,4.92,4.46-1.8,4.46-4.9S860.42,127.17,858,127.17Z"/><path class="b59c9627-d94e-4355-9dbd-7250997bd18c" d="M868.68,127.29H867V125.5h1.7v-3.31h2.18v3.31h3.43v1.79h-3.43V135c0,1.3.48,1.75,1.83,1.75h1.6v1.85h-2c-2.33,0-3.65-1-3.65-3.6Z"/><path class="b59c9627-d94e-4355-9dbd-7250997bd18c" d="M876.17,121.87a1.46,1.46,0,1,1,1.48,1.49A1.45,1.45,0,0,1,876.17,121.87Zm.36,3.63h2.18v13.14h-2.18Z"/><path class="b59c9627-d94e-4355-9dbd-7250997bd18c" d="M883,125.5l4.1,11.13,4.08-11.13h2.33l-5.16,13.14h-2.54l-5.16-13.14Z"/><path class="b59c9627-d94e-4355-9dbd-7250997bd18c" d="M900.79,138.86c-3.72,0-6.55-2.64-6.55-6.82a6.65,6.65,0,1,1,13.29,0A6.52,6.52,0,0,1,900.79,138.86Zm0-1.92c2.28,0,4.51-1.56,4.51-4.9s-2.18-4.87-4.44-4.87-4.39,1.56-4.39,4.87S898.51,136.94,900.79,136.94Z"/><path class="b59c9627-d94e-4355-9dbd-7250997bd18c" d="M914.86,138.86c-3.07,0-5.23-1.68-5.37-4.08h2.25c.12,1.27,1.25,2.23,3.1,2.23s2.68-.86,2.68-1.94c0-2.93-7.77-1.23-7.77-6.12,0-2,1.9-3.67,4.82-3.67s4.82,1.56,5,4.13h-2.19c-.09-1.32-1.1-2.28-2.85-2.28s-2.57.76-2.57,1.82c0,3.12,7.63,1.42,7.73,6.12C919.66,137.23,917.76,138.86,914.86,138.86Z"/><line class="acad9fa4-a94a-4d68-b67e-8940d8f3bf0d" x1="631.78" y1="89.59" x2="693.27" y2="89.59"/><polygon class="a0729804-4ac5-4e57-8a36-b1e620a9c026" points="705.05 89.59 691.99 82.05 691.99 97.14 705.05 89.59"/><path class="b59c9627-d94e-4355-9dbd-7250997bd18c" d="M429.6,77.06c-3.36,0-5.73-1.87-5.78-4.63h2.32c.15,1.39,1.13,2.78,3.46,2.78,2.11,0,3.36-1.19,3.36-2.78,0-4.51-9-1.63-9-7.84,0-2.76,2.23-4.63,5.55-4.63s5.27,1.75,5.54,4.29h-2.4a3,3,0,0,0-3.24-2.42c-1.8,0-3.22.89-3.22,2.69,0,4.31,9,1.63,9,7.82C435.16,74.71,433.22,77.06,429.6,77.06Z"/><path class="b59c9627-d94e-4355-9dbd-7250997bd18c" d="M443.85,77.11c-3.74,0-6.5-2.64-6.5-6.81s2.66-6.77,6.5-6.77a6,6,0,0,1,6.31,6.29,11.43,11.43,0,0,1-.07,1.32H439.58a4.13,4.13,0,0,0,4.27,4.12,3.62,3.62,0,0,0,3.7-2.42h2.35A5.91,5.91,0,0,1,443.85,77.11Zm-4.24-7.75h8.3a3.86,3.86,0,0,0-4.15-4A4.06,4.06,0,0,0,439.61,69.36Z"/><path class="b59c9627-d94e-4355-9dbd-7250997bd18c" d="M465,63.53c3.27,0,5.4,1.68,6.07,4.44h-2.35A3.58,3.58,0,0,0,465,65.38c-2.39,0-4.17,1.7-4.17,4.92s1.78,5,4.17,5a3.52,3.52,0,0,0,3.72-2.59h2.35A5.84,5.84,0,0,1,465,77.11c-3.74,0-6.4-2.64-6.4-6.81S461.29,63.53,465,63.53Z"/><path class="b59c9627-d94e-4355-9dbd-7250997bd18c" d="M479.5,77.11c-3.72,0-6.55-2.64-6.55-6.81a6.65,6.65,0,1,1,13.29,0A6.52,6.52,0,0,1,479.5,77.11Zm0-1.92c2.28,0,4.51-1.56,4.51-4.89s-2.18-4.87-4.44-4.87-4.39,1.56-4.39,4.87S477.22,75.19,479.5,75.19Z"/><path class="b59c9627-d94e-4355-9dbd-7250997bd18c" d="M498.64,69.46c0-2.69-1.46-4.06-3.67-4.06s-3.76,1.39-3.76,4.23v7.26H489V63.75h2.18v1.87a4.84,4.84,0,0,1,4.22-2.11c3.05,0,5.37,1.87,5.37,5.64v7.74h-2.16Z"/><path class="b59c9627-d94e-4355-9dbd-7250997bd18c" d="M508.81,77.11c-3.07,0-5.23-1.68-5.37-4.08h2.25c.12,1.27,1.25,2.23,3.1,2.23s2.69-.86,2.69-1.94c0-2.93-7.78-1.22-7.78-6.12,0-2,1.9-3.67,4.82-3.67s4.83,1.56,5,4.13h-2.18c-.1-1.32-1.11-2.28-2.86-2.28-1.6,0-2.56.77-2.56,1.82,0,3.12,7.62,1.42,7.72,6.12C513.61,75.48,511.71,77.11,508.81,77.11Z"/><path class="b59c9627-d94e-4355-9dbd-7250997bd18c" d="M516.89,65.55h-1.71v-1.8h1.71V60.44h2.18v3.31h3.43v1.8h-3.43V73.3c0,1.29.48,1.75,1.82,1.75h1.61v1.84h-2c-2.32,0-3.64-1-3.64-3.59Z"/><path class="b59c9627-d94e-4355-9dbd-7250997bd18c" d="M526.91,76.89h-2.18V63.75h2.18v2.13a4.44,4.44,0,0,1,4.25-2.37v2.25h-.58c-2.08,0-3.67.94-3.67,4Z"/><path class="b59c9627-d94e-4355-9dbd-7250997bd18c" d="M545.05,76.89h-2.18V75a4.84,4.84,0,0,1-4.2,2.14c-3,0-5.4-1.88-5.4-5.64v-7.7h2.16v7.41c0,2.66,1.46,4,3.67,4s3.77-1.39,3.77-4.22V63.75h2.18Z"/><path class="b59c9627-d94e-4355-9dbd-7250997bd18c" d="M557.67,63.75h2.26L552,83.08h-2.25l2.59-6.33-5.3-13h2.42l4.12,10.65Z"/><path class="b59c9627-d94e-4355-9dbd-7250997bd18c" d="M567.12,77.11c-3.75,0-6.5-2.64-6.5-6.81s2.66-6.77,6.5-6.77a6,6,0,0,1,6.31,6.29,11.41,11.41,0,0,1-.08,1.32h-10.5a4.13,4.13,0,0,0,4.27,4.12,3.62,3.62,0,0,0,3.69-2.42h2.35A5.9,5.9,0,0,1,567.12,77.11Zm-4.25-7.75h8.3a3.85,3.85,0,0,0-4.15-4A4.07,4.07,0,0,0,562.87,69.36Z"/><path class="b59c9627-d94e-4355-9dbd-7250997bd18c" d="M444,95.13h2.18v6.5a5,5,0,0,1,4.35-2.14c2.92,0,5.25,1.87,5.25,5.64v7.75h-2.16v-7.44c0-2.69-1.46-4-3.67-4s-3.77,1.39-3.77,4.22v7.27H444Z"/><path class="b59c9627-d94e-4355-9dbd-7250997bd18c" d="M464.66,99.52a5.46,5.46,0,0,1,4.9,2.61v-2.4h2.2v13.15h-2.2v-2.45a5.48,5.48,0,0,1-4.92,2.66c-3.5,0-6.21-2.76-6.21-6.83S461.14,99.52,464.66,99.52Zm.44,1.89c-2.4,0-4.44,1.75-4.44,4.85s2,4.91,4.44,4.91,4.46-1.8,4.46-4.89S467.49,101.41,465.1,101.41Z"/><path class="b59c9627-d94e-4355-9dbd-7250997bd18c" d="M475.3,95.13h2.18v17.75H475.3Z"/><path class="b59c9627-d94e-4355-9dbd-7250997bd18c" d="M481,95.13h2.18v17.75H481Z"/><path class="b59c9627-d94e-4355-9dbd-7250997bd18c" d="M492.2,99.52a5.45,5.45,0,0,1,4.89,2.61v-2.4h2.21v13.15h-2.21v-2.45a5.47,5.47,0,0,1-4.92,2.66c-3.5,0-6.21-2.76-6.21-6.83S488.67,99.52,492.2,99.52Zm.43,1.89c-2.4,0-4.44,1.75-4.44,4.85s2,4.91,4.44,4.91,4.46-1.8,4.46-4.89S495,101.41,492.63,101.41Z"/><path class="b59c9627-d94e-4355-9dbd-7250997bd18c" d="M510.66,101.51l-6.4,9.57h6.45v1.8h-8.95v-1.8l6.38-9.57h-6.33V99.73h8.85Z"/><path class="b59c9627-d94e-4355-9dbd-7250997bd18c" d="M518.22,99.52a5.44,5.44,0,0,1,4.9,2.61v-2.4h2.2v13.43a5.89,5.89,0,0,1-6.28,6.19c-3.45,0-5.92-1.75-6.36-4.55h2.16a4.09,4.09,0,0,0,4.2,2.66c2.33,0,4.08-1.49,4.08-4.3v-2.75a5.51,5.51,0,0,1-4.9,2.68c-3.52,0-6.23-2.76-6.23-6.83S514.7,99.52,518.22,99.52Zm.44,1.89c-2.4,0-4.44,1.75-4.44,4.85s2,4.91,4.44,4.91,4.46-1.8,4.46-4.89S521.05,101.41,518.66,101.41Z"/><path class="b59c9627-d94e-4355-9dbd-7250997bd18c" d="M534.66,113.09c-3.72,0-6.55-2.64-6.55-6.81a6.65,6.65,0,1,1,13.29,0A6.52,6.52,0,0,1,534.66,113.09Zm0-1.92c2.27,0,4.51-1.56,4.51-4.89s-2.19-4.87-4.44-4.87-4.39,1.56-4.39,4.87S532.38,111.17,534.66,111.17Z"/><path class="b59c9627-d94e-4355-9dbd-7250997bd18c" d="M548.72,113.09c-3.07,0-5.22-1.68-5.37-4.08h2.26c.12,1.28,1.24,2.23,3.09,2.23s2.69-.86,2.69-1.94c0-2.92-7.77-1.22-7.77-6.11,0-2,1.89-3.67,4.82-3.67s4.82,1.56,5,4.12h-2.18c-.1-1.32-1.1-2.28-2.85-2.28s-2.57.77-2.57,1.83c0,3.11,7.63,1.41,7.72,6.11C553.52,111.46,551.63,113.09,548.72,113.09Z"/><ellipse class="a250cec9-8e6d-4689-9db7-795c591beeba" cx="497.56" cy="89.59" rx="134.17" ry="71.34"/><path class="b59c9627-d94e-4355-9dbd-7250997bd18c" d="M764.08,280.79h2.18v16.72h-2.18Z"/><path class="b59c9627-d94e-4355-9dbd-7250997bd18c" d="M779.51,290.07c0-2.68-1.46-4.05-3.67-4.05s-3.76,1.39-3.76,4.22v7.27h-2.19V284.37h2.19v1.87a4.84,4.84,0,0,1,4.22-2.11c3.05,0,5.37,1.87,5.37,5.63v7.75h-2.16Z"/><path class="b59c9627-d94e-4355-9dbd-7250997bd18c" d="M785.36,286.16h-1.7v-1.79h1.7v-3.31h2.18v3.31H791v1.79h-3.43v7.75c0,1.3.48,1.75,1.83,1.75H791v1.85h-2c-2.33,0-3.65-1-3.65-3.6Z"/><path class="b59c9627-d94e-4355-9dbd-7250997bd18c" d="M798.63,297.73c-3.74,0-6.5-2.64-6.5-6.82s2.66-6.76,6.5-6.76a6,6,0,0,1,6.31,6.28,11.31,11.31,0,0,1-.07,1.32H794.36a4.13,4.13,0,0,0,4.27,4.13,3.62,3.62,0,0,0,3.7-2.42h2.35A5.92,5.92,0,0,1,798.63,297.73ZM794.39,290h8.3a3.86,3.86,0,0,0-4.15-4A4.06,4.06,0,0,0,794.39,290Z"/><path class="b59c9627-d94e-4355-9dbd-7250997bd18c" d="M809.91,297.51h-2.19V284.37h2.19v2.13a4.42,4.42,0,0,1,4.24-2.37v2.25h-.57c-2.09,0-3.67.94-3.67,4Z"/><path class="b59c9627-d94e-4355-9dbd-7250997bd18c" d="M823.42,284.15c3.53,0,6.24,2.64,6.24,6.74s-2.71,6.84-6.24,6.84a5.68,5.68,0,0,1-4.91-2.64v8.66h-2.19V284.37h2.19v2.42A5.55,5.55,0,0,1,823.42,284.15ZM823,286a4.52,4.52,0,0,0-4.46,4.87c0,3.1,2.08,4.9,4.46,4.9s4.46-1.83,4.46-4.92S825.39,286,823,286Z"/><path class="b59c9627-d94e-4355-9dbd-7250997bd18c" d="M834.63,297.51h-2.19V284.37h2.19v2.13a4.42,4.42,0,0,1,4.24-2.37v2.25h-.57c-2.09,0-3.67.94-3.67,4Z"/><path class="b59c9627-d94e-4355-9dbd-7250997bd18c" d="M846.56,297.73c-3.74,0-6.5-2.64-6.5-6.82s2.66-6.76,6.5-6.76a6,6,0,0,1,6.31,6.28,11.28,11.28,0,0,1-.08,1.32h-10.5a4.13,4.13,0,0,0,4.27,4.13,3.62,3.62,0,0,0,3.69-2.42h2.35A5.9,5.9,0,0,1,846.56,297.73ZM842.31,290h8.3a3.85,3.85,0,0,0-4.15-4A4.07,4.07,0,0,0,842.31,290Z"/><path class="b59c9627-d94e-4355-9dbd-7250997bd18c" d="M855.85,286.16h-1.7v-1.79h1.7v-3.31H858v3.31h3.43v1.79H858v7.75c0,1.3.48,1.75,1.82,1.75h1.61v1.85h-2c-2.33,0-3.65-1-3.65-3.6Z"/><path class="b59c9627-d94e-4355-9dbd-7250997bd18c" d="M868.86,284.15a5.45,5.45,0,0,1,4.89,2.61v-2.39H876v13.14h-2.21v-2.45a5.47,5.47,0,0,1-4.91,2.67c-3.5,0-6.22-2.76-6.22-6.84S865.34,284.15,868.86,284.15Zm.43,1.89c-2.4,0-4.43,1.76-4.43,4.85s2,4.92,4.43,4.92,4.46-1.8,4.46-4.9S871.69,286,869.29,286Z"/><path class="b59c9627-d94e-4355-9dbd-7250997bd18c" d="M885.15,284.15c3.26,0,5.4,1.68,6.07,4.44h-2.35a3.58,3.58,0,0,0-3.72-2.59c-2.4,0-4.17,1.7-4.17,4.91s1.77,5,4.17,5a3.54,3.54,0,0,0,3.72-2.59h2.35a5.86,5.86,0,0,1-6.07,4.44c-3.74,0-6.4-2.64-6.4-6.82S881.41,284.15,885.15,284.15Z"/><path class="b59c9627-d94e-4355-9dbd-7250997bd18c" d="M893.53,280.74a1.47,1.47,0,1,1,1.49,1.49A1.46,1.46,0,0,1,893.53,280.74Zm.36,3.63h2.18v13.14h-2.18Z"/><path class="b59c9627-d94e-4355-9dbd-7250997bd18c" d="M905.34,297.73c-3.72,0-6.55-2.64-6.55-6.82a6.65,6.65,0,1,1,13.29,0A6.52,6.52,0,0,1,905.34,297.73Zm0-1.92c2.28,0,4.51-1.56,4.51-4.9s-2.19-4.87-4.44-4.87S901,287.6,901,290.91,903.06,295.81,905.34,295.81Zm2.44-17.23v1.9l-5.11,2.73v-1.63Z"/><path class="b59c9627-d94e-4355-9dbd-7250997bd18c" d="M924.48,290.07c0-2.68-1.46-4.05-3.67-4.05s-3.77,1.39-3.77,4.22v7.27h-2.18V284.37H917v1.87a4.87,4.87,0,0,1,4.23-2.11c3,0,5.37,1.87,5.37,5.63v7.75h-2.16Z"/><ellipse class="a250cec9-8e6d-4689-9db7-795c591beeba" cx="844.41" cy="294.22" rx="134.17" ry="71.34"/><polygon class="a0729804-4ac5-4e57-8a36-b1e620a9c026" points="361.74 89.59 348.68 82.05 348.68 97.14 361.74 89.59"/><polygon class="a0729804-4ac5-4e57-8a36-b1e620a9c026" points="845.3 220.48 852.84 207.42 837.76 207.42 845.3 220.48"/></g></g></svg>