<svg xmlns="http://www.w3.org/2000/svg" xmlns:xlink="http://www.w3.org/1999/xlink" viewBox="0 0 470.5 185.02"><defs><style>.a,.ba,.e,.f{fill:none;}.b{isolation:isolate;}.c{clip-path:url(#a);}.d{opacity:0.3;mix-blend-mode:multiply;fill:url(#b);}.e{stroke:#b3b3b3;}.ba,.e{stroke-linecap:round;stroke-linejoin:round;}.ba,.e,.f{stroke-width:1.87px;}.ba,.f{stroke:#5f9eb5;}.f{stroke-miterlimit:10;}.g{font-size:11.23px;fill:#272b31;font-family:Poppins-Regular, Poppins;}.h{letter-spacing:-0.01em;}.i{letter-spacing:0.01em;}.j{letter-spacing:0em;}.k{letter-spacing:0em;}.l{letter-spacing:0.01em;}.m{letter-spacing:0em;}.n{letter-spacing:0em;}.o{letter-spacing:0em;}.p{letter-spacing:-0.01em;}.q{letter-spacing:0em;}.r{letter-spacing:0em;}.s{letter-spacing:0.01em;}.t{letter-spacing:0em;}.u{letter-spacing:-0.02em;}.v{letter-spacing:0em;}.w{letter-spacing:-0.01em;}.x{letter-spacing:-0.03em;}.y{letter-spacing:-0.01em;}.z{letter-spacing:0em;}.aa{letter-spacing:-0.01em;}.ab{letter-spacing:-0.08em;}.ac{letter-spacing:-0.01em;}.ad{letter-spacing:-0.01em;}.ae{letter-spacing:-0.03em;}.af{letter-spacing:-0.01em;}.ag{letter-spacing:-0.01em;}.ah{letter-spacing:0em;}.ai{letter-spacing:-0.01em;}.aj{letter-spacing:-0.01em;}.ak{letter-spacing:0em;}.al{letter-spacing:-0.02em;}.am{letter-spacing:-0.02em;}.an{letter-spacing:0em;}.ao{fill:#b3b3b3;}.ap{letter-spacing:0em;}.aq{letter-spacing:0em;}.ar{letter-spacing:0em;}.as{letter-spacing:0em;}.at{letter-spacing:0em;}.au{letter-spacing:-0.02em;}.av{letter-spacing:0em;}.aw{letter-spacing:0em;}.ax{letter-spacing:-0.01em;}.ay{letter-spacing:-0.02em;}.az{letter-spacing:0em;}.bb{letter-spacing:0em;}.bc{letter-spacing:-0.01em;}.bd{letter-spacing:-0.01em;}.be{letter-spacing:-0.01em;}.bf{letter-spacing:0em;}</style><clipPath id="a"><rect class="a" x="-1463.07" y="-640.87" width="1366" height="1529.63"/></clipPath><linearGradient id="b" x1="-520.18" y1="6.2" x2="32.27" y2="558.64" gradientUnits="userSpaceOnUse"><stop offset="0" stop-color="#272b31" stop-opacity="0"/><stop offset="0.02" stop-color="#272b31" stop-opacity="0.04"/><stop offset="0.4" stop-color="#272b31" stop-opacity="0.57"/><stop offset="0.73" stop-color="#272b31" stop-opacity="0.89"/><stop offset="1" stop-color="#272b31"/></linearGradient></defs><g class="b"><g class="c"><circle class="d" cx="-243.96" cy="282.42" r="390.64"/></g><line class="e" x1="136.43" y1="45.54" x2="165.23" y2="45.54"/><rect class="f" x="9.08" y="12.94" width="127.35" height="70.47" rx="11.83"/><line class="e" x1="397.22" y1="83.41" x2="397.22" y2="101.32"/><rect class="f" x="332.19" y="12.94" width="127.35" height="70.47" rx="11.83"/><text class="g" transform="translate(38.96 34.5)"><tspan class="h">R</tspan><tspan class="i" x="6.66" y="0">e</tspan><tspan class="j" x="13.69" y="0">c</tspan><tspan class="k" x="20.48" y="0">ol</tspan><tspan class="l" x="30.49" y="0">e</tspan><tspan class="m" x="37.52" y="0">cc</tspan><tspan class="n" x="51.11" y="0">i</tspan><tspan class="o" x="53.86" y="0">ó</tspan><tspan x="61.09" y="0">n </tspan><tspan x="-18.19" y="16.85">y </tspan><tspan class="p" x="-8.86" y="16.85">A</tspan><tspan class="q" x="-1.39" y="16.85">n</tspan><tspan x="5.82" y="16.85">á</tspan><tspan class="r" x="13.42" y="16.85">l</tspan><tspan class="j" x="16.17" y="16.85">i</tspan><tspan x="18.91" y="16.85">s</tspan><tspan class="j" x="24.77" y="16.85">i</tspan><tspan x="27.5" y="16.85">s </tspan><tspan class="o" x="36.37" y="16.85">d</tspan><tspan x="44" y="16.85">e </tspan><tspan class="s" x="53.96" y="16.85">D</tspan><tspan class="t" x="62" y="16.85">a</tspan><tspan class="u" x="69.58" y="16.85">t</tspan><tspan class="v" x="73.43" y="16.85">o</tspan><tspan x="80.6" y="16.85">s </tspan><tspan class="w" x="-2.72" y="33.7">C</tspan><tspan class="x" x="5.85" y="33.7">U</tspan><tspan class="y" x="13.09" y="33.7">A</tspan><tspan class="z" x="20.55" y="33.7">L</tspan><tspan class="aa" x="25.36" y="33.7">I</tspan><tspan class="ab" x="28" y="33.7">TA</tspan><tspan class="ac" x="39.77" y="33.7">T</tspan><tspan class="ad" x="45.73" y="33.7">I</tspan><tspan class="ae" x="48.43" y="33.7">V</tspan><tspan class="af" x="55.65" y="33.7">O</tspan><tspan x="64.4" y="33.7">S</tspan></text><text class="g" transform="translate(361.73 34.8)"><tspan class="h">R</tspan><tspan class="i" x="6.66" y="0">e</tspan><tspan class="j" x="13.69" y="0">c</tspan><tspan class="k" x="20.48" y="0">ol</tspan><tspan class="l" x="30.49" y="0">e</tspan><tspan class="m" x="37.52" y="0">cc</tspan><tspan class="n" x="51.11" y="0">i</tspan><tspan class="o" x="53.86" y="0">ó</tspan><tspan x="61.09" y="0">n </tspan><tspan x="-18.19" y="16.85">y </tspan><tspan class="p" x="-8.86" y="16.85">A</tspan><tspan class="q" x="-1.39" y="16.85">n</tspan><tspan x="5.82" y="16.85">á</tspan><tspan class="r" x="13.42" y="16.85">l</tspan><tspan class="j" x="16.17" y="16.85">i</tspan><tspan x="18.91" y="16.85">s</tspan><tspan class="j" x="24.77" y="16.85">i</tspan><tspan x="27.5" y="16.85">s </tspan><tspan class="o" x="36.37" y="16.85">d</tspan><tspan x="44" y="16.85">e </tspan><tspan class="s" x="53.96" y="16.85">D</tspan><tspan class="t" x="62" y="16.85">a</tspan><tspan class="u" x="69.58" y="16.85">t</tspan><tspan class="v" x="73.43" y="16.85">o</tspan><tspan x="80.6" y="16.85">s </tspan><tspan class="ag" x="-3.1" y="33.7">C</tspan><tspan class="k" x="5.45" y="33.7">u</tspan><tspan class="ah" x="12.67" y="33.7">a</tspan><tspan class="ai" x="20.27" y="33.7">n</tspan><tspan class="aj" x="27.37" y="33.7">t</tspan><tspan class="ak" x="31.35" y="33.7">i</tspan><tspan class="al" x="34.06" y="33.7">t</tspan><tspan class="t" x="37.93" y="33.7">a</tspan><tspan class="aj" x="45.52" y="33.7">t</tspan><tspan x="49.5" y="33.7">i</tspan><tspan class="am" x="52.26" y="33.7">v</tspan><tspan class="an" x="58.35" y="33.7">o</tspan><tspan x="65.52" y="33.7">s</tspan></text><line class="e" x1="297.22" y1="45.54" x2="326.02" y2="45.54"/><polygon class="ao" points="331.54 45.54 325.42 42.01 325.42 49.07 331.54 45.54"/><text class="g" transform="translate(198.82 39.59)"><tspan class="ap">S</tspan><tspan x="6.58" y="0">e </tspan><tspan class="j" x="16.54" y="0">c</tspan><tspan class="o" x="23.33" y="0">o</tspan><tspan class="aq" x="30.55" y="0">n</tspan><tspan class="ar" x="37.72" y="0">s</tspan><tspan class="aj" x="43.54" y="0">t</tspan><tspan class="as" x="47.52" y="0">r</tspan><tspan class="at" x="51.66" y="0">u</tspan><tspan class="au" x="58.86" y="0">y</tspan><tspan x="64.96" y="0">e </tspan><tspan class="q" x="9.28" y="16.85">h</tspan><tspan x="16.49" y="16.85">a</tspan><tspan class="av" x="24.08" y="16.85">l</tspan><tspan class="aw" x="26.83" y="16.85">l</tspan><tspan class="ax" x="29.61" y="16.85">a</tspan><tspan class="ay" x="37.12" y="16.85">z</tspan><tspan class="az" x="41.97" y="16.85">g</tspan><tspan class="v" x="49.6" y="16.85">o</tspan><tspan x="56.78" y="16.85">s</tspan></text><ellipse class="ba" cx="234.36" cy="45.54" rx="62.84" ry="33.41"/><text class="g" transform="translate(357.79 142.91)"><tspan class="bb">I</tspan><tspan class="ai" x="2.8" y="0">n</tspan><tspan class="al" x="9.9" y="0">t</tspan><tspan class="o" x="13.77" y="0">e</tspan><tspan class="bc" x="20.77" y="0">r</tspan><tspan class="az" x="24.88" y="0">p</tspan><tspan class="bd" x="32.5" y="0">r</tspan><tspan class="be" x="36.54" y="0">e</tspan><tspan class="al" x="43.41" y="0">t</tspan><tspan class="az" x="47.28" y="0">a</tspan><tspan class="bf" x="54.91" y="0">c</tspan><tspan class="n" x="61.7" y="0">i</tspan><tspan class="o" x="64.45" y="0">ó</tspan><tspan x="71.68" y="0">n</tspan></text><ellipse class="ba" cx="396.8" cy="141.37" rx="62.84" ry="33.41"/><polygon class="ao" points="170.75 45.54 164.63 42.01 164.63 49.07 170.75 45.54"/><polygon class="ao" points="397.22 106.84 400.75 100.72 393.69 100.72 397.22 106.84"/></g></svg>