<svg xmlns="http://www.w3.org/2000/svg" xmlns:xlink="http://www.w3.org/1999/xlink" viewBox="0 0 1003.38 380.77"><defs><style>.a,.f,.g{fill:none;}.b{isolation:isolate;}.c{clip-path:url(#a);}.d,.e{opacity:0.3;mix-blend-mode:multiply;}.d{fill:url(#b);}.e{fill:url(#c);}.f{stroke:#b3b3b3;stroke-linecap:round;stroke-linejoin:round;}.f,.g{stroke-width:2px;}.g{stroke:#fd893b;stroke-miterlimit:10;}.h{font-size:23.99px;fill:#272b31;font-family:Poppins-Regular, Poppins;}.i{letter-spacing:-0.02em;}.j{letter-spacing:0em;}.k{letter-spacing:-0.01em;}.l{letter-spacing:0em;}.m{letter-spacing:0em;}.n{letter-spacing:-0.01em;}.o{letter-spacing:-0.01em;}.p{letter-spacing:0em;}.q{letter-spacing:-0.02em;}.r{letter-spacing:0em;}.s{letter-spacing:-0.01em;}.t{letter-spacing:-0.01em;}.u{letter-spacing:-0.01em;}.v{letter-spacing:-0.01em;}.w{letter-spacing:-0.01em;}.x{letter-spacing:0em;}.y{letter-spacing:-0.01em;}.z{letter-spacing:-0.03em;}.aa{letter-spacing:-0.01em;}.ab{letter-spacing:-0.02em;}.ac{letter-spacing:-0.04em;}.ad{letter-spacing:-0.02em;}.ae{letter-spacing:-0.01em;}.af{letter-spacing:-0.02em;}.ag{letter-spacing:-0.09em;}.ah{letter-spacing:-0.09em;}.ai{letter-spacing:-0.02em;}.aj{letter-spacing:-0.01em;}.ak{letter-spacing:-0.04em;}.al{letter-spacing:-0.01em;}.am{letter-spacing:0em;}.an{letter-spacing:-0.01em;}.ao{letter-spacing:0em;}.ap{letter-spacing:-0.01em;}.aq{letter-spacing:-0.01em;}.ar{letter-spacing:0em;}.as{letter-spacing:-0.02em;}.at{letter-spacing:-0.01em;}.au{letter-spacing:-0.01em;}.av{letter-spacing:-0.01em;}.aw{letter-spacing:-0.01em;}.ax{letter-spacing:0em;}.ay{letter-spacing:-0.01em;}.az{letter-spacing:-0.01em;}.ba{letter-spacing:-0.02em;}.bb{letter-spacing:0em;}.bc{letter-spacing:-0.02em;}.bd{letter-spacing:-0.02em;}.be{letter-spacing:-0.01em;}.bf{letter-spacing:-0.03em;}.bg{letter-spacing:-0.02em;}.bh{letter-spacing:-0.01em;}.bi{letter-spacing:-0.03em;}.bj{fill:#b3b3b3;}.bk{letter-spacing:-0.01em;}.bl{letter-spacing:-0.01em;}.bm{letter-spacing:-0.01em;}.bn{letter-spacing:-0.01em;}.bo{letter-spacing:-0.01em;}.bp{letter-spacing:-0.03em;}.bq{letter-spacing:-0.02em;}.br{letter-spacing:-0.03em;}.bs{letter-spacing:0em;}.bt{letter-spacing:-0.03em;}.bu{letter-spacing:-0.01em;}.bv{letter-spacing:-0.02em;}.bw{letter-spacing:-0.02em;}.bx{letter-spacing:-0.01em;}.by{letter-spacing:0em;}</style><clipPath id="a"><rect class="a" x="-119.64" y="-1620.27" width="1366" height="1529.63"/></clipPath><linearGradient id="b" x1="-304.17" y1="-342.81" x2="248.28" y2="209.64" gradientUnits="userSpaceOnUse"><stop offset="0" stop-color="#272b31" stop-opacity="0"/><stop offset="0.02" stop-color="#272b31" stop-opacity="0.04"/><stop offset="0.4" stop-color="#272b31" stop-opacity="0.57"/><stop offset="0.73" stop-color="#272b31" stop-opacity="0.89"/><stop offset="1" stop-color="#272b31"/></linearGradient><linearGradient id="c" x1="574.73" y1="219.2" x2="902.77" y2="547.24" xlink:href="#b"/></defs><g class="b"><g class="c"><circle class="d" cx="-27.94" cy="-66.58" r="390.64"/><circle class="e" cx="738.75" cy="383.22" r="231.96"/></g><line class="f" x1="293.11" y1="85.11" x2="354.61" y2="85.11"/><rect class="g" x="21.2" y="15.51" width="271.92" height="150.46" rx="25.26"/><line class="f" x1="849.95" y1="165.97" x2="849.95" y2="204.21"/><rect class="g" x="711.1" y="15.51" width="271.92" height="150.46" rx="25.26"/><text class="h" transform="translate(85.85 61.54)"><tspan class="i">R</tspan><tspan class="j" x="14.05" y="0">e</tspan><tspan class="k" x="28.89" y="0">c</tspan><tspan class="l" x="43.21" y="0">o</tspan><tspan class="m" x="58.46" y="0">l</tspan><tspan class="j" x="64.24" y="0">e</tspan><tspan class="n" x="79.09" y="0">cc</tspan><tspan class="o" x="107.76" y="0">i</tspan><tspan class="p" x="113.47" y="0">ó</tspan><tspan x="128.73" y="0">n </tspan><tspan x="-38.68" y="35.98">y </tspan><tspan class="q" x="-18.77" y="35.98">A</tspan><tspan class="r" x="-2.99" y="35.98">n</tspan><tspan class="s" x="12.24" y="35.98">á</tspan><tspan class="t" x="28.3" y="35.98">l</tspan><tspan class="u" x="34.02" y="35.98">i</tspan><tspan class="v" x="39.68" y="35.98">s</tspan><tspan class="w" x="52.05" y="35.98">i</tspan><tspan x="57.72" y="35.98">s </tspan><tspan class="p" x="76.64" y="35.98">d</tspan><tspan x="92.76" y="35.98">e </tspan><tspan class="x" x="114.04" y="35.98">D</tspan><tspan class="y" x="131.04" y="35.98">a</tspan><tspan class="z" x="147.07" y="35.98">t</tspan><tspan class="aa" x="155.09" y="35.98">o</tspan><tspan x="170.24" y="35.98">s </tspan><tspan class="ab" x="-5.63" y="71.97">C</tspan><tspan class="ac" x="12.49" y="71.97">U</tspan><tspan class="ad" x="27.75" y="71.97">A</tspan><tspan class="ae" x="43.52" y="71.97">L</tspan><tspan class="af" x="53.62" y="71.97">I</tspan><tspan class="ag" x="59.06" y="71.97">T</tspan><tspan class="ah" x="69.8" y="71.97">A</tspan><tspan class="ai" x="83.75" y="71.97">T</tspan><tspan class="aj" x="96.29" y="71.97">I</tspan><tspan class="ak" x="101.88" y="71.97">V</tspan><tspan class="al" x="117.11" y="71.97">O</tspan><tspan x="135.63" y="71.97">S</tspan></text><text class="h" transform="translate(775.02 62.19)"><tspan class="i">R</tspan><tspan class="am" x="14.05" y="0">e</tspan><tspan class="an" x="28.89" y="0">c</tspan><tspan class="ao" x="43.21" y="0">o</tspan><tspan class="m" x="58.46" y="0">l</tspan><tspan class="am" x="64.25" y="0">e</tspan><tspan class="ap" x="79.09" y="0">cc</tspan><tspan class="aq" x="107.76" y="0">i</tspan><tspan class="ar" x="113.47" y="0">ó</tspan><tspan x="128.73" y="0">n </tspan><tspan x="-38.68" y="35.98">y </tspan><tspan class="as" x="-18.77" y="35.98">A</tspan><tspan class="at" x="-2.99" y="35.98">n</tspan><tspan class="au" x="12.24" y="35.98">á</tspan><tspan class="av" x="28.3" y="35.98">l</tspan><tspan class="u" x="34.02" y="35.98">i</tspan><tspan class="aw" x="39.68" y="35.98">s</tspan><tspan class="u" x="52.05" y="35.98">i</tspan><tspan x="57.71" y="35.98">s </tspan><tspan class="ar" x="76.64" y="35.98">d</tspan><tspan x="92.76" y="35.98">e </tspan><tspan class="ax" x="114.04" y="35.98">D</tspan><tspan class="ay" x="131.03" y="35.98">a</tspan><tspan class="z" x="147.07" y="35.98">t</tspan><tspan class="az" x="155.09" y="35.98">o</tspan><tspan x="170.24" y="35.98">s </tspan><tspan class="ba" x="-6.43" y="71.97">C</tspan><tspan class="bb" x="11.65" y="71.97">u</tspan><tspan class="aw" x="26.9" y="71.97">a</tspan><tspan class="bc" x="42.96" y="71.97">n</tspan><tspan class="bd" x="57.94" y="71.97">t</tspan><tspan class="be" x="66.27" y="71.97">i</tspan><tspan class="bf" x="71.89" y="71.97">t</tspan><tspan class="ay" x="79.95" y="71.97">a</tspan><tspan class="bg" x="95.99" y="71.97">t</tspan><tspan class="bh" x="104.31" y="71.97">i</tspan><tspan class="bi" x="110.04" y="71.97">v</tspan><tspan class="az" x="122.84" y="71.97">o</tspan><tspan x="137.99" y="71.97">s</tspan></text><line class="f" x1="636.43" y1="85.11" x2="697.92" y2="85.11"/><polygon class="bj" points="709.7 85.11 696.64 77.56 696.64 92.65 709.7 85.11"/><text class="h" transform="translate(427.1 72.41)"><tspan class="bk">S</tspan><tspan x="13.87" y="0">e </tspan><tspan class="k" x="35.15" y="0">c</tspan><tspan class="ar" x="49.47" y="0">o</tspan><tspan class="bl" x="64.73" y="0">n</tspan><tspan class="bm" x="79.86" y="0">s</tspan><tspan class="bd" x="92.11" y="0">t</tspan><tspan class="bn" x="100.43" y="0">r</tspan><tspan class="bo" x="109.09" y="0">u</tspan><tspan class="bp" x="124.31" y="0">y</tspan><tspan x="137.13" y="0">e </tspan><tspan class="at" x="19.71" y="35.98">h</tspan><tspan class="au" x="34.94" y="35.98">a</tspan><tspan class="bk" x="51" y="35.98">l</tspan><tspan class="m" x="56.69" y="35.98">l</tspan><tspan class="bq" x="62.48" y="35.98">a</tspan><tspan class="br" x="78.33" y="35.98">z</tspan><tspan class="ar" x="88.5" y="35.98">g</tspan><tspan class="az" x="104.63" y="35.98">o</tspan><tspan x="119.77" y="35.98">s</tspan></text><ellipse class="g" cx="502.21" cy="85.11" rx="134.17" ry="71.34"/><text class="h" transform="translate(766.88 293.03)"><tspan class="bs">I</tspan><tspan class="bc" x="5.82" y="0">n</tspan><tspan class="bt" x="20.8" y="0">t</tspan><tspan class="ar" x="28.87" y="0">e</tspan><tspan class="bu" x="43.65" y="0">r</tspan><tspan class="ar" x="52.25" y="0">p</tspan><tspan class="bv" x="68.37" y="0">r</tspan><tspan class="bw" x="76.79" y="0">e</tspan><tspan class="bf" x="91.3" y="0">t</tspan><tspan class="ar" x="99.36" y="0">a</tspan><tspan class="bx" x="115.48" y="0">c</tspan><tspan class="aq" x="129.81" y="0">i</tspan><tspan class="by" x="135.53" y="0">ó</tspan><tspan x="150.78" y="0">n</tspan></text><ellipse class="g" cx="849.06" cy="289.73" rx="134.17" ry="71.34"/><polygon class="bj" points="366.39 85.11 353.33 77.56 353.33 92.65 366.39 85.11"/><polygon class="bj" points="849.95 216 857.49 202.93 842.41 202.93 849.95 216"/></g></svg>