<svg xmlns="http://www.w3.org/2000/svg" xmlns:xlink="http://www.w3.org/1999/xlink" viewBox="0 0 996.59 393.5"><defs><style>.a,.f,.g{fill:none;}.b{isolation:isolate;}.c{clip-path:url(#a);}.d,.e{opacity:0.3;mix-blend-mode:multiply;}.d{fill:url(#b);}.e{fill:url(#c);}.f{stroke:#b3b3b3;stroke-linecap:round;stroke-linejoin:round;}.f,.g{stroke-width:2px;}.g{stroke:#fd893b;stroke-miterlimit:10;}.h{font-size:23.99px;fill:#272b31;font-family:Poppins-Regular, Poppins;}.i{letter-spacing:-0.02em;}.j{letter-spacing:0em;}.k{letter-spacing:-0.01em;}.l{letter-spacing:0em;}.m{letter-spacing:0em;}.n{letter-spacing:-0.01em;}.o{letter-spacing:-0.01em;}.p{letter-spacing:0em;}.q{letter-spacing:-0.02em;}.r{letter-spacing:0em;}.s{letter-spacing:-0.01em;}.t{letter-spacing:-0.01em;}.u{letter-spacing:-0.01em;}.v{letter-spacing:-0.01em;}.w{letter-spacing:-0.01em;}.x{letter-spacing:0em;}.y{letter-spacing:-0.01em;}.z{letter-spacing:-0.03em;}.aa{letter-spacing:-0.01em;}.ab{letter-spacing:-0.02em;}.ac{letter-spacing:-0.04em;}.ad{letter-spacing:-0.02em;}.ae{letter-spacing:-0.02em;}.af{letter-spacing:-0.02em;}.ag{letter-spacing:-0.02em;}.ah{letter-spacing:-0.09em;}.ai{letter-spacing:-0.09em;}.aj{letter-spacing:-0.02em;}.ak{letter-spacing:-0.01em;}.al{letter-spacing:-0.04em;}.am{letter-spacing:-0.01em;}.an{letter-spacing:0em;}.ao{letter-spacing:-0.01em;}.ap{letter-spacing:0em;}.aq{letter-spacing:-0.01em;}.ar{letter-spacing:-0.01em;}.as{letter-spacing:0em;}.at{letter-spacing:-0.02em;}.au{letter-spacing:-0.01em;}.av{letter-spacing:-0.01em;}.aw{letter-spacing:-0.01em;}.ax{letter-spacing:-0.01em;}.ay{letter-spacing:0em;}.az{letter-spacing:-0.01em;}.ba{letter-spacing:-0.01em;}.bb{letter-spacing:-0.02em;}.bc{letter-spacing:0em;}.bd{letter-spacing:-0.01em;}.be{letter-spacing:-0.03em;}.bf{letter-spacing:-0.01em;}.bg{letter-spacing:-0.02em;}.bh{letter-spacing:-0.01em;}.bi{letter-spacing:-0.03em;}.bj{fill:#b3b3b3;}.bk{letter-spacing:-0.01em;}.bl{letter-spacing:-0.01em;}.bm{letter-spacing:-0.01em;}.bn{letter-spacing:-0.02em;}.bo{letter-spacing:-0.01em;}.bp{letter-spacing:-0.01em;}.bq{letter-spacing:-0.03em;}.br{letter-spacing:-0.02em;}.bs{letter-spacing:-0.03em;}.bt{letter-spacing:0em;}.bu{letter-spacing:-0.02em;}.bv{letter-spacing:-0.01em;}.bw{letter-spacing:-0.02em;}.bx{letter-spacing:-0.02em;}.by{letter-spacing:-0.03em;}.bz{letter-spacing:-0.01em;}.ca{letter-spacing:0em;}</style><clipPath id="a"><rect class="a" x="-171.76" y="-1594.7" width="1366" height="1529.63"/></clipPath><linearGradient id="b" x1="-356.28" y1="-317.24" x2="196.16" y2="235.21" gradientUnits="userSpaceOnUse"><stop offset="0" stop-color="#272b31" stop-opacity="0"/><stop offset="0.02" stop-color="#272b31" stop-opacity="0.04"/><stop offset="0.4" stop-color="#272b31" stop-opacity="0.57"/><stop offset="0.73" stop-color="#272b31" stop-opacity="0.89"/><stop offset="1" stop-color="#272b31"/></linearGradient><linearGradient id="c" x1="522.61" y1="244.76" x2="850.66" y2="572.81" xlink:href="#b"/></defs><g class="b"><g class="c"><circle class="d" cx="-80.06" cy="-41.02" r="390.64"/><circle class="e" cx="686.64" cy="408.78" r="231.96"/></g><line class="f" x1="287.13" y1="95.16" x2="348.62" y2="95.16"/><rect class="g" x="15.21" y="25.57" width="271.92" height="150.46" rx="25.26"/><line class="f" x1="843.96" y1="176.03" x2="843.96" y2="214.27"/><rect class="g" x="705.11" y="25.57" width="271.92" height="150.46" rx="25.26"/><text class="h" transform="translate(79.86 71.59)"><tspan class="i">R</tspan><tspan class="j" x="14.05" y="0">e</tspan><tspan class="k" x="28.89" y="0">c</tspan><tspan class="l" x="43.21" y="0">o</tspan><tspan class="m" x="58.46" y="0">l</tspan><tspan class="j" x="64.24" y="0">e</tspan><tspan class="n" x="79.09" y="0">cc</tspan><tspan class="o" x="107.76" y="0">i</tspan><tspan class="p" x="113.47" y="0">ó</tspan><tspan x="128.73" y="0">n </tspan><tspan x="-38.68" y="35.98">y </tspan><tspan class="q" x="-18.77" y="35.98">A</tspan><tspan class="r" x="-2.99" y="35.98">n</tspan><tspan class="s" x="12.24" y="35.98">á</tspan><tspan class="t" x="28.3" y="35.98">l</tspan><tspan class="u" x="34.02" y="35.98">i</tspan><tspan class="v" x="39.68" y="35.98">s</tspan><tspan class="w" x="52.05" y="35.98">i</tspan><tspan x="57.72" y="35.98">s </tspan><tspan class="p" x="76.64" y="35.98">d</tspan><tspan x="92.76" y="35.98">e </tspan><tspan class="x" x="114.04" y="35.98">D</tspan><tspan class="y" x="131.04" y="35.98">a</tspan><tspan class="z" x="147.07" y="35.98">t</tspan><tspan class="aa" x="155.09" y="35.98">o</tspan><tspan x="170.24" y="35.98">s </tspan><tspan class="ab" x="-15.07" y="71.97">C</tspan><tspan class="ac" x="3.05" y="71.97">U</tspan><tspan class="ad" x="18.31" y="71.97">A</tspan><tspan class="ae" x="34.08" y="71.97">N</tspan><tspan class="af" x="50.52" y="71.97">T</tspan><tspan class="ag" x="63.06" y="71.97">I</tspan><tspan class="ah" x="68.5" y="71.97">T</tspan><tspan class="ai" x="79.25" y="71.97">A</tspan><tspan class="aj" x="93.19" y="71.97">T</tspan><tspan class="ak" x="105.74" y="71.97">I</tspan><tspan class="al" x="111.33" y="71.97">V</tspan><tspan class="am" x="126.55" y="71.97">O</tspan><tspan x="145.07" y="71.97">S</tspan></text><text class="h" transform="translate(769.03 72.25)"><tspan class="i">R</tspan><tspan class="an" x="14.05" y="0">e</tspan><tspan class="ao" x="28.89" y="0">c</tspan><tspan class="ap" x="43.21" y="0">o</tspan><tspan class="m" x="58.46" y="0">l</tspan><tspan class="an" x="64.25" y="0">e</tspan><tspan class="aq" x="79.09" y="0">cc</tspan><tspan class="ar" x="107.76" y="0">i</tspan><tspan class="as" x="113.47" y="0">ó</tspan><tspan x="128.73" y="0">n </tspan><tspan x="-38.68" y="35.98">y </tspan><tspan class="at" x="-18.77" y="35.98">A</tspan><tspan class="au" x="-2.99" y="35.98">n</tspan><tspan class="av" x="12.24" y="35.98">á</tspan><tspan class="aw" x="28.3" y="35.98">l</tspan><tspan class="u" x="34.02" y="35.98">i</tspan><tspan class="ax" x="39.68" y="35.98">s</tspan><tspan class="u" x="52.05" y="35.98">i</tspan><tspan x="57.71" y="35.98">s </tspan><tspan class="as" x="76.64" y="35.98">d</tspan><tspan x="92.76" y="35.98">e </tspan><tspan class="ay" x="114.04" y="35.98">D</tspan><tspan class="az" x="131.03" y="35.98">a</tspan><tspan class="z" x="147.07" y="35.98">t</tspan><tspan class="ba" x="155.09" y="35.98">o</tspan><tspan x="170.24" y="35.98">s </tspan><tspan class="bb" x="2.36" y="71.97">C</tspan><tspan class="bc" x="20.45" y="71.97">u</tspan><tspan class="av" x="35.69" y="71.97">a</tspan><tspan class="aw" x="51.75" y="71.97">l</tspan><tspan class="bd" x="57.47" y="71.97">i</tspan><tspan class="be" x="63.09" y="71.97">t</tspan><tspan class="bf" x="71.16" y="71.97">a</tspan><tspan class="bg" x="87.19" y="71.97">t</tspan><tspan class="bh" x="95.52" y="71.97">i</tspan><tspan class="bi" x="101.24" y="71.97">v</tspan><tspan class="ba" x="114.05" y="71.97">o</tspan><tspan x="129.2" y="71.97">s</tspan></text><line class="f" x1="630.44" y1="95.16" x2="691.94" y2="95.16"/><polygon class="bj" points="703.72 95.16 690.65 87.62 690.65 102.71 703.72 95.16"/><text class="h" transform="translate(421.12 82.46)"><tspan class="bk">S</tspan><tspan x="13.87" y="0">e </tspan><tspan class="k" x="35.15" y="0">c</tspan><tspan class="as" x="49.47" y="0">o</tspan><tspan class="bl" x="64.73" y="0">n</tspan><tspan class="bm" x="79.86" y="0">s</tspan><tspan class="bn" x="92.11" y="0">t</tspan><tspan class="bo" x="100.43" y="0">r</tspan><tspan class="bp" x="109.09" y="0">u</tspan><tspan class="bq" x="124.31" y="0">y</tspan><tspan x="137.13" y="0">e </tspan><tspan class="au" x="19.71" y="35.98">h</tspan><tspan class="av" x="34.94" y="35.98">a</tspan><tspan class="bk" x="51" y="35.98">l</tspan><tspan class="m" x="56.69" y="35.98">l</tspan><tspan class="br" x="62.48" y="35.98">a</tspan><tspan class="bs" x="78.33" y="35.98">z</tspan><tspan class="as" x="88.5" y="35.98">g</tspan><tspan class="ba" x="104.63" y="35.98">o</tspan><tspan x="119.77" y="35.98">s</tspan></text><ellipse class="g" cx="496.23" cy="95.16" rx="134.17" ry="71.34"/><text class="h" transform="translate(760.9 303.08)"><tspan class="bt">I</tspan><tspan class="bu" x="5.82" y="0">n</tspan><tspan class="be" x="20.8" y="0">t</tspan><tspan class="as" x="28.87" y="0">e</tspan><tspan class="bv" x="43.65" y="0">r</tspan><tspan class="as" x="52.25" y="0">p</tspan><tspan class="bw" x="68.37" y="0">r</tspan><tspan class="bx" x="76.79" y="0">e</tspan><tspan class="by" x="91.3" y="0">t</tspan><tspan class="as" x="99.36" y="0">a</tspan><tspan class="bz" x="115.48" y="0">c</tspan><tspan class="ar" x="129.81" y="0">i</tspan><tspan class="ca" x="135.53" y="0">ó</tspan><tspan x="150.78" y="0">n</tspan></text><ellipse class="g" cx="843.07" cy="299.79" rx="134.17" ry="71.34"/><polygon class="bj" points="360.41 95.16 347.34 87.62 347.34 102.71 360.41 95.16"/><polygon class="bj" points="843.97 226.05 851.51 212.99 836.42 212.99 843.97 226.05"/></g></svg>