<svg id="f5ce2ca8-7ef6-4aaa-8591-dc61996a3b2b" data-name="Capa 1" xmlns="http://www.w3.org/2000/svg" viewBox="0 0 464.79 136.4"><defs><style>.b5e185d4-ad47-4fd7-9ad5-6292902db92a,.bc288722-d88e-4d3f-841b-fabcd4090e82,.e7ca8105-2886-426c-aa2e-049c2b19b862{fill:none;stroke-width:1.87px;}.b5e185d4-ad47-4fd7-9ad5-6292902db92a{stroke:#b3b3b3;}.b5e185d4-ad47-4fd7-9ad5-6292902db92a,.bc288722-d88e-4d3f-841b-fabcd4090e82{stroke-linecap:round;stroke-linejoin:round;}.bc288722-d88e-4d3f-841b-fabcd4090e82,.e7ca8105-2886-426c-aa2e-049c2b19b862{stroke:#5f9eb5;}.e7ca8105-2886-426c-aa2e-049c2b19b862{stroke-miterlimit:10;}.a665863b-a5c2-43b3-b8cb-e37392551c06{fill:#272b31;}.f67ab83b-3ac5-4408-9a87-42c1d71dac5a{fill:#b3b3b3;}</style></defs><line class="b5e185d4-ad47-4fd7-9ad5-6292902db92a" x1="207.72" y1="62.78" x2="325.48" y2="62.78"/><rect class="e7ca8105-2886-426c-aa2e-049c2b19b862" x="7.11" y="5.12" width="200.61" height="126.15" rx="19.87"/><path class="a665863b-a5c2-43b3-b8cb-e37392551c06" d="M45.33,18.85c1.85,0,2.72,1,2.72,2.3a2.21,2.21,0,0,1-1.86,2.25l2,3.28H46.93l-1.87-3.2H43.83v3.2h-1V18.85Zm0,.84h-1.5v3h1.5c1.16,0,1.67-.63,1.67-1.51S46.5,19.69,45.33,19.69Z"/><path class="a665863b-a5c2-43b3-b8cb-e37392551c06" d="M52.13,26.78a3,3,0,0,1-3-3.19,2.93,2.93,0,0,1,3-3.17,2.83,2.83,0,0,1,3,2.95,6,6,0,0,1,0,.61H50.13a1.94,1.94,0,0,0,2,1.94,1.7,1.7,0,0,0,1.73-1.14H55A2.77,2.77,0,0,1,52.13,26.78Zm-2-3.63H54a1.8,1.8,0,0,0-1.94-1.86A1.91,1.91,0,0,0,50.14,23.15Z"/><path class="a665863b-a5c2-43b3-b8cb-e37392551c06" d="M59.12,20.42A2.69,2.69,0,0,1,62,22.5h-1.1a1.69,1.69,0,0,0-1.74-1.21c-1.13,0-2,.8-2,2.3s.83,2.33,2,2.33a1.66,1.66,0,0,0,1.74-1.22H62a2.74,2.74,0,0,1-2.84,2.08,2.93,2.93,0,0,1-3-3.19A2.92,2.92,0,0,1,59.12,20.42Z"/><path class="a665863b-a5c2-43b3-b8cb-e37392551c06" d="M66,26.78a3,3,0,0,1-3.06-3.19,3.11,3.11,0,1,1,6.22,0A3.06,3.06,0,0,1,66,26.78Zm0-.9a2.09,2.09,0,0,0,2.11-2.29A2.07,2.07,0,0,0,66,21.31,2,2,0,0,0,64,23.59,2,2,0,0,0,66,25.88Z"/><path class="a665863b-a5c2-43b3-b8cb-e37392551c06" d="M70.51,18.37h1v8.31h-1Z"/><path class="a665863b-a5c2-43b3-b8cb-e37392551c06" d="M76,26.78a3,3,0,0,1-3-3.19,2.93,2.93,0,0,1,3-3.17,2.82,2.82,0,0,1,3,2.95,6.08,6.08,0,0,1,0,.61H74a1.94,1.94,0,0,0,2,1.94,1.7,1.7,0,0,0,1.73-1.14h1.1A2.77,2.77,0,0,1,76,26.78Zm-2-3.63h3.89a1.81,1.81,0,0,0-2-1.86A1.9,1.9,0,0,0,74,23.15Z"/><path class="a665863b-a5c2-43b3-b8cb-e37392551c06" d="M82.94,20.42a2.67,2.67,0,0,1,2.84,2.08h-1.1a1.67,1.67,0,0,0-1.74-1.21c-1.12,0-2,.8-2,2.3s.83,2.33,2,2.33a1.65,1.65,0,0,0,1.74-1.22h1.1a2.73,2.73,0,0,1-2.84,2.08,2.94,2.94,0,0,1-3-3.19A2.93,2.93,0,0,1,82.94,20.42Z"/><path class="a665863b-a5c2-43b3-b8cb-e37392551c06" d="M89.74,20.42a2.69,2.69,0,0,1,2.84,2.08h-1.1a1.68,1.68,0,0,0-1.74-1.21c-1.13,0-2,.8-2,2.3s.83,2.33,2,2.33a1.65,1.65,0,0,0,1.74-1.22h1.1a2.74,2.74,0,0,1-2.84,2.08,2.93,2.93,0,0,1-3-3.19A2.92,2.92,0,0,1,89.74,20.42Z"/><path class="a665863b-a5c2-43b3-b8cb-e37392551c06" d="M93.75,18.83a.69.69,0,1,1,.69.7A.69.69,0,0,1,93.75,18.83Zm.17,1.69h1v6.16h-1Z"/><path class="a665863b-a5c2-43b3-b8cb-e37392551c06" d="M99.35,26.78a3,3,0,0,1-3.06-3.19,3.11,3.11,0,1,1,6.22,0A3.05,3.05,0,0,1,99.35,26.78Zm0-.9a2.09,2.09,0,0,0,2.12-2.29,2.07,2.07,0,0,0-2.08-2.28,2,2,0,0,0-2.06,2.28A2,2,0,0,0,99.35,25.88Zm1.15-8.06v.89L98.11,20v-.77Z"/><path class="a665863b-a5c2-43b3-b8cb-e37392551c06" d="M108.4,23.2a1.66,1.66,0,0,0-1.72-1.9c-1.05,0-1.76.65-1.76,2v3.4h-1V20.52h1v.88a2.26,2.26,0,0,1,2-1,2.39,2.39,0,0,1,2.52,2.64v3.63h-1Z"/><path class="a665863b-a5c2-43b3-b8cb-e37392551c06" d="M118.33,20.52h1l-3.7,9.06h-1.06l1.22-3-2.49-6.09h1.14l1.93,5Z"/><path class="a665863b-a5c2-43b3-b8cb-e37392551c06" d="M128,24.94h-3.42L124,26.68h-1.08l2.83-7.78h1.18l2.82,7.78h-1.08Zm-1.71-4.79-1.42,4h2.83Z"/><path class="a665863b-a5c2-43b3-b8cb-e37392551c06" d="M135.38,23.2c0-1.26-.68-1.9-1.72-1.9s-1.76.65-1.76,2v3.4h-1V20.52h1v.88a2.29,2.29,0,0,1,2-1,2.39,2.39,0,0,1,2.51,2.64v3.63h-1Z"/><path class="a665863b-a5c2-43b3-b8cb-e37392551c06" d="M140.63,20.42a2.56,2.56,0,0,1,2.29,1.23V20.52h1v6.16h-1V25.53a2.56,2.56,0,0,1-2.3,1.25,3,3,0,0,1-2.91-3.2A2.92,2.92,0,0,1,140.63,20.42Zm.2.89a2.08,2.08,0,0,0-2.08,2.27,2.09,2.09,0,1,0,4.17,0A2.11,2.11,0,0,0,140.83,21.31Zm1.29-3.41v.88l-2.39,1.28V19.3Z"/><path class="a665863b-a5c2-43b3-b8cb-e37392551c06" d="M145.68,18.37h1v8.31h-1Z"/><path class="a665863b-a5c2-43b3-b8cb-e37392551c06" d="M148.27,18.83a.7.7,0,0,1,.7-.7.7.7,0,0,1,0,1.4A.7.7,0,0,1,148.27,18.83Zm.17,1.69h1v6.16h-1Z"/><path class="a665863b-a5c2-43b3-b8cb-e37392551c06" d="M153.35,26.78a2.24,2.24,0,0,1-2.51-1.91h1c.06.6.59,1.05,1.45,1.05s1.26-.41,1.26-.91c0-1.37-3.64-.58-3.64-2.87,0-.94.89-1.72,2.26-1.72a2.06,2.06,0,0,1,2.32,1.94h-1a1.18,1.18,0,0,0-1.33-1.07c-.76,0-1.21.36-1.21.85,0,1.46,3.57.66,3.62,2.87C155.6,26,154.71,26.78,153.35,26.78Z"/><path class="a665863b-a5c2-43b3-b8cb-e37392551c06" d="M156.87,18.83a.69.69,0,1,1,.7.7A.69.69,0,0,1,156.87,18.83Zm.17,1.69h1v6.16h-1Z"/><path class="a665863b-a5c2-43b3-b8cb-e37392551c06" d="M162,26.78c-1.44,0-2.45-.79-2.51-1.91h1.05c.06.6.59,1.05,1.45,1.05s1.26-.41,1.26-.91c0-1.37-3.64-.58-3.64-2.87,0-.94.89-1.72,2.26-1.72a2.06,2.06,0,0,1,2.32,1.94h-1a1.19,1.19,0,0,0-1.34-1.07c-.75,0-1.2.36-1.2.85,0,1.46,3.57.66,3.62,2.87C164.2,26,163.31,26.78,162,26.78Z"/><path class="a665863b-a5c2-43b3-b8cb-e37392551c06" d="M38.9,37.28a2.68,2.68,0,0,1,2.28,1.2V35.22h1v8.31h-1V42.37a2.52,2.52,0,0,1-2.29,1.26A3,3,0,0,1,36,40.43,2.91,2.91,0,0,1,38.9,37.28Zm.19.88A2.08,2.08,0,0,0,37,40.43a2.09,2.09,0,1,0,2.08-2.27Z"/><path class="a665863b-a5c2-43b3-b8cb-e37392551c06" d="M46.64,43.63a3,3,0,0,1-3-3.19,2.92,2.92,0,0,1,3-3.16,2.81,2.81,0,0,1,3,2.94c0,.22,0,.4,0,.62H44.64a1.94,1.94,0,0,0,2,1.93,1.68,1.68,0,0,0,1.73-1.14h1.1A2.75,2.75,0,0,1,46.64,43.63Zm-2-3.63h3.89a1.8,1.8,0,0,0-1.94-1.86A1.91,1.91,0,0,0,44.65,40Z"/><path class="a665863b-a5c2-43b3-b8cb-e37392551c06" d="M60.54,39.63c0,2.43-1.59,3.9-4.16,3.9H53.94V35.7h2.44C59,35.7,60.54,37.21,60.54,39.63Zm-4.16,3.06a2.8,2.8,0,0,0,3.11-3.06,2.82,2.82,0,0,0-3.11-3.1H55v6.16Z"/><path class="a665863b-a5c2-43b3-b8cb-e37392551c06" d="M64.52,37.28a2.56,2.56,0,0,1,2.29,1.22V37.38h1v6.15h-1V42.39a2.57,2.57,0,0,1-2.3,1.24,3,3,0,0,1-2.91-3.2A2.91,2.91,0,0,1,64.52,37.28Zm.2.88a2.08,2.08,0,0,0-2.08,2.27,2.09,2.09,0,1,0,2.08-2.27Z"/><path class="a665863b-a5c2-43b3-b8cb-e37392551c06" d="M69.79,38.22H69v-.84h.79V35.83h1v1.55h1.61v.84H70.81v3.63c0,.6.23.82.86.82h.75v.86H71.5c-1.09,0-1.71-.45-1.71-1.68Z"/><path class="a665863b-a5c2-43b3-b8cb-e37392551c06" d="M76.09,43.63a3.18,3.18,0,1,1,3.16-3.19A3,3,0,0,1,76.09,43.63Zm0-.9a2.09,2.09,0,0,0,2.12-2.29,2.07,2.07,0,0,0-2.08-2.28,2,2,0,0,0-2.06,2.28A2,2,0,0,0,76.09,42.73Z"/><path class="a665863b-a5c2-43b3-b8cb-e37392551c06" d="M82.76,43.63c-1.43,0-2.45-.78-2.51-1.91h1c.06.6.59,1.05,1.45,1.05S84,42.36,84,41.86c0-1.37-3.64-.58-3.64-2.87,0-.94.89-1.71,2.26-1.71A2.06,2.06,0,0,1,85,39.21h-1a1.18,1.18,0,0,0-1.34-1.07c-.75,0-1.2.36-1.2.85,0,1.46,3.57.67,3.62,2.87C85,42.87,84.12,43.63,82.76,43.63Z"/><path class="a665863b-a5c2-43b3-b8cb-e37392551c06" d="M93,35.6A3.69,3.69,0,0,1,96.6,38H95.38A2.47,2.47,0,0,0,93,36.5a2.84,2.84,0,0,0-2.86,3.11A2.84,2.84,0,0,0,93,42.71a2.48,2.48,0,0,0,2.41-1.46H96.6A3.67,3.67,0,0,1,93,43.6a4,4,0,0,1,0-8Z"/><path class="a665863b-a5c2-43b3-b8cb-e37392551c06" d="M98,35.7h1v5a1.93,1.93,0,1,0,3.85,0v-5h1v4.94a3,3,0,1,1-5.9,0Z"/><path class="a665863b-a5c2-43b3-b8cb-e37392551c06" d="M109.88,41.79h-3.41l-.63,1.74h-1.08l2.83-7.78h1.18l2.82,7.78h-1.08ZM108.17,37l-1.41,4h2.83Z"/><path class="a665863b-a5c2-43b3-b8cb-e37392551c06" d="M118.87,35.69v7.84h-1l-4.11-6.23v6.23h-1V35.69h1l4.11,6.22V35.69Z"/><path class="a665863b-a5c2-43b3-b8cb-e37392551c06" d="M120,35.7h5.3v.83h-2.13v7h-1v-7H120Z"/><path class="a665863b-a5c2-43b3-b8cb-e37392551c06" d="M126.46,35.7h1v7.83h-1Z"/><path class="a665863b-a5c2-43b3-b8cb-e37392551c06" d="M128.61,35.7h5.3v.83h-2.14v7h-1v-7h-2.14Z"/><path class="a665863b-a5c2-43b3-b8cb-e37392551c06" d="M138.86,41.79h-3.41l-.63,1.74h-1.08l2.83-7.78h1.18l2.82,7.78h-1.08ZM137.15,37l-1.41,4h2.83Z"/><path class="a665863b-a5c2-43b3-b8cb-e37392551c06" d="M140.39,35.7h5.3v.83h-2.14v7h-1v-7h-2.14Z"/><path class="a665863b-a5c2-43b3-b8cb-e37392551c06" d="M146.83,35.7h1v7.83h-1Z"/><path class="a665863b-a5c2-43b3-b8cb-e37392551c06" d="M154.91,35.7H156l-3,7.83h-1.18l-3-7.83H150l2.46,6.75Z"/><path class="a665863b-a5c2-43b3-b8cb-e37392551c06" d="M160.29,43.61a4,4,0,1,1,3.94-4A3.86,3.86,0,0,1,160.29,43.61Zm0-.89a2.86,2.86,0,0,0,2.89-3.11,2.89,2.89,0,1,0-5.77,0A2.85,2.85,0,0,0,160.29,42.72Z"/><path class="a665863b-a5c2-43b3-b8cb-e37392551c06" d="M168,43.61c-1.57,0-2.68-.88-2.71-2.17h1.09a1.45,1.45,0,0,0,1.62,1.3c1,0,1.57-.56,1.57-1.3,0-2.11-4.23-.76-4.23-3.67,0-1.29,1-2.17,2.59-2.17a2.35,2.35,0,0,1,2.6,2h-1.13a1.4,1.4,0,0,0-1.51-1.13c-.84,0-1.51.41-1.51,1.26,0,2,4.23.76,4.23,3.66A2.35,2.35,0,0,1,168,43.61Z"/><rect class="e7ca8105-2886-426c-aa2e-049c2b19b862" x="26.82" y="62.78" width="152.38" height="54.85" rx="11.42"/><path class="a665863b-a5c2-43b3-b8cb-e37392551c06" d="M45.33,76.51c1.85,0,2.72,1,2.72,2.3a2.21,2.21,0,0,1-1.86,2.25l2,3.28H46.93l-1.87-3.2H43.83v3.2h-1V76.51Zm0,.84h-1.5v3h1.5c1.16,0,1.67-.63,1.67-1.51S46.5,77.35,45.33,77.35Z"/><path class="a665863b-a5c2-43b3-b8cb-e37392551c06" d="M52.13,84.44a3.18,3.18,0,0,1,0-6.36,2.83,2.83,0,0,1,3,3,6,6,0,0,1,0,.61H50.13a1.94,1.94,0,0,0,2,1.94,1.7,1.7,0,0,0,1.73-1.14H55A2.77,2.77,0,0,1,52.13,84.44Zm-2-3.63H54A1.8,1.8,0,0,0,52.09,79,1.91,1.91,0,0,0,50.14,80.81Z"/><path class="a665863b-a5c2-43b3-b8cb-e37392551c06" d="M59.12,78.08A2.69,2.69,0,0,1,62,80.16h-1.1A1.68,1.68,0,0,0,59.12,79c-1.13,0-2,.8-2,2.3s.83,2.33,2,2.33a1.65,1.65,0,0,0,1.74-1.22H62a2.74,2.74,0,0,1-2.84,2.08,3.19,3.19,0,0,1,0-6.36Z"/><path class="a665863b-a5c2-43b3-b8cb-e37392551c06" d="M66,84.44a3,3,0,0,1-3.06-3.19,3.11,3.11,0,1,1,6.22,0A3.05,3.05,0,0,1,66,84.44Zm0-.9a2.09,2.09,0,0,0,2.11-2.29A2.07,2.07,0,0,0,66,79a2.3,2.3,0,0,0,0,4.57Z"/><path class="a665863b-a5c2-43b3-b8cb-e37392551c06" d="M70.51,76h1v8.31h-1Z"/><path class="a665863b-a5c2-43b3-b8cb-e37392551c06" d="M76,84.44a3,3,0,0,1-3-3.19,2.93,2.93,0,0,1,3-3.17,2.82,2.82,0,0,1,3,3,6.08,6.08,0,0,1,0,.61H74a1.94,1.94,0,0,0,2,1.94,1.7,1.7,0,0,0,1.73-1.14h1.1A2.77,2.77,0,0,1,76,84.44Zm-2-3.63h3.89a1.81,1.81,0,0,0-2-1.86A1.91,1.91,0,0,0,74,80.81Z"/><path class="a665863b-a5c2-43b3-b8cb-e37392551c06" d="M82.94,78.08a2.67,2.67,0,0,1,2.84,2.08h-1.1A1.67,1.67,0,0,0,82.94,79c-1.12,0-2,.8-2,2.3s.83,2.33,2,2.33a1.65,1.65,0,0,0,1.74-1.22h1.1a2.73,2.73,0,0,1-2.84,2.08,3.19,3.19,0,0,1,0-6.36Z"/><path class="a665863b-a5c2-43b3-b8cb-e37392551c06" d="M89.74,78.08a2.69,2.69,0,0,1,2.84,2.08h-1.1A1.68,1.68,0,0,0,89.74,79c-1.13,0-2,.8-2,2.3s.83,2.33,2,2.33a1.65,1.65,0,0,0,1.74-1.22h1.1a2.74,2.74,0,0,1-2.84,2.08,3.19,3.19,0,0,1,0-6.36Z"/><path class="a665863b-a5c2-43b3-b8cb-e37392551c06" d="M93.75,76.49a.69.69,0,1,1,.69.7A.69.69,0,0,1,93.75,76.49Zm.17,1.7h1v6.15h-1Z"/><path class="a665863b-a5c2-43b3-b8cb-e37392551c06" d="M99.36,84.44a3,3,0,0,1-3.07-3.19,3.11,3.11,0,1,1,6.22,0A3,3,0,0,1,99.36,84.44Zm0-.9a2.29,2.29,0,0,0,0-4.57,2.3,2.3,0,0,0,0,4.57Zm1.14-8.06v.89l-2.39,1.28v-.77Z"/><path class="a665863b-a5c2-43b3-b8cb-e37392551c06" d="M108.4,80.86a1.66,1.66,0,0,0-1.72-1.9c-1,0-1.76.65-1.76,2v3.4h-1V78.19h1v.87a2.26,2.26,0,0,1,2-1,2.39,2.39,0,0,1,2.52,2.64v3.63h-1Z"/><path class="a665863b-a5c2-43b3-b8cb-e37392551c06" d="M118.33,78.19h1l-3.7,9h-1.06l1.22-3-2.49-6.08h1.14l1.93,5Z"/><path class="a665863b-a5c2-43b3-b8cb-e37392551c06" d="M128,82.6h-3.42L124,84.34h-1.08l2.83-7.78h1.18l2.82,7.78h-1.08Zm-1.71-4.79-1.42,4h2.83Z"/><path class="a665863b-a5c2-43b3-b8cb-e37392551c06" d="M135.38,80.86c0-1.26-.68-1.9-1.71-1.9s-1.77.65-1.77,2v3.4h-1V78.19h1v.87a2.29,2.29,0,0,1,2-1,2.39,2.39,0,0,1,2.51,2.64v3.63h-1Z"/><path class="a665863b-a5c2-43b3-b8cb-e37392551c06" d="M140.63,78.08a2.56,2.56,0,0,1,2.29,1.23V78.19h1v6.15h-1V83.19a2.56,2.56,0,0,1-2.3,1.25,3,3,0,0,1-2.91-3.2A2.92,2.92,0,0,1,140.63,78.08Zm.2.89a2.08,2.08,0,0,0-2.08,2.27A2.09,2.09,0,1,0,140.83,79Zm1.29-3.41v.88l-2.39,1.28V77Z"/><path class="a665863b-a5c2-43b3-b8cb-e37392551c06" d="M145.69,76h1v8.31h-1Z"/><path class="a665863b-a5c2-43b3-b8cb-e37392551c06" d="M148.27,76.49a.7.7,0,0,1,.7-.7.7.7,0,0,1,0,1.4A.7.7,0,0,1,148.27,76.49Zm.17,1.7h1v6.15h-1Z"/><path class="a665863b-a5c2-43b3-b8cb-e37392551c06" d="M153.35,84.44a2.24,2.24,0,0,1-2.51-1.91h1c.06.6.59,1,1.45,1s1.26-.41,1.26-.91c0-1.37-3.64-.58-3.64-2.87,0-.94.89-1.72,2.26-1.72A2.06,2.06,0,0,1,155.54,80h-1A1.18,1.18,0,0,0,153.19,79c-.76,0-1.21.36-1.21.85,0,1.46,3.58.67,3.62,2.87C155.6,83.68,154.71,84.44,153.35,84.44Z"/><path class="a665863b-a5c2-43b3-b8cb-e37392551c06" d="M156.87,76.49a.69.69,0,1,1,.7.7A.69.69,0,0,1,156.87,76.49Zm.17,1.7h1v6.15h-1Z"/><path class="a665863b-a5c2-43b3-b8cb-e37392551c06" d="M162,84.44c-1.44,0-2.45-.79-2.51-1.91h1.05c.06.6.59,1,1.45,1s1.26-.41,1.26-.91c0-1.37-3.64-.58-3.64-2.87,0-.94.89-1.72,2.26-1.72A2.06,2.06,0,0,1,164.14,80h-1A1.19,1.19,0,0,0,161.78,79c-.75,0-1.2.36-1.2.85,0,1.46,3.57.67,3.62,2.87C164.2,83.68,163.31,84.44,162,84.44Z"/><path class="a665863b-a5c2-43b3-b8cb-e37392551c06" d="M47.14,94.94a2.66,2.66,0,0,1,2.28,1.2V92.88h1v8.31h-1V100a2.51,2.51,0,0,1-2.29,1.26,3,3,0,0,1-2.92-3.2A2.91,2.91,0,0,1,47.14,94.94Zm.19.88a2.07,2.07,0,0,0-2.07,2.27,2.09,2.09,0,1,0,2.07-2.27Z"/><path class="a665863b-a5c2-43b3-b8cb-e37392551c06" d="M54.88,101.29a3,3,0,0,1-3-3.19,2.93,2.93,0,0,1,3-3.16,2.82,2.82,0,0,1,3,2.94,4.3,4.3,0,0,1,0,.62H52.89a1.93,1.93,0,0,0,2,1.93,1.68,1.68,0,0,0,1.73-1.14h1.1A2.75,2.75,0,0,1,54.88,101.29Zm-2-3.62h3.88a1.8,1.8,0,0,0-1.94-1.87A1.9,1.9,0,0,0,52.9,97.67Z"/><path class="a665863b-a5c2-43b3-b8cb-e37392551c06" d="M68.78,97.29c0,2.43-1.58,3.9-4.15,3.9H62.19V93.36h2.44C67.2,93.36,68.78,94.87,68.78,97.29Zm-4.15,3.06a2.8,2.8,0,0,0,3.11-3.06,2.83,2.83,0,0,0-3.11-3.1H63.21v6.16Z"/><path class="a665863b-a5c2-43b3-b8cb-e37392551c06" d="M72.76,94.94a2.55,2.55,0,0,1,2.29,1.22V95h1v6.15h-1v-1.14a2.57,2.57,0,0,1-2.3,1.24,3,3,0,0,1-2.91-3.2A2.91,2.91,0,0,1,72.76,94.94Zm.2.88a2.07,2.07,0,0,0-2.07,2.27A2.09,2.09,0,1,0,73,95.82Z"/><path class="a665863b-a5c2-43b3-b8cb-e37392551c06" d="M78,95.88h-.8V95H78V93.49h1V95h1.6v.84h-1.6v3.63c0,.6.22.82.85.82h.75v.86h-.92c-1.09,0-1.7-.45-1.7-1.68Z"/><path class="a665863b-a5c2-43b3-b8cb-e37392551c06" d="M84.34,101.29a3.18,3.18,0,1,1,3.15-3.19A3,3,0,0,1,84.34,101.29Zm0-.9a2.29,2.29,0,0,0,0-4.57,2.3,2.3,0,0,0,0,4.57Z"/><path class="a665863b-a5c2-43b3-b8cb-e37392551c06" d="M91,101.29c-1.44,0-2.45-.78-2.52-1.91h1.06c0,.6.58,1.05,1.45,1.05s1.25-.41,1.25-.91c0-1.37-3.63-.57-3.63-2.87,0-.94.88-1.71,2.25-1.71a2.07,2.07,0,0,1,2.33,1.93h-1a1.19,1.19,0,0,0-1.34-1.07c-.75,0-1.2.36-1.2.85,0,1.46,3.57.67,3.61,2.87C93.25,100.53,92.37,101.29,91,101.29Z"/><path class="a665863b-a5c2-43b3-b8cb-e37392551c06" d="M101.22,93.26a3.71,3.71,0,0,1,3.63,2.37h-1.23a2.46,2.46,0,0,0-2.4-1.47,3.12,3.12,0,0,0,0,6.21,2.47,2.47,0,0,0,2.4-1.46h1.23a3.69,3.69,0,0,1-3.63,2.35,4,4,0,0,1,0-8Z"/><path class="a665863b-a5c2-43b3-b8cb-e37392551c06" d="M111.7,101.19h-1v-.91a2.25,2.25,0,0,1-2,1,2.4,2.4,0,0,1-2.53-2.64V95h1v3.47a1.65,1.65,0,0,0,1.72,1.88c1,0,1.76-.65,1.76-2V95h1Z"/><path class="a665863b-a5c2-43b3-b8cb-e37392551c06" d="M116,94.94a2.55,2.55,0,0,1,2.29,1.22V95h1v6.15h-1v-1.14a2.57,2.57,0,0,1-2.3,1.24,3,3,0,0,1-2.91-3.2A2.91,2.91,0,0,1,116,94.94Zm.2.88a2.07,2.07,0,0,0-2.07,2.27,2.09,2.09,0,1,0,2.07-2.27Z"/><path class="a665863b-a5c2-43b3-b8cb-e37392551c06" d="M121.06,92.88h1v8.31h-1Z"/><path class="a665863b-a5c2-43b3-b8cb-e37392551c06" d="M123.65,93.34a.69.69,0,1,1,1.37,0,.69.69,0,1,1-1.37,0Zm.16,1.7h1v6.15h-1Z"/><path class="a665863b-a5c2-43b3-b8cb-e37392551c06" d="M126.75,95.88H126V95h.79V93.49h1V95h1.61v.84h-1.61v3.63c0,.6.23.82.86.82h.75v.86h-.92c-1.09,0-1.71-.45-1.71-1.68Z"/><path class="a665863b-a5c2-43b3-b8cb-e37392551c06" d="M132.93,94.94a2.55,2.55,0,0,1,2.29,1.22V95h1v6.15h-1v-1.14a2.57,2.57,0,0,1-2.3,1.24,3,3,0,0,1-2.91-3.2A2.91,2.91,0,0,1,132.93,94.94Zm.2.88a2.07,2.07,0,0,0-2.07,2.27,2.09,2.09,0,1,0,2.07-2.27Z"/><path class="a665863b-a5c2-43b3-b8cb-e37392551c06" d="M138.21,95.88h-.8V95h.8V93.49h1V95h1.6v.84h-1.6v3.63c0,.6.22.82.85.82h.75v.86h-.92c-1.09,0-1.7-.45-1.7-1.68Z"/><path class="a665863b-a5c2-43b3-b8cb-e37392551c06" d="M141.79,93.34a.69.69,0,0,1,.7-.69.67.67,0,0,1,.67.69.68.68,0,0,1-.67.7A.7.7,0,0,1,141.79,93.34ZM142,95h1v6.15h-1Z"/><path class="a665863b-a5c2-43b3-b8cb-e37392551c06" d="M145.1,95l1.92,5.21L148.93,95H150l-2.42,6.15h-1.19L144,95Z"/><path class="a665863b-a5c2-43b3-b8cb-e37392551c06" d="M153.5,101.29a3.18,3.18,0,1,1,3.15-3.19A3,3,0,0,1,153.5,101.29Zm0-.9a2.29,2.29,0,0,0,0-4.57,2.3,2.3,0,0,0,0,4.57Z"/><path class="a665863b-a5c2-43b3-b8cb-e37392551c06" d="M160.16,101.29a2.24,2.24,0,0,1-2.51-1.91h1c.06.6.59,1.05,1.45,1.05s1.26-.41,1.26-.91c0-1.37-3.64-.57-3.64-2.87,0-.94.89-1.71,2.26-1.71a2.06,2.06,0,0,1,2.32,1.93h-1A1.18,1.18,0,0,0,160,95.8c-.76,0-1.21.36-1.21.85,0,1.46,3.58.67,3.62,2.87C162.41,100.53,161.52,101.29,160.16,101.29Z"/><path class="a665863b-a5c2-43b3-b8cb-e37392551c06" d="M356.68,56.5h1v7.83h-1Z"/><path class="a665863b-a5c2-43b3-b8cb-e37392551c06" d="M364,60.85c0-1.26-.68-1.9-1.71-1.9s-1.77.65-1.77,2v3.41h-1V58.17h1v.88a2.29,2.29,0,0,1,2-1A2.39,2.39,0,0,1,365,60.7v3.63h-1Z"/><path class="a665863b-a5c2-43b3-b8cb-e37392551c06" d="M366.8,59H366v-.85h.79V56.62h1v1.55h1.6V59h-1.6v3.62c0,.61.22.82.85.82h.75v.87h-.92c-1.09,0-1.71-.45-1.71-1.69Z"/><path class="a665863b-a5c2-43b3-b8cb-e37392551c06" d="M373.11,64.43a3,3,0,0,1-3.05-3.19,2.94,2.94,0,0,1,3.05-3.17A2.82,2.82,0,0,1,376.06,61a6.13,6.13,0,0,1,0,.62h-4.92a1.93,1.93,0,0,0,2,1.93,1.7,1.7,0,0,0,1.73-1.13h1.1A2.78,2.78,0,0,1,373.11,64.43Zm-2-3.63H375a1.79,1.79,0,0,0-1.94-1.86A1.9,1.9,0,0,0,371.12,60.8Z"/><path class="a665863b-a5c2-43b3-b8cb-e37392551c06" d="M378.47,64.33h-1V58.17h1v1a2.07,2.07,0,0,1,2-1.11v1.06h-.27c-1,0-1.71.43-1.71,1.86Z"/><path class="a665863b-a5c2-43b3-b8cb-e37392551c06" d="M384.88,58.07a2.92,2.92,0,0,1,2.92,3.16,3,3,0,0,1-2.92,3.2,2.65,2.65,0,0,1-2.3-1.24v4.06h-1V58.17h1v1.14A2.59,2.59,0,0,1,384.88,58.07Zm-.22.89a2.29,2.29,0,1,0,2.09,2.27A2.08,2.08,0,0,0,384.66,59Z"/><path class="a665863b-a5c2-43b3-b8cb-e37392551c06" d="M390.2,64.33h-1V58.17h1v1a2.08,2.08,0,0,1,2-1.11v1.06h-.27c-1,0-1.72.43-1.72,1.86Z"/><path class="a665863b-a5c2-43b3-b8cb-e37392551c06" d="M395.88,64.43a3,3,0,0,1-3.05-3.19,2.94,2.94,0,0,1,3.05-3.17A2.82,2.82,0,0,1,398.83,61a6.13,6.13,0,0,1,0,.62h-4.92a1.93,1.93,0,0,0,2,1.93,1.7,1.7,0,0,0,1.73-1.13h1.1A2.78,2.78,0,0,1,395.88,64.43Zm-2-3.63h3.88a1.8,1.8,0,0,0-1.94-1.86A1.9,1.9,0,0,0,393.89,60.8Z"/><path class="a665863b-a5c2-43b3-b8cb-e37392551c06" d="M400.31,59h-.79v-.85h.79V56.62h1v1.55h1.61V59h-1.61v3.62c0,.61.23.82.86.82h.75v.87H402c-1.09,0-1.71-.45-1.71-1.69Z"/><path class="a665863b-a5c2-43b3-b8cb-e37392551c06" d="M406.49,58.07a2.55,2.55,0,0,1,2.29,1.23V58.17h1v6.16h-1V63.18a2.58,2.58,0,0,1-2.3,1.25,3,3,0,0,1-2.91-3.2A2.92,2.92,0,0,1,406.49,58.07Zm.2.89a2.07,2.07,0,0,0-2.07,2.27A2.09,2.09,0,1,0,406.69,59Z"/><path class="a665863b-a5c2-43b3-b8cb-e37392551c06" d="M414.2,58.07A2.68,2.68,0,0,1,417,60.15h-1.1a1.67,1.67,0,0,0-1.74-1.21c-1.13,0-2,.79-2,2.3s.83,2.32,2,2.32a1.65,1.65,0,0,0,1.74-1.21H417a2.74,2.74,0,0,1-2.84,2.08,3.19,3.19,0,0,1,0-6.36Z"/><path class="a665863b-a5c2-43b3-b8cb-e37392551c06" d="M418.2,56.48a.69.69,0,0,1,.7-.7.7.7,0,0,1,0,1.39A.69.69,0,0,1,418.2,56.48Zm.17,1.69h1v6.16h-1Z"/><path class="a665863b-a5c2-43b3-b8cb-e37392551c06" d="M423.81,64.43A3.18,3.18,0,1,1,427,61.24,3.06,3.06,0,0,1,423.81,64.43Zm0-.9a2.09,2.09,0,0,0,2.11-2.29A2.07,2.07,0,0,0,423.85,59a2.3,2.3,0,0,0,0,4.57ZM425,55.47v.88l-2.39,1.28v-.76Z"/><path class="a665863b-a5c2-43b3-b8cb-e37392551c06" d="M432.86,60.85a1.66,1.66,0,0,0-1.72-1.9c-1.05,0-1.77.65-1.77,2v3.41h-1V58.17h1v.88a2.29,2.29,0,0,1,2-1,2.39,2.39,0,0,1,2.52,2.64v3.63h-1Z"/><ellipse class="bc288722-d88e-4d3f-841b-fabcd4090e82" cx="394.83" cy="62.78" rx="62.84" ry="33.41"/><polygon class="f67ab83b-3ac5-4408-9a87-42c1d71dac5a" points="331 62.78 324.88 59.25 324.88 66.32 331 62.78"/></svg>