<svg xmlns="http://www.w3.org/2000/svg" viewBox="0 0 468.69 143.62"><defs><style>.a,.aq,.b{fill:none;stroke-width:1.87px;}.a{stroke:#b3b3b3;}.a,.aq{stroke-linecap:round;stroke-linejoin:round;}.aq,.b{stroke:#5f9eb5;}.b{stroke-miterlimit:10;}.c{font-size:11.23px;fill:#272b31;font-family:Poppins-Regular, Poppins;}.d{letter-spacing:-0.01em;}.e{letter-spacing:0.01em;}.f{letter-spacing:0em;}.g{letter-spacing:0em;}.h{letter-spacing:0em;}.i{letter-spacing:0em;}.j{letter-spacing:0em;}.k{letter-spacing:-0.01em;}.l{letter-spacing:0em;}.m{letter-spacing:0em;}.n{letter-spacing:0.01em;}.o{letter-spacing:0em;}.p{letter-spacing:-0.02em;}.q{letter-spacing:0em;}.r{letter-spacing:-0.01em;}.s{letter-spacing:-0.03em;}.t{letter-spacing:-0.01em;}.u{letter-spacing:0em;}.v{letter-spacing:-0.01em;}.w{letter-spacing:-0.08em;}.x{letter-spacing:-0.01em;}.y{letter-spacing:-0.01em;}.z{letter-spacing:-0.03em;}.aa{letter-spacing:-0.01em;}.ab{letter-spacing:-0.01em;}.ac{letter-spacing:0em;}.ad{letter-spacing:-0.01em;}.ae{letter-spacing:-0.01em;}.af{letter-spacing:0em;}.ag{letter-spacing:-0.02em;}.ah{letter-spacing:-0.01em;}.ai{letter-spacing:-0.02em;}.aj{letter-spacing:0em;}.ak{letter-spacing:-0.01em;}.al{letter-spacing:-0.01em;}.am{letter-spacing:-0.01em;}.an{letter-spacing:-0.02em;}.ao{letter-spacing:0em;}.ap{letter-spacing:0em;}.ar{fill:#b3b3b3;}</style></defs><line class="a" x1="209.67" y1="66.66" x2="327.43" y2="66.66"/><rect class="b" x="9.06" y="9" width="200.61" height="126.15" rx="19.87"/><text class="c" transform="translate(43.89 30.55)"><tspan class="d">R</tspan><tspan class="e" x="6.66" y="0">e</tspan><tspan class="f" x="13.69" y="0">c</tspan><tspan class="g" x="20.48" y="0">ol</tspan><tspan class="e" x="30.49" y="0">e</tspan><tspan class="h" x="37.52" y="0">cc</tspan><tspan class="i" x="51.11" y="0">i</tspan><tspan class="j" x="53.86" y="0">ó</tspan><tspan x="61.09" y="0">n y </tspan><tspan class="k" x="80.6" y="0">A</tspan><tspan class="l" x="88.07" y="0">n</tspan><tspan x="95.28" y="0">á</tspan><tspan class="m" x="102.88" y="0">l</tspan><tspan class="f" x="105.63" y="0">i</tspan><tspan x="108.37" y="0">s</tspan><tspan class="f" x="114.23" y="0">i</tspan><tspan x="116.97" y="0">s</tspan><tspan class="j" x="-1.99" y="16.85">d</tspan><tspan x="5.64" y="16.85">e </tspan><tspan class="n" x="15.6" y="16.85">D</tspan><tspan class="o" x="23.64" y="16.85">a</tspan><tspan class="p" x="31.23" y="16.85">t</tspan><tspan class="q" x="35.07" y="16.85">o</tspan><tspan x="42.24" y="16.85">s </tspan><tspan class="r" x="51.11" y="16.85">C</tspan><tspan class="s" x="59.67" y="16.85">U</tspan><tspan class="t" x="66.91" y="16.85">A</tspan><tspan class="u" x="74.38" y="16.85">L</tspan><tspan class="v" x="79.19" y="16.85">I</tspan><tspan class="w" x="81.82" y="16.85">TA</tspan><tspan class="x" x="93.6" y="16.85">T</tspan><tspan class="y" x="99.55" y="16.85">I</tspan><tspan class="z" x="102.25" y="16.85">V</tspan><tspan class="aa" x="109.47" y="16.85">O</tspan><tspan x="118.23" y="16.85">S</tspan></text><rect class="b" x="28.77" y="66.66" width="152.38" height="54.85" rx="11.42"/><text class="c" transform="translate(43.89 88.22)"><tspan class="d">R</tspan><tspan class="e" x="6.66" y="0">e</tspan><tspan class="f" x="13.69" y="0">c</tspan><tspan class="g" x="20.48" y="0">ol</tspan><tspan class="e" x="30.49" y="0">e</tspan><tspan class="h" x="37.52" y="0">cc</tspan><tspan class="i" x="51.11" y="0">i</tspan><tspan class="j" x="53.86" y="0">ó</tspan><tspan x="61.09" y="0">n y </tspan><tspan class="k" x="80.6" y="0">A</tspan><tspan class="l" x="88.07" y="0">n</tspan><tspan x="95.28" y="0">á</tspan><tspan class="m" x="102.88" y="0">l</tspan><tspan class="f" x="105.63" y="0">i</tspan><tspan x="108.37" y="0">s</tspan><tspan class="f" x="114.23" y="0">i</tspan><tspan x="116.97" y="0">s</tspan><tspan class="j" x="-2.38" y="16.85">d</tspan><tspan x="5.25" y="16.85">e </tspan><tspan class="n" x="15.22" y="16.85">D</tspan><tspan class="o" x="23.25" y="16.85">a</tspan><tspan class="p" x="30.84" y="16.85">t</tspan><tspan class="q" x="34.68" y="16.85">o</tspan><tspan x="41.86" y="16.85">s </tspan><tspan class="ab" x="50.72" y="16.85">C</tspan><tspan class="g" x="59.27" y="16.85">u</tspan><tspan class="ac" x="66.49" y="16.85">a</tspan><tspan class="ad" x="74.09" y="16.85">n</tspan><tspan class="ae" x="81.19" y="16.85">t</tspan><tspan class="af" x="85.17" y="16.85">i</tspan><tspan class="ag" x="87.88" y="16.85">t</tspan><tspan class="o" x="91.75" y="16.85">a</tspan><tspan class="ah" x="99.34" y="16.85">t</tspan><tspan x="103.32" y="16.85">i</tspan><tspan class="ai" x="106.08" y="16.85">v</tspan><tspan class="q" x="112.17" y="16.85">o</tspan><tspan x="119.34" y="16.85">s</tspan></text><text class="c" transform="translate(357.76 68.2)"><tspan class="aj">I</tspan><tspan class="ad" x="2.8" y="0">n</tspan><tspan class="ag" x="9.9" y="0">t</tspan><tspan class="j" x="13.77" y="0">e</tspan><tspan class="ak" x="20.77" y="0">r</tspan><tspan class="j" x="24.88" y="0">p</tspan><tspan class="al" x="32.5" y="0">r</tspan><tspan class="am" x="36.54" y="0">e</tspan><tspan class="an" x="43.41" y="0">t</tspan><tspan class="j" x="47.27" y="0">a</tspan><tspan class="ao" x="54.9" y="0">c</tspan><tspan class="ap" x="61.69" y="0">i</tspan><tspan class="j" x="64.45" y="0">ó</tspan><tspan x="71.67" y="0">n</tspan></text><ellipse class="aq" cx="396.78" cy="66.66" rx="62.84" ry="33.41"/><polygon class="ar" points="332.95 66.66 326.83 63.13 326.83 70.19 332.95 66.66"/></svg>