<svg xmlns="http://www.w3.org/2000/svg" xmlns:xlink="http://www.w3.org/1999/xlink" viewBox="0 0 473.35 148.99"><defs><style>.a,.e,.f{fill:none;}.b{isolation:isolate;}.c{clip-path:url(#a);}.d{opacity:0.3;mix-blend-mode:multiply;fill:url(#b);}.e{stroke:#b3b3b3;stroke-linecap:round;stroke-linejoin:round;}.e,.f{stroke-width:1.87px;}.f{stroke:#5f9eb5;stroke-miterlimit:10;}.g{font-size:11.23px;fill:#272b31;font-family:Poppins-Regular, Poppins;}.h{letter-spacing:-0.01em;}.i{letter-spacing:0.01em;}.j{letter-spacing:0em;}.k{letter-spacing:0em;}.l{letter-spacing:0em;}.m{letter-spacing:0em;}.n{letter-spacing:0em;}.o{letter-spacing:-0.01em;}.p{letter-spacing:0em;}.q{letter-spacing:0em;}.r{letter-spacing:0.01em;}.s{letter-spacing:0em;}.t{letter-spacing:-0.02em;}.u{letter-spacing:0em;}.v{letter-spacing:-0.01em;}.w{letter-spacing:0em;}.x{letter-spacing:-0.02em;}.y{letter-spacing:-0.01em;}.z{letter-spacing:-0.02em;}.aa{letter-spacing:0em;}.ab{letter-spacing:-0.01em;}.ac{letter-spacing:-0.01em;}.ad{letter-spacing:-0.01em;}.ae{letter-spacing:0em;}.af{letter-spacing:-0.01em;}.ag{letter-spacing:0em;}.ah{letter-spacing:0em;}.ai{letter-spacing:-0.01em;}.aj{letter-spacing:0em;}.ak{letter-spacing:0em;}.al{letter-spacing:0em;}.am{letter-spacing:-0.01em;}.an{letter-spacing:-0.01em;}.ao{letter-spacing:-0.02em;}.ap{letter-spacing:0em;}.aq{fill:#b3b3b3;}</style><clipPath id="a"><rect class="a" x="582.46" y="-1074.68" width="1366" height="1529.63"/></clipPath><linearGradient id="b" x1="397.93" y1="202.78" x2="950.38" y2="755.23" gradientUnits="userSpaceOnUse"><stop offset="0" stop-color="#272b31" stop-opacity="0"/><stop offset="0.02" stop-color="#272b31" stop-opacity="0.04"/><stop offset="0.4" stop-color="#272b31" stop-opacity="0.57"/><stop offset="0.73" stop-color="#272b31" stop-opacity="0.89"/><stop offset="1" stop-color="#272b31"/></linearGradient></defs><g class="b"><g class="c"><circle class="d" cx="674.16" cy="479" r="390.64"/></g><path class="e" d="M163.17,123.85h73.74a12.51,12.51,0,0,0,12.5-12.51"/><path class="e" d="M163.17,27h73.74A12.51,12.51,0,0,1,249,36.23"/><rect class="f" x="10.79" y="9.03" width="152.38" height="54.85" rx="11.42"/><text class="g" transform="translate(25.91 30.59)"><tspan class="h">R</tspan><tspan class="i" x="6.66" y="0">e</tspan><tspan class="j" x="13.69" y="0">c</tspan><tspan class="k" x="20.48" y="0">ol</tspan><tspan class="i" x="30.49" y="0">e</tspan><tspan class="l" x="37.52" y="0">cc</tspan><tspan class="m" x="51.11" y="0">i</tspan><tspan class="n" x="53.86" y="0">ó</tspan><tspan x="61.09" y="0">n y </tspan><tspan class="o" x="80.6" y="0">A</tspan><tspan class="p" x="88.07" y="0">n</tspan><tspan x="95.28" y="0">á</tspan><tspan class="q" x="102.88" y="0">l</tspan><tspan class="j" x="105.63" y="0">i</tspan><tspan x="108.37" y="0">s</tspan><tspan class="j" x="114.23" y="0">i</tspan><tspan x="116.97" y="0">s</tspan><tspan class="n" x="1.79" y="16.85">d</tspan><tspan x="9.42" y="16.85">e </tspan><tspan class="r" x="19.38" y="16.85">D</tspan><tspan class="s" x="27.42" y="16.85">a</tspan><tspan class="t" x="35" y="16.85">t</tspan><tspan class="u" x="38.85" y="16.85">o</tspan><tspan x="46.02" y="16.85">s </tspan><tspan class="v" x="54.88" y="16.85">C</tspan><tspan class="k" x="63.44" y="16.85">u</tspan><tspan x="70.66" y="16.85">a</tspan><tspan class="q" x="78.25" y="16.85">l</tspan><tspan class="w" x="81.01" y="16.85">i</tspan><tspan class="x" x="83.72" y="16.85">t</tspan><tspan class="s" x="87.58" y="16.85">a</tspan><tspan class="y" x="95.17" y="16.85">t</tspan><tspan x="99.15" y="16.85">i</tspan><tspan class="z" x="101.92" y="16.85">v</tspan><tspan class="u" x="108" y="16.85">o</tspan><tspan x="115.18" y="16.85">s</tspan></text><rect class="f" x="10.79" y="83.38" width="152.38" height="54.85" rx="11.42"/><text class="g" transform="translate(25.91 104.94)"><tspan class="h">R</tspan><tspan class="i" x="6.66" y="0">e</tspan><tspan class="j" x="13.69" y="0">c</tspan><tspan class="k" x="20.48" y="0">ol</tspan><tspan class="i" x="30.49" y="0">e</tspan><tspan class="l" x="37.52" y="0">cc</tspan><tspan class="m" x="51.11" y="0">i</tspan><tspan class="n" x="53.86" y="0">ó</tspan><tspan x="61.09" y="0">n y </tspan><tspan class="o" x="80.6" y="0">A</tspan><tspan class="p" x="88.07" y="0">n</tspan><tspan x="95.28" y="0">á</tspan><tspan class="q" x="102.88" y="0">l</tspan><tspan class="j" x="105.63" y="0">i</tspan><tspan x="108.37" y="0">s</tspan><tspan class="j" x="114.23" y="0">i</tspan><tspan x="116.97" y="0">s</tspan><tspan class="n" x="-2.38" y="16.85">d</tspan><tspan x="5.25" y="16.85">e </tspan><tspan class="r" x="15.22" y="16.85">D</tspan><tspan class="s" x="23.25" y="16.85">a</tspan><tspan class="t" x="30.84" y="16.85">t</tspan><tspan class="u" x="34.68" y="16.85">o</tspan><tspan x="41.86" y="16.85">s </tspan><tspan class="v" x="50.72" y="16.85">C</tspan><tspan class="k" x="59.27" y="16.85">u</tspan><tspan class="aa" x="66.49" y="16.85">a</tspan><tspan class="ab" x="74.09" y="16.85">n</tspan><tspan class="ac" x="81.19" y="16.85">t</tspan><tspan class="w" x="85.17" y="16.85">i</tspan><tspan class="x" x="87.88" y="16.85">t</tspan><tspan class="s" x="91.75" y="16.85">a</tspan><tspan class="y" x="99.34" y="16.85">t</tspan><tspan x="103.32" y="16.85">i</tspan><tspan class="z" x="106.08" y="16.85">v</tspan><tspan class="u" x="112.17" y="16.85">o</tspan><tspan x="119.34" y="16.85">s</tspan></text><line class="e" x1="312.25" y1="75.04" x2="329.16" y2="75.04"/><text class="g" transform="translate(210.67 69.09)"><tspan class="ad">C</tspan><tspan class="n" x="8.6" y="0">om</tspan><tspan class="i" x="27.43" y="0">p</tspan><tspan class="ae" x="35.09" y="0">a</tspan><tspan class="af" x="42.69" y="0">r</tspan><tspan class="n" x="46.72" y="0">a</tspan><tspan class="ag" x="54.35" y="0">c</tspan><tspan class="ah" x="61.14" y="0">i</tspan><tspan class="n" x="63.9" y="0">ó</tspan><tspan x="71.12" y="0">n </tspan><tspan x="7.81" y="16.85">y </tspan><tspan class="j" x="17.13" y="16.85">c</tspan><tspan class="n" x="23.92" y="16.85">o</tspan><tspan class="ab" x="31.14" y="16.85">n</tspan><tspan class="y" x="38.24" y="16.85">t</tspan><tspan class="ai" x="42.22" y="16.85">r</tspan><tspan class="aj" x="46.25" y="16.85">a</tspan><tspan class="ak" x="53.86" y="16.85">s</tspan><tspan class="x" x="59.68" y="16.85">t</tspan><tspan x="63.54" y="16.85">e</tspan></text><ellipse class="f" cx="249.41" cy="75.04" rx="62.84" ry="33.41"/><text class="g" transform="translate(359.5 76.58)"><tspan class="al">I</tspan><tspan class="ab" x="2.8" y="0">n</tspan><tspan class="x" x="9.9" y="0">t</tspan><tspan class="n" x="13.77" y="0">e</tspan><tspan class="am" x="20.77" y="0">r</tspan><tspan class="n" x="24.88" y="0">p</tspan><tspan class="af" x="32.5" y="0">r</tspan><tspan class="an" x="36.54" y="0">e</tspan><tspan class="ao" x="43.41" y="0">t</tspan><tspan class="n" x="47.27" y="0">a</tspan><tspan class="ap" x="54.9" y="0">c</tspan><tspan class="ah" x="61.69" y="0">i</tspan><tspan class="n" x="64.45" y="0">ó</tspan><tspan x="71.67" y="0">n</tspan></text><ellipse class="f" cx="398.51" cy="75.04" rx="62.84" ry="33.41"/><polygon class="aq" points="249.82 109.37 245.16 114.68 252.09 116.06 249.82 109.37"/><polygon class="aq" points="249.57 40.69 244.92 35.37 251.85 34 249.57 40.69"/><polygon class="aq" points="334.68 75.04 328.56 71.5 328.56 78.57 334.68 75.04"/></g></svg>