<svg id="f62b695b-ab74-4a91-b5f9-66a320087a95" data-name="Capa 1" xmlns="http://www.w3.org/2000/svg" viewBox="0 0 467.29 366.77"><defs><style>.b71b619b-674a-4fcb-81c5-b9fb32cf8bec,.bf670eae-746f-43fd-9b10-febf9d8cd9dc,.ea70acac-3930-4063-98d1-0819499f1902{fill:none;stroke-width:1.87px;}.bf670eae-746f-43fd-9b10-febf9d8cd9dc{stroke:#b3b3b3;}.bf670eae-746f-43fd-9b10-febf9d8cd9dc,.ea70acac-3930-4063-98d1-0819499f1902{stroke-linecap:round;stroke-linejoin:round;}.b71b619b-674a-4fcb-81c5-b9fb32cf8bec,.ea70acac-3930-4063-98d1-0819499f1902{stroke:#e7514f;}.b71b619b-674a-4fcb-81c5-b9fb32cf8bec{stroke-miterlimit:10;}.a864656f-7425-4c34-b572-03b775ac6773{fill:#272b31;}.ae41425d-fe40-4572-81be-08b4ed67e0bf{fill:#b3b3b3;}</style></defs><line class="bf670eae-746f-43fd-9b10-febf9d8cd9dc" x1="134.9" y1="39.86" x2="163.7" y2="39.86"/><rect class="b71b619b-674a-4fcb-81c5-b9fb32cf8bec" x="7.55" y="7.27" width="127.35" height="70.47" rx="11.83"/><line class="bf670eae-746f-43fd-9b10-febf9d8cd9dc" x1="395.68" y1="77.73" x2="395.68" y2="95.64"/><rect class="b71b619b-674a-4fcb-81c5-b9fb32cf8bec" x="330.65" y="7.27" width="127.35" height="70.47" rx="11.83"/><path class="a864656f-7425-4c34-b572-03b775ac6773" d="M40.82,21c1.84,0,2.72,1,2.72,2.31a2.2,2.2,0,0,1-1.87,2.24l2,3.28H42.41l-1.86-3.2H39.31v3.2h-1V21Zm0,.85H39.31v3h1.51c1.15,0,1.66-.63,1.66-1.5S42,21.84,40.82,21.84Z"/><path class="a864656f-7425-4c34-b572-03b775ac6773" d="M47.62,28.92a3,3,0,0,1-3-3.19,2.93,2.93,0,0,1,3-3.16,2.82,2.82,0,0,1,3,2.94c0,.22,0,.4,0,.62H45.62a1.93,1.93,0,0,0,2,1.93,1.67,1.67,0,0,0,1.72-1.14h1.11A2.77,2.77,0,0,1,47.62,28.92Zm-2-3.63h3.88a1.8,1.8,0,0,0-1.94-1.86A1.9,1.9,0,0,0,45.63,25.29Z"/><path class="a864656f-7425-4c34-b572-03b775ac6773" d="M54.6,22.57a2.66,2.66,0,0,1,2.84,2.07h-1.1a1.67,1.67,0,0,0-1.74-1.21c-1.12,0-2,.8-2,2.3s.84,2.33,2,2.33a1.65,1.65,0,0,0,1.74-1.22h1.1a2.73,2.73,0,0,1-2.84,2.08,2.93,2.93,0,0,1-3-3.19A2.92,2.92,0,0,1,54.6,22.57Z"/><path class="a864656f-7425-4c34-b572-03b775ac6773" d="M61.45,28.92a3,3,0,0,1-3.06-3.19,3.11,3.11,0,1,1,6.22,0A3,3,0,0,1,61.45,28.92Zm0-.9a2.09,2.09,0,0,0,2.12-2.29,2.07,2.07,0,0,0-2.08-2.28,2,2,0,0,0-2.06,2.28A2,2,0,0,0,61.45,28Z"/><path class="a864656f-7425-4c34-b572-03b775ac6773" d="M66,20.51h1v8.31H66Z"/><path class="a864656f-7425-4c34-b572-03b775ac6773" d="M71.44,28.92a3,3,0,0,1-3-3.19,2.93,2.93,0,0,1,3-3.16,2.82,2.82,0,0,1,3,2.94c0,.22,0,.4,0,.62H69.44a1.94,1.94,0,0,0,2,1.93,1.68,1.68,0,0,0,1.73-1.14h1.1A2.75,2.75,0,0,1,71.44,28.92Zm-2-3.63h3.89a1.8,1.8,0,0,0-1.94-1.86A1.91,1.91,0,0,0,69.45,25.29Z"/><path class="a864656f-7425-4c34-b572-03b775ac6773" d="M78.43,22.57a2.68,2.68,0,0,1,2.84,2.07h-1.1a1.68,1.68,0,0,0-1.74-1.21c-1.13,0-2,.8-2,2.3s.83,2.33,2,2.33a1.65,1.65,0,0,0,1.74-1.22h1.1a2.74,2.74,0,0,1-2.84,2.08,2.93,2.93,0,0,1-3-3.19A2.92,2.92,0,0,1,78.43,22.57Z"/><path class="a864656f-7425-4c34-b572-03b775ac6773" d="M85.22,22.57a2.66,2.66,0,0,1,2.84,2.07H87a1.67,1.67,0,0,0-1.74-1.21c-1.12,0-2,.8-2,2.3s.83,2.33,2,2.33A1.65,1.65,0,0,0,87,26.84h1.1a2.73,2.73,0,0,1-2.84,2.08,2.93,2.93,0,0,1-3-3.19A2.92,2.92,0,0,1,85.22,22.57Z"/><path class="a864656f-7425-4c34-b572-03b775ac6773" d="M89.23,21a.69.69,0,1,1,.7.7A.69.69,0,0,1,89.23,21Zm.17,1.7h1v6.15h-1Z"/><path class="a864656f-7425-4c34-b572-03b775ac6773" d="M94.84,28.92a3,3,0,0,1-3.07-3.19,3.12,3.12,0,1,1,6.23,0A3.05,3.05,0,0,1,94.84,28.92Zm0-.9A2.09,2.09,0,0,0,97,25.73a2.07,2.07,0,0,0-2.08-2.28,2,2,0,0,0-2.05,2.28A2,2,0,0,0,94.84,28ZM96,20v.89l-2.39,1.28v-.77Z"/><path class="a864656f-7425-4c34-b572-03b775ac6773" d="M103.88,25.34c0-1.26-.68-1.9-1.72-1.9s-1.76.65-1.76,2v3.4h-1V22.67h1v.87a2.29,2.29,0,0,1,2-1,2.39,2.39,0,0,1,2.51,2.64v3.63h-1Z"/><path class="a864656f-7425-4c34-b572-03b775ac6773" d="M24.35,39.52h1.06l-3.71,9H20.64l1.22-3-2.49-6.09h1.14l1.93,5Z"/><path class="a864656f-7425-4c34-b572-03b775ac6773" d="M34.06,43.93H30.64L30,45.67H28.93l2.83-7.78h1.18l2.82,7.78H34.68Zm-1.71-4.78-1.42,4h2.83Z"/><path class="a864656f-7425-4c34-b572-03b775ac6773" d="M41.4,42.19c0-1.26-.68-1.9-1.72-1.9s-1.76.65-1.76,2v3.4h-1V39.52h1v.87a2.28,2.28,0,0,1,2-1,2.38,2.38,0,0,1,2.51,2.64v3.62h-1Z"/><path class="a864656f-7425-4c34-b572-03b775ac6773" d="M46.65,39.42a2.56,2.56,0,0,1,2.29,1.22V39.52h1v6.15h-1V44.53a2.57,2.57,0,0,1-2.3,1.24,3,3,0,0,1-2.91-3.2A2.91,2.91,0,0,1,46.65,39.42Zm.2.88a2.08,2.08,0,0,0-2.08,2.27,2.09,2.09,0,1,0,2.08-2.27Zm1.29-3.41v.89l-2.39,1.28v-.77Z"/><path class="a864656f-7425-4c34-b572-03b775ac6773" d="M51.71,37.36h1v8.31h-1Z"/><path class="a864656f-7425-4c34-b572-03b775ac6773" d="M54.29,37.82a.69.69,0,0,1,.7-.69.7.7,0,0,1,0,1.39A.69.69,0,0,1,54.29,37.82Zm.17,1.7h1v6.15h-1Z"/><path class="a864656f-7425-4c34-b572-03b775ac6773" d="M59.37,45.77a2.24,2.24,0,0,1-2.51-1.91h1c.06.6.59,1,1.45,1s1.26-.41,1.26-.91c0-1.37-3.64-.57-3.64-2.86,0-1,.89-1.72,2.26-1.72a2.06,2.06,0,0,1,2.32,1.93h-1a1.18,1.18,0,0,0-1.33-1.07c-.76,0-1.21.36-1.21.86,0,1.46,3.58.66,3.62,2.86C61.62,45,60.73,45.77,59.37,45.77Z"/><path class="a864656f-7425-4c34-b572-03b775ac6773" d="M62.89,37.82a.69.69,0,1,1,.7.7A.68.68,0,0,1,62.89,37.82Zm.17,1.7h1v6.15h-1Z"/><path class="a864656f-7425-4c34-b572-03b775ac6773" d="M68,45.77c-1.44,0-2.45-.78-2.51-1.91h1.05c.06.6.59,1,1.45,1s1.26-.41,1.26-.91c0-1.37-3.64-.57-3.64-2.86,0-1,.89-1.72,2.26-1.72a2.06,2.06,0,0,1,2.32,1.93h-1a1.19,1.19,0,0,0-1.34-1.07c-.75,0-1.2.36-1.2.86,0,1.46,3.57.66,3.62,2.86C70.22,45,69.33,45.77,68,45.77Z"/><path class="a864656f-7425-4c34-b572-03b775ac6773" d="M77.21,39.42a2.69,2.69,0,0,1,2.28,1.2V37.36h1v8.31h-1V44.52a2.53,2.53,0,0,1-2.29,1.25,3,3,0,0,1-2.92-3.2A2.91,2.91,0,0,1,77.21,39.42Zm.19.88a2.08,2.08,0,0,0-2.08,2.27A2.09,2.09,0,1,0,77.4,40.3Z"/><path class="a864656f-7425-4c34-b572-03b775ac6773" d="M85,45.77a3,3,0,0,1-3-3.19,2.92,2.92,0,0,1,3-3.16,2.82,2.82,0,0,1,3,2.94c0,.22,0,.4,0,.62H83a1.94,1.94,0,0,0,2,1.93,1.7,1.7,0,0,0,1.73-1.13h1.1A2.77,2.77,0,0,1,85,45.77Zm-2-3.62h3.89a1.81,1.81,0,0,0-1.95-1.87A1.9,1.9,0,0,0,83,42.15Z"/><path class="a864656f-7425-4c34-b572-03b775ac6773" d="M98.84,41.78c0,2.42-1.58,3.89-4.15,3.89H92.25V37.85h2.44C97.26,37.85,98.84,39.35,98.84,41.78Zm-4.15,3a2.79,2.79,0,0,0,3.11-3,2.82,2.82,0,0,0-3.11-3.1H93.27v6.15Z"/><path class="a864656f-7425-4c34-b572-03b775ac6773" d="M102.83,39.42a2.56,2.56,0,0,1,2.29,1.22V39.52h1v6.15h-1V44.53a2.58,2.58,0,0,1-2.31,1.24,3,3,0,0,1-2.9-3.2A2.91,2.91,0,0,1,102.83,39.42Zm.2.88A2.08,2.08,0,0,0,101,42.57,2.09,2.09,0,1,0,103,40.3Z"/><path class="a864656f-7425-4c34-b572-03b775ac6773" d="M108.1,40.36h-.8v-.84h.8V38h1v1.55h1.61v.84h-1.61V44c0,.6.23.82.86.82h.75v.86h-.92c-1.09,0-1.71-.45-1.71-1.68Z"/><path class="a864656f-7425-4c34-b572-03b775ac6773" d="M114.4,45.77a3.18,3.18,0,1,1,3.16-3.19A3.05,3.05,0,0,1,114.4,45.77Zm0-.89a2.09,2.09,0,0,0,2.11-2.3,2.07,2.07,0,0,0-2.07-2.28,2,2,0,0,0-2.06,2.28A2,2,0,0,0,114.4,44.88Z"/><path class="a864656f-7425-4c34-b572-03b775ac6773" d="M121.07,45.77c-1.44,0-2.45-.78-2.51-1.91h1c.06.6.59,1,1.45,1s1.26-.41,1.26-.91c0-1.37-3.64-.57-3.64-2.86,0-1,.89-1.72,2.26-1.72a2.06,2.06,0,0,1,2.32,1.93h-1a1.19,1.19,0,0,0-1.34-1.07c-.75,0-1.2.36-1.2.86,0,1.46,3.57.66,3.62,2.86C123.32,45,122.43,45.77,121.07,45.77Z"/><path class="a864656f-7425-4c34-b572-03b775ac6773" d="M42.88,54.6A3.67,3.67,0,0,1,46.5,57H45.28a2.46,2.46,0,0,0-2.4-1.48,3.12,3.12,0,0,0,0,6.22,2.48,2.48,0,0,0,2.4-1.46H46.5a3.67,3.67,0,0,1-3.62,2.34,4,4,0,0,1,0-8Z"/><path class="a864656f-7425-4c34-b572-03b775ac6773" d="M53.36,62.53h-1v-.91a2.26,2.26,0,0,1-2,1A2.39,2.39,0,0,1,47.85,60V56.37h1v3.47a1.65,1.65,0,0,0,1.72,1.89c1.05,0,1.76-.65,1.76-2V56.37h1Z"/><path class="a864656f-7425-4c34-b572-03b775ac6773" d="M57.66,56.27A2.55,2.55,0,0,1,60,57.49V56.37h1v6.16H60V61.38a2.58,2.58,0,0,1-2.3,1.25,3,3,0,0,1-2.91-3.2A2.92,2.92,0,0,1,57.66,56.27Zm.2.89a2.07,2.07,0,0,0-2.07,2.27,2.09,2.09,0,1,0,2.07-2.27Z"/><path class="a864656f-7425-4c34-b572-03b775ac6773" d="M62.72,54.21h1v8.32h-1Z"/><path class="a864656f-7425-4c34-b572-03b775ac6773" d="M65.31,54.67a.69.69,0,1,1,.69.7A.68.68,0,0,1,65.31,54.67Zm.16,1.7h1v6.16h-1Z"/><path class="a864656f-7425-4c34-b572-03b775ac6773" d="M68.41,57.21h-.8v-.84h.8V54.82h1v1.55H71v.84H69.43v3.63c0,.61.23.82.86.82H71v.87h-.92c-1.09,0-1.71-.45-1.71-1.69Z"/><path class="a864656f-7425-4c34-b572-03b775ac6773" d="M74.59,56.27a2.55,2.55,0,0,1,2.29,1.22V56.37h1v6.16h-1V61.38a2.58,2.58,0,0,1-2.3,1.25,3,3,0,0,1-2.91-3.2A2.92,2.92,0,0,1,74.59,56.27Zm.2.89a2.08,2.08,0,0,0-2.08,2.27,2.09,2.09,0,1,0,2.08-2.27Z"/><path class="a864656f-7425-4c34-b572-03b775ac6773" d="M79.87,57.21h-.8v-.84h.8V54.82h1v1.55h1.6v.84h-1.6v3.63c0,.61.22.82.85.82h.75v.87h-.92c-1.09,0-1.7-.45-1.7-1.69Z"/><path class="a864656f-7425-4c34-b572-03b775ac6773" d="M83.45,54.67a.69.69,0,0,1,.7-.69.7.7,0,0,1,0,1.39A.69.69,0,0,1,83.45,54.67Zm.17,1.7h1v6.16h-1Z"/><path class="a864656f-7425-4c34-b572-03b775ac6773" d="M86.76,56.37l1.92,5.21,1.91-5.21h1.09l-2.42,6.16H88.07l-2.41-6.16Z"/><path class="a864656f-7425-4c34-b572-03b775ac6773" d="M95.16,62.63a3.18,3.18,0,1,1,3.15-3.19A3.05,3.05,0,0,1,95.16,62.63Zm0-.9a2.09,2.09,0,0,0,2.11-2.29,2.07,2.07,0,0,0-2.08-2.28,2.3,2.3,0,0,0,0,4.57Z"/><path class="a864656f-7425-4c34-b572-03b775ac6773" d="M101.83,62.63c-1.44,0-2.45-.79-2.52-1.91h1c.06.59.59,1,1.45,1s1.26-.4,1.26-.91c0-1.37-3.64-.57-3.64-2.86,0-1,.89-1.72,2.26-1.72A2.06,2.06,0,0,1,104,58.2h-1a1.18,1.18,0,0,0-1.33-1.07c-.76,0-1.21.36-1.21.86,0,1.46,3.58.66,3.62,2.86C104.07,61.86,103.18,62.63,101.83,62.63Z"/><path class="a864656f-7425-4c34-b572-03b775ac6773" d="M363.58,21.3c1.84,0,2.72,1,2.72,2.3a2.21,2.21,0,0,1-1.86,2.25l2,3.28h-1.22l-1.87-3.2h-1.23v3.2h-1V21.3Zm0,.84h-1.5v3h1.5c1.16,0,1.66-.63,1.66-1.51S364.75,22.14,363.58,22.14Z"/><path class="a864656f-7425-4c34-b572-03b775ac6773" d="M370.38,29.23a3,3,0,0,1-3-3.19,2.93,2.93,0,0,1,3-3.17,2.82,2.82,0,0,1,2.95,2.94,6.13,6.13,0,0,1,0,.62h-4.92a1.93,1.93,0,0,0,2,1.93,1.7,1.7,0,0,0,1.73-1.13h1.1A2.77,2.77,0,0,1,370.38,29.23Zm-2-3.63h3.89a1.81,1.81,0,0,0-1.95-1.86A1.9,1.9,0,0,0,368.39,25.6Z"/><path class="a864656f-7425-4c34-b572-03b775ac6773" d="M377.36,22.87A2.67,2.67,0,0,1,380.2,25h-1.1a1.67,1.67,0,0,0-1.74-1.21c-1.12,0-1.95.79-1.95,2.3s.83,2.32,1.95,2.32a1.64,1.64,0,0,0,1.74-1.21h1.1a2.74,2.74,0,0,1-2.84,2.08,2.94,2.94,0,0,1-3-3.19A2.93,2.93,0,0,1,377.36,22.87Z"/><path class="a864656f-7425-4c34-b572-03b775ac6773" d="M384.22,29.23A3,3,0,0,1,381.15,26a3.12,3.12,0,1,1,6.23,0A3.06,3.06,0,0,1,384.22,29.23Zm0-.9A2.09,2.09,0,0,0,386.33,26a2.07,2.07,0,0,0-2.08-2.28A2,2,0,0,0,382.2,26,2,2,0,0,0,384.22,28.33Z"/><path class="a864656f-7425-4c34-b572-03b775ac6773" d="M388.75,20.82h1v8.31h-1Z"/><path class="a864656f-7425-4c34-b572-03b775ac6773" d="M394.21,29.23a3,3,0,0,1-3-3.19,2.94,2.94,0,0,1,3-3.17,2.82,2.82,0,0,1,3,2.94,6.13,6.13,0,0,1,0,.62h-4.92a1.93,1.93,0,0,0,2,1.93,1.7,1.7,0,0,0,1.73-1.13H397A2.78,2.78,0,0,1,394.21,29.23Zm-2-3.63h3.88a1.79,1.79,0,0,0-1.94-1.86A1.9,1.9,0,0,0,392.22,25.6Z"/><path class="a864656f-7425-4c34-b572-03b775ac6773" d="M401.19,22.87A2.67,2.67,0,0,1,404,25h-1.1a1.67,1.67,0,0,0-1.74-1.21c-1.12,0-1.95.79-1.95,2.3s.83,2.32,1.95,2.32a1.64,1.64,0,0,0,1.74-1.21H404a2.74,2.74,0,0,1-2.84,2.08,2.94,2.94,0,0,1-3-3.19A2.93,2.93,0,0,1,401.19,22.87Z"/><path class="a864656f-7425-4c34-b572-03b775ac6773" d="M408,22.87A2.69,2.69,0,0,1,410.83,25h-1.1A1.68,1.68,0,0,0,408,23.74c-1.13,0-2,.79-2,2.3s.83,2.32,2,2.32a1.65,1.65,0,0,0,1.74-1.21h1.1A2.75,2.75,0,0,1,408,29.23,2.93,2.93,0,0,1,405,26,2.92,2.92,0,0,1,408,22.87Z"/><path class="a864656f-7425-4c34-b572-03b775ac6773" d="M412,21.28a.69.69,0,1,1,.69.69A.68.68,0,0,1,412,21.28Zm.16,1.69h1v6.16h-1Z"/><path class="a864656f-7425-4c34-b572-03b775ac6773" d="M417.6,29.23A3,3,0,0,1,414.54,26a3.11,3.11,0,1,1,6.22,0A3.05,3.05,0,0,1,417.6,29.23Zm0-.9A2.09,2.09,0,0,0,419.71,26a2.07,2.07,0,0,0-2.07-2.28A2,2,0,0,0,415.58,26,2,2,0,0,0,417.6,28.33Zm1.15-8.06v.88l-2.39,1.28v-.76Z"/><path class="a864656f-7425-4c34-b572-03b775ac6773" d="M426.65,25.65a1.66,1.66,0,0,0-1.72-1.9c-1.05,0-1.76.65-1.76,2v3.41h-1V23h1v.88a2.26,2.26,0,0,1,2-1,2.39,2.39,0,0,1,2.52,2.64v3.63h-1Z"/><path class="a864656f-7425-4c34-b572-03b775ac6773" d="M347.11,39.82h1.06l-3.71,9.06h-1l1.21-3-2.48-6.09h1.13l1.93,5Z"/><path class="a864656f-7425-4c34-b572-03b775ac6773" d="M356.82,44.24h-3.41L352.78,46H351.7l2.83-7.78h1.18L358.53,46h-1.08Zm-1.71-4.79-1.41,4h2.83Z"/><path class="a864656f-7425-4c34-b572-03b775ac6773" d="M364.17,42.5a1.66,1.66,0,0,0-1.72-1.9c-1,0-1.76.65-1.76,2V46h-1V39.82h1v.88a2.26,2.26,0,0,1,2-1,2.39,2.39,0,0,1,2.52,2.64V46h-1Z"/><path class="a864656f-7425-4c34-b572-03b775ac6773" d="M369.41,39.72A2.55,2.55,0,0,1,371.7,41V39.82h1V46h-1V44.83a2.55,2.55,0,0,1-2.3,1.25,3,3,0,0,1-2.91-3.2A2.92,2.92,0,0,1,369.41,39.72Zm.21.89a2.08,2.08,0,0,0-2.08,2.27,2.09,2.09,0,1,0,2.08-2.27Zm1.29-3.41v.88l-2.4,1.28V38.6Z"/><path class="a864656f-7425-4c34-b572-03b775ac6773" d="M374.47,37.67h1V46h-1Z"/><path class="a864656f-7425-4c34-b572-03b775ac6773" d="M377.06,38.13a.69.69,0,1,1,1.37,0,.69.69,0,1,1-1.37,0Zm.17,1.69h1V46h-1Z"/><path class="a864656f-7425-4c34-b572-03b775ac6773" d="M382.14,46.08c-1.44,0-2.45-.79-2.52-1.91h1.06c.06.6.58,1,1.45,1s1.26-.4,1.26-.9c0-1.37-3.64-.58-3.64-2.87,0-.94.88-1.72,2.25-1.72a2.07,2.07,0,0,1,2.33,1.93h-1A1.19,1.19,0,0,0,382,40.59c-.75,0-1.2.36-1.2.85,0,1.46,3.57.66,3.62,2.87C384.39,45.32,383.5,46.08,382.14,46.08Z"/><path class="a864656f-7425-4c34-b572-03b775ac6773" d="M385.66,38.13a.69.69,0,1,1,.69.69A.68.68,0,0,1,385.66,38.13Zm.17,1.69h1V46h-1Z"/><path class="a864656f-7425-4c34-b572-03b775ac6773" d="M390.74,46.08c-1.44,0-2.45-.79-2.52-1.91h1.06c.05.6.58,1,1.45,1s1.25-.4,1.25-.9c0-1.37-3.64-.58-3.64-2.87,0-.94.89-1.72,2.26-1.72a2.07,2.07,0,0,1,2.33,1.93h-1a1.19,1.19,0,0,0-1.34-1.06c-.75,0-1.2.36-1.2.85,0,1.46,3.57.66,3.61,2.87C393,45.32,392.1,46.08,390.74,46.08Z"/><path class="a864656f-7425-4c34-b572-03b775ac6773" d="M400,39.72a2.69,2.69,0,0,1,2.28,1.2V37.67h1V46h-1V44.82A2.52,2.52,0,0,1,400,46.08a3,3,0,0,1-2.92-3.2A2.92,2.92,0,0,1,400,39.72Zm.19.89a2.08,2.08,0,0,0-2.08,2.27,2.09,2.09,0,1,0,2.08-2.27Z"/><path class="a864656f-7425-4c34-b572-03b775ac6773" d="M407.71,46.08a3,3,0,0,1-3-3.19,2.93,2.93,0,0,1,3-3.17,2.83,2.83,0,0,1,3,3,4.08,4.08,0,0,1,0,.61h-4.92a1.94,1.94,0,0,0,2,1.93,1.69,1.69,0,0,0,1.73-1.13h1.1A2.77,2.77,0,0,1,407.71,46.08Zm-2-3.63h3.88a1.8,1.8,0,0,0-1.94-1.86A1.9,1.9,0,0,0,405.73,42.45Z"/><path class="a864656f-7425-4c34-b572-03b775ac6773" d="M421.61,42.08c0,2.43-1.58,3.9-4.16,3.9H415V38.15h2.43C420,38.15,421.61,39.66,421.61,42.08Zm-4.16,3.06a2.8,2.8,0,0,0,3.12-3.06,2.83,2.83,0,0,0-3.12-3.1H416v6.16Z"/><path class="a864656f-7425-4c34-b572-03b775ac6773" d="M425.59,39.72A2.55,2.55,0,0,1,427.88,41V39.82h1V46h-1V44.83a2.56,2.56,0,0,1-2.3,1.25,3,3,0,0,1-2.91-3.2A2.92,2.92,0,0,1,425.59,39.72Zm.2.89a2.08,2.08,0,0,0-2.08,2.27,2.09,2.09,0,1,0,2.08-2.27Z"/><path class="a864656f-7425-4c34-b572-03b775ac6773" d="M430.86,40.67h-.79v-.85h.79V38.27h1v1.55h1.6v.85h-1.6v3.62c0,.61.22.82.85.82h.75V46h-.92c-1.09,0-1.71-.45-1.71-1.69Z"/><path class="a864656f-7425-4c34-b572-03b775ac6773" d="M437.17,46.08a3.18,3.18,0,1,1,3.15-3.19A3.05,3.05,0,0,1,437.17,46.08Zm0-.9a2.09,2.09,0,0,0,2.11-2.29,2.07,2.07,0,0,0-2.08-2.28,2,2,0,0,0-2.05,2.28A2,2,0,0,0,437.17,45.18Z"/><path class="a864656f-7425-4c34-b572-03b775ac6773" d="M443.84,46.08c-1.44,0-2.45-.79-2.52-1.91h1.06c.05.6.58,1,1.45,1s1.25-.4,1.25-.9c0-1.37-3.64-.58-3.64-2.87,0-.94.89-1.72,2.26-1.72A2.07,2.07,0,0,1,446,41.65h-1a1.17,1.17,0,0,0-1.33-1.06c-.76,0-1.2.36-1.2.85,0,1.46,3.57.66,3.61,2.87C446.08,45.32,445.2,46.08,443.84,46.08Z"/><path class="a864656f-7425-4c34-b572-03b775ac6773" d="M361.48,54.9a3.68,3.68,0,0,1,3.62,2.37h-1.22a2.47,2.47,0,0,0-2.4-1.47,3.11,3.11,0,0,0,0,6.21,2.48,2.48,0,0,0,2.4-1.46h1.22a3.67,3.67,0,0,1-3.62,2.35,4,4,0,0,1,0-8Z"/><path class="a864656f-7425-4c34-b572-03b775ac6773" d="M372,62.83h-1v-.91a2.27,2.27,0,0,1-2,1,2.4,2.4,0,0,1-2.52-2.64v-3.6h1v3.47A1.65,1.65,0,0,0,369.18,62c1.05,0,1.76-.65,1.76-2V56.68h1Z"/><path class="a864656f-7425-4c34-b572-03b775ac6773" d="M376.26,56.58a2.55,2.55,0,0,1,2.29,1.22V56.68h1v6.15h-1V61.69a2.57,2.57,0,0,1-2.3,1.24,3,3,0,0,1-2.91-3.2A2.91,2.91,0,0,1,376.26,56.58Zm.2.88a2.08,2.08,0,0,0-2.08,2.27,2.09,2.09,0,1,0,2.08-2.27Z"/><path class="a864656f-7425-4c34-b572-03b775ac6773" d="M385.83,59.35a1.66,1.66,0,0,0-1.72-1.9c-1.05,0-1.77.65-1.77,2v3.4h-1V56.68h1v.87a2.29,2.29,0,0,1,2-1,2.39,2.39,0,0,1,2.52,2.64v3.63h-1Z"/><path class="a864656f-7425-4c34-b572-03b775ac6773" d="M388.65,57.52h-.8v-.84h.8V55.13h1v1.55h1.6v.84h-1.6v3.63c0,.6.22.82.85.82h.75v.86h-.92c-1.09,0-1.7-.45-1.7-1.68Z"/><path class="a864656f-7425-4c34-b572-03b775ac6773" d="M392.24,55a.69.69,0,1,1,.69.7A.69.69,0,0,1,392.24,55Zm.16,1.7h1v6.15h-1Z"/><path class="a864656f-7425-4c34-b572-03b775ac6773" d="M395.34,57.52h-.8v-.84h.8V55.13h1v1.55H398v.84h-1.61v3.63c0,.6.23.82.86.82H398v.86h-.92c-1.09,0-1.71-.45-1.71-1.68Z"/><path class="a864656f-7425-4c34-b572-03b775ac6773" d="M401.52,56.58a2.56,2.56,0,0,1,2.29,1.22V56.68h1v6.15h-1V61.69a2.57,2.57,0,0,1-2.3,1.24,3,3,0,0,1-2.91-3.2A2.91,2.91,0,0,1,401.52,56.58Zm.2.88a2.08,2.08,0,0,0-2.08,2.27,2.09,2.09,0,1,0,2.08-2.27Z"/><path class="a864656f-7425-4c34-b572-03b775ac6773" d="M406.8,57.52H406v-.84h.8V55.13h1v1.55h1.6v.84h-1.6v3.63c0,.6.22.82.85.82h.75v.86h-.92c-1.09,0-1.7-.45-1.7-1.68Z"/><path class="a864656f-7425-4c34-b572-03b775ac6773" d="M410.38,55a.7.7,0,0,1,.7-.7.7.7,0,0,1,0,1.4A.7.7,0,0,1,410.38,55Zm.17,1.7h1v6.15h-1Z"/><path class="a864656f-7425-4c34-b572-03b775ac6773" d="M413.69,56.68l1.92,5.21,1.91-5.21h1.09l-2.42,6.15H415l-2.41-6.15Z"/><path class="a864656f-7425-4c34-b572-03b775ac6773" d="M422.09,62.93a3.18,3.18,0,1,1,3.15-3.19A3,3,0,0,1,422.09,62.93Zm0-.9a2.29,2.29,0,0,0,0-4.57,2.3,2.3,0,0,0,0,4.57Z"/><path class="a864656f-7425-4c34-b572-03b775ac6773" d="M428.75,62.93A2.24,2.24,0,0,1,426.24,61h1.05c.06.6.59,1,1.45,1s1.26-.41,1.26-.91c0-1.37-3.64-.58-3.64-2.87,0-.94.89-1.71,2.26-1.71a2.06,2.06,0,0,1,2.32,1.93h-1a1.18,1.18,0,0,0-1.33-1.07c-.76,0-1.21.36-1.21.85,0,1.46,3.58.67,3.62,2.87C431,62.17,430.11,62.93,428.75,62.93Z"/><line class="bf670eae-746f-43fd-9b10-febf9d8cd9dc" x1="295.68" y1="39.86" x2="324.48" y2="39.86"/><polygon class="ae41425d-fe40-4572-81be-08b4ed67e0bf" points="330 39.86 323.88 36.33 323.88 43.39 330 39.86"/><path class="a864656f-7425-4c34-b572-03b775ac6773" d="M200.63,34c-1.57,0-2.68-.87-2.71-2.17H199a1.45,1.45,0,0,0,1.62,1.31c1,0,1.57-.57,1.57-1.31,0-2.11-4.23-.76-4.23-3.67,0-1.29,1-2.17,2.59-2.17a2.35,2.35,0,0,1,2.6,2H202a1.41,1.41,0,0,0-1.51-1.13c-.84,0-1.51.42-1.51,1.26,0,2,4.23.76,4.23,3.66A2.35,2.35,0,0,1,200.63,34Z"/><path class="a864656f-7425-4c34-b572-03b775ac6773" d="M207.39,34a3,3,0,0,1-3-3.19,2.93,2.93,0,0,1,3-3.16,2.82,2.82,0,0,1,3,2.94c0,.22,0,.4,0,.62h-4.92a1.94,1.94,0,0,0,2,1.93A1.69,1.69,0,0,0,209.12,32h1.1A2.77,2.77,0,0,1,207.39,34Zm-2-3.62h3.88a1.8,1.8,0,0,0-1.94-1.87A1.9,1.9,0,0,0,205.4,30.39Z"/><path class="a864656f-7425-4c34-b572-03b775ac6773" d="M217.31,27.66a2.68,2.68,0,0,1,2.84,2.07h-1.1a1.68,1.68,0,0,0-1.74-1.21c-1.13,0-2,.8-2,2.3s.83,2.33,2,2.33a1.66,1.66,0,0,0,1.74-1.21h1.1A2.74,2.74,0,0,1,217.31,34a2.93,2.93,0,0,1-3-3.19A2.92,2.92,0,0,1,217.31,27.66Z"/><path class="a864656f-7425-4c34-b572-03b775ac6773" d="M224.16,34a3,3,0,0,1-3.06-3.19,3.11,3.11,0,1,1,6.22,0A3.05,3.05,0,0,1,224.16,34Zm0-.89a2.09,2.09,0,0,0,2.11-2.3,2.07,2.07,0,0,0-2.07-2.28,2,2,0,0,0-2.06,2.28A2,2,0,0,0,224.16,33.12Z"/><path class="a864656f-7425-4c34-b572-03b775ac6773" d="M233.21,30.43a1.66,1.66,0,0,0-1.72-1.9c-1.05,0-1.76.65-1.76,2v3.4h-1V27.76h1v.87a2.25,2.25,0,0,1,2-1,2.39,2.39,0,0,1,2.52,2.64v3.62h-1Z"/><path class="a864656f-7425-4c34-b572-03b775ac6773" d="M238.05,34c-1.44,0-2.45-.78-2.52-1.91h1.06c.06.6.58,1,1.45,1s1.26-.41,1.26-.91c0-1.37-3.64-.57-3.64-2.86,0-.95.89-1.72,2.25-1.72a2.07,2.07,0,0,1,2.33,1.93h-1a1.19,1.19,0,0,0-1.34-1.07c-.75,0-1.2.36-1.2.86,0,1.46,3.57.66,3.62,2.86C240.3,33.25,239.41,34,238.05,34Z"/><path class="a864656f-7425-4c34-b572-03b775ac6773" d="M241.91,28.6h-.8v-.84h.8V26.21h1v1.55h1.61v.84h-1.61v3.63c0,.6.23.82.86.82h.75v.86h-.92c-1.09,0-1.71-.45-1.71-1.68Z"/><path class="a864656f-7425-4c34-b572-03b775ac6773" d="M246.69,33.91h-1V27.76h1v1a2.07,2.07,0,0,1,2-1.11V28.7h-.27c-1,0-1.72.44-1.72,1.87Z"/><path class="a864656f-7425-4c34-b572-03b775ac6773" d="M255.26,33.91h-1V33a2.25,2.25,0,0,1-2,1,2.4,2.4,0,0,1-2.53-2.64v-3.6h1v3.47a1.65,1.65,0,0,0,1.72,1.89c1.05,0,1.76-.66,1.76-2V27.76h1Z"/><path class="a864656f-7425-4c34-b572-03b775ac6773" d="M261.25,27.76h1.06l-3.71,9.05h-1.05l1.21-3-2.48-6.09h1.13l1.94,5Z"/><path class="a864656f-7425-4c34-b572-03b775ac6773" d="M265.77,34a3,3,0,0,1-3-3.19,2.93,2.93,0,0,1,3-3.16,2.82,2.82,0,0,1,3,2.94c0,.22,0,.4,0,.62h-4.92a1.94,1.94,0,0,0,2,1.93A1.69,1.69,0,0,0,267.5,32h1.1A2.77,2.77,0,0,1,265.77,34Zm-2-3.62h3.88a1.8,1.8,0,0,0-1.94-1.87A1.9,1.9,0,0,0,263.78,30.39Z"/><path class="a864656f-7425-4c34-b572-03b775ac6773" d="M207.43,42.45h1v3a2.31,2.31,0,0,1,2-1,2.37,2.37,0,0,1,2.46,2.64v3.62h-1V47.28a1.65,1.65,0,0,0-1.72-1.89c-1,0-1.76.65-1.76,2v3.4h-1Z"/><path class="a864656f-7425-4c34-b572-03b775ac6773" d="M217.18,44.51a2.56,2.56,0,0,1,2.29,1.22V44.61h1v6.15h-1V49.62a2.58,2.58,0,0,1-2.31,1.25,3,3,0,0,1-2.9-3.21A2.91,2.91,0,0,1,217.18,44.51Zm.2.89a2.07,2.07,0,0,0-2.08,2.26,2.09,2.09,0,1,0,2.08-2.26Z"/><path class="a864656f-7425-4c34-b572-03b775ac6773" d="M222.23,42.45h1v8.31h-1Z"/><path class="a864656f-7425-4c34-b572-03b775ac6773" d="M225,42.45h1v8.31h-1Z"/><path class="a864656f-7425-4c34-b572-03b775ac6773" d="M230.3,44.51a2.55,2.55,0,0,1,2.29,1.22V44.61h1v6.15h-1V49.62a2.58,2.58,0,0,1-2.3,1.25,3,3,0,0,1-2.91-3.21A2.91,2.91,0,0,1,230.3,44.51Zm.2.89a2.07,2.07,0,0,0-2.07,2.26,2.09,2.09,0,1,0,2.07-2.26Z"/><path class="a864656f-7425-4c34-b572-03b775ac6773" d="M239,45.44l-3,4.48h3v.84h-4.19v-.84l3-4.48h-3v-.83H239Z"/><path class="a864656f-7425-4c34-b572-03b775ac6773" d="M242.66,44.51A2.54,2.54,0,0,1,245,45.73V44.61h1V50.9A2.76,2.76,0,0,1,243,53.8c-1.62,0-2.77-.82-3-2.14h1a1.9,1.9,0,0,0,2,1.25,1.83,1.83,0,0,0,1.91-2V49.61a2.58,2.58,0,0,1-2.29,1.26,3,3,0,0,1-2.92-3.21A2.91,2.91,0,0,1,242.66,44.51Zm.2.89a2.08,2.08,0,0,0-2.08,2.26,2.09,2.09,0,1,0,2.08-2.26Z"/><path class="a864656f-7425-4c34-b572-03b775ac6773" d="M250.43,50.87a3.18,3.18,0,1,1,3.16-3.19A3.05,3.05,0,0,1,250.43,50.87Zm0-.9a2.09,2.09,0,0,0,2.11-2.29,2.07,2.07,0,0,0-2.07-2.28,2,2,0,0,0-2.06,2.28A2,2,0,0,0,250.43,50Z"/><path class="a864656f-7425-4c34-b572-03b775ac6773" d="M257.1,50.87A2.24,2.24,0,0,1,254.59,49h1c.06.59.59,1,1.45,1s1.26-.4,1.26-.91c0-1.37-3.64-.57-3.64-2.86,0-.95.89-1.72,2.26-1.72a2.06,2.06,0,0,1,2.32,1.93h-1a1.18,1.18,0,0,0-1.34-1.07c-.75,0-1.2.36-1.2.86,0,1.46,3.57.66,3.62,2.86C259.35,50.1,258.46,50.87,257.1,50.87Z"/><ellipse class="ea70acac-3930-4063-98d1-0819499f1902" cx="232.82" cy="39.86" rx="62.84" ry="33.41"/><path class="a864656f-7425-4c34-b572-03b775ac6773" d="M357.12,129.41h1v7.83h-1Z"/><path class="a864656f-7425-4c34-b572-03b775ac6773" d="M364.42,133.75a1.65,1.65,0,0,0-1.72-1.89c-1,0-1.76.65-1.76,2v3.41h-1v-6.16h1V132a2.28,2.28,0,0,1,2-1,2.39,2.39,0,0,1,2.51,2.64v3.63h-1Z"/><path class="a864656f-7425-4c34-b572-03b775ac6773" d="M367.24,131.92h-.79v-.84h.79v-1.55h1v1.55h1.6v.84h-1.6v3.63c0,.61.22.82.85.82h.75v.87H369c-1.09,0-1.71-.45-1.71-1.69Z"/><path class="a864656f-7425-4c34-b572-03b775ac6773" d="M373.55,137.34a3,3,0,0,1-3.05-3.19,2.93,2.93,0,0,1,3.05-3.17,2.82,2.82,0,0,1,2.95,2.94,6.13,6.13,0,0,1,0,.62h-4.92a1.93,1.93,0,0,0,2,1.93,1.7,1.7,0,0,0,1.73-1.13h1.1A2.78,2.78,0,0,1,373.55,137.34Zm-2-3.63h3.88a1.8,1.8,0,0,0-1.94-1.86A1.9,1.9,0,0,0,371.56,133.71Z"/><path class="a864656f-7425-4c34-b572-03b775ac6773" d="M378.91,137.24h-1v-6.16h1v1a2.07,2.07,0,0,1,2-1.11V132h-.27c-1,0-1.71.43-1.71,1.86Z"/><path class="a864656f-7425-4c34-b572-03b775ac6773" d="M385.32,131a2.92,2.92,0,0,1,2.92,3.16,3,3,0,0,1-2.92,3.2,2.65,2.65,0,0,1-2.3-1.24v4.06h-1v-9.08h1v1.14A2.57,2.57,0,0,1,385.32,131Zm-.22.89a2.29,2.29,0,1,0,2.09,2.27A2.08,2.08,0,0,0,385.1,131.87Z"/><path class="a864656f-7425-4c34-b572-03b775ac6773" d="M390.64,137.24h-1v-6.16h1v1a2.08,2.08,0,0,1,2-1.11V132h-.27c-1,0-1.72.43-1.72,1.86Z"/><path class="a864656f-7425-4c34-b572-03b775ac6773" d="M396.32,137.34a3,3,0,0,1-3.05-3.19,2.93,2.93,0,0,1,3.05-3.17,2.82,2.82,0,0,1,2.95,2.94,6.13,6.13,0,0,1,0,.62h-4.92a1.93,1.93,0,0,0,2,1.93,1.68,1.68,0,0,0,1.72-1.13h1.11A2.78,2.78,0,0,1,396.32,137.34Zm-2-3.63h3.88a1.8,1.8,0,0,0-1.94-1.86A1.9,1.9,0,0,0,394.33,133.71Z"/><path class="a864656f-7425-4c34-b572-03b775ac6773" d="M400.75,131.92H400v-.84h.79v-1.55h1v1.55h1.6v.84h-1.6v3.63c0,.61.22.82.85.82h.75v.87h-.92c-1.09,0-1.71-.45-1.71-1.69Z"/><path class="a864656f-7425-4c34-b572-03b775ac6773" d="M406.93,131a2.55,2.55,0,0,1,2.29,1.22v-1.12h1v6.16h-1v-1.15a2.57,2.57,0,0,1-2.3,1.25,3,3,0,0,1-2.91-3.2A2.92,2.92,0,0,1,406.93,131Zm.2.89a2.07,2.07,0,0,0-2.07,2.27,2.09,2.09,0,1,0,2.07-2.27Z"/><path class="a864656f-7425-4c34-b572-03b775ac6773" d="M414.64,131a2.68,2.68,0,0,1,2.84,2.08h-1.1a1.67,1.67,0,0,0-1.74-1.21c-1.12,0-2,.79-2,2.3s.84,2.32,2,2.32a1.65,1.65,0,0,0,1.74-1.21h1.1a2.74,2.74,0,0,1-2.84,2.08,3.19,3.19,0,0,1,0-6.36Z"/><path class="a864656f-7425-4c34-b572-03b775ac6773" d="M418.64,129.39a.69.69,0,0,1,.7-.7.7.7,0,0,1,0,1.39A.69.69,0,0,1,418.64,129.39Zm.17,1.69h1v6.16h-1Z"/><path class="a864656f-7425-4c34-b572-03b775ac6773" d="M424.25,137.34a3.18,3.18,0,1,1,3.16-3.19A3.06,3.06,0,0,1,424.25,137.34Zm0-.9a2.09,2.09,0,0,0,2.11-2.29,2.07,2.07,0,0,0-2.07-2.28,2.3,2.3,0,0,0,0,4.57Zm1.15-8.06v.88L423,130.54v-.76Z"/><path class="a864656f-7425-4c34-b572-03b775ac6773" d="M433.3,133.75a1.65,1.65,0,0,0-1.72-1.89c-1.05,0-1.76.65-1.76,2v3.41h-1v-6.16h1V132a2.26,2.26,0,0,1,2-1,2.39,2.39,0,0,1,2.52,2.64v3.63h-1Z"/><ellipse class="ea70acac-3930-4063-98d1-0819499f1902" cx="395.26" cy="135.69" rx="62.84" ry="33.41"/><polygon class="ae41425d-fe40-4572-81be-08b4ed67e0bf" points="169.22 39.86 163.09 36.33 163.09 43.39 169.22 39.86"/><polygon class="ae41425d-fe40-4572-81be-08b4ed67e0bf" points="395.68 101.16 399.22 95.04 392.15 95.04 395.68 101.16"/><line class="bf670eae-746f-43fd-9b10-febf9d8cd9dc" x1="134.9" y1="228.81" x2="163.7" y2="228.81"/><rect class="b71b619b-674a-4fcb-81c5-b9fb32cf8bec" x="7.55" y="196.21" width="127.35" height="70.47" rx="11.83"/><line class="bf670eae-746f-43fd-9b10-febf9d8cd9dc" x1="395.68" y1="266.68" x2="395.68" y2="284.59"/><rect class="b71b619b-674a-4fcb-81c5-b9fb32cf8bec" x="330.65" y="196.21" width="127.35" height="70.47" rx="11.83"/><path class="a864656f-7425-4c34-b572-03b775ac6773" d="M40.82,209.94c1.84,0,2.72,1,2.72,2.3a2.21,2.21,0,0,1-1.87,2.25l2,3.28H42.41l-1.86-3.2H39.31v3.2h-1v-7.83Zm0,.84H39.31v3h1.51c1.15,0,1.66-.63,1.66-1.51S42,210.78,40.82,210.78Z"/><path class="a864656f-7425-4c34-b572-03b775ac6773" d="M47.62,217.87a3,3,0,0,1-3-3.19,2.94,2.94,0,0,1,3-3.17,2.82,2.82,0,0,1,3,3,6.08,6.08,0,0,1,0,.61H45.62a1.93,1.93,0,0,0,2,1.94,1.68,1.68,0,0,0,1.72-1.14h1.11A2.78,2.78,0,0,1,47.62,217.87Zm-2-3.63h3.88a1.8,1.8,0,0,0-1.94-1.86A1.9,1.9,0,0,0,45.63,214.24Z"/><path class="a864656f-7425-4c34-b572-03b775ac6773" d="M54.6,211.51a2.67,2.67,0,0,1,2.84,2.08h-1.1a1.67,1.67,0,0,0-1.74-1.21c-1.12,0-2,.8-2,2.3s.84,2.33,2,2.33a1.65,1.65,0,0,0,1.74-1.22h1.1a2.73,2.73,0,0,1-2.84,2.08,3.19,3.19,0,0,1,0-6.36Z"/><path class="a864656f-7425-4c34-b572-03b775ac6773" d="M61.45,217.87a3.18,3.18,0,1,1,3.16-3.19A3.05,3.05,0,0,1,61.45,217.87Zm0-.9a2.09,2.09,0,0,0,2.12-2.29,2.07,2.07,0,0,0-2.08-2.28,2.3,2.3,0,0,0,0,4.57Z"/><path class="a864656f-7425-4c34-b572-03b775ac6773" d="M66,209.46h1v8.31H66Z"/><path class="a864656f-7425-4c34-b572-03b775ac6773" d="M71.44,217.87a3,3,0,0,1-3-3.19,2.93,2.93,0,0,1,3-3.17,2.83,2.83,0,0,1,3,3,6,6,0,0,1,0,.61H69.44a1.94,1.94,0,0,0,2,1.94,1.7,1.7,0,0,0,1.73-1.14h1.1A2.77,2.77,0,0,1,71.44,217.87Zm-2-3.63h3.89a1.8,1.8,0,0,0-1.94-1.86A1.91,1.91,0,0,0,69.45,214.24Z"/><path class="a864656f-7425-4c34-b572-03b775ac6773" d="M78.43,211.51a2.69,2.69,0,0,1,2.84,2.08h-1.1a1.68,1.68,0,0,0-1.74-1.21c-1.13,0-2,.8-2,2.3s.83,2.33,2,2.33a1.65,1.65,0,0,0,1.74-1.22h1.1a2.74,2.74,0,0,1-2.84,2.08,3.19,3.19,0,0,1,0-6.36Z"/><path class="a864656f-7425-4c34-b572-03b775ac6773" d="M85.22,211.51a2.67,2.67,0,0,1,2.84,2.08H87a1.67,1.67,0,0,0-1.74-1.21c-1.12,0-2,.8-2,2.3s.83,2.33,2,2.33A1.65,1.65,0,0,0,87,215.79h1.1a2.73,2.73,0,0,1-2.84,2.08,3.19,3.19,0,0,1,0-6.36Z"/><path class="a864656f-7425-4c34-b572-03b775ac6773" d="M89.23,209.92a.69.69,0,1,1,.7.7A.69.69,0,0,1,89.23,209.92Zm.17,1.69h1v6.16h-1Z"/><path class="a864656f-7425-4c34-b572-03b775ac6773" d="M94.84,217.87A3.18,3.18,0,1,1,98,214.68,3.06,3.06,0,0,1,94.84,217.87Zm0-.9a2.29,2.29,0,0,0,0-4.57,2.3,2.3,0,0,0,0,4.57ZM96,208.91v.89l-2.39,1.28v-.77Z"/><path class="a864656f-7425-4c34-b572-03b775ac6773" d="M103.88,214.29c0-1.26-.68-1.9-1.72-1.9s-1.76.65-1.76,2v3.4h-1v-6.16h1v.88a2.29,2.29,0,0,1,2-1,2.39,2.39,0,0,1,2.51,2.64v3.63h-1Z"/><path class="a864656f-7425-4c34-b572-03b775ac6773" d="M24.35,228.47h1.06l-3.71,9.05H20.64l1.22-3-2.49-6.08h1.14l1.93,5Z"/><path class="a864656f-7425-4c34-b572-03b775ac6773" d="M34.06,232.88H30.64L30,234.62H28.93l2.83-7.78h1.18l2.82,7.78H34.68Zm-1.71-4.78-1.42,4h2.83Z"/><path class="a864656f-7425-4c34-b572-03b775ac6773" d="M41.4,231.14c0-1.26-.68-1.9-1.72-1.9s-1.76.65-1.76,2v3.4h-1v-6.15h1v.87a2.29,2.29,0,0,1,2-1A2.38,2.38,0,0,1,42.41,231v3.63h-1Z"/><path class="a864656f-7425-4c34-b572-03b775ac6773" d="M46.65,228.37a2.56,2.56,0,0,1,2.29,1.22v-1.12h1v6.15h-1v-1.14a2.57,2.57,0,0,1-2.3,1.24,3,3,0,0,1-2.91-3.2A2.91,2.91,0,0,1,46.65,228.37Zm.2.88a2.08,2.08,0,0,0-2.08,2.27,2.09,2.09,0,1,0,2.08-2.27Zm1.29-3.41v.89L45.75,228v-.77Z"/><path class="a864656f-7425-4c34-b572-03b775ac6773" d="M51.71,226.31h1v8.31h-1Z"/><path class="a864656f-7425-4c34-b572-03b775ac6773" d="M54.29,226.77a.7.7,0,0,1,.7-.7.7.7,0,0,1,0,1.4A.7.7,0,0,1,54.29,226.77Zm.17,1.7h1v6.15h-1Z"/><path class="a864656f-7425-4c34-b572-03b775ac6773" d="M59.37,234.72a2.24,2.24,0,0,1-2.51-1.91h1c.06.6.59,1.05,1.45,1.05s1.26-.41,1.26-.91c0-1.37-3.64-.57-3.64-2.87,0-.94.89-1.71,2.26-1.71a2.06,2.06,0,0,1,2.32,1.93h-1a1.18,1.18,0,0,0-1.33-1.07c-.76,0-1.21.36-1.21.85,0,1.46,3.58.67,3.62,2.87C61.62,234,60.73,234.72,59.37,234.72Z"/><path class="a864656f-7425-4c34-b572-03b775ac6773" d="M62.89,226.77a.69.69,0,1,1,.7.7A.69.69,0,0,1,62.89,226.77Zm.17,1.7h1v6.15h-1Z"/><path class="a864656f-7425-4c34-b572-03b775ac6773" d="M68,234.72c-1.44,0-2.45-.78-2.51-1.91h1.05c.06.6.59,1.05,1.45,1.05s1.26-.41,1.26-.91c0-1.37-3.64-.57-3.64-2.87,0-.94.89-1.71,2.26-1.71a2.06,2.06,0,0,1,2.32,1.93h-1a1.19,1.19,0,0,0-1.34-1.07c-.75,0-1.2.36-1.2.85,0,1.46,3.57.67,3.62,2.87C70.22,234,69.33,234.72,68,234.72Z"/><path class="a864656f-7425-4c34-b572-03b775ac6773" d="M77.21,228.37a2.69,2.69,0,0,1,2.28,1.2v-3.26h1v8.31h-1v-1.16a2.52,2.52,0,0,1-2.29,1.26,3,3,0,0,1-2.92-3.2A2.91,2.91,0,0,1,77.21,228.37Zm.19.88a2.08,2.08,0,0,0-2.08,2.27,2.09,2.09,0,1,0,2.08-2.27Z"/><path class="a864656f-7425-4c34-b572-03b775ac6773" d="M85,234.72a3,3,0,0,1-3-3.19,2.92,2.92,0,0,1,3-3.16,2.82,2.82,0,0,1,3,2.94c0,.22,0,.4,0,.62H83a1.94,1.94,0,0,0,2,1.93,1.69,1.69,0,0,0,1.73-1.14h1.1A2.76,2.76,0,0,1,85,234.72Zm-2-3.63h3.89a1.81,1.81,0,0,0-1.95-1.86A1.9,1.9,0,0,0,83,231.09Z"/><path class="a864656f-7425-4c34-b572-03b775ac6773" d="M98.84,230.72c0,2.43-1.58,3.9-4.15,3.9H92.25v-7.83h2.44C97.26,226.79,98.84,228.3,98.84,230.72Zm-4.15,3.06a2.8,2.8,0,0,0,3.11-3.06,2.83,2.83,0,0,0-3.11-3.1H93.27v6.16Z"/><path class="a864656f-7425-4c34-b572-03b775ac6773" d="M102.83,228.37a2.56,2.56,0,0,1,2.29,1.22v-1.12h1v6.15h-1v-1.14a2.58,2.58,0,0,1-2.31,1.24,3,3,0,0,1-2.9-3.2A2.91,2.91,0,0,1,102.83,228.37Zm.2.88a2.08,2.08,0,0,0-2.08,2.27,2.09,2.09,0,1,0,2.08-2.27Z"/><path class="a864656f-7425-4c34-b572-03b775ac6773" d="M108.1,229.31h-.8v-.84h.8v-1.55h1v1.55h1.61v.84h-1.61v3.63c0,.6.23.82.86.82h.75v.86h-.92c-1.09,0-1.71-.45-1.71-1.68Z"/><path class="a864656f-7425-4c34-b572-03b775ac6773" d="M114.4,234.72a3.18,3.18,0,1,1,3.16-3.19A3.05,3.05,0,0,1,114.4,234.72Zm0-.9a2.09,2.09,0,0,0,2.11-2.29,2.07,2.07,0,0,0-2.07-2.28,2.3,2.3,0,0,0,0,4.57Z"/><path class="a864656f-7425-4c34-b572-03b775ac6773" d="M121.07,234.72c-1.44,0-2.45-.78-2.51-1.91h1c.06.6.59,1.05,1.45,1.05s1.26-.41,1.26-.91c0-1.37-3.64-.57-3.64-2.87,0-.94.89-1.71,2.26-1.71a2.06,2.06,0,0,1,2.32,1.93h-1a1.19,1.19,0,0,0-1.34-1.07c-.75,0-1.2.36-1.2.85,0,1.46,3.57.67,3.62,2.87C123.32,234,122.43,234.72,121.07,234.72Z"/><path class="a864656f-7425-4c34-b572-03b775ac6773" d="M38.71,243.54a3.69,3.69,0,0,1,3.63,2.37H41.12a2.47,2.47,0,0,0-2.41-1.47,3.12,3.12,0,0,0,0,6.21,2.47,2.47,0,0,0,2.41-1.46h1.22a3.67,3.67,0,0,1-3.63,2.35,4,4,0,0,1,0-8Z"/><path class="a864656f-7425-4c34-b572-03b775ac6773" d="M49.2,251.47h-1v-.91a2.25,2.25,0,0,1-2,1,2.4,2.4,0,0,1-2.53-2.64v-3.6h1v3.47a1.65,1.65,0,0,0,1.72,1.89c1.06,0,1.76-.66,1.76-2v-3.38h1Z"/><path class="a864656f-7425-4c34-b572-03b775ac6773" d="M53.5,245.22a2.56,2.56,0,0,1,2.29,1.22v-1.12h1v6.15h-1v-1.14a2.58,2.58,0,0,1-2.31,1.24,3,3,0,0,1-2.9-3.2A2.91,2.91,0,0,1,53.5,245.22Zm.2.89a2.07,2.07,0,0,0-2.08,2.26,2.09,2.09,0,1,0,2.08-2.26Z"/><path class="a864656f-7425-4c34-b572-03b775ac6773" d="M63.06,248c0-1.26-.68-1.9-1.72-1.9s-1.76.66-1.76,2v3.4h-1v-6.15h1v.87a2.26,2.26,0,0,1,2-1,2.38,2.38,0,0,1,2.51,2.64v3.62h-1Z"/><path class="a864656f-7425-4c34-b572-03b775ac6773" d="M65.88,246.16h-.8v-.84h.8v-1.55h1v1.55h1.61v.84H66.9v3.63c0,.61.23.82.86.82h.75v.86h-.92c-1.09,0-1.71-.45-1.71-1.68Z"/><path class="a864656f-7425-4c34-b572-03b775ac6773" d="M69.47,243.62a.69.69,0,1,1,.7.7A.68.68,0,0,1,69.47,243.62Zm.17,1.7h1v6.15h-1Z"/><path class="a864656f-7425-4c34-b572-03b775ac6773" d="M72.58,246.16h-.8v-.84h.8v-1.55h1v1.55h1.6v.84H73.6v3.63c0,.61.22.82.85.82h.75v.86h-.92c-1.09,0-1.7-.45-1.7-1.68Z"/><path class="a864656f-7425-4c34-b572-03b775ac6773" d="M78.75,245.22a2.56,2.56,0,0,1,2.3,1.22v-1.12h1v6.15h-1v-1.14a2.58,2.58,0,0,1-2.31,1.24,3,3,0,0,1-2.91-3.2A2.91,2.91,0,0,1,78.75,245.22Zm.21.89a2.07,2.07,0,0,0-2.08,2.26A2.09,2.09,0,1,0,79,246.11Z"/><path class="a864656f-7425-4c34-b572-03b775ac6773" d="M84,246.16h-.8v-.84H84v-1.55h1v1.55h1.61v.84H85.05v3.63c0,.61.23.82.86.82h.75v.86h-.92c-1.09,0-1.71-.45-1.71-1.68Z"/><path class="a864656f-7425-4c34-b572-03b775ac6773" d="M87.62,243.62a.69.69,0,1,1,.7.7A.68.68,0,0,1,87.62,243.62Zm.17,1.7h1v6.15h-1Z"/><path class="a864656f-7425-4c34-b572-03b775ac6773" d="M90.92,245.32l1.92,5.21,1.91-5.21h1.09l-2.41,6.15H92.24l-2.42-6.15Z"/><path class="a864656f-7425-4c34-b572-03b775ac6773" d="M99.32,251.57a3.18,3.18,0,1,1,3.16-3.19A3.05,3.05,0,0,1,99.32,251.57Zm0-.89a2.09,2.09,0,0,0,2.11-2.3,2.06,2.06,0,0,0-2.08-2.27,2.3,2.3,0,0,0,0,4.57Z"/><path class="a864656f-7425-4c34-b572-03b775ac6773" d="M106,251.57c-1.44,0-2.45-.78-2.52-1.9h1.06c.06.59.58,1,1.45,1s1.26-.4,1.26-.91c0-1.37-3.64-.57-3.64-2.86,0-.95.89-1.72,2.25-1.72a2.07,2.07,0,0,1,2.33,1.93h-1a1.19,1.19,0,0,0-1.34-1.07c-.75,0-1.2.36-1.2.86,0,1.46,3.57.66,3.62,2.86C108.24,250.81,107.35,251.57,106,251.57Z"/><path class="a864656f-7425-4c34-b572-03b775ac6773" d="M363.58,210.25c1.84,0,2.72,1,2.72,2.3a2.22,2.22,0,0,1-1.86,2.25l2,3.27h-1.22l-1.87-3.2h-1.23v3.2h-1v-7.82Zm0,.84h-1.5v3h1.5c1.16,0,1.66-.62,1.66-1.5S364.75,211.09,363.58,211.09Z"/><path class="a864656f-7425-4c34-b572-03b775ac6773" d="M370.38,218.18a3,3,0,0,1-3-3.19,2.92,2.92,0,0,1,3-3.17,2.82,2.82,0,0,1,2.95,2.94,6.13,6.13,0,0,1,0,.62h-4.92a1.93,1.93,0,0,0,2,1.93,1.7,1.7,0,0,0,1.73-1.13h1.1A2.77,2.77,0,0,1,370.38,218.18Zm-2-3.63h3.89a1.82,1.82,0,0,0-1.95-1.87A1.91,1.91,0,0,0,368.39,214.55Z"/><path class="a864656f-7425-4c34-b572-03b775ac6773" d="M377.36,211.82a2.67,2.67,0,0,1,2.84,2.08h-1.1a1.68,1.68,0,0,0-1.74-1.22c-1.12,0-1.95.8-1.95,2.31s.83,2.32,1.95,2.32a1.65,1.65,0,0,0,1.74-1.21h1.1a2.74,2.74,0,0,1-2.84,2.08,3.19,3.19,0,0,1,0-6.36Z"/><path class="a864656f-7425-4c34-b572-03b775ac6773" d="M384.22,218.18a3.18,3.18,0,1,1,3.16-3.19A3.06,3.06,0,0,1,384.22,218.18Zm0-.9a2.29,2.29,0,0,0,0-4.57,2.3,2.3,0,0,0,0,4.57Z"/><path class="a864656f-7425-4c34-b572-03b775ac6773" d="M388.75,209.76h1v8.31h-1Z"/><path class="a864656f-7425-4c34-b572-03b775ac6773" d="M394.21,218.18a3,3,0,0,1-3-3.19,2.93,2.93,0,0,1,3-3.17,2.82,2.82,0,0,1,3,2.94,6.13,6.13,0,0,1,0,.62h-4.92a1.93,1.93,0,0,0,2,1.93,1.7,1.7,0,0,0,1.73-1.13H397A2.78,2.78,0,0,1,394.21,218.18Zm-2-3.63h3.88a1.8,1.8,0,0,0-1.94-1.87A1.91,1.91,0,0,0,392.22,214.55Z"/><path class="a864656f-7425-4c34-b572-03b775ac6773" d="M401.19,211.82A2.67,2.67,0,0,1,404,213.9h-1.1a1.68,1.68,0,0,0-1.74-1.22c-1.12,0-1.95.8-1.95,2.31s.83,2.32,1.95,2.32a1.65,1.65,0,0,0,1.74-1.21H404a2.74,2.74,0,0,1-2.84,2.08,3.19,3.19,0,0,1,0-6.36Z"/><path class="a864656f-7425-4c34-b572-03b775ac6773" d="M408,211.82a2.69,2.69,0,0,1,2.84,2.08h-1.1a1.69,1.69,0,0,0-1.74-1.22c-1.13,0-2,.8-2,2.31s.83,2.32,2,2.32a1.66,1.66,0,0,0,1.74-1.21h1.1a2.75,2.75,0,0,1-2.84,2.08,3.19,3.19,0,0,1,0-6.36Z"/><path class="a864656f-7425-4c34-b572-03b775ac6773" d="M412,210.22a.69.69,0,1,1,.69.7A.68.68,0,0,1,412,210.22Zm.16,1.7h1v6.15h-1Z"/><path class="a864656f-7425-4c34-b572-03b775ac6773" d="M417.6,218.18a3.18,3.18,0,1,1,3.16-3.19A3.05,3.05,0,0,1,417.6,218.18Zm0-.9a2.09,2.09,0,0,0,2.11-2.29,2.07,2.07,0,0,0-2.07-2.28,2.3,2.3,0,0,0,0,4.57Zm1.15-8.07v.89l-2.39,1.28v-.76Z"/><path class="a864656f-7425-4c34-b572-03b775ac6773" d="M426.65,214.59a1.65,1.65,0,0,0-1.72-1.89c-1.05,0-1.76.65-1.76,2v3.4h-1v-6.15h1v.88a2.26,2.26,0,0,1,2-1,2.39,2.39,0,0,1,2.52,2.64v3.62h-1Z"/><path class="a864656f-7425-4c34-b572-03b775ac6773" d="M347.11,228.77h1.06l-3.71,9h-1l1.21-3-2.48-6.09h1.13l1.93,5Z"/><path class="a864656f-7425-4c34-b572-03b775ac6773" d="M356.82,233.19h-3.41l-.63,1.74H351.7l2.83-7.79h1.18l2.82,7.79h-1.08Zm-1.71-4.79-1.41,4h2.83Z"/><path class="a864656f-7425-4c34-b572-03b775ac6773" d="M364.17,231.45a1.66,1.66,0,0,0-1.72-1.9c-1,0-1.76.65-1.76,2v3.41h-1v-6.16h1v.88a2.26,2.26,0,0,1,2-1,2.39,2.39,0,0,1,2.52,2.64v3.63h-1Z"/><path class="a864656f-7425-4c34-b572-03b775ac6773" d="M369.41,228.67a2.55,2.55,0,0,1,2.29,1.23v-1.13h1v6.16h-1v-1.15a2.57,2.57,0,0,1-2.3,1.25,3,3,0,0,1-2.91-3.2A2.92,2.92,0,0,1,369.41,228.67Zm.21.89a2.08,2.08,0,0,0-2.08,2.27,2.09,2.09,0,1,0,2.08-2.27Zm1.29-3.42V227l-2.4,1.28v-.76Z"/><path class="a864656f-7425-4c34-b572-03b775ac6773" d="M374.47,226.62h1v8.31h-1Z"/><path class="a864656f-7425-4c34-b572-03b775ac6773" d="M377.06,227.08a.69.69,0,1,1,.69.69A.68.68,0,0,1,377.06,227.08Zm.17,1.69h1v6.16h-1Z"/><path class="a864656f-7425-4c34-b572-03b775ac6773" d="M382.14,235c-1.44,0-2.45-.79-2.52-1.91h1.06c.06.59.58,1,1.45,1s1.26-.4,1.26-.91c0-1.37-3.64-.57-3.64-2.86,0-.94.88-1.72,2.25-1.72a2.07,2.07,0,0,1,2.33,1.93h-1a1.19,1.19,0,0,0-1.34-1.06c-.75,0-1.2.36-1.2.85,0,1.46,3.57.66,3.62,2.86C384.39,234.26,383.5,235,382.14,235Z"/><path class="a864656f-7425-4c34-b572-03b775ac6773" d="M385.66,227.08a.69.69,0,1,1,.69.69A.68.68,0,0,1,385.66,227.08Zm.17,1.69h1v6.16h-1Z"/><path class="a864656f-7425-4c34-b572-03b775ac6773" d="M390.74,235c-1.44,0-2.45-.79-2.52-1.91h1.06c.05.59.58,1,1.45,1s1.25-.4,1.25-.91c0-1.37-3.64-.57-3.64-2.86,0-.94.89-1.72,2.26-1.72a2.07,2.07,0,0,1,2.33,1.93h-1a1.19,1.19,0,0,0-1.34-1.06c-.75,0-1.2.36-1.2.85,0,1.46,3.57.66,3.61,2.86C393,234.26,392.1,235,390.74,235Z"/><path class="a864656f-7425-4c34-b572-03b775ac6773" d="M400,228.67a2.69,2.69,0,0,1,2.28,1.2v-3.25h1v8.31h-1v-1.16A2.52,2.52,0,0,1,400,235a3,3,0,0,1-2.92-3.2A2.92,2.92,0,0,1,400,228.67Zm.19.89a2.08,2.08,0,0,0-2.08,2.27,2.09,2.09,0,1,0,2.08-2.27Z"/><path class="a864656f-7425-4c34-b572-03b775ac6773" d="M407.71,235a3,3,0,0,1-3-3.19,2.93,2.93,0,0,1,3-3.17,2.82,2.82,0,0,1,3,2.94,4.12,4.12,0,0,1,0,.62h-4.92a1.94,1.94,0,0,0,2,1.93,1.69,1.69,0,0,0,1.73-1.13h1.1A2.77,2.77,0,0,1,407.71,235Zm-2-3.63h3.88a1.8,1.8,0,0,0-1.94-1.86A1.9,1.9,0,0,0,405.73,231.4Z"/><path class="a864656f-7425-4c34-b572-03b775ac6773" d="M421.61,231c0,2.43-1.58,3.9-4.16,3.9H415V227.1h2.43C420,227.1,421.61,228.6,421.61,231Zm-4.16,3.05a2.79,2.79,0,0,0,3.12-3.05,2.83,2.83,0,0,0-3.12-3.1H416v6.15Z"/><path class="a864656f-7425-4c34-b572-03b775ac6773" d="M425.59,228.67a2.55,2.55,0,0,1,2.29,1.23v-1.13h1v6.16h-1v-1.15a2.58,2.58,0,0,1-2.3,1.25,3,3,0,0,1-2.91-3.2A2.92,2.92,0,0,1,425.59,228.67Zm.2.89a2.08,2.08,0,0,0-2.08,2.27,2.09,2.09,0,1,0,2.08-2.27Z"/><path class="a864656f-7425-4c34-b572-03b775ac6773" d="M430.86,229.61h-.79v-.84h.79v-1.55h1v1.55h1.6v.84h-1.6v3.63c0,.61.22.82.85.82h.75v.87h-.92c-1.09,0-1.71-.45-1.71-1.69Z"/><path class="a864656f-7425-4c34-b572-03b775ac6773" d="M437.17,235a3.18,3.18,0,1,1,3.15-3.19A3.05,3.05,0,0,1,437.17,235Zm0-.9a2.09,2.09,0,0,0,2.11-2.29,2.07,2.07,0,0,0-2.08-2.28,2.3,2.3,0,0,0,0,4.57Z"/><path class="a864656f-7425-4c34-b572-03b775ac6773" d="M443.84,235c-1.44,0-2.45-.79-2.52-1.91h1.06c.05.59.58,1,1.45,1s1.25-.4,1.25-.91c0-1.37-3.64-.57-3.64-2.86,0-.94.89-1.72,2.26-1.72A2.07,2.07,0,0,1,446,230.6h-1a1.17,1.17,0,0,0-1.33-1.06c-.76,0-1.2.36-1.2.85,0,1.46,3.57.66,3.61,2.86C446.08,234.26,445.2,235,443.84,235Z"/><path class="a864656f-7425-4c34-b572-03b775ac6773" d="M365.64,243.85a3.68,3.68,0,0,1,3.63,2.37H368a2.45,2.45,0,0,0-2.4-1.47,3.12,3.12,0,0,0,0,6.21,2.46,2.46,0,0,0,2.4-1.46h1.23a3.69,3.69,0,0,1-3.63,2.35,4,4,0,0,1,0-8Z"/><path class="a864656f-7425-4c34-b572-03b775ac6773" d="M376.13,251.78h-1v-.91a2.25,2.25,0,0,1-2,1,2.4,2.4,0,0,1-2.53-2.64v-3.61h1v3.47a1.65,1.65,0,0,0,1.72,1.89c1.06,0,1.76-.65,1.76-2v-3.38h1Z"/><path class="a864656f-7425-4c34-b572-03b775ac6773" d="M380.42,245.52a2.57,2.57,0,0,1,2.3,1.23v-1.13h1v6.16h-1v-1.15a2.58,2.58,0,0,1-2.31,1.25,3,3,0,0,1-2.91-3.2A2.92,2.92,0,0,1,380.42,245.52Zm.21.89a2.08,2.08,0,0,0-2.08,2.27,2.09,2.09,0,1,0,2.08-2.27Z"/><path class="a864656f-7425-4c34-b572-03b775ac6773" d="M385.48,243.47h1v8.31h-1Z"/><path class="a864656f-7425-4c34-b572-03b775ac6773" d="M388.07,243.93a.69.69,0,1,1,.7.7A.69.69,0,0,1,388.07,243.93Zm.17,1.69h1v6.16h-1Z"/><path class="a864656f-7425-4c34-b572-03b775ac6773" d="M391.17,246.47h-.79v-.85h.79v-1.55h1v1.55h1.6v.85h-1.6v3.62c0,.61.22.82.85.82h.75v.87h-.92c-1.09,0-1.71-.45-1.71-1.69Z"/><path class="a864656f-7425-4c34-b572-03b775ac6773" d="M397.35,245.52a2.57,2.57,0,0,1,2.3,1.23v-1.13h1v6.16h-1v-1.15a2.58,2.58,0,0,1-2.31,1.25,3,3,0,0,1-2.91-3.2A2.92,2.92,0,0,1,397.35,245.52Zm.21.89a2.08,2.08,0,0,0-2.08,2.27,2.09,2.09,0,1,0,2.08-2.27Z"/><path class="a864656f-7425-4c34-b572-03b775ac6773" d="M402.63,246.47h-.8v-.85h.8v-1.55h1v1.55h1.61v.85h-1.61v3.62c0,.61.23.82.85.82h.76v.87h-.92c-1.09,0-1.71-.45-1.71-1.69Z"/><path class="a864656f-7425-4c34-b572-03b775ac6773" d="M406.22,243.93a.69.69,0,1,1,.69.7A.69.69,0,0,1,406.22,243.93Zm.17,1.69h1v6.16h-1Z"/><path class="a864656f-7425-4c34-b572-03b775ac6773" d="M409.52,245.62l1.92,5.22,1.91-5.22h1.09L412,251.78h-1.19l-2.41-6.16Z"/><path class="a864656f-7425-4c34-b572-03b775ac6773" d="M417.92,251.88a3.18,3.18,0,1,1,3.16-3.19A3.06,3.06,0,0,1,417.92,251.88Zm0-.9a2.29,2.29,0,0,0,0-4.57,2.3,2.3,0,0,0,0,4.57Z"/><path class="a864656f-7425-4c34-b572-03b775ac6773" d="M424.59,251.88c-1.44,0-2.45-.79-2.52-1.91h1.06c.05.6.58,1.05,1.45,1.05s1.25-.41,1.25-.91c0-1.37-3.63-.58-3.63-2.87,0-.94.88-1.72,2.25-1.72a2.07,2.07,0,0,1,2.33,1.94h-1a1.19,1.19,0,0,0-1.34-1.07c-.75,0-1.2.36-1.2.85,0,1.46,3.57.66,3.61,2.87C426.83,251.12,426,251.88,424.59,251.88Z"/><line class="bf670eae-746f-43fd-9b10-febf9d8cd9dc" x1="295.68" y1="228.81" x2="324.48" y2="228.81"/><polygon class="ae41425d-fe40-4572-81be-08b4ed67e0bf" points="330 228.81 323.88 225.28 323.88 232.34 330 228.81"/><path class="a864656f-7425-4c34-b572-03b775ac6773" d="M200.63,222.94c-1.57,0-2.68-.88-2.71-2.17H199a1.45,1.45,0,0,0,1.62,1.3c1,0,1.57-.56,1.57-1.3,0-2.11-4.23-.76-4.23-3.67,0-1.29,1-2.17,2.59-2.17a2.35,2.35,0,0,1,2.6,2H202a1.4,1.4,0,0,0-1.51-1.13c-.84,0-1.51.41-1.51,1.26,0,2,4.23.76,4.23,3.66A2.35,2.35,0,0,1,200.63,222.94Z"/><path class="a864656f-7425-4c34-b572-03b775ac6773" d="M207.39,223a3,3,0,0,1-3-3.19,2.93,2.93,0,0,1,3-3.16,2.82,2.82,0,0,1,3,2.94c0,.22,0,.4,0,.62h-4.92a1.94,1.94,0,0,0,2,1.93,1.69,1.69,0,0,0,1.73-1.14h1.1A2.77,2.77,0,0,1,207.39,223Zm-2-3.63h3.88a1.8,1.8,0,0,0-1.94-1.86A1.9,1.9,0,0,0,205.4,219.33Z"/><path class="a864656f-7425-4c34-b572-03b775ac6773" d="M217.31,216.61a2.68,2.68,0,0,1,2.84,2.07h-1.1a1.68,1.68,0,0,0-1.74-1.21c-1.13,0-2,.8-2,2.3s.83,2.33,2,2.33a1.65,1.65,0,0,0,1.74-1.22h1.1a2.74,2.74,0,0,1-2.84,2.08,3.18,3.18,0,0,1,0-6.35Z"/><path class="a864656f-7425-4c34-b572-03b775ac6773" d="M224.16,223a3.18,3.18,0,1,1,3.16-3.19A3.05,3.05,0,0,1,224.16,223Zm0-.9a2.09,2.09,0,0,0,2.11-2.29,2.07,2.07,0,0,0-2.07-2.28,2.3,2.3,0,0,0,0,4.57Z"/><path class="a864656f-7425-4c34-b572-03b775ac6773" d="M233.21,219.38a1.66,1.66,0,0,0-1.72-1.9c-1.05,0-1.76.65-1.76,2v3.4h-1v-6.15h1v.87a2.26,2.26,0,0,1,2-1,2.39,2.39,0,0,1,2.52,2.64v3.63h-1Z"/><path class="a864656f-7425-4c34-b572-03b775ac6773" d="M238.05,223c-1.44,0-2.45-.78-2.52-1.91h1.06c.06.6.58,1,1.45,1s1.26-.41,1.26-.91c0-1.37-3.64-.58-3.64-2.87,0-.94.89-1.71,2.25-1.71a2.07,2.07,0,0,1,2.33,1.93h-1a1.19,1.19,0,0,0-1.34-1.07c-.75,0-1.2.36-1.2.85,0,1.46,3.57.67,3.62,2.87C240.3,222.2,239.41,223,238.05,223Z"/><path class="a864656f-7425-4c34-b572-03b775ac6773" d="M241.91,217.55h-.8v-.84h.8v-1.55h1v1.55h1.61v.84h-1.61v3.63c0,.6.23.82.86.82h.75v.86h-.92c-1.09,0-1.71-.45-1.71-1.68Z"/><path class="a864656f-7425-4c34-b572-03b775ac6773" d="M246.69,222.86h-1v-6.15h1v1a2.07,2.07,0,0,1,2-1.12v1.06h-.27c-1,0-1.72.44-1.72,1.86Z"/><path class="a864656f-7425-4c34-b572-03b775ac6773" d="M255.26,222.86h-1V222a2.25,2.25,0,0,1-2,1,2.4,2.4,0,0,1-2.53-2.64v-3.6h1v3.47a1.65,1.65,0,0,0,1.72,1.88c1.05,0,1.76-.65,1.76-2v-3.38h1Z"/><path class="a864656f-7425-4c34-b572-03b775ac6773" d="M261.25,216.71h1.06l-3.71,9h-1.05l1.21-3-2.48-6.08h1.13l1.94,5Z"/><path class="a864656f-7425-4c34-b572-03b775ac6773" d="M265.77,223a3,3,0,0,1-3-3.19,2.93,2.93,0,0,1,3-3.16,2.82,2.82,0,0,1,3,2.94c0,.22,0,.4,0,.62h-4.92a1.94,1.94,0,0,0,2,1.93A1.69,1.69,0,0,0,267.5,221h1.1A2.77,2.77,0,0,1,265.77,223Zm-2-3.63h3.88a1.79,1.79,0,0,0-1.94-1.86A1.9,1.9,0,0,0,263.78,219.33Z"/><path class="a864656f-7425-4c34-b572-03b775ac6773" d="M207.43,231.4h1v3a2.29,2.29,0,0,1,2-1,2.37,2.37,0,0,1,2.46,2.64v3.62h-1v-3.48c0-1.26-.68-1.9-1.72-1.9s-1.76.65-1.76,2v3.4h-1Z"/><path class="a864656f-7425-4c34-b572-03b775ac6773" d="M217.18,233.46a2.56,2.56,0,0,1,2.29,1.22v-1.12h1v6.15h-1v-1.14a2.58,2.58,0,0,1-2.31,1.24,3,3,0,0,1-2.9-3.2A2.91,2.91,0,0,1,217.18,233.46Zm.2.88a2.08,2.08,0,0,0-2.08,2.27,2.09,2.09,0,1,0,2.08-2.27Z"/><path class="a864656f-7425-4c34-b572-03b775ac6773" d="M222.23,231.4h1v8.31h-1Z"/><path class="a864656f-7425-4c34-b572-03b775ac6773" d="M225,231.4h1v8.31h-1Z"/><path class="a864656f-7425-4c34-b572-03b775ac6773" d="M230.3,233.46a2.55,2.55,0,0,1,2.29,1.22v-1.12h1v6.15h-1v-1.14a2.57,2.57,0,0,1-2.3,1.24,3,3,0,0,1-2.91-3.2A2.91,2.91,0,0,1,230.3,233.46Zm.2.88a2.07,2.07,0,0,0-2.07,2.27,2.09,2.09,0,1,0,2.07-2.27Z"/><path class="a864656f-7425-4c34-b572-03b775ac6773" d="M239,234.39l-3,4.48h3v.84h-4.19v-.84l3-4.48h-3v-.83H239Z"/><path class="a864656f-7425-4c34-b572-03b775ac6773" d="M242.66,233.46a2.54,2.54,0,0,1,2.29,1.22v-1.12h1v6.29a2.75,2.75,0,0,1-2.94,2.89c-1.62,0-2.77-.81-3-2.13h1a1.9,1.9,0,0,0,2,1.25,1.83,1.83,0,0,0,1.91-2v-1.29a2.57,2.57,0,0,1-2.29,1.25,3,3,0,0,1-2.92-3.2A2.91,2.91,0,0,1,242.66,233.46Zm.2.88a2.08,2.08,0,0,0-2.08,2.27,2.09,2.09,0,1,0,2.08-2.27Z"/><path class="a864656f-7425-4c34-b572-03b775ac6773" d="M250.43,239.81a3.18,3.18,0,1,1,3.16-3.19A3,3,0,0,1,250.43,239.81Zm0-.89a2.09,2.09,0,0,0,2.11-2.3,2.07,2.07,0,0,0-2.07-2.28,2.31,2.31,0,0,0,0,4.58Z"/><path class="a864656f-7425-4c34-b572-03b775ac6773" d="M257.1,239.81c-1.44,0-2.44-.78-2.51-1.91h1c.06.6.59,1,1.45,1s1.26-.41,1.26-.91c0-1.37-3.64-.57-3.64-2.86,0-1,.89-1.72,2.26-1.72a2.06,2.06,0,0,1,2.32,1.93h-1a1.18,1.18,0,0,0-1.34-1.07c-.75,0-1.2.36-1.2.86,0,1.46,3.57.66,3.62,2.86C259.35,239.05,258.46,239.81,257.1,239.81Z"/><ellipse class="ea70acac-3930-4063-98d1-0819499f1902" cx="232.82" cy="228.81" rx="62.84" ry="33.41"/><path class="a864656f-7425-4c34-b572-03b775ac6773" d="M357.12,318.36h1v7.82h-1Z"/><path class="a864656f-7425-4c34-b572-03b775ac6773" d="M364.42,322.7c0-1.26-.68-1.9-1.72-1.9s-1.76.66-1.76,2v3.4h-1V320h1v.88a2.28,2.28,0,0,1,2-1,2.38,2.38,0,0,1,2.51,2.64v3.62h-1Z"/><path class="a864656f-7425-4c34-b572-03b775ac6773" d="M367.24,320.87h-.79V320h.79v-1.55h1V320h1.6v.84h-1.6v3.63c0,.61.22.82.85.82h.75v.86H369c-1.09,0-1.71-.45-1.71-1.68Z"/><path class="a864656f-7425-4c34-b572-03b775ac6773" d="M373.55,326.29a3,3,0,0,1-3.05-3.19,2.93,2.93,0,0,1,3.05-3.17,2.82,2.82,0,0,1,2.95,2.94,6.13,6.13,0,0,1,0,.62h-4.92a1.93,1.93,0,0,0,2,1.93,1.7,1.7,0,0,0,1.73-1.13h1.1A2.78,2.78,0,0,1,373.55,326.29Zm-2-3.63h3.88a1.81,1.81,0,0,0-1.94-1.87A1.91,1.91,0,0,0,371.56,322.66Z"/><path class="a864656f-7425-4c34-b572-03b775ac6773" d="M378.91,326.18h-1V320h1v1a2.05,2.05,0,0,1,2-1.11V321h-.27c-1,0-1.71.44-1.71,1.87Z"/><path class="a864656f-7425-4c34-b572-03b775ac6773" d="M385.32,319.93a2.91,2.91,0,0,1,2.92,3.15,3,3,0,0,1-2.92,3.21,2.65,2.65,0,0,1-2.3-1.24v4.05h-1V320h1v1.13A2.59,2.59,0,0,1,385.32,319.93Zm-.22.89a2.29,2.29,0,1,0,2.09,2.26A2.08,2.08,0,0,0,385.1,320.82Z"/><path class="a864656f-7425-4c34-b572-03b775ac6773" d="M390.64,326.18h-1V320h1v1a2.07,2.07,0,0,1,2-1.11V321h-.27c-1,0-1.72.44-1.72,1.87Z"/><path class="a864656f-7425-4c34-b572-03b775ac6773" d="M396.32,326.29a3,3,0,0,1-3.05-3.19,2.93,2.93,0,0,1,3.05-3.17,2.82,2.82,0,0,1,2.95,2.94,6.13,6.13,0,0,1,0,.62h-4.92a1.93,1.93,0,0,0,2,1.93,1.68,1.68,0,0,0,1.72-1.13h1.11A2.78,2.78,0,0,1,396.32,326.29Zm-2-3.63h3.88a1.81,1.81,0,0,0-1.94-1.87A1.91,1.91,0,0,0,394.33,322.66Z"/><path class="a864656f-7425-4c34-b572-03b775ac6773" d="M400.75,320.87H400V320h.79v-1.55h1V320h1.6v.84h-1.6v3.63c0,.61.22.82.85.82h.75v.86h-.92c-1.09,0-1.71-.45-1.71-1.68Z"/><path class="a864656f-7425-4c34-b572-03b775ac6773" d="M406.93,319.93a2.55,2.55,0,0,1,2.29,1.22V320h1v6.15h-1V325a2.57,2.57,0,0,1-2.3,1.25,3,3,0,0,1-2.91-3.21A2.91,2.91,0,0,1,406.93,319.93Zm.2.89a2.07,2.07,0,0,0-2.07,2.26,2.09,2.09,0,1,0,2.07-2.26Z"/><path class="a864656f-7425-4c34-b572-03b775ac6773" d="M414.64,319.93a2.67,2.67,0,0,1,2.84,2.08h-1.1a1.68,1.68,0,0,0-1.74-1.22c-1.12,0-2,.8-2,2.31s.84,2.32,2,2.32a1.65,1.65,0,0,0,1.74-1.21h1.1a2.74,2.74,0,0,1-2.84,2.08,3.19,3.19,0,0,1,0-6.36Z"/><path class="a864656f-7425-4c34-b572-03b775ac6773" d="M418.64,318.33a.69.69,0,0,1,.7-.69.7.7,0,0,1,0,1.39A.69.69,0,0,1,418.64,318.33Zm.17,1.7h1v6.15h-1Z"/><path class="a864656f-7425-4c34-b572-03b775ac6773" d="M424.25,326.29a3.18,3.18,0,1,1,3.16-3.19A3.06,3.06,0,0,1,424.25,326.29Zm0-.9a2.09,2.09,0,0,0,2.11-2.29,2.07,2.07,0,0,0-2.07-2.28,2.3,2.3,0,0,0,0,4.57Zm1.15-8.07v.89L423,319.49v-.76Z"/><path class="a864656f-7425-4c34-b572-03b775ac6773" d="M433.3,322.7a1.66,1.66,0,0,0-1.72-1.9c-1.05,0-1.76.66-1.76,2v3.4h-1V320h1v.88a2.26,2.26,0,0,1,2-1,2.39,2.39,0,0,1,2.52,2.64v3.62h-1Z"/><ellipse class="ea70acac-3930-4063-98d1-0819499f1902" cx="395.26" cy="324.64" rx="62.84" ry="33.41"/><polygon class="ae41425d-fe40-4572-81be-08b4ed67e0bf" points="169.22 228.81 163.09 225.28 163.09 232.34 169.22 228.81"/><polygon class="ae41425d-fe40-4572-81be-08b4ed67e0bf" points="395.68 290.11 399.22 283.99 392.15 283.99 395.68 290.11"/></svg>