<svg id="b9ffec1a-07c3-4c8e-b6df-79c539db8b8f" data-name="Capa 1" xmlns="http://www.w3.org/2000/svg" viewBox="0 0 465.15 142.83"><defs><style>.aac5d55c-1f06-48c6-9bda-32011de42737,.feab374a-5b11-45c0-9992-bd0b2cc1030c{fill:none;stroke-width:1.87px;}.feab374a-5b11-45c0-9992-bd0b2cc1030c{stroke:#b3b3b3;stroke-linecap:round;stroke-linejoin:round;}.aac5d55c-1f06-48c6-9bda-32011de42737{stroke:#5f9eb5;stroke-miterlimit:10;}.af9764f2-6d43-44e6-9a39-2354f0003b42{fill:#272b31;}.ac54b863-e542-488f-86c7-91018c26b247{fill:#b3b3b3;}</style></defs><path class="feab374a-5b11-45c0-9992-bd0b2cc1030c" d="M159.66,120.22H233.4a12.51,12.51,0,0,0,12.51-12.5"/><path class="feab374a-5b11-45c0-9992-bd0b2cc1030c" d="M159.66,23.33H233.4a12.53,12.53,0,0,1,12.09,9.28"/><rect class="aac5d55c-1f06-48c6-9bda-32011de42737" x="7.29" y="5.41" width="152.38" height="54.85" rx="11.42"/><path class="af9764f2-6d43-44e6-9a39-2354f0003b42" d="M25.8,19.14c1.84,0,2.71,1,2.71,2.3a2.21,2.21,0,0,1-1.86,2.25l2,3.28H27.39l-1.86-3.2H24.29V27h-1V19.14Zm0,.84H24.29v3H25.8c1.15,0,1.66-.63,1.66-1.51S27,20,25.8,20Z"/><path class="af9764f2-6d43-44e6-9a39-2354f0003b42" d="M32.59,27.07a3,3,0,0,1-3-3.19,2.93,2.93,0,0,1,3-3.17,2.82,2.82,0,0,1,3,2.94,4.12,4.12,0,0,1,0,.62H30.6a1.92,1.92,0,0,0,2,1.93,1.69,1.69,0,0,0,1.73-1.13h1.1A2.77,2.77,0,0,1,32.59,27.07Zm-2-3.63h3.88a1.8,1.8,0,0,0-1.94-1.86A1.9,1.9,0,0,0,30.61,23.44Z"/><path class="af9764f2-6d43-44e6-9a39-2354f0003b42" d="M39.58,20.71a2.69,2.69,0,0,1,2.84,2.08h-1.1a1.68,1.68,0,0,0-1.74-1.21c-1.13,0-2,.79-2,2.3s.83,2.32,2,2.32A1.65,1.65,0,0,0,41.32,25h1.1a2.75,2.75,0,0,1-2.84,2.08,2.94,2.94,0,0,1-3-3.19A2.93,2.93,0,0,1,39.58,20.71Z"/><path class="af9764f2-6d43-44e6-9a39-2354f0003b42" d="M46.43,27.07a3,3,0,0,1-3.06-3.19,3.11,3.11,0,1,1,6.22,0A3.05,3.05,0,0,1,46.43,27.07Zm0-.9a2.09,2.09,0,0,0,2.12-2.29,2.07,2.07,0,0,0-2.08-2.28,2,2,0,0,0-2.06,2.28A2,2,0,0,0,46.43,26.17Z"/><path class="af9764f2-6d43-44e6-9a39-2354f0003b42" d="M51,18.66h1V27H51Z"/><path class="af9764f2-6d43-44e6-9a39-2354f0003b42" d="M56.42,27.07a3,3,0,0,1-3-3.19,2.93,2.93,0,0,1,3-3.17,2.82,2.82,0,0,1,2.95,2.94,6.13,6.13,0,0,1,0,.62H54.42a1.94,1.94,0,0,0,2,1.93,1.69,1.69,0,0,0,1.73-1.13h1.1A2.77,2.77,0,0,1,56.42,27.07Zm-2-3.63h3.89a1.8,1.8,0,0,0-1.94-1.86A1.91,1.91,0,0,0,54.43,23.44Z"/><path class="af9764f2-6d43-44e6-9a39-2354f0003b42" d="M63.4,20.71a2.69,2.69,0,0,1,2.85,2.08h-1.1a1.69,1.69,0,0,0-1.75-1.21c-1.12,0-1.95.79-1.95,2.3s.83,2.32,1.95,2.32A1.66,1.66,0,0,0,65.15,25h1.1a2.76,2.76,0,0,1-2.85,2.08,2.93,2.93,0,0,1-3-3.19A2.92,2.92,0,0,1,63.4,20.71Z"/><path class="af9764f2-6d43-44e6-9a39-2354f0003b42" d="M70.2,20.71A2.67,2.67,0,0,1,73,22.79h-1.1a1.67,1.67,0,0,0-1.74-1.21c-1.12,0-2,.79-2,2.3s.84,2.32,2,2.32A1.64,1.64,0,0,0,71.94,25H73a2.74,2.74,0,0,1-2.84,2.08,2.94,2.94,0,0,1-3-3.19A2.93,2.93,0,0,1,70.2,20.71Z"/><path class="af9764f2-6d43-44e6-9a39-2354f0003b42" d="M74.21,19.12a.69.69,0,1,1,1.37,0,.69.69,0,1,1-1.37,0Zm.17,1.69h1V27h-1Z"/><path class="af9764f2-6d43-44e6-9a39-2354f0003b42" d="M79.82,27.07a3,3,0,0,1-3.07-3.19,3.11,3.11,0,1,1,6.22,0A3.05,3.05,0,0,1,79.82,27.07Zm0-.9a2.09,2.09,0,0,0,2.11-2.29,2.07,2.07,0,0,0-2.08-2.28,2,2,0,0,0-2,2.28A2,2,0,0,0,79.82,26.17ZM81,18.11V19l-2.39,1.28v-.76Z"/><path class="af9764f2-6d43-44e6-9a39-2354f0003b42" d="M88.86,23.49a1.66,1.66,0,0,0-1.72-1.9c-1,0-1.76.65-1.76,2V27h-1V20.81h1v.88a2.26,2.26,0,0,1,2-1,2.39,2.39,0,0,1,2.52,2.64V27h-1Z"/><path class="af9764f2-6d43-44e6-9a39-2354f0003b42" d="M98.79,20.81h1.06l-3.71,9.05H95.08l1.22-3-2.48-6.09H95l1.93,5Z"/><path class="af9764f2-6d43-44e6-9a39-2354f0003b42" d="M108.5,25.23h-3.42L104.45,27h-1.07l2.83-7.79h1.18L110.2,27h-1.07Zm-1.71-4.79-1.41,3.95h2.83Z"/><path class="af9764f2-6d43-44e6-9a39-2354f0003b42" d="M115.85,23.49a1.66,1.66,0,0,0-1.72-1.9c-1,0-1.77.65-1.77,2V27h-1V20.81h1v.88a2.29,2.29,0,0,1,2-1,2.39,2.39,0,0,1,2.52,2.64V27h-1Z"/><path class="af9764f2-6d43-44e6-9a39-2354f0003b42" d="M121.09,20.71a2.55,2.55,0,0,1,2.29,1.23V20.81h1V27h-1V25.82a2.58,2.58,0,0,1-2.3,1.25,3,3,0,0,1-2.91-3.2A2.92,2.92,0,0,1,121.09,20.71Zm.2.89a2.08,2.08,0,0,0-2.08,2.27,2.09,2.09,0,1,0,4.17,0A2.1,2.1,0,0,0,121.29,21.6Zm1.29-3.42v.89l-2.39,1.28v-.76Z"/><path class="af9764f2-6d43-44e6-9a39-2354f0003b42" d="M126.15,18.66h1V27h-1Z"/><path class="af9764f2-6d43-44e6-9a39-2354f0003b42" d="M128.74,19.12a.69.69,0,1,1,.69.69A.68.68,0,0,1,128.74,19.12Zm.16,1.69h1V27h-1Z"/><path class="af9764f2-6d43-44e6-9a39-2354f0003b42" d="M133.82,27.07c-1.44,0-2.45-.79-2.52-1.91h1.06c0,.59.58,1,1.44,1s1.26-.4,1.26-.91c0-1.37-3.64-.57-3.64-2.86,0-.94.89-1.72,2.26-1.72A2.07,2.07,0,0,1,136,22.64h-1a1.17,1.17,0,0,0-1.33-1.06c-.76,0-1.2.36-1.2.85,0,1.46,3.57.66,3.61,2.86C136.06,26.3,135.17,27.07,133.82,27.07Z"/><path class="af9764f2-6d43-44e6-9a39-2354f0003b42" d="M137.33,19.12a.69.69,0,0,1,.7-.7.7.7,0,0,1,0,1.39A.69.69,0,0,1,137.33,19.12Zm.17,1.69h1V27h-1Z"/><path class="af9764f2-6d43-44e6-9a39-2354f0003b42" d="M142.41,27.07a2.24,2.24,0,0,1-2.51-1.91h1c.06.59.59,1,1.45,1s1.26-.4,1.26-.91c0-1.37-3.64-.57-3.64-2.86,0-.94.89-1.72,2.26-1.72a2.06,2.06,0,0,1,2.32,1.93h-1a1.18,1.18,0,0,0-1.34-1.06c-.75,0-1.2.36-1.2.85,0,1.46,3.57.66,3.62,2.86C144.66,26.3,143.77,27.07,142.41,27.07Z"/><path class="af9764f2-6d43-44e6-9a39-2354f0003b42" d="M27.61,37.56a2.71,2.71,0,0,1,2.28,1.2V35.51h1v8.31h-1V42.66a2.54,2.54,0,0,1-2.3,1.26,3,3,0,0,1-2.92-3.2A2.92,2.92,0,0,1,27.61,37.56Zm.19.89a2.08,2.08,0,0,0-2.08,2.27,2.09,2.09,0,1,0,2.08-2.27Z"/><path class="af9764f2-6d43-44e6-9a39-2354f0003b42" d="M35.35,43.92a3,3,0,0,1-3.05-3.19,2.94,2.94,0,0,1,3.05-3.17,2.82,2.82,0,0,1,2.95,2.95,6.08,6.08,0,0,1,0,.61H33.35a1.93,1.93,0,0,0,2,1.93,1.7,1.7,0,0,0,1.73-1.13h1.1A2.78,2.78,0,0,1,35.35,43.92Zm-2-3.63h3.88a1.79,1.79,0,0,0-1.94-1.86A1.9,1.9,0,0,0,33.36,40.29Z"/><path class="af9764f2-6d43-44e6-9a39-2354f0003b42" d="M49.24,39.92c0,2.43-1.58,3.9-4.15,3.9H42.65V36h2.44C47.66,36,49.24,37.5,49.24,39.92ZM45.09,43a2.8,2.8,0,0,0,3.11-3.06,2.82,2.82,0,0,0-3.11-3.1H43.67V43Z"/><path class="af9764f2-6d43-44e6-9a39-2354f0003b42" d="M53.22,37.56a2.55,2.55,0,0,1,2.29,1.23V37.66h1v6.16h-1V42.67a2.55,2.55,0,0,1-2.3,1.25,3,3,0,0,1-2.91-3.2A2.92,2.92,0,0,1,53.22,37.56Zm.21.89a2.08,2.08,0,0,0-2.08,2.27,2.09,2.09,0,1,0,2.08-2.27Z"/><path class="af9764f2-6d43-44e6-9a39-2354f0003b42" d="M58.5,38.51h-.8v-.85h.8V36.11h1v1.55h1.61v.85H59.52v3.62c0,.61.22.82.85.82h.76v.87h-.92c-1.09,0-1.71-.45-1.71-1.69Z"/><path class="af9764f2-6d43-44e6-9a39-2354f0003b42" d="M64.8,43.92A3.18,3.18,0,1,1,68,40.73,3.06,3.06,0,0,1,64.8,43.92Zm0-.9a2.09,2.09,0,0,0,2.11-2.29,2.07,2.07,0,0,0-2.08-2.28,2,2,0,0,0-2,2.28A2,2,0,0,0,64.8,43Z"/><path class="af9764f2-6d43-44e6-9a39-2354f0003b42" d="M71.47,43.92C70,43.92,69,43.13,69,42H70c.06.6.58,1,1.45,1s1.26-.4,1.26-.9c0-1.37-3.64-.58-3.64-2.87,0-.94.88-1.72,2.25-1.72a2.07,2.07,0,0,1,2.33,1.93h-1a1.19,1.19,0,0,0-1.34-1.06c-.75,0-1.2.36-1.2.85,0,1.46,3.57.66,3.62,2.87C73.72,43.16,72.83,43.92,71.47,43.92Z"/><path class="af9764f2-6d43-44e6-9a39-2354f0003b42" d="M81.68,35.89a3.68,3.68,0,0,1,3.63,2.37H84.08a2.45,2.45,0,0,0-2.4-1.47,2.84,2.84,0,0,0-2.86,3.11A2.84,2.84,0,0,0,81.68,43a2.46,2.46,0,0,0,2.4-1.46h1.23a3.69,3.69,0,0,1-3.63,2.35,4,4,0,0,1,0-8Z"/><path class="af9764f2-6d43-44e6-9a39-2354f0003b42" d="M92.16,43.82h-1v-.91a2.25,2.25,0,0,1-2,1,2.4,2.4,0,0,1-2.53-2.64V37.66h1v3.47A1.65,1.65,0,0,0,89.38,43c1.06,0,1.76-.65,1.76-2V37.66h1Z"/><path class="af9764f2-6d43-44e6-9a39-2354f0003b42" d="M96.46,37.56a2.55,2.55,0,0,1,2.29,1.23V37.66h1v6.16h-1V42.67a2.55,2.55,0,0,1-2.3,1.25,3,3,0,0,1-2.91-3.2A2.92,2.92,0,0,1,96.46,37.56Zm.2.89a2.07,2.07,0,0,0-2.07,2.27,2.09,2.09,0,1,0,2.07-2.27Z"/><path class="af9764f2-6d43-44e6-9a39-2354f0003b42" d="M101.52,35.51h1v8.31h-1Z"/><path class="af9764f2-6d43-44e6-9a39-2354f0003b42" d="M104.11,36a.69.69,0,1,1,.69.69A.68.68,0,0,1,104.11,36Zm.17,1.69h1v6.16h-1Z"/><path class="af9764f2-6d43-44e6-9a39-2354f0003b42" d="M107.21,38.51h-.79v-.85h.79V36.11h1v1.55h1.6v.85h-1.6v3.62c0,.61.22.82.85.82h.75v.87h-.92c-1.09,0-1.71-.45-1.71-1.69Z"/><path class="af9764f2-6d43-44e6-9a39-2354f0003b42" d="M113.39,37.56a2.55,2.55,0,0,1,2.29,1.23V37.66h1v6.16h-1V42.67a2.55,2.55,0,0,1-2.3,1.25,3,3,0,0,1-2.91-3.2A2.92,2.92,0,0,1,113.39,37.56Zm.2.89a2.07,2.07,0,0,0-2.07,2.27,2.09,2.09,0,1,0,2.07-2.27Z"/><path class="af9764f2-6d43-44e6-9a39-2354f0003b42" d="M118.67,38.51h-.8v-.85h.8V36.11h1v1.55h1.61v.85h-1.61v3.62c0,.61.22.82.85.82h.76v.87h-.93c-1.08,0-1.7-.45-1.7-1.69Z"/><path class="af9764f2-6d43-44e6-9a39-2354f0003b42" d="M122.26,36a.69.69,0,1,1,.69.69A.68.68,0,0,1,122.26,36Zm.16,1.69h1v6.16h-1Z"/><path class="af9764f2-6d43-44e6-9a39-2354f0003b42" d="M125.56,37.66l1.92,5.22,1.91-5.22h1.09l-2.42,6.16h-1.19l-2.41-6.16Z"/><path class="af9764f2-6d43-44e6-9a39-2354f0003b42" d="M134,43.92a3.18,3.18,0,1,1,3.15-3.19A3.05,3.05,0,0,1,134,43.92Zm0-.9a2.09,2.09,0,0,0,2.11-2.29A2.07,2.07,0,0,0,134,38.45a2,2,0,0,0-2.05,2.28A2,2,0,0,0,134,43Z"/><path class="af9764f2-6d43-44e6-9a39-2354f0003b42" d="M140.63,43.92c-1.44,0-2.45-.79-2.52-1.91h1.06c.05.6.58,1,1.45,1s1.25-.4,1.25-.9c0-1.37-3.64-.58-3.64-2.87,0-.94.89-1.72,2.26-1.72a2.07,2.07,0,0,1,2.33,1.93h-1a1.17,1.17,0,0,0-1.33-1.06c-.75,0-1.2.36-1.2.85,0,1.46,3.57.66,3.61,2.87C142.87,43.16,142,43.92,140.63,43.92Z"/><rect class="aac5d55c-1f06-48c6-9bda-32011de42737" x="7.29" y="79.76" width="152.38" height="54.85" rx="11.42"/><path class="af9764f2-6d43-44e6-9a39-2354f0003b42" d="M25.8,93.49c1.84,0,2.71,1,2.71,2.3A2.2,2.2,0,0,1,26.65,98l2,3.28H27.39l-1.86-3.2H24.29v3.2h-1V93.49Zm0,.84H24.29v3H25.8c1.15,0,1.66-.63,1.66-1.5S27,94.33,25.8,94.33Z"/><path class="af9764f2-6d43-44e6-9a39-2354f0003b42" d="M32.59,101.41a3.18,3.18,0,0,1,0-6.35,2.82,2.82,0,0,1,3,2.94,4.21,4.21,0,0,1,0,.62H30.6a1.93,1.93,0,0,0,2,1.93,1.69,1.69,0,0,0,1.73-1.13h1.1A2.76,2.76,0,0,1,32.59,101.41Zm-2-3.62h3.88a1.81,1.81,0,0,0-1.94-1.87A1.91,1.91,0,0,0,30.61,97.79Z"/><path class="af9764f2-6d43-44e6-9a39-2354f0003b42" d="M39.58,95.06a2.68,2.68,0,0,1,2.84,2.08h-1.1a1.68,1.68,0,0,0-1.74-1.22c-1.13,0-2,.8-2,2.31s.83,2.32,2,2.32a1.66,1.66,0,0,0,1.74-1.21h1.1a2.74,2.74,0,0,1-2.84,2.07,3.18,3.18,0,0,1,0-6.35Z"/><path class="af9764f2-6d43-44e6-9a39-2354f0003b42" d="M46.43,101.41a3,3,0,0,1-3.06-3.18,3.11,3.11,0,1,1,6.22,0A3,3,0,0,1,46.43,101.41Zm0-.89a2.09,2.09,0,0,0,2.12-2.29A2.07,2.07,0,0,0,46.47,96a2.3,2.3,0,0,0,0,4.57Z"/><path class="af9764f2-6d43-44e6-9a39-2354f0003b42" d="M51,93h1v8.31H51Z"/><path class="af9764f2-6d43-44e6-9a39-2354f0003b42" d="M56.42,101.41a3,3,0,0,1-3-3.18,2.92,2.92,0,0,1,3-3.17A2.82,2.82,0,0,1,59.37,98c0,.23,0,.4,0,.62H54.42a1.94,1.94,0,0,0,2,1.93,1.69,1.69,0,0,0,1.73-1.13h1.1A2.76,2.76,0,0,1,56.42,101.41Zm-2-3.62h3.89a1.81,1.81,0,0,0-1.94-1.87A1.92,1.92,0,0,0,54.43,97.79Z"/><path class="af9764f2-6d43-44e6-9a39-2354f0003b42" d="M63.4,95.06a2.68,2.68,0,0,1,2.85,2.08h-1.1a1.69,1.69,0,0,0-1.75-1.22c-1.12,0-1.95.8-1.95,2.31s.83,2.32,1.95,2.32a1.67,1.67,0,0,0,1.75-1.21h1.1a2.75,2.75,0,0,1-2.85,2.07,3.18,3.18,0,0,1,0-6.35Z"/><path class="af9764f2-6d43-44e6-9a39-2354f0003b42" d="M70.2,95.06A2.66,2.66,0,0,1,73,97.14h-1.1a1.67,1.67,0,0,0-1.74-1.22c-1.12,0-2,.8-2,2.31s.84,2.32,2,2.32a1.65,1.65,0,0,0,1.74-1.21H73a2.73,2.73,0,0,1-2.84,2.07,3.18,3.18,0,0,1,0-6.35Z"/><path class="af9764f2-6d43-44e6-9a39-2354f0003b42" d="M74.21,93.46a.69.69,0,1,1,.7.7A.68.68,0,0,1,74.21,93.46Zm.17,1.7h1v6.15h-1Z"/><path class="af9764f2-6d43-44e6-9a39-2354f0003b42" d="M79.82,101.41A3.18,3.18,0,1,1,83,98.23,3,3,0,0,1,79.82,101.41Zm0-.89a2.09,2.09,0,0,0,2.11-2.29A2.07,2.07,0,0,0,79.85,96a2.3,2.3,0,0,0,0,4.57ZM81,92.45v.89l-2.39,1.28v-.76Z"/><path class="af9764f2-6d43-44e6-9a39-2354f0003b42" d="M88.86,97.83a1.66,1.66,0,0,0-1.72-1.9c-1,0-1.76.66-1.76,2v3.4h-1V95.16h1V96a2.26,2.26,0,0,1,2-1,2.39,2.39,0,0,1,2.52,2.64v3.62h-1Z"/><path class="af9764f2-6d43-44e6-9a39-2354f0003b42" d="M98.79,95.16h1.06l-3.71,9H95.08l1.22-3-2.48-6.09H95l1.93,5Z"/><path class="af9764f2-6d43-44e6-9a39-2354f0003b42" d="M108.5,99.57h-3.42l-.63,1.74h-1.07l2.83-7.78h1.18l2.81,7.78h-1.07Zm-1.71-4.78-1.41,3.95h2.83Z"/><path class="af9764f2-6d43-44e6-9a39-2354f0003b42" d="M115.85,97.83a1.66,1.66,0,0,0-1.72-1.9c-1,0-1.77.66-1.77,2v3.4h-1V95.16h1V96a2.29,2.29,0,0,1,2-1,2.39,2.39,0,0,1,2.52,2.64v3.62h-1Z"/><path class="af9764f2-6d43-44e6-9a39-2354f0003b42" d="M121.09,95.06a2.55,2.55,0,0,1,2.29,1.22V95.16h1v6.15h-1v-1.14a2.57,2.57,0,0,1-2.3,1.24,3,3,0,0,1-2.91-3.2A2.91,2.91,0,0,1,121.09,95.06Zm.2.89a2.08,2.08,0,0,0-2.08,2.26A2.09,2.09,0,1,0,121.29,96Zm1.29-3.42v.89l-2.39,1.28v-.76Z"/><path class="af9764f2-6d43-44e6-9a39-2354f0003b42" d="M126.15,93h1v8.31h-1Z"/><path class="af9764f2-6d43-44e6-9a39-2354f0003b42" d="M128.74,93.46a.69.69,0,1,1,.69.7A.68.68,0,0,1,128.74,93.46Zm.16,1.7h1v6.15h-1Z"/><path class="af9764f2-6d43-44e6-9a39-2354f0003b42" d="M133.82,101.41c-1.44,0-2.45-.78-2.52-1.9h1.06c0,.59.58,1,1.44,1s1.26-.4,1.26-.91c0-1.37-3.64-.57-3.64-2.86,0-1,.89-1.72,2.26-1.72A2.07,2.07,0,0,1,136,97h-1a1.18,1.18,0,0,0-1.33-1.07c-.76,0-1.2.36-1.2.86,0,1.46,3.57.66,3.61,2.86C136.06,100.65,135.17,101.41,133.82,101.41Z"/><path class="af9764f2-6d43-44e6-9a39-2354f0003b42" d="M137.33,93.46a.69.69,0,0,1,.7-.69.7.7,0,0,1,0,1.39A.69.69,0,0,1,137.33,93.46Zm.17,1.7h1v6.15h-1Z"/><path class="af9764f2-6d43-44e6-9a39-2354f0003b42" d="M142.41,101.41c-1.43,0-2.44-.78-2.51-1.9h1c.06.59.59,1,1.45,1s1.26-.4,1.26-.91c0-1.37-3.64-.57-3.64-2.86,0-1,.89-1.72,2.26-1.72A2.06,2.06,0,0,1,144.6,97h-1a1.18,1.18,0,0,0-1.34-1.07c-.75,0-1.2.36-1.2.86,0,1.46,3.57.66,3.62,2.86C144.66,100.65,143.77,101.41,142.41,101.41Z"/><path class="af9764f2-6d43-44e6-9a39-2354f0003b42" d="M23.44,111.91a2.68,2.68,0,0,1,2.28,1.2v-3.26h1v8.32h-1V117a2.54,2.54,0,0,1-2.29,1.26,3,3,0,0,1-2.92-3.2A2.92,2.92,0,0,1,23.44,111.91Zm.19.89a2.08,2.08,0,0,0-2.08,2.27,2.09,2.09,0,1,0,2.08-2.27Z"/><path class="af9764f2-6d43-44e6-9a39-2354f0003b42" d="M31.18,118.27a3,3,0,0,1-3-3.19,2.93,2.93,0,0,1,3-3.17,2.82,2.82,0,0,1,3,2.94,6.06,6.06,0,0,1,0,.62H29.18a1.94,1.94,0,0,0,2,1.93,1.69,1.69,0,0,0,1.73-1.13H34A2.77,2.77,0,0,1,31.18,118.27Zm-2-3.63h3.89a1.81,1.81,0,0,0-1.94-1.87A1.92,1.92,0,0,0,29.19,114.64Z"/><path class="af9764f2-6d43-44e6-9a39-2354f0003b42" d="M45.08,114.27c0,2.42-1.59,3.9-4.16,3.9H38.49v-7.83h2.43C43.49,110.34,45.08,111.84,45.08,114.27Zm-4.16,3a2.78,2.78,0,0,0,3.11-3,2.82,2.82,0,0,0-3.11-3.1H39.51v6.15Z"/><path class="af9764f2-6d43-44e6-9a39-2354f0003b42" d="M49.06,111.91a2.56,2.56,0,0,1,2.29,1.22V112h1v6.16h-1V117a2.58,2.58,0,0,1-2.3,1.25,3,3,0,0,1-2.91-3.2A2.92,2.92,0,0,1,49.06,111.91Zm.2.89a2.08,2.08,0,0,0-2.08,2.27,2.09,2.09,0,1,0,2.08-2.27Z"/><path class="af9764f2-6d43-44e6-9a39-2354f0003b42" d="M54.33,112.85h-.79V112h.79v-1.55h1V112H57v.84h-1.6v3.63c0,.61.22.82.85.82H57v.87H56c-1.09,0-1.71-.45-1.71-1.69Z"/><path class="af9764f2-6d43-44e6-9a39-2354f0003b42" d="M60.64,118.27a3.18,3.18,0,1,1,3.15-3.19A3.05,3.05,0,0,1,60.64,118.27Zm0-.9a2.29,2.29,0,0,0,0-4.57,2.3,2.3,0,0,0,0,4.57Z"/><path class="af9764f2-6d43-44e6-9a39-2354f0003b42" d="M67.3,118.27a2.24,2.24,0,0,1-2.51-1.91h1c.06.59.59,1,1.45,1s1.26-.4,1.26-.91c0-1.37-3.64-.57-3.64-2.86,0-.95.89-1.72,2.26-1.72a2.06,2.06,0,0,1,2.32,1.93h-1a1.18,1.18,0,0,0-1.33-1.07c-.76,0-1.21.36-1.21.86,0,1.46,3.58.66,3.62,2.86C69.55,117.5,68.66,118.27,67.3,118.27Z"/><path class="af9764f2-6d43-44e6-9a39-2354f0003b42" d="M77.52,110.24a3.67,3.67,0,0,1,3.62,2.37H79.92a2.46,2.46,0,0,0-2.4-1.47,3.11,3.11,0,0,0,0,6.21,2.48,2.48,0,0,0,2.4-1.46h1.22a3.67,3.67,0,0,1-3.62,2.34,4,4,0,0,1,0-8Z"/><path class="af9764f2-6d43-44e6-9a39-2354f0003b42" d="M88,118.17H87v-.91a2.27,2.27,0,0,1-2,1,2.4,2.4,0,0,1-2.52-2.64V112h1v3.47a1.65,1.65,0,0,0,1.72,1.89c1,0,1.76-.65,1.76-2V112h1Z"/><path class="af9764f2-6d43-44e6-9a39-2354f0003b42" d="M92.3,111.91a2.56,2.56,0,0,1,2.29,1.22V112h1v6.16h-1V117a2.58,2.58,0,0,1-2.3,1.25,3,3,0,0,1-2.91-3.2A2.92,2.92,0,0,1,92.3,111.91Zm.2.89a2.08,2.08,0,0,0-2.08,2.27,2.09,2.09,0,1,0,2.08-2.27Z"/><path class="af9764f2-6d43-44e6-9a39-2354f0003b42" d="M101.86,114.68c0-1.25-.68-1.89-1.71-1.89s-1.77.65-1.77,2v3.41h-1V112h1v.88a2.29,2.29,0,0,1,2-1,2.38,2.38,0,0,1,2.51,2.64v3.63h-1Z"/><path class="af9764f2-6d43-44e6-9a39-2354f0003b42" d="M104.69,112.85h-.8V112h.8v-1.55h1V112h1.6v.84h-1.6v3.63c0,.61.22.82.85.82h.75v.87h-.92c-1.09,0-1.7-.45-1.7-1.69Z"/><path class="af9764f2-6d43-44e6-9a39-2354f0003b42" d="M108.27,110.32a.69.69,0,0,1,.7-.7.7.7,0,0,1,0,1.39A.69.69,0,0,1,108.27,110.32Zm.17,1.69h1v6.16h-1Z"/><path class="af9764f2-6d43-44e6-9a39-2354f0003b42" d="M111.38,112.85h-.8V112h.8v-1.55h1V112H114v.84H112.4v3.63c0,.61.23.82.85.82H114v.87h-.92c-1.09,0-1.71-.45-1.71-1.69Z"/><path class="af9764f2-6d43-44e6-9a39-2354f0003b42" d="M117.56,111.91a2.56,2.56,0,0,1,2.29,1.22V112h1v6.16h-1V117a2.58,2.58,0,0,1-2.3,1.25,3,3,0,0,1-2.91-3.2A2.92,2.92,0,0,1,117.56,111.91Zm.2.89a2.08,2.08,0,0,0-2.08,2.27,2.09,2.09,0,1,0,2.08-2.27Z"/><path class="af9764f2-6d43-44e6-9a39-2354f0003b42" d="M122.83,112.85H122V112h.79v-1.55h1V112h1.61v.84h-1.61v3.63c0,.61.23.82.86.82h.75v.87h-.92c-1.09,0-1.71-.45-1.71-1.69Z"/><path class="af9764f2-6d43-44e6-9a39-2354f0003b42" d="M126.42,110.32a.69.69,0,1,1,1.37,0,.69.69,0,1,1-1.37,0Zm.17,1.69h1v6.16h-1Z"/><path class="af9764f2-6d43-44e6-9a39-2354f0003b42" d="M129.72,112l1.92,5.21,1.91-5.21h1.09l-2.41,6.16H131L128.62,112Z"/><path class="af9764f2-6d43-44e6-9a39-2354f0003b42" d="M138.12,118.27a3.18,3.18,0,1,1,3.16-3.19A3.06,3.06,0,0,1,138.12,118.27Zm0-.9a2.09,2.09,0,0,0,2.11-2.29,2.07,2.07,0,0,0-2.07-2.28,2.3,2.3,0,0,0,0,4.57Z"/><path class="af9764f2-6d43-44e6-9a39-2354f0003b42" d="M144.79,118.27c-1.44,0-2.45-.79-2.51-1.91h1.05c.06.59.58,1,1.45,1s1.26-.4,1.26-.91c0-1.37-3.64-.57-3.64-2.86,0-.95.89-1.72,2.26-1.72a2.07,2.07,0,0,1,2.32,1.93h-1a1.19,1.19,0,0,0-1.34-1.07c-.75,0-1.2.36-1.2.86,0,1.46,3.57.66,3.62,2.86C147,117.5,146.15,118.27,144.79,118.27Z"/><line class="feab374a-5b11-45c0-9992-bd0b2cc1030c" x1="308.74" y1="71.42" x2="325.66" y2="71.42"/><path class="af9764f2-6d43-44e6-9a39-2354f0003b42" d="M211.56,57.54a3.68,3.68,0,0,1,3.63,2.37H214a2.46,2.46,0,0,0-2.4-1.47,3.12,3.12,0,0,0,0,6.21,2.47,2.47,0,0,0,2.4-1.46h1.23a3.69,3.69,0,0,1-3.63,2.35,4,4,0,0,1,0-8Z"/><path class="af9764f2-6d43-44e6-9a39-2354f0003b42" d="M219.32,65.57a3.18,3.18,0,1,1,3.16-3.19A3.06,3.06,0,0,1,219.32,65.57Zm0-.9a2.09,2.09,0,0,0,2.11-2.29,2.07,2.07,0,0,0-2.07-2.28,2.3,2.3,0,0,0,0,4.57Z"/><path class="af9764f2-6d43-44e6-9a39-2354f0003b42" d="M232.74,62c0-1.26-.67-1.9-1.68-1.9s-1.74.66-1.74,2v3.39h-1V62c0-1.26-.68-1.9-1.69-1.9s-1.74.66-1.74,2v3.39h-1V59.31h1v.89a2.25,2.25,0,0,1,2-1,2.3,2.3,0,0,1,2.25,1.37,2.28,2.28,0,0,1,2.18-1.37,2.39,2.39,0,0,1,2.5,2.64v3.63h-1Z"/><path class="af9764f2-6d43-44e6-9a39-2354f0003b42" d="M238.79,59.21a2.92,2.92,0,0,1,2.92,3.16,3,3,0,0,1-2.92,3.2,2.66,2.66,0,0,1-2.3-1.24v4.06h-1V59.31h1v1.14A2.6,2.6,0,0,1,238.79,59.21Zm-.21.89a2.29,2.29,0,1,0,2.09,2.27A2.08,2.08,0,0,0,238.58,60.1Z"/><path class="af9764f2-6d43-44e6-9a39-2354f0003b42" d="M245.66,59.21A2.55,2.55,0,0,1,248,60.44V59.31h1v6.16h-1V64.32a2.55,2.55,0,0,1-2.3,1.25,3,3,0,0,1-2.91-3.2A2.92,2.92,0,0,1,245.66,59.21Zm.2.89a2.07,2.07,0,0,0-2.07,2.27,2.09,2.09,0,1,0,2.07-2.27Z"/><path class="af9764f2-6d43-44e6-9a39-2354f0003b42" d="M251.75,65.47h-1V59.31h1v1a2.07,2.07,0,0,1,2-1.11v1.06h-.27c-1,0-1.71.44-1.71,1.86Z"/><path class="af9764f2-6d43-44e6-9a39-2354f0003b42" d="M257.29,59.21a2.57,2.57,0,0,1,2.3,1.23V59.31h1v6.16h-1V64.32a2.56,2.56,0,0,1-2.31,1.25,3,3,0,0,1-2.91-3.2A2.92,2.92,0,0,1,257.29,59.21Zm.21.89a2.08,2.08,0,0,0-2.08,2.27,2.09,2.09,0,1,0,2.08-2.27Z"/><path class="af9764f2-6d43-44e6-9a39-2354f0003b42" d="M265,59.21a2.67,2.67,0,0,1,2.84,2.08h-1.1A1.67,1.67,0,0,0,265,60.08c-1.12,0-1.95.79-1.95,2.3s.83,2.32,1.95,2.32a1.64,1.64,0,0,0,1.74-1.21h1.1A2.73,2.73,0,0,1,265,65.57a3.19,3.19,0,0,1,0-6.36Z"/><path class="af9764f2-6d43-44e6-9a39-2354f0003b42" d="M269,57.62a.69.69,0,1,1,.69.69A.68.68,0,0,1,269,57.62Zm.17,1.69h1v6.16h-1Z"/><path class="af9764f2-6d43-44e6-9a39-2354f0003b42" d="M274.62,65.57a3.18,3.18,0,1,1,3.15-3.19A3.05,3.05,0,0,1,274.62,65.57Zm0-.9a2.09,2.09,0,0,0,2.11-2.29,2.07,2.07,0,0,0-2.08-2.28,2.3,2.3,0,0,0,0,4.57Zm1.14-8.06v.88l-2.39,1.28V58Z"/><path class="af9764f2-6d43-44e6-9a39-2354f0003b42" d="M283.66,62a1.66,1.66,0,0,0-1.72-1.9c-1,0-1.76.65-1.76,2v3.4h-1V59.31h1v.88a2.26,2.26,0,0,1,2-1,2.39,2.39,0,0,1,2.52,2.64v3.63h-1Z"/><path class="af9764f2-6d43-44e6-9a39-2354f0003b42" d="M220.08,76.17h1.06l-3.71,9h-1.05l1.21-3-2.48-6.08h1.13l1.93,5Z"/><path class="af9764f2-6d43-44e6-9a39-2354f0003b42" d="M227.78,76.06a2.67,2.67,0,0,1,2.84,2.08h-1.1a1.67,1.67,0,0,0-1.74-1.21c-1.12,0-1.95.8-1.95,2.3s.83,2.33,1.95,2.33a1.65,1.65,0,0,0,1.74-1.22h1.1a2.73,2.73,0,0,1-2.84,2.08,3.19,3.19,0,0,1,0-6.36Z"/><path class="af9764f2-6d43-44e6-9a39-2354f0003b42" d="M234.64,82.42a3.18,3.18,0,1,1,3.15-3.19A3,3,0,0,1,234.64,82.42Zm0-.9a2.09,2.09,0,0,0,2.11-2.29A2.07,2.07,0,0,0,234.67,77a2.3,2.3,0,0,0,0,4.57Z"/><path class="af9764f2-6d43-44e6-9a39-2354f0003b42" d="M243.68,78.84a1.66,1.66,0,0,0-1.72-1.9c-1,0-1.76.65-1.76,2v3.4h-1V76.17h1V77a2.26,2.26,0,0,1,2-1,2.39,2.39,0,0,1,2.52,2.64v3.63h-1Z"/><path class="af9764f2-6d43-44e6-9a39-2354f0003b42" d="M246.5,77h-.8v-.84h.8V74.62h1v1.55h1.61V77h-1.61v3.63c0,.6.23.82.86.82h.75v.86h-.92c-1.09,0-1.71-.45-1.71-1.68Z"/><path class="af9764f2-6d43-44e6-9a39-2354f0003b42" d="M251.28,82.32h-1V76.17h1v1a2.07,2.07,0,0,1,2-1.12v1.06H253c-1,0-1.72.44-1.72,1.86Z"/><path class="af9764f2-6d43-44e6-9a39-2354f0003b42" d="M256.83,76.06a2.56,2.56,0,0,1,2.29,1.23V76.17h1v6.15h-1V81.17a2.56,2.56,0,0,1-2.31,1.25,3,3,0,0,1-2.9-3.2A2.92,2.92,0,0,1,256.83,76.06Zm.2.89A2.08,2.08,0,0,0,255,79.22,2.09,2.09,0,1,0,257,77Z"/><path class="af9764f2-6d43-44e6-9a39-2354f0003b42" d="M264.07,82.42c-1.43,0-2.45-.78-2.51-1.91h1.05c.06.6.59,1,1.45,1s1.26-.41,1.26-.91c0-1.37-3.64-.58-3.64-2.87,0-.94.89-1.72,2.26-1.72A2.06,2.06,0,0,1,266.26,78h-1a1.18,1.18,0,0,0-1.34-1.07c-.75,0-1.2.36-1.2.85,0,1.46,3.57.67,3.62,2.87C266.32,81.66,265.43,82.42,264.07,82.42Z"/><path class="af9764f2-6d43-44e6-9a39-2354f0003b42" d="M267.93,77h-.79v-.84h.79V74.62h1v1.55h1.6V77H269v3.63c0,.6.22.82.85.82h.75v.86h-.92c-1.09,0-1.71-.45-1.71-1.68Z"/><path class="af9764f2-6d43-44e6-9a39-2354f0003b42" d="M274.24,82.42a3.18,3.18,0,0,1,0-6.36,2.82,2.82,0,0,1,2.95,3,6.08,6.08,0,0,1,0,.61h-4.92a1.94,1.94,0,0,0,2,1.94A1.7,1.7,0,0,0,276,80.42h1.1A2.77,2.77,0,0,1,274.24,82.42Zm-2-3.63h3.88a1.79,1.79,0,0,0-1.94-1.86A1.9,1.9,0,0,0,272.25,78.79Z"/><ellipse class="aac5d55c-1f06-48c6-9bda-32011de42737" cx="245.91" cy="71.42" rx="62.84" ry="33.41"/><path class="af9764f2-6d43-44e6-9a39-2354f0003b42" d="M356.86,65.13h1V73h-1Z"/><path class="af9764f2-6d43-44e6-9a39-2354f0003b42" d="M364.16,69.48c0-1.26-.68-1.9-1.72-1.9s-1.76.65-1.76,2V73h-1V66.8h1v.88a2.28,2.28,0,0,1,2-1,2.39,2.39,0,0,1,2.51,2.64V73h-1Z"/><path class="af9764f2-6d43-44e6-9a39-2354f0003b42" d="M367,67.65h-.79V66.8H367V65.25h1V66.8h1.61v.85H368v3.62c0,.61.23.82.86.82h.75V73h-.92c-1.09,0-1.71-.45-1.71-1.69Z"/><path class="af9764f2-6d43-44e6-9a39-2354f0003b42" d="M373.28,73.06a3,3,0,0,1-3-3.19,2.93,2.93,0,0,1,3-3.17,2.83,2.83,0,0,1,3,3,4.08,4.08,0,0,1,0,.61h-4.91a1.92,1.92,0,0,0,2,1.93A1.68,1.68,0,0,0,375,71.06h1.1A2.77,2.77,0,0,1,373.28,73.06Zm-2-3.63h3.88a1.8,1.8,0,0,0-1.94-1.86A1.9,1.9,0,0,0,371.3,69.43Z"/><path class="af9764f2-6d43-44e6-9a39-2354f0003b42" d="M378.64,73h-1V66.8h1v1a2.08,2.08,0,0,1,2-1.11v1.06h-.27c-1,0-1.72.44-1.72,1.86Z"/><path class="af9764f2-6d43-44e6-9a39-2354f0003b42" d="M385.06,66.7A2.92,2.92,0,0,1,388,69.86a3,3,0,0,1-2.92,3.2,2.68,2.68,0,0,1-2.31-1.24v4.06h-1V66.8h1v1.14A2.61,2.61,0,0,1,385.06,66.7Zm-.22.89a2.29,2.29,0,1,0,2.09,2.27A2.08,2.08,0,0,0,384.84,67.59Z"/><path class="af9764f2-6d43-44e6-9a39-2354f0003b42" d="M390.38,73h-1V66.8h1v1a2.08,2.08,0,0,1,2-1.11v1.06h-.27c-1,0-1.72.44-1.72,1.86Z"/><path class="af9764f2-6d43-44e6-9a39-2354f0003b42" d="M396.05,73.06a3,3,0,0,1-3-3.19,2.93,2.93,0,0,1,3-3.17,2.83,2.83,0,0,1,3,3,4.08,4.08,0,0,1,0,.61h-4.92a1.94,1.94,0,0,0,2,1.93,1.69,1.69,0,0,0,1.73-1.13h1.1A2.77,2.77,0,0,1,396.05,73.06Zm-2-3.63H398A1.8,1.8,0,0,0,396,67.57,1.9,1.9,0,0,0,394.07,69.43Z"/><path class="af9764f2-6d43-44e6-9a39-2354f0003b42" d="M400.49,67.65h-.8V66.8h.8V65.25h1V66.8h1.61v.85h-1.61v3.62c0,.61.23.82.86.82h.75V73h-.92c-1.09,0-1.71-.45-1.71-1.69Z"/><path class="af9764f2-6d43-44e6-9a39-2354f0003b42" d="M406.67,66.7A2.56,2.56,0,0,1,409,67.93V66.8h1V73h-1V71.81a2.56,2.56,0,0,1-2.3,1.25,3,3,0,0,1-2.91-3.2A2.92,2.92,0,0,1,406.67,66.7Zm.2.89a2.08,2.08,0,0,0-2.08,2.27,2.09,2.09,0,1,0,2.08-2.27Z"/><path class="af9764f2-6d43-44e6-9a39-2354f0003b42" d="M414.38,66.7a2.69,2.69,0,0,1,2.84,2.08h-1.1a1.68,1.68,0,0,0-1.74-1.21c-1.13,0-2,.79-2,2.3s.83,2.32,2,2.32A1.65,1.65,0,0,0,416.12,71h1.1a2.74,2.74,0,0,1-2.84,2.08,3.19,3.19,0,0,1,0-6.36Z"/><path class="af9764f2-6d43-44e6-9a39-2354f0003b42" d="M418.38,65.11a.7.7,0,0,1,.7-.7.68.68,0,0,1,.67.7.67.67,0,0,1-.67.69A.69.69,0,0,1,418.38,65.11Zm.17,1.69h1V73h-1Z"/><path class="af9764f2-6d43-44e6-9a39-2354f0003b42" d="M424,73.06a3.18,3.18,0,1,1,3.16-3.19A3.06,3.06,0,0,1,424,73.06Zm0-.9a2.29,2.29,0,0,0,0-4.57,2.3,2.3,0,0,0,0,4.57Zm1.15-8.06V65l-2.4,1.28V65.5Z"/><path class="af9764f2-6d43-44e6-9a39-2354f0003b42" d="M433,69.48c0-1.26-.68-1.9-1.71-1.9s-1.77.65-1.77,2V73h-1V66.8h1v.88a2.29,2.29,0,0,1,2-1A2.39,2.39,0,0,1,434,69.33V73h-1Z"/><ellipse class="aac5d55c-1f06-48c6-9bda-32011de42737" cx="395" cy="71.42" rx="62.84" ry="33.41"/><polygon class="ac54b863-e542-488f-86c7-91018c26b247" points="246.31 105.75 241.66 111.06 248.59 112.44 246.31 105.75"/><polygon class="ac54b863-e542-488f-86c7-91018c26b247" points="246.07 37.06 241.41 31.75 248.34 30.38 246.07 37.06"/><polygon class="ac54b863-e542-488f-86c7-91018c26b247" points="331.18 71.42 325.06 67.88 325.06 74.95 331.18 71.42"/></svg>