<svg id="e2c05506-0b06-4f07-a6f1-9f202da9d0bd" data-name="Capa 1" xmlns="http://www.w3.org/2000/svg" viewBox="0 0 467.29 317.32"><defs><style>.a1aade89-5081-4620-8c4f-c2584741bf7e,.fb79fef8-c817-41bf-8187-a2951947ca74,.fc64a3ec-c028-4243-adb9-8c8f1edf39bd{fill:none;stroke-width:1.87px;}.fb79fef8-c817-41bf-8187-a2951947ca74{stroke:#b3b3b3;}.fb79fef8-c817-41bf-8187-a2951947ca74,.fc64a3ec-c028-4243-adb9-8c8f1edf39bd{stroke-linecap:round;stroke-linejoin:round;}.a1aade89-5081-4620-8c4f-c2584741bf7e,.fc64a3ec-c028-4243-adb9-8c8f1edf39bd{stroke:#e7514f;}.a1aade89-5081-4620-8c4f-c2584741bf7e{stroke-miterlimit:10;}.fa07c103-c39b-4867-9c34-eb83c5bd4ee3{fill:#272b31;}.b898f6b1-73c9-4ab1-9064-c58a2e036a70{fill:#b3b3b3;}</style></defs><path class="fb79fef8-c817-41bf-8187-a2951947ca74" d="M159.6,122.08h73.74a12.5,12.5,0,0,0,12.5-12.51"/><path class="fb79fef8-c817-41bf-8187-a2951947ca74" d="M159.6,25.18h73.74a12.51,12.51,0,0,1,12.08,9.28"/><rect class="a1aade89-5081-4620-8c4f-c2584741bf7e" x="7.22" y="7.27" width="152.38" height="54.85" rx="11.42"/><path class="fa07c103-c39b-4867-9c34-eb83c5bd4ee3" d="M25.73,21c1.85,0,2.72,1,2.72,2.31a2.2,2.2,0,0,1-1.86,2.24l2,3.28H27.33l-1.87-3.2H24.23v3.2h-1V21Zm0,.85h-1.5v3h1.5c1.16,0,1.67-.63,1.67-1.5S26.9,21.84,25.73,21.84Z"/><path class="fa07c103-c39b-4867-9c34-eb83c5bd4ee3" d="M32.53,28.92a3,3,0,0,1-3-3.19,2.93,2.93,0,0,1,3-3.16,2.82,2.82,0,0,1,3,2.94c0,.22,0,.4,0,.62H30.53a1.94,1.94,0,0,0,2,1.93,1.68,1.68,0,0,0,1.73-1.14h1.1A2.75,2.75,0,0,1,32.53,28.92Zm-2-3.63h3.89a1.8,1.8,0,0,0-1.94-1.86A1.91,1.91,0,0,0,30.54,25.29Z"/><path class="fa07c103-c39b-4867-9c34-eb83c5bd4ee3" d="M39.52,22.57a2.68,2.68,0,0,1,2.84,2.07h-1.1a1.68,1.68,0,0,0-1.74-1.21c-1.13,0-2,.8-2,2.3s.83,2.33,2,2.33a1.65,1.65,0,0,0,1.74-1.22h1.1a2.74,2.74,0,0,1-2.84,2.08,2.93,2.93,0,0,1-3-3.19A2.92,2.92,0,0,1,39.52,22.57Z"/><path class="fa07c103-c39b-4867-9c34-eb83c5bd4ee3" d="M46.37,28.92a3,3,0,0,1-3.06-3.19,3.11,3.11,0,1,1,6.22,0A3.05,3.05,0,0,1,46.37,28.92Zm0-.9a2.09,2.09,0,0,0,2.11-2.29,2.07,2.07,0,0,0-2.07-2.28,2,2,0,0,0-2.06,2.28A2,2,0,0,0,46.37,28Z"/><path class="fa07c103-c39b-4867-9c34-eb83c5bd4ee3" d="M50.91,20.51h1v8.31h-1Z"/><path class="fa07c103-c39b-4867-9c34-eb83c5bd4ee3" d="M56.36,28.92a3,3,0,0,1-3-3.19,2.92,2.92,0,0,1,3-3.16,2.82,2.82,0,0,1,3,2.94c0,.22,0,.4,0,.62H54.36a1.94,1.94,0,0,0,2,1.93,1.69,1.69,0,0,0,1.73-1.14h1.1A2.76,2.76,0,0,1,56.36,28.92Zm-2-3.63h3.89a1.81,1.81,0,0,0-1.95-1.86A1.9,1.9,0,0,0,54.37,25.29Z"/><path class="fa07c103-c39b-4867-9c34-eb83c5bd4ee3" d="M63.34,22.57a2.66,2.66,0,0,1,2.84,2.07h-1.1a1.67,1.67,0,0,0-1.74-1.21c-1.12,0-2,.8-2,2.3s.83,2.33,2,2.33a1.65,1.65,0,0,0,1.74-1.22h1.1a2.73,2.73,0,0,1-2.84,2.08,2.93,2.93,0,0,1-3-3.19A2.92,2.92,0,0,1,63.34,22.57Z"/><path class="fa07c103-c39b-4867-9c34-eb83c5bd4ee3" d="M70.14,22.57A2.68,2.68,0,0,1,73,24.64h-1.1a1.68,1.68,0,0,0-1.74-1.21c-1.13,0-2,.8-2,2.3s.83,2.33,2,2.33a1.65,1.65,0,0,0,1.74-1.22H73a2.74,2.74,0,0,1-2.84,2.08,2.93,2.93,0,0,1-3-3.19A2.92,2.92,0,0,1,70.14,22.57Z"/><path class="fa07c103-c39b-4867-9c34-eb83c5bd4ee3" d="M74.15,21a.69.69,0,1,1,.69.7A.69.69,0,0,1,74.15,21Zm.17,1.7h1v6.15h-1Z"/><path class="fa07c103-c39b-4867-9c34-eb83c5bd4ee3" d="M79.75,28.92a3,3,0,0,1-3.06-3.19,3.11,3.11,0,1,1,6.22,0A3,3,0,0,1,79.75,28.92Zm0-.9a2.09,2.09,0,0,0,2.12-2.29,2.07,2.07,0,0,0-2.08-2.28,2,2,0,0,0-2.06,2.28A2,2,0,0,0,79.75,28ZM80.9,20v.89l-2.39,1.28v-.77Z"/><path class="fa07c103-c39b-4867-9c34-eb83c5bd4ee3" d="M88.8,25.34a1.66,1.66,0,0,0-1.72-1.9c-1,0-1.76.65-1.76,2v3.4h-1V22.67h1v.87a2.26,2.26,0,0,1,2-1,2.39,2.39,0,0,1,2.52,2.64v3.63h-1Z"/><path class="fa07c103-c39b-4867-9c34-eb83c5bd4ee3" d="M98.73,22.67h1l-3.7,9H95l1.22-3-2.49-6.08h1.14l1.93,5Z"/><path class="fa07c103-c39b-4867-9c34-eb83c5bd4ee3" d="M108.44,27.08H105l-.63,1.74h-1.08L106.14,21h1.18l2.82,7.78h-1.08Zm-1.71-4.78-1.42,3.95h2.83Z"/><path class="fa07c103-c39b-4867-9c34-eb83c5bd4ee3" d="M115.78,25.34c0-1.26-.68-1.9-1.72-1.9s-1.76.65-1.76,2v3.4h-1V22.67h1v.87a2.29,2.29,0,0,1,2-1,2.39,2.39,0,0,1,2.51,2.64v3.63h-1Z"/><path class="fa07c103-c39b-4867-9c34-eb83c5bd4ee3" d="M121,22.57a2.56,2.56,0,0,1,2.29,1.22V22.67h1v6.15h-1V27.68a2.57,2.57,0,0,1-2.3,1.24,3,3,0,0,1-2.91-3.2A2.91,2.91,0,0,1,121,22.57Zm.2.88a2.08,2.08,0,0,0-2.08,2.27,2.09,2.09,0,1,0,4.17,0A2.12,2.12,0,0,0,121.23,23.45ZM122.52,20v.89l-2.39,1.28v-.77Z"/><path class="fa07c103-c39b-4867-9c34-eb83c5bd4ee3" d="M126.08,20.51h1v8.31h-1Z"/><path class="fa07c103-c39b-4867-9c34-eb83c5bd4ee3" d="M128.67,21a.7.7,0,0,1,.7-.7.7.7,0,0,1,0,1.4A.7.7,0,0,1,128.67,21Zm.17,1.7h1v6.15h-1Z"/><path class="fa07c103-c39b-4867-9c34-eb83c5bd4ee3" d="M133.75,28.92A2.24,2.24,0,0,1,131.24,27h1c.06.6.59,1,1.45,1s1.26-.41,1.26-.91c0-1.37-3.64-.58-3.64-2.87,0-.94.89-1.71,2.26-1.71a2.06,2.06,0,0,1,2.32,1.93h-1a1.18,1.18,0,0,0-1.33-1.07c-.76,0-1.21.36-1.21.85,0,1.46,3.57.67,3.62,2.87C136,28.16,135.11,28.92,133.75,28.92Z"/><path class="fa07c103-c39b-4867-9c34-eb83c5bd4ee3" d="M137.27,21a.69.69,0,1,1,.7.7A.69.69,0,0,1,137.27,21Zm.17,1.7h1v6.15h-1Z"/><path class="fa07c103-c39b-4867-9c34-eb83c5bd4ee3" d="M142.35,28.92c-1.44,0-2.45-.78-2.51-1.91h1c.06.6.59,1,1.45,1s1.26-.41,1.26-.91c0-1.37-3.64-.58-3.64-2.87,0-.94.89-1.71,2.26-1.71a2.06,2.06,0,0,1,2.32,1.93h-1a1.19,1.19,0,0,0-1.34-1.07c-.75,0-1.2.36-1.2.85,0,1.46,3.57.67,3.62,2.87C144.6,28.16,143.71,28.92,142.35,28.92Z"/><path class="fa07c103-c39b-4867-9c34-eb83c5bd4ee3" d="M27.54,39.42a2.66,2.66,0,0,1,2.28,1.2V37.36h1v8.31h-1V44.52a2.52,2.52,0,0,1-2.29,1.25,3,3,0,0,1-2.92-3.2A2.91,2.91,0,0,1,27.54,39.42Zm.19.88a2.07,2.07,0,0,0-2.07,2.27,2.09,2.09,0,1,0,2.07-2.27Z"/><path class="fa07c103-c39b-4867-9c34-eb83c5bd4ee3" d="M35.28,45.77a3,3,0,0,1-3-3.19,2.93,2.93,0,0,1,3-3.16,2.82,2.82,0,0,1,3,2.94,4.3,4.3,0,0,1,0,.62H33.29a1.93,1.93,0,0,0,2,1.93A1.68,1.68,0,0,0,37,43.78h1.1A2.76,2.76,0,0,1,35.28,45.77Zm-2-3.62h3.88a1.8,1.8,0,0,0-1.94-1.87A1.9,1.9,0,0,0,33.3,42.15Z"/><path class="fa07c103-c39b-4867-9c34-eb83c5bd4ee3" d="M49.18,41.78c0,2.42-1.58,3.89-4.16,3.89H42.59V37.85H45C47.6,37.85,49.18,39.35,49.18,41.78Zm-4.16,3a2.79,2.79,0,0,0,3.12-3A2.83,2.83,0,0,0,45,38.68H43.61v6.15Z"/><path class="fa07c103-c39b-4867-9c34-eb83c5bd4ee3" d="M53.16,39.42a2.55,2.55,0,0,1,2.29,1.22V39.52h1v6.15h-1V44.53a2.57,2.57,0,0,1-2.3,1.24,3,3,0,0,1-2.91-3.2A2.91,2.91,0,0,1,53.16,39.42Zm.2.88a2.07,2.07,0,0,0-2.07,2.27,2.09,2.09,0,1,0,2.07-2.27Z"/><path class="fa07c103-c39b-4867-9c34-eb83c5bd4ee3" d="M58.44,40.36h-.8v-.84h.8V38h1v1.55h1.6v.84h-1.6V44c0,.6.22.82.85.82h.75v.86h-.92c-1.09,0-1.7-.45-1.7-1.68Z"/><path class="fa07c103-c39b-4867-9c34-eb83c5bd4ee3" d="M64.74,45.77a3.18,3.18,0,1,1,3.15-3.19A3,3,0,0,1,64.74,45.77Zm0-.89a2.09,2.09,0,0,0,2.11-2.3,2.07,2.07,0,0,0-2.08-2.28,2,2,0,0,0-2,2.28A2,2,0,0,0,64.74,44.88Z"/><path class="fa07c103-c39b-4867-9c34-eb83c5bd4ee3" d="M71.41,45.77C70,45.77,69,45,68.89,43.86H70c0,.6.58,1,1.45,1s1.25-.41,1.25-.91c0-1.37-3.64-.57-3.64-2.86,0-1,.89-1.72,2.26-1.72a2.07,2.07,0,0,1,2.33,1.93h-1a1.18,1.18,0,0,0-1.33-1.07c-.75,0-1.2.36-1.2.86,0,1.46,3.57.66,3.61,2.86C73.65,45,72.77,45.77,71.41,45.77Z"/><path class="fa07c103-c39b-4867-9c34-eb83c5bd4ee3" d="M81.62,37.74a3.71,3.71,0,0,1,3.63,2.37H84a2.46,2.46,0,0,0-2.4-1.47,2.85,2.85,0,0,0-2.87,3.11,2.84,2.84,0,0,0,2.87,3.1A2.45,2.45,0,0,0,84,43.39h1.23a3.69,3.69,0,0,1-3.63,2.35,4,4,0,0,1,0-8Z"/><path class="fa07c103-c39b-4867-9c34-eb83c5bd4ee3" d="M92.1,45.67h-1v-.91a2.25,2.25,0,0,1-2,1,2.4,2.4,0,0,1-2.53-2.64v-3.6h1V43a1.65,1.65,0,0,0,1.72,1.89c1.05,0,1.76-.66,1.76-2V39.52h1Z"/><path class="fa07c103-c39b-4867-9c34-eb83c5bd4ee3" d="M96.4,39.42a2.55,2.55,0,0,1,2.29,1.22V39.52h1v6.15h-1V44.53a2.57,2.57,0,0,1-2.3,1.24,3,3,0,0,1-2.91-3.2A2.91,2.91,0,0,1,96.4,39.42Zm.2.88a2.07,2.07,0,0,0-2.07,2.27A2.09,2.09,0,1,0,96.6,40.3Z"/><path class="fa07c103-c39b-4867-9c34-eb83c5bd4ee3" d="M101.46,37.36h1v8.31h-1Z"/><path class="fa07c103-c39b-4867-9c34-eb83c5bd4ee3" d="M104.05,37.82a.69.69,0,1,1,.69.7A.68.68,0,0,1,104.05,37.82Zm.16,1.7h1v6.15h-1Z"/><path class="fa07c103-c39b-4867-9c34-eb83c5bd4ee3" d="M107.15,40.36h-.8v-.84h.8V38h1v1.55h1.61v.84h-1.61V44c0,.6.23.82.86.82h.75v.86h-.92c-1.09,0-1.71-.45-1.71-1.68Z"/><path class="fa07c103-c39b-4867-9c34-eb83c5bd4ee3" d="M113.33,39.42a2.55,2.55,0,0,1,2.29,1.22V39.52h1v6.15h-1V44.53a2.57,2.57,0,0,1-2.3,1.24,3,3,0,0,1-2.91-3.2A2.91,2.91,0,0,1,113.33,39.42Zm.2.88a2.08,2.08,0,0,0-2.08,2.27,2.09,2.09,0,1,0,2.08-2.27Z"/><path class="fa07c103-c39b-4867-9c34-eb83c5bd4ee3" d="M118.61,40.36h-.8v-.84h.8V38h1v1.55h1.6v.84h-1.6V44c0,.6.22.82.85.82h.75v.86h-.92c-1.09,0-1.7-.45-1.7-1.68Z"/><path class="fa07c103-c39b-4867-9c34-eb83c5bd4ee3" d="M122.19,37.82a.69.69,0,0,1,.7-.69.7.7,0,0,1,0,1.39A.69.69,0,0,1,122.19,37.82Zm.17,1.7h1v6.15h-1Z"/><path class="fa07c103-c39b-4867-9c34-eb83c5bd4ee3" d="M125.5,39.52l1.92,5.21,1.91-5.21h1.08L128,45.67h-1.19l-2.41-6.15Z"/><path class="fa07c103-c39b-4867-9c34-eb83c5bd4ee3" d="M133.9,45.77a3.18,3.18,0,1,1,3.15-3.19A3,3,0,0,1,133.9,45.77Zm0-.89a2.09,2.09,0,0,0,2.11-2.3,2.07,2.07,0,0,0-2.08-2.28,2,2,0,0,0-2.06,2.28A2,2,0,0,0,133.9,44.88Z"/><path class="fa07c103-c39b-4867-9c34-eb83c5bd4ee3" d="M140.56,45.77a2.24,2.24,0,0,1-2.51-1.91h1c.06.6.59,1,1.45,1s1.26-.41,1.26-.91c0-1.37-3.64-.57-3.64-2.86,0-1,.89-1.72,2.26-1.72a2.06,2.06,0,0,1,2.32,1.93h-1a1.18,1.18,0,0,0-1.33-1.07c-.76,0-1.21.36-1.21.86,0,1.46,3.58.66,3.62,2.86C142.81,45,141.92,45.77,140.56,45.77Z"/><line class="fb79fef8-c817-41bf-8187-a2951947ca74" x1="207.84" y1="241.27" x2="325.6" y2="241.27"/><rect class="a1aade89-5081-4620-8c4f-c2584741bf7e" x="7.22" y="183.61" width="200.61" height="126.15" rx="19.87"/><path class="fa07c103-c39b-4867-9c34-eb83c5bd4ee3" d="M45.45,197.34c1.84,0,2.72,1,2.72,2.3a2.21,2.21,0,0,1-1.87,2.25l2,3.28H47L45.18,202H44v3.2h-1v-7.83Zm0,.84H44v3h1.5c1.16,0,1.66-.63,1.66-1.51S46.62,198.18,45.45,198.18Z"/><path class="fa07c103-c39b-4867-9c34-eb83c5bd4ee3" d="M52.25,205.27a3,3,0,0,1-3-3.19,2.94,2.94,0,0,1,3-3.17,2.82,2.82,0,0,1,3,3,6.08,6.08,0,0,1,0,.61H50.25a1.94,1.94,0,0,0,2,1.94A1.7,1.7,0,0,0,54,203.27h1.1A2.77,2.77,0,0,1,52.25,205.27Zm-2-3.63h3.89a1.81,1.81,0,0,0-1.95-1.86A1.9,1.9,0,0,0,50.26,201.64Z"/><path class="fa07c103-c39b-4867-9c34-eb83c5bd4ee3" d="M59.23,198.91A2.67,2.67,0,0,1,62.07,201H61a1.67,1.67,0,0,0-1.74-1.21c-1.12,0-1.95.8-1.95,2.3s.83,2.33,1.95,2.33A1.65,1.65,0,0,0,61,203.19h1.1a2.73,2.73,0,0,1-2.84,2.08,3.19,3.19,0,0,1,0-6.36Z"/><path class="fa07c103-c39b-4867-9c34-eb83c5bd4ee3" d="M66.09,205.27a3.18,3.18,0,1,1,3.15-3.19A3,3,0,0,1,66.09,205.27Zm0-.9a2.09,2.09,0,0,0,2.11-2.29,2.07,2.07,0,0,0-2.08-2.28,2.3,2.3,0,0,0,0,4.57Z"/><path class="fa07c103-c39b-4867-9c34-eb83c5bd4ee3" d="M70.62,196.86h1v8.31h-1Z"/><path class="fa07c103-c39b-4867-9c34-eb83c5bd4ee3" d="M76.07,205.27a3.18,3.18,0,0,1,0-6.36,2.83,2.83,0,0,1,3,3,4.08,4.08,0,0,1,0,.61H74.08a1.93,1.93,0,0,0,2,1.94,1.69,1.69,0,0,0,1.73-1.14h1.11A2.79,2.79,0,0,1,76.07,205.27Zm-2-3.63H78A1.8,1.8,0,0,0,76,199.78,1.9,1.9,0,0,0,74.09,201.64Z"/><path class="fa07c103-c39b-4867-9c34-eb83c5bd4ee3" d="M83.06,198.91A2.67,2.67,0,0,1,85.9,201H84.8a1.67,1.67,0,0,0-1.74-1.21c-1.12,0-2,.8-2,2.3s.84,2.33,2,2.33a1.65,1.65,0,0,0,1.74-1.22h1.1a2.73,2.73,0,0,1-2.84,2.08,3.19,3.19,0,0,1,0-6.36Z"/><path class="fa07c103-c39b-4867-9c34-eb83c5bd4ee3" d="M89.85,198.91A2.67,2.67,0,0,1,92.69,201h-1.1a1.67,1.67,0,0,0-1.74-1.21c-1.12,0-1.95.8-1.95,2.3s.83,2.33,1.95,2.33a1.65,1.65,0,0,0,1.74-1.22h1.1a2.73,2.73,0,0,1-2.84,2.08,3.19,3.19,0,0,1,0-6.36Z"/><path class="fa07c103-c39b-4867-9c34-eb83c5bd4ee3" d="M93.86,197.32a.7.7,0,0,1,.7-.7.7.7,0,0,1,0,1.4A.7.7,0,0,1,93.86,197.32ZM94,199h1v6.15H94Z"/><path class="fa07c103-c39b-4867-9c34-eb83c5bd4ee3" d="M99.47,205.27a3.18,3.18,0,1,1,3.16-3.19A3.05,3.05,0,0,1,99.47,205.27Zm0-.9a2.29,2.29,0,0,0,0-4.57,2.3,2.3,0,0,0,0,4.57Zm1.15-8.06v.89l-2.4,1.28v-.77Z"/><path class="fa07c103-c39b-4867-9c34-eb83c5bd4ee3" d="M108.51,201.69c0-1.26-.68-1.9-1.71-1.9s-1.77.65-1.77,2v3.4h-1V199h1v.87a2.29,2.29,0,0,1,2-1,2.39,2.39,0,0,1,2.51,2.64v3.63h-1Z"/><path class="fa07c103-c39b-4867-9c34-eb83c5bd4ee3" d="M118.44,199h1.06l-3.71,9h-1.05l1.21-3L113.47,199h1.13l1.94,5Z"/><path class="fa07c103-c39b-4867-9c34-eb83c5bd4ee3" d="M128.15,203.43h-3.41l-.63,1.74H123l2.83-7.78H127l2.82,7.78h-1.08Zm-1.71-4.79-1.41,4h2.83Z"/><path class="fa07c103-c39b-4867-9c34-eb83c5bd4ee3" d="M135.5,201.69a1.66,1.66,0,0,0-1.72-1.9c-1,0-1.76.65-1.76,2v3.4h-1V199h1v.87a2.26,2.26,0,0,1,2-1,2.39,2.39,0,0,1,2.52,2.64v3.63h-1Z"/><path class="fa07c103-c39b-4867-9c34-eb83c5bd4ee3" d="M140.74,198.91a2.54,2.54,0,0,1,2.29,1.23V199h1v6.15h-1V204a2.55,2.55,0,0,1-2.3,1.25,3,3,0,0,1-2.91-3.2A2.92,2.92,0,0,1,140.74,198.91Zm.21.89a2.08,2.08,0,0,0-2.08,2.27A2.09,2.09,0,1,0,141,199.8Zm1.29-3.41v.88l-2.39,1.28v-.76Z"/><path class="fa07c103-c39b-4867-9c34-eb83c5bd4ee3" d="M145.8,196.86h1v8.31h-1Z"/><path class="fa07c103-c39b-4867-9c34-eb83c5bd4ee3" d="M148.39,197.32a.69.69,0,1,1,.7.7A.69.69,0,0,1,148.39,197.32Zm.17,1.7h1v6.15h-1Z"/><path class="fa07c103-c39b-4867-9c34-eb83c5bd4ee3" d="M153.47,205.27c-1.44,0-2.45-.79-2.52-1.91H152c.06.6.58,1,1.45,1s1.26-.41,1.26-.91c0-1.37-3.64-.58-3.64-2.87,0-.94.88-1.72,2.25-1.72a2.07,2.07,0,0,1,2.33,1.94h-1a1.19,1.19,0,0,0-1.34-1.07c-.75,0-1.2.36-1.2.85,0,1.46,3.57.66,3.62,2.87C155.72,204.51,154.83,205.27,153.47,205.27Z"/><path class="fa07c103-c39b-4867-9c34-eb83c5bd4ee3" d="M157,197.32a.69.69,0,1,1,.69.7A.69.69,0,0,1,157,197.32Zm.17,1.7h1v6.15h-1Z"/><path class="fa07c103-c39b-4867-9c34-eb83c5bd4ee3" d="M162.07,205.27c-1.44,0-2.45-.79-2.52-1.91h1.06c0,.6.58,1,1.45,1s1.25-.41,1.25-.91c0-1.37-3.63-.58-3.63-2.87,0-.94.88-1.72,2.25-1.72a2.07,2.07,0,0,1,2.33,1.94h-1a1.19,1.19,0,0,0-1.34-1.07c-.75,0-1.2.36-1.2.85,0,1.46,3.57.66,3.61,2.87C164.31,204.51,163.43,205.27,162.07,205.27Z"/><path class="fa07c103-c39b-4867-9c34-eb83c5bd4ee3" d="M45.17,215.77a2.66,2.66,0,0,1,2.28,1.2v-3.26h1V222h-1v-1.16a2.51,2.51,0,0,1-2.29,1.26,3,3,0,0,1-2.92-3.2A2.91,2.91,0,0,1,45.17,215.77Zm.19.88a2.07,2.07,0,0,0-2.07,2.27,2.09,2.09,0,1,0,2.07-2.27Z"/><path class="fa07c103-c39b-4867-9c34-eb83c5bd4ee3" d="M52.91,222.12a3,3,0,0,1-3-3.19,2.93,2.93,0,0,1,3-3.16,2.82,2.82,0,0,1,3,2.94,4.3,4.3,0,0,1,0,.62H50.92a1.93,1.93,0,0,0,2,1.93,1.68,1.68,0,0,0,1.73-1.14h1.1A2.75,2.75,0,0,1,52.91,222.12Zm-2-3.63h3.88a1.8,1.8,0,0,0-1.94-1.86A1.9,1.9,0,0,0,50.93,218.49Z"/><path class="fa07c103-c39b-4867-9c34-eb83c5bd4ee3" d="M66.81,218.12c0,2.43-1.58,3.9-4.16,3.9H60.22v-7.83h2.43C65.23,214.19,66.81,215.7,66.81,218.12Zm-4.16,3.06a2.8,2.8,0,0,0,3.12-3.06,2.83,2.83,0,0,0-3.12-3.1H61.24v6.16Z"/><path class="fa07c103-c39b-4867-9c34-eb83c5bd4ee3" d="M70.79,215.77A2.55,2.55,0,0,1,73.08,217v-1.12h1V222h-1v-1.14a2.57,2.57,0,0,1-2.3,1.24,3,3,0,0,1-2.91-3.2A2.91,2.91,0,0,1,70.79,215.77Zm.2.88a2.07,2.07,0,0,0-2.07,2.27A2.09,2.09,0,1,0,71,216.65Z"/><path class="fa07c103-c39b-4867-9c34-eb83c5bd4ee3" d="M76.07,216.71h-.8v-.84h.8v-1.55h1v1.55h1.6v.84h-1.6v3.63c0,.6.22.82.85.82h.75V222h-.92c-1.09,0-1.7-.45-1.7-1.68Z"/><path class="fa07c103-c39b-4867-9c34-eb83c5bd4ee3" d="M82.37,222.12a3.18,3.18,0,1,1,3.15-3.19A3,3,0,0,1,82.37,222.12Zm0-.9a2.09,2.09,0,0,0,2.11-2.29,2.07,2.07,0,0,0-2.08-2.28,2.3,2.3,0,0,0,0,4.57Z"/><path class="fa07c103-c39b-4867-9c34-eb83c5bd4ee3" d="M89,222.12c-1.44,0-2.45-.78-2.52-1.91h1.06c0,.6.58,1,1.45,1s1.25-.41,1.25-.91c0-1.37-3.64-.57-3.64-2.87,0-.94.89-1.71,2.26-1.71a2.07,2.07,0,0,1,2.33,1.93h-1a1.18,1.18,0,0,0-1.33-1.07c-.75,0-1.2.36-1.2.85,0,1.46,3.57.67,3.61,2.87C91.28,221.36,90.4,222.12,89,222.12Z"/><path class="fa07c103-c39b-4867-9c34-eb83c5bd4ee3" d="M99.25,214.09a3.71,3.71,0,0,1,3.63,2.37h-1.23a2.47,2.47,0,0,0-2.4-1.47,3.11,3.11,0,0,0,0,6.21,2.48,2.48,0,0,0,2.4-1.46h1.23a3.69,3.69,0,0,1-3.63,2.35,4,4,0,0,1,0-8Z"/><path class="fa07c103-c39b-4867-9c34-eb83c5bd4ee3" d="M109.73,222h-1v-.91a2.25,2.25,0,0,1-2,1,2.4,2.4,0,0,1-2.53-2.64v-3.6h1v3.47a1.65,1.65,0,0,0,1.72,1.88c1,0,1.76-.65,1.76-2v-3.38h1Z"/><path class="fa07c103-c39b-4867-9c34-eb83c5bd4ee3" d="M114,215.77a2.55,2.55,0,0,1,2.29,1.22v-1.12h1V222h-1v-1.14a2.57,2.57,0,0,1-2.3,1.24,3,3,0,0,1-2.91-3.2A2.91,2.91,0,0,1,114,215.77Zm.2.88a2.07,2.07,0,0,0-2.07,2.27,2.09,2.09,0,1,0,2.07-2.27Z"/><path class="fa07c103-c39b-4867-9c34-eb83c5bd4ee3" d="M119.09,213.71h1V222h-1Z"/><path class="fa07c103-c39b-4867-9c34-eb83c5bd4ee3" d="M121.68,214.17a.69.69,0,1,1,.69.7A.69.69,0,0,1,121.68,214.17Zm.16,1.7h1V222h-1Z"/><path class="fa07c103-c39b-4867-9c34-eb83c5bd4ee3" d="M127,211.44h1l-3.08,12.49h-1Z"/><path class="fa07c103-c39b-4867-9c34-eb83c5bd4ee3" d="M132.36,214.09a3.69,3.69,0,0,1,3.63,2.37h-1.22a2.47,2.47,0,0,0-2.41-1.47,3.12,3.12,0,0,0,0,6.21,2.48,2.48,0,0,0,2.41-1.46H136a3.67,3.67,0,0,1-3.63,2.35,4,4,0,0,1,0-8Z"/><path class="fa07c103-c39b-4867-9c34-eb83c5bd4ee3" d="M142.85,222h-1v-.91a2.25,2.25,0,0,1-2,1,2.4,2.4,0,0,1-2.53-2.64v-3.6h1v3.47a1.65,1.65,0,0,0,1.72,1.88c1.06,0,1.76-.65,1.76-2v-3.38h1Z"/><path class="fa07c103-c39b-4867-9c34-eb83c5bd4ee3" d="M147.15,215.77a2.56,2.56,0,0,1,2.29,1.22v-1.12h1V222h-1v-1.14a2.58,2.58,0,0,1-2.31,1.24,3,3,0,0,1-2.9-3.2A2.91,2.91,0,0,1,147.15,215.77Zm.2.88a2.08,2.08,0,0,0-2.08,2.27,2.09,2.09,0,1,0,2.08-2.27Z"/><path class="fa07c103-c39b-4867-9c34-eb83c5bd4ee3" d="M156.71,218.54c0-1.26-.68-1.9-1.72-1.9s-1.76.65-1.76,2V222h-1v-6.15h1v.87a2.27,2.27,0,0,1,2-1,2.39,2.39,0,0,1,2.51,2.64V222h-1Z"/><path class="fa07c103-c39b-4867-9c34-eb83c5bd4ee3" d="M159.53,216.71h-.8v-.84h.8v-1.55h1v1.55h1.61v.84h-1.61v3.63c0,.6.23.82.86.82h.75V222h-.92c-1.09,0-1.71-.45-1.71-1.68Z"/><path class="fa07c103-c39b-4867-9c34-eb83c5bd4ee3" d="M163.12,214.17a.69.69,0,1,1,.7.7A.69.69,0,0,1,163.12,214.17Zm.17,1.7h1V222h-1Z"/><rect class="a1aade89-5081-4620-8c4f-c2584741bf7e" x="26.94" y="241.27" width="152.38" height="54.85" rx="11.42"/><path class="fa07c103-c39b-4867-9c34-eb83c5bd4ee3" d="M45.45,255c1.84,0,2.72,1,2.72,2.3a2.21,2.21,0,0,1-1.87,2.25l2,3.28H47.05l-1.87-3.2H44v3.2h-1V255Zm0,.84H44v3h1.5c1.16,0,1.66-.63,1.66-1.51S46.62,255.84,45.45,255.84Z"/><path class="fa07c103-c39b-4867-9c34-eb83c5bd4ee3" d="M52.25,262.93a3,3,0,0,1-3-3.19,2.94,2.94,0,0,1,3-3.17,2.82,2.82,0,0,1,3,2.95,6.08,6.08,0,0,1,0,.61H50.25a1.94,1.94,0,0,0,2,1.94A1.7,1.7,0,0,0,54,260.93h1.1A2.77,2.77,0,0,1,52.25,262.93Zm-2-3.63h3.89a1.81,1.81,0,0,0-1.95-1.86A1.9,1.9,0,0,0,50.26,259.3Z"/><path class="fa07c103-c39b-4867-9c34-eb83c5bd4ee3" d="M59.23,256.57a2.67,2.67,0,0,1,2.84,2.08H61a1.67,1.67,0,0,0-1.74-1.21c-1.12,0-1.95.8-1.95,2.3s.83,2.33,1.95,2.33A1.65,1.65,0,0,0,61,260.85h1.1a2.73,2.73,0,0,1-2.84,2.08,3.19,3.19,0,0,1,0-6.36Z"/><path class="fa07c103-c39b-4867-9c34-eb83c5bd4ee3" d="M66.09,262.93a3.18,3.18,0,1,1,3.15-3.19A3,3,0,0,1,66.09,262.93Zm0-.9a2.29,2.29,0,0,0,0-4.57,2.3,2.3,0,0,0,0,4.57Z"/><path class="fa07c103-c39b-4867-9c34-eb83c5bd4ee3" d="M70.62,254.52h1v8.31h-1Z"/><path class="fa07c103-c39b-4867-9c34-eb83c5bd4ee3" d="M76.08,262.93a3.18,3.18,0,0,1,0-6.36,2.82,2.82,0,0,1,3,2.95,6.08,6.08,0,0,1,0,.61H74.08a1.94,1.94,0,0,0,2,1.94,1.68,1.68,0,0,0,1.72-1.14h1.11A2.78,2.78,0,0,1,76.08,262.93Zm-2-3.63H78A1.8,1.8,0,0,0,76,257.44,1.9,1.9,0,0,0,74.09,259.3Z"/><path class="fa07c103-c39b-4867-9c34-eb83c5bd4ee3" d="M83.06,256.57a2.67,2.67,0,0,1,2.84,2.08H84.8a1.67,1.67,0,0,0-1.74-1.21c-1.12,0-2,.8-2,2.3s.84,2.33,2,2.33a1.65,1.65,0,0,0,1.74-1.22h1.1a2.73,2.73,0,0,1-2.84,2.08,3.19,3.19,0,0,1,0-6.36Z"/><path class="fa07c103-c39b-4867-9c34-eb83c5bd4ee3" d="M89.85,256.57a2.67,2.67,0,0,1,2.84,2.08h-1.1a1.67,1.67,0,0,0-1.74-1.21c-1.12,0-1.95.8-1.95,2.3s.83,2.33,1.95,2.33a1.65,1.65,0,0,0,1.74-1.22h1.1a2.73,2.73,0,0,1-2.84,2.08,3.19,3.19,0,0,1,0-6.36Z"/><path class="fa07c103-c39b-4867-9c34-eb83c5bd4ee3" d="M93.86,255a.7.7,0,0,1,.7-.7.7.7,0,0,1,0,1.4A.7.7,0,0,1,93.86,255Zm.17,1.7h1v6.15H94Z"/><path class="fa07c103-c39b-4867-9c34-eb83c5bd4ee3" d="M99.47,262.93a3,3,0,0,1-3.06-3.19,3.11,3.11,0,1,1,6.22,0A3.05,3.05,0,0,1,99.47,262.93Zm0-.9a2.29,2.29,0,0,0,0-4.57,2.3,2.3,0,0,0,0,4.57Zm1.15-8.06v.89l-2.4,1.28v-.77Z"/><path class="fa07c103-c39b-4867-9c34-eb83c5bd4ee3" d="M108.51,259.35c0-1.26-.68-1.9-1.71-1.9s-1.77.65-1.77,2v3.4h-1v-6.15h1v.87a2.29,2.29,0,0,1,2-1,2.38,2.38,0,0,1,2.51,2.64v3.63h-1Z"/><path class="fa07c103-c39b-4867-9c34-eb83c5bd4ee3" d="M118.45,256.68h1l-3.71,9.05h-1.05l1.21-3-2.48-6.08h1.13l1.94,5Z"/><path class="fa07c103-c39b-4867-9c34-eb83c5bd4ee3" d="M128.15,261.09h-3.41l-.63,1.74H123l2.83-7.78H127l2.82,7.78h-1.08Zm-1.71-4.79-1.41,4h2.83Z"/><path class="fa07c103-c39b-4867-9c34-eb83c5bd4ee3" d="M135.5,259.35a1.66,1.66,0,0,0-1.72-1.9c-1,0-1.76.65-1.76,2v3.4h-1v-6.15h1v.87a2.26,2.26,0,0,1,2-1,2.39,2.39,0,0,1,2.52,2.64v3.63h-1Z"/><path class="fa07c103-c39b-4867-9c34-eb83c5bd4ee3" d="M140.74,256.57a2.57,2.57,0,0,1,2.3,1.23v-1.12h1v6.15h-1v-1.15a2.58,2.58,0,0,1-2.31,1.25,3,3,0,0,1-2.91-3.2A2.92,2.92,0,0,1,140.74,256.57Zm.21.89a2.08,2.08,0,0,0-2.08,2.27,2.09,2.09,0,1,0,2.08-2.27Zm1.29-3.41v.88l-2.39,1.28v-.76Z"/><path class="fa07c103-c39b-4867-9c34-eb83c5bd4ee3" d="M145.8,254.52h1v8.31h-1Z"/><path class="fa07c103-c39b-4867-9c34-eb83c5bd4ee3" d="M148.39,255a.69.69,0,1,1,.7.7A.69.69,0,0,1,148.39,255Zm.17,1.7h1v6.15h-1Z"/><path class="fa07c103-c39b-4867-9c34-eb83c5bd4ee3" d="M153.47,262.93c-1.44,0-2.45-.79-2.52-1.91H152c.06.6.58,1.05,1.45,1.05s1.26-.41,1.26-.91c0-1.37-3.64-.58-3.64-2.87,0-.94.89-1.72,2.26-1.72a2.07,2.07,0,0,1,2.32,1.94h-1a1.19,1.19,0,0,0-1.34-1.07c-.75,0-1.2.36-1.2.85,0,1.46,3.57.67,3.62,2.87C155.72,262.17,154.83,262.93,153.47,262.93Z"/><path class="fa07c103-c39b-4867-9c34-eb83c5bd4ee3" d="M157,255a.69.69,0,1,1,.69.7A.69.69,0,0,1,157,255Zm.17,1.7h1v6.15h-1Z"/><path class="fa07c103-c39b-4867-9c34-eb83c5bd4ee3" d="M162.07,262.93c-1.44,0-2.45-.79-2.52-1.91h1.06c0,.6.58,1.05,1.45,1.05s1.25-.41,1.25-.91c0-1.37-3.63-.58-3.63-2.87,0-.94.88-1.72,2.25-1.72a2.07,2.07,0,0,1,2.33,1.94h-1a1.19,1.19,0,0,0-1.34-1.07c-.75,0-1.2.36-1.2.85,0,1.46,3.57.67,3.61,2.87C164.31,262.17,163.43,262.93,162.07,262.93Z"/><path class="fa07c103-c39b-4867-9c34-eb83c5bd4ee3" d="M45.17,273.43a2.66,2.66,0,0,1,2.28,1.2v-3.26h1v8.31h-1v-1.16a2.51,2.51,0,0,1-2.29,1.26,3,3,0,0,1-2.92-3.2A2.91,2.91,0,0,1,45.17,273.43Zm.19.88a2.07,2.07,0,0,0-2.07,2.27,2.09,2.09,0,1,0,2.07-2.27Z"/><path class="fa07c103-c39b-4867-9c34-eb83c5bd4ee3" d="M52.91,279.78a3,3,0,0,1-3-3.19,2.93,2.93,0,0,1,3-3.16,2.82,2.82,0,0,1,3,2.94,4.3,4.3,0,0,1,0,.62H50.92a1.93,1.93,0,0,0,2,1.93,1.68,1.68,0,0,0,1.73-1.14h1.1A2.75,2.75,0,0,1,52.91,279.78Zm-2-3.62h3.88a1.8,1.8,0,0,0-1.94-1.87A1.9,1.9,0,0,0,50.93,276.16Z"/><path class="fa07c103-c39b-4867-9c34-eb83c5bd4ee3" d="M66.81,275.78c0,2.43-1.58,3.9-4.16,3.9H60.22v-7.83h2.43C65.23,271.85,66.81,273.36,66.81,275.78Zm-4.16,3.06a3.08,3.08,0,1,0,0-6.15H61.24v6.15Z"/><path class="fa07c103-c39b-4867-9c34-eb83c5bd4ee3" d="M70.79,273.43a2.55,2.55,0,0,1,2.29,1.22v-1.12h1v6.15h-1v-1.14a2.57,2.57,0,0,1-2.3,1.24,3,3,0,0,1-2.91-3.2A2.91,2.91,0,0,1,70.79,273.43Zm.2.88a2.07,2.07,0,0,0-2.07,2.27A2.09,2.09,0,1,0,71,274.31Z"/><path class="fa07c103-c39b-4867-9c34-eb83c5bd4ee3" d="M76.07,274.37h-.8v-.84h.8V272h1v1.55h1.6v.84h-1.6V278c0,.6.22.82.85.82h.75v.86h-.92c-1.09,0-1.7-.45-1.7-1.68Z"/><path class="fa07c103-c39b-4867-9c34-eb83c5bd4ee3" d="M82.37,279.78a3.18,3.18,0,1,1,3.15-3.19A3,3,0,0,1,82.37,279.78Zm0-.9a2.09,2.09,0,0,0,2.11-2.29,2.07,2.07,0,0,0-2.08-2.28,2.3,2.3,0,0,0,0,4.57Z"/><path class="fa07c103-c39b-4867-9c34-eb83c5bd4ee3" d="M89,279.78c-1.44,0-2.45-.78-2.52-1.91h1.06c0,.6.58,1.05,1.45,1.05s1.25-.41,1.25-.91c0-1.37-3.64-.57-3.64-2.87,0-.94.89-1.71,2.26-1.71a2.07,2.07,0,0,1,2.33,1.93h-1a1.18,1.18,0,0,0-1.33-1.07c-.75,0-1.2.36-1.2.85,0,1.46,3.57.67,3.61,2.87C91.28,279,90.4,279.78,89,279.78Z"/><path class="fa07c103-c39b-4867-9c34-eb83c5bd4ee3" d="M99.25,271.75a3.71,3.71,0,0,1,3.63,2.37h-1.23a2.47,2.47,0,0,0-2.4-1.47,3.11,3.11,0,0,0,0,6.21,2.48,2.48,0,0,0,2.4-1.46h1.23a3.69,3.69,0,0,1-3.63,2.35,4,4,0,0,1,0-8Z"/><path class="fa07c103-c39b-4867-9c34-eb83c5bd4ee3" d="M109.73,279.68h-1v-.91a2.25,2.25,0,0,1-2,1,2.4,2.4,0,0,1-2.53-2.64v-3.6h1V277a1.65,1.65,0,0,0,1.72,1.88c1,0,1.76-.65,1.76-2v-3.38h1Z"/><path class="fa07c103-c39b-4867-9c34-eb83c5bd4ee3" d="M114,273.43a2.55,2.55,0,0,1,2.29,1.22v-1.12h1v6.15h-1v-1.14a2.57,2.57,0,0,1-2.3,1.24,3,3,0,0,1-2.91-3.2A2.91,2.91,0,0,1,114,273.43Zm.2.88a2.07,2.07,0,0,0-2.07,2.27,2.09,2.09,0,1,0,2.07-2.27Z"/><path class="fa07c103-c39b-4867-9c34-eb83c5bd4ee3" d="M119.09,271.37h1v8.31h-1Z"/><path class="fa07c103-c39b-4867-9c34-eb83c5bd4ee3" d="M121.68,271.83a.69.69,0,1,1,1.37,0,.69.69,0,1,1-1.37,0Zm.16,1.7h1v6.15h-1Z"/><path class="fa07c103-c39b-4867-9c34-eb83c5bd4ee3" d="M127,269.1h1l-3.08,12.49h-1Z"/><path class="fa07c103-c39b-4867-9c34-eb83c5bd4ee3" d="M132.36,271.75a3.69,3.69,0,0,1,3.63,2.37h-1.22a2.47,2.47,0,0,0-2.41-1.47,3.12,3.12,0,0,0,0,6.21,2.48,2.48,0,0,0,2.41-1.46H136a3.67,3.67,0,0,1-3.63,2.35,4,4,0,0,1,0-8Z"/><path class="fa07c103-c39b-4867-9c34-eb83c5bd4ee3" d="M142.85,279.68h-1v-.91a2.25,2.25,0,0,1-2,1,2.4,2.4,0,0,1-2.53-2.64v-3.6h1V277a1.65,1.65,0,0,0,1.72,1.88c1.06,0,1.76-.65,1.76-2v-3.38h1Z"/><path class="fa07c103-c39b-4867-9c34-eb83c5bd4ee3" d="M147.15,273.43a2.56,2.56,0,0,1,2.29,1.22v-1.12h1v6.15h-1v-1.14a2.58,2.58,0,0,1-2.31,1.24,3,3,0,0,1-2.9-3.2A2.91,2.91,0,0,1,147.15,273.43Zm.2.88a2.08,2.08,0,0,0-2.08,2.27,2.09,2.09,0,1,0,2.08-2.27Z"/><path class="fa07c103-c39b-4867-9c34-eb83c5bd4ee3" d="M156.71,276.2c0-1.26-.68-1.9-1.72-1.9s-1.76.65-1.76,2v3.4h-1v-6.15h1v.87a2.26,2.26,0,0,1,2-1,2.38,2.38,0,0,1,2.51,2.63v3.63h-1Z"/><path class="fa07c103-c39b-4867-9c34-eb83c5bd4ee3" d="M159.53,274.37h-.8v-.84h.8V272h1v1.55h1.61v.84h-1.61V278c0,.6.23.82.86.82h.75v.86h-.92c-1.09,0-1.71-.45-1.71-1.68Z"/><path class="fa07c103-c39b-4867-9c34-eb83c5bd4ee3" d="M163.12,271.83a.69.69,0,1,1,.7.7A.69.69,0,0,1,163.12,271.83Zm.17,1.7h1v6.15h-1Z"/><rect class="a1aade89-5081-4620-8c4f-c2584741bf7e" x="7.22" y="81.61" width="152.38" height="54.85" rx="11.42"/><path class="fa07c103-c39b-4867-9c34-eb83c5bd4ee3" d="M25.73,95.34c1.85,0,2.72,1,2.72,2.3a2.21,2.21,0,0,1-1.86,2.25l2,3.28H27.33L25.46,100H24.23v3.2h-1V95.34Zm0,.84h-1.5v3h1.5c1.16,0,1.67-.63,1.67-1.51S26.9,96.18,25.73,96.18Z"/><path class="fa07c103-c39b-4867-9c34-eb83c5bd4ee3" d="M32.53,103.27a3,3,0,0,1-3-3.19,2.93,2.93,0,0,1,3-3.17,2.83,2.83,0,0,1,3,3,6,6,0,0,1,0,.61H30.53a1.94,1.94,0,0,0,2,1.93,1.69,1.69,0,0,0,1.73-1.13h1.1A2.77,2.77,0,0,1,32.53,103.27Zm-2-3.63h3.89a1.8,1.8,0,0,0-1.94-1.86A1.91,1.91,0,0,0,30.54,99.64Z"/><path class="fa07c103-c39b-4867-9c34-eb83c5bd4ee3" d="M39.52,96.91A2.69,2.69,0,0,1,42.36,99h-1.1a1.68,1.68,0,0,0-1.74-1.21c-1.13,0-2,.79-2,2.3s.83,2.32,2,2.32a1.65,1.65,0,0,0,1.74-1.21h1.1a2.74,2.74,0,0,1-2.84,2.08,3.19,3.19,0,0,1,0-6.36Z"/><path class="fa07c103-c39b-4867-9c34-eb83c5bd4ee3" d="M46.37,103.27a3.18,3.18,0,1,1,3.16-3.19A3.06,3.06,0,0,1,46.37,103.27Zm0-.9a2.09,2.09,0,0,0,2.11-2.29,2.07,2.07,0,0,0-2.07-2.28,2.3,2.3,0,0,0,0,4.57Z"/><path class="fa07c103-c39b-4867-9c34-eb83c5bd4ee3" d="M50.91,94.86h1v8.31h-1Z"/><path class="fa07c103-c39b-4867-9c34-eb83c5bd4ee3" d="M56.36,103.27a3,3,0,0,1-3-3.19,2.93,2.93,0,0,1,3-3.17,2.82,2.82,0,0,1,3,3,6.08,6.08,0,0,1,0,.61H54.36a1.93,1.93,0,0,0,2,1.93,1.7,1.7,0,0,0,1.73-1.13h1.1A2.77,2.77,0,0,1,56.36,103.27Zm-2-3.63h3.89a1.81,1.81,0,0,0-1.95-1.86A1.9,1.9,0,0,0,54.37,99.64Z"/><path class="fa07c103-c39b-4867-9c34-eb83c5bd4ee3" d="M63.34,96.91A2.67,2.67,0,0,1,66.18,99h-1.1a1.67,1.67,0,0,0-1.74-1.21c-1.12,0-2,.79-2,2.3s.83,2.32,2,2.32a1.64,1.64,0,0,0,1.74-1.21h1.1a2.73,2.73,0,0,1-2.84,2.08,3.19,3.19,0,0,1,0-6.36Z"/><path class="fa07c103-c39b-4867-9c34-eb83c5bd4ee3" d="M70.14,96.91A2.69,2.69,0,0,1,73,99h-1.1a1.68,1.68,0,0,0-1.74-1.21c-1.13,0-2,.79-2,2.3s.83,2.32,2,2.32a1.65,1.65,0,0,0,1.74-1.21H73a2.74,2.74,0,0,1-2.84,2.08,3.19,3.19,0,0,1,0-6.36Z"/><path class="fa07c103-c39b-4867-9c34-eb83c5bd4ee3" d="M74.15,95.32a.69.69,0,1,1,.69.69A.68.68,0,0,1,74.15,95.32ZM74.32,97h1v6.16h-1Z"/><path class="fa07c103-c39b-4867-9c34-eb83c5bd4ee3" d="M79.75,103.27a3.18,3.18,0,1,1,3.16-3.19A3.05,3.05,0,0,1,79.75,103.27Zm0-.9a2.09,2.09,0,0,0,2.12-2.29,2.07,2.07,0,0,0-2.08-2.28,2.3,2.3,0,0,0,0,4.57Zm1.15-8.06v.88l-2.39,1.28v-.76Z"/><path class="fa07c103-c39b-4867-9c34-eb83c5bd4ee3" d="M88.8,99.69a1.66,1.66,0,0,0-1.72-1.9c-1,0-1.76.65-1.76,2v3.4h-1V97h1v.88a2.26,2.26,0,0,1,2-1,2.39,2.39,0,0,1,2.52,2.64v3.63h-1Z"/><path class="fa07c103-c39b-4867-9c34-eb83c5bd4ee3" d="M98.73,97h1l-3.7,9.06H95l1.22-3L93.75,97h1.14l1.93,5Z"/><path class="fa07c103-c39b-4867-9c34-eb83c5bd4ee3" d="M108.44,101.43H105l-.63,1.74h-1.08l2.83-7.78h1.18l2.82,7.78h-1.08Zm-1.71-4.79-1.42,4h2.83Z"/><path class="fa07c103-c39b-4867-9c34-eb83c5bd4ee3" d="M115.78,99.69c0-1.26-.68-1.9-1.72-1.9s-1.76.65-1.76,2v3.4h-1V97h1v.88a2.29,2.29,0,0,1,2-1,2.39,2.39,0,0,1,2.51,2.64v3.63h-1Z"/><path class="fa07c103-c39b-4867-9c34-eb83c5bd4ee3" d="M121,96.91a2.56,2.56,0,0,1,2.29,1.23V97h1v6.16h-1V102a2.56,2.56,0,0,1-2.3,1.25,3,3,0,0,1-2.91-3.2A2.92,2.92,0,0,1,121,96.91Zm.2.89a2.08,2.08,0,0,0-2.08,2.27,2.09,2.09,0,1,0,2.08-2.27Zm1.29-3.41v.88l-2.39,1.28v-.76Z"/><path class="fa07c103-c39b-4867-9c34-eb83c5bd4ee3" d="M126.08,94.86h1v8.31h-1Z"/><path class="fa07c103-c39b-4867-9c34-eb83c5bd4ee3" d="M128.67,95.32a.69.69,0,0,1,.7-.7.7.7,0,0,1,0,1.39A.69.69,0,0,1,128.67,95.32Zm.17,1.69h1v6.16h-1Z"/><path class="fa07c103-c39b-4867-9c34-eb83c5bd4ee3" d="M133.75,103.27a2.24,2.24,0,0,1-2.51-1.91h1c.06.6.59,1,1.45,1s1.26-.4,1.26-.91c0-1.37-3.64-.57-3.64-2.86,0-.94.89-1.72,2.26-1.72a2.06,2.06,0,0,1,2.32,1.93h-1a1.17,1.17,0,0,0-1.33-1.06c-.76,0-1.21.36-1.21.85,0,1.46,3.57.66,3.62,2.86C136,102.51,135.11,103.27,133.75,103.27Z"/><path class="fa07c103-c39b-4867-9c34-eb83c5bd4ee3" d="M137.27,95.32a.69.69,0,1,1,1.37,0,.69.69,0,1,1-1.37,0Zm.17,1.69h1v6.16h-1Z"/><path class="fa07c103-c39b-4867-9c34-eb83c5bd4ee3" d="M142.35,103.27c-1.44,0-2.45-.79-2.51-1.91h1c.06.6.59,1,1.45,1s1.26-.4,1.26-.91c0-1.37-3.64-.57-3.64-2.86,0-.94.89-1.72,2.26-1.72a2.06,2.06,0,0,1,2.32,1.93h-1a1.19,1.19,0,0,0-1.34-1.06c-.75,0-1.2.36-1.2.85,0,1.46,3.57.66,3.62,2.86C144.6,102.51,143.71,103.27,142.35,103.27Z"/><path class="fa07c103-c39b-4867-9c34-eb83c5bd4ee3" d="M23.38,113.76A2.68,2.68,0,0,1,25.66,115v-3.26h1V120h-1v-1.16a2.52,2.52,0,0,1-2.29,1.26,3,3,0,0,1-2.92-3.2A2.92,2.92,0,0,1,23.38,113.76Zm.19.89a2.08,2.08,0,0,0-2.08,2.27,2.09,2.09,0,1,0,2.08-2.27Z"/><path class="fa07c103-c39b-4867-9c34-eb83c5bd4ee3" d="M31.12,120.12a3,3,0,0,1-3-3.19,2.93,2.93,0,0,1,3-3.17,2.82,2.82,0,0,1,2.95,2.95,6.08,6.08,0,0,1,0,.61H29.12a1.94,1.94,0,0,0,2,1.94,1.7,1.7,0,0,0,1.73-1.14H34A2.75,2.75,0,0,1,31.12,120.12Zm-2-3.63H33a1.81,1.81,0,0,0-2-1.86A1.91,1.91,0,0,0,29.13,116.49Z"/><path class="fa07c103-c39b-4867-9c34-eb83c5bd4ee3" d="M45,116.12c0,2.43-1.59,3.9-4.16,3.9H38.42v-7.83h2.44C43.43,112.19,45,113.7,45,116.12Zm-4.16,3.06A2.8,2.8,0,0,0,44,116.12a2.82,2.82,0,0,0-3.11-3.1H39.45v6.16Z"/><path class="fa07c103-c39b-4867-9c34-eb83c5bd4ee3" d="M49,113.76A2.56,2.56,0,0,1,51.29,115v-1.12h1V120h-1v-1.15a2.56,2.56,0,0,1-2.3,1.25,3,3,0,0,1-2.91-3.2A2.92,2.92,0,0,1,49,113.76Zm.2.89a2.08,2.08,0,0,0-2.08,2.27,2.09,2.09,0,1,0,2.08-2.27Z"/><path class="fa07c103-c39b-4867-9c34-eb83c5bd4ee3" d="M54.27,114.71h-.8v-.84h.8v-1.55h1v1.55H56.9v.84H55.29v3.63c0,.6.23.82.86.82h.75V120H56c-1.09,0-1.71-.45-1.71-1.68Z"/><path class="fa07c103-c39b-4867-9c34-eb83c5bd4ee3" d="M60.57,120.12a3,3,0,0,1-3.06-3.19,3.11,3.11,0,1,1,6.22,0A3,3,0,0,1,60.57,120.12Zm0-.9a2.09,2.09,0,0,0,2.11-2.29,2.07,2.07,0,0,0-2.07-2.28,2.3,2.3,0,0,0,0,4.57Z"/><path class="fa07c103-c39b-4867-9c34-eb83c5bd4ee3" d="M67.24,120.12c-1.44,0-2.45-.79-2.51-1.91h1c.06.6.59,1.05,1.45,1.05s1.26-.41,1.26-.91c0-1.37-3.64-.58-3.64-2.87,0-.94.89-1.72,2.26-1.72a2.06,2.06,0,0,1,2.32,1.94h-1a1.18,1.18,0,0,0-1.34-1.07c-.75,0-1.2.36-1.2.85,0,1.46,3.57.67,3.62,2.87C69.49,119.36,68.6,120.12,67.24,120.12Z"/><path class="fa07c103-c39b-4867-9c34-eb83c5bd4ee3" d="M77.45,112.09a3.68,3.68,0,0,1,3.63,2.37H79.86A2.47,2.47,0,0,0,77.45,113a3.12,3.12,0,0,0,0,6.21,2.48,2.48,0,0,0,2.41-1.46h1.22a3.67,3.67,0,0,1-3.63,2.35,4,4,0,0,1,0-8Z"/><path class="fa07c103-c39b-4867-9c34-eb83c5bd4ee3" d="M87.94,120h-1v-.91a2.28,2.28,0,0,1-2,1,2.41,2.41,0,0,1-2.53-2.64v-3.6h1v3.47a1.65,1.65,0,0,0,1.72,1.88c1.06,0,1.77-.65,1.77-2v-3.38h1Z"/><path class="fa07c103-c39b-4867-9c34-eb83c5bd4ee3" d="M92.24,113.76A2.56,2.56,0,0,1,94.53,115v-1.12h1V120h-1v-1.15a2.56,2.56,0,0,1-2.31,1.25,3,3,0,0,1-2.9-3.2A2.92,2.92,0,0,1,92.24,113.76Zm.2.89a2.08,2.08,0,0,0-2.08,2.27,2.09,2.09,0,1,0,2.08-2.27Z"/><path class="fa07c103-c39b-4867-9c34-eb83c5bd4ee3" d="M101.8,116.54c0-1.26-.68-1.9-1.72-1.9s-1.76.65-1.76,2V120h-1v-6.15h1v.87a2.28,2.28,0,0,1,2-1,2.39,2.39,0,0,1,2.51,2.64V120h-1Z"/><path class="fa07c103-c39b-4867-9c34-eb83c5bd4ee3" d="M104.62,114.71h-.79v-.84h.79v-1.55h1v1.55h1.6v.84h-1.6v3.63c0,.6.22.82.85.82h.75V120h-.92c-1.09,0-1.71-.45-1.71-1.68Z"/><path class="fa07c103-c39b-4867-9c34-eb83c5bd4ee3" d="M108.21,112.17a.69.69,0,1,1,.7.7A.69.69,0,0,1,108.21,112.17Zm.17,1.7h1V120h-1Z"/><path class="fa07c103-c39b-4867-9c34-eb83c5bd4ee3" d="M111.32,114.71h-.8v-.84h.8v-1.55h1v1.55h1.6v.84h-1.6v3.63c0,.6.22.82.85.82h.75V120H113c-1.09,0-1.7-.45-1.7-1.68Z"/><path class="fa07c103-c39b-4867-9c34-eb83c5bd4ee3" d="M117.49,113.76a2.57,2.57,0,0,1,2.3,1.23v-1.12h1V120h-1v-1.15a2.56,2.56,0,0,1-2.31,1.25,3,3,0,0,1-2.91-3.2A2.92,2.92,0,0,1,117.49,113.76Zm.21.89a2.08,2.08,0,0,0-2.08,2.27,2.09,2.09,0,1,0,2.08-2.27Z"/><path class="fa07c103-c39b-4867-9c34-eb83c5bd4ee3" d="M122.77,114.71H122v-.84h.8v-1.55h1v1.55h1.61v.84h-1.61v3.63c0,.6.23.82.86.82h.75V120h-.92c-1.09,0-1.71-.45-1.71-1.68Z"/><path class="fa07c103-c39b-4867-9c34-eb83c5bd4ee3" d="M126.36,112.17a.69.69,0,1,1,.69.7A.69.69,0,0,1,126.36,112.17Zm.17,1.7h1V120h-1Z"/><path class="fa07c103-c39b-4867-9c34-eb83c5bd4ee3" d="M129.66,113.87l1.92,5.21,1.91-5.21h1.09L132.16,120H131l-2.41-6.15Z"/><path class="fa07c103-c39b-4867-9c34-eb83c5bd4ee3" d="M138.06,120.12a3.18,3.18,0,1,1,3.16-3.19A3.05,3.05,0,0,1,138.06,120.12Zm0-.9a2.29,2.29,0,0,0,0-4.57,2.3,2.3,0,0,0,0,4.57Z"/><path class="fa07c103-c39b-4867-9c34-eb83c5bd4ee3" d="M144.73,120.12c-1.44,0-2.45-.79-2.52-1.91h1.06c0,.6.58,1.05,1.45,1.05s1.26-.41,1.26-.91c0-1.37-3.64-.58-3.64-2.87,0-.94.88-1.72,2.25-1.72a2.07,2.07,0,0,1,2.33,1.94h-1a1.19,1.19,0,0,0-1.34-1.07c-.75,0-1.2.36-1.2.85,0,1.46,3.57.67,3.61,2.87C147,119.36,146.09,120.12,144.73,120.12Z"/><line class="fb79fef8-c817-41bf-8187-a2951947ca74" x1="308.68" y1="73.27" x2="325.6" y2="73.27"/><path class="fa07c103-c39b-4867-9c34-eb83c5bd4ee3" d="M211.5,59.39a3.68,3.68,0,0,1,3.62,2.37H213.9a2.47,2.47,0,0,0-2.4-1.47,3.11,3.11,0,0,0,0,6.21A2.46,2.46,0,0,0,213.9,65h1.22a3.67,3.67,0,0,1-3.62,2.35,4,4,0,0,1,0-8Z"/><path class="fa07c103-c39b-4867-9c34-eb83c5bd4ee3" d="M219.26,67.42a3.18,3.18,0,1,1,3.16-3.19A3.05,3.05,0,0,1,219.26,67.42Zm0-.89a2.09,2.09,0,0,0,2.11-2.3A2.07,2.07,0,0,0,219.29,62a2.31,2.31,0,0,0,0,4.58Z"/><path class="fa07c103-c39b-4867-9c34-eb83c5bd4ee3" d="M232.68,63.84c0-1.26-.67-1.9-1.68-1.9s-1.74.67-1.74,2v3.39h-1V63.84c0-1.26-.68-1.9-1.69-1.9s-1.74.67-1.74,2v3.39h-1V61.17h1v.89a2.22,2.22,0,0,1,1.94-1A2.32,2.32,0,0,1,229,62.43a2.28,2.28,0,0,1,2.18-1.37,2.38,2.38,0,0,1,2.49,2.64v3.62h-1Z"/><path class="fa07c103-c39b-4867-9c34-eb83c5bd4ee3" d="M238.73,61.07a2.91,2.91,0,0,1,2.92,3.15,3,3,0,0,1-2.92,3.2,2.65,2.65,0,0,1-2.3-1.23v4h-1V61.17h1V62.3A2.6,2.6,0,0,1,238.73,61.07Zm-.21.88a2.3,2.3,0,1,0,2.08,2.27A2.08,2.08,0,0,0,238.52,62Z"/><path class="fa07c103-c39b-4867-9c34-eb83c5bd4ee3" d="M245.6,61.07a2.55,2.55,0,0,1,2.29,1.22V61.17h1v6.15h-1V66.18a2.57,2.57,0,0,1-2.3,1.24,3,3,0,0,1-2.91-3.2A2.91,2.91,0,0,1,245.6,61.07Zm.2.88a2.08,2.08,0,0,0-2.08,2.27A2.09,2.09,0,1,0,245.8,62Z"/><path class="fa07c103-c39b-4867-9c34-eb83c5bd4ee3" d="M251.68,67.32h-1V61.17h1v1a2.08,2.08,0,0,1,2-1.11v1h-.27c-1,0-1.72.44-1.72,1.87Z"/><path class="fa07c103-c39b-4867-9c34-eb83c5bd4ee3" d="M257.23,61.07a2.55,2.55,0,0,1,2.29,1.22V61.17h1v6.15h-1V66.18a2.56,2.56,0,0,1-2.3,1.24,3,3,0,0,1-2.91-3.2A2.91,2.91,0,0,1,257.23,61.07Zm.2.88a2.07,2.07,0,0,0-2.07,2.27A2.09,2.09,0,1,0,257.43,62Z"/><path class="fa07c103-c39b-4867-9c34-eb83c5bd4ee3" d="M264.94,61.07a2.66,2.66,0,0,1,2.84,2.08h-1.1a1.67,1.67,0,0,0-1.74-1.22c-1.12,0-1.95.8-1.95,2.3s.83,2.33,1.95,2.33a1.65,1.65,0,0,0,1.74-1.21h1.1a2.73,2.73,0,0,1-2.84,2.07,3.18,3.18,0,0,1,0-6.35Z"/><path class="fa07c103-c39b-4867-9c34-eb83c5bd4ee3" d="M269,59.47a.69.69,0,1,1,.69.7A.68.68,0,0,1,269,59.47Zm.16,1.7h1v6.15h-1Z"/><path class="fa07c103-c39b-4867-9c34-eb83c5bd4ee3" d="M274.55,67.42a3.18,3.18,0,1,1,3.16-3.19A3,3,0,0,1,274.55,67.42Zm0-.89a2.1,2.1,0,0,0,2.12-2.3A2.07,2.07,0,0,0,274.59,62a2.31,2.31,0,0,0,0,4.58Zm1.15-8.07v.89l-2.39,1.28v-.76Z"/><path class="fa07c103-c39b-4867-9c34-eb83c5bd4ee3" d="M283.6,63.84a1.66,1.66,0,0,0-1.72-1.9c-1.05,0-1.76.65-1.76,2v3.4h-1V61.17h1V62a2.25,2.25,0,0,1,2-1,2.39,2.39,0,0,1,2.52,2.64v3.62h-1Z"/><path class="fa07c103-c39b-4867-9c34-eb83c5bd4ee3" d="M220,78h1.06l-3.71,9h-1.05l1.21-3L215.05,78h1.13l1.93,5Z"/><path class="fa07c103-c39b-4867-9c34-eb83c5bd4ee3" d="M227.72,77.92A2.69,2.69,0,0,1,230.56,80h-1.1a1.69,1.69,0,0,0-1.74-1.22c-1.13,0-2,.8-2,2.31s.83,2.32,2,2.32a1.66,1.66,0,0,0,1.74-1.21h1.1a2.75,2.75,0,0,1-2.84,2.08,3.19,3.19,0,0,1,0-6.36Z"/><path class="fa07c103-c39b-4867-9c34-eb83c5bd4ee3" d="M234.57,84.28a3.18,3.18,0,1,1,3.16-3.19A3.05,3.05,0,0,1,234.57,84.28Zm0-.9a2.09,2.09,0,0,0,2.12-2.29,2.07,2.07,0,0,0-2.08-2.28,2.3,2.3,0,0,0,0,4.57Z"/><path class="fa07c103-c39b-4867-9c34-eb83c5bd4ee3" d="M243.62,80.69a1.65,1.65,0,0,0-1.72-1.89c-1.05,0-1.76.65-1.76,2v3.4h-1V78h1v.88a2.26,2.26,0,0,1,2-1,2.39,2.39,0,0,1,2.52,2.64v3.62h-1Z"/><path class="fa07c103-c39b-4867-9c34-eb83c5bd4ee3" d="M246.44,78.86h-.8V78h.8V76.47h1V78h1.61v.84h-1.61v3.63c0,.61.22.82.85.82h.76v.86h-.92c-1.09,0-1.71-.44-1.71-1.68Z"/><path class="fa07c103-c39b-4867-9c34-eb83c5bd4ee3" d="M251.22,84.17h-1V78h1v1a2.05,2.05,0,0,1,2-1.11v1h-.27c-1,0-1.71.44-1.71,1.87Z"/><path class="fa07c103-c39b-4867-9c34-eb83c5bd4ee3" d="M256.76,77.92a2.53,2.53,0,0,1,2.29,1.22V78h1v6.15h-1V83a2.57,2.57,0,0,1-2.3,1.25,3,3,0,0,1-2.91-3.2A2.92,2.92,0,0,1,256.76,77.92Zm.21.89a2.08,2.08,0,0,0-2.08,2.27A2.09,2.09,0,1,0,257,78.81Z"/><path class="fa07c103-c39b-4867-9c34-eb83c5bd4ee3" d="M264,84.28c-1.44,0-2.45-.79-2.52-1.91h1.06c.06.59.58,1,1.45,1s1.26-.4,1.26-.91c0-1.37-3.64-.57-3.64-2.86,0-1,.89-1.72,2.26-1.72a2.07,2.07,0,0,1,2.32,1.93h-1a1.19,1.19,0,0,0-1.34-1.07c-.75,0-1.2.36-1.2.86,0,1.46,3.57.66,3.62,2.86C266.26,83.51,265.37,84.28,264,84.28Z"/><path class="fa07c103-c39b-4867-9c34-eb83c5bd4ee3" d="M267.87,78.86h-.8V78h.8V76.47h1V78h1.61v.84h-1.61v3.63c0,.61.23.82.86.82h.75v.86h-.92c-1.09,0-1.71-.44-1.71-1.68Z"/><path class="fa07c103-c39b-4867-9c34-eb83c5bd4ee3" d="M274.17,84.28a3,3,0,0,1-3-3.19,2.93,2.93,0,0,1,3-3.17,2.82,2.82,0,0,1,3,2.94,4.12,4.12,0,0,1,0,.62h-4.91a1.92,1.92,0,0,0,2,1.93,1.68,1.68,0,0,0,1.73-1.13H277A2.77,2.77,0,0,1,274.17,84.28Zm-2-3.63h3.88a1.81,1.81,0,0,0-1.94-1.87A1.91,1.91,0,0,0,272.19,80.65Z"/><ellipse class="fc64a3ec-c028-4243-adb9-8c8f1edf39bd" cx="245.84" cy="73.27" rx="62.84" ry="33.41"/><path class="fa07c103-c39b-4867-9c34-eb83c5bd4ee3" d="M356.79,67h1v7.83h-1Z"/><path class="fa07c103-c39b-4867-9c34-eb83c5bd4ee3" d="M364.1,71.33a1.66,1.66,0,0,0-1.72-1.9c-1,0-1.76.65-1.76,2v3.4h-1V68.66h1v.87a2.25,2.25,0,0,1,2-1,2.39,2.39,0,0,1,2.52,2.64v3.62h-1Z"/><path class="fa07c103-c39b-4867-9c34-eb83c5bd4ee3" d="M366.92,69.5h-.8v-.84h.8V67.11h1v1.55h1.61v.84h-1.61v3.63c0,.6.23.82.86.82h.75v.86h-.92c-1.09,0-1.71-.45-1.71-1.68Z"/><path class="fa07c103-c39b-4867-9c34-eb83c5bd4ee3" d="M373.22,74.91a3,3,0,0,1-3-3.19,2.93,2.93,0,0,1,3-3.16,2.82,2.82,0,0,1,3,2.94c0,.22,0,.4,0,.62h-4.92a1.94,1.94,0,0,0,2,1.93A1.68,1.68,0,0,0,375,72.91h1.1A2.75,2.75,0,0,1,373.22,74.91Zm-2-3.62h3.89a1.81,1.81,0,0,0-1.94-1.87A1.92,1.92,0,0,0,371.23,71.29Z"/><path class="fa07c103-c39b-4867-9c34-eb83c5bd4ee3" d="M378.58,74.81h-1V68.66h1v1a2.07,2.07,0,0,1,2-1.11v1h-.27c-1,0-1.72.44-1.72,1.87Z"/><path class="fa07c103-c39b-4867-9c34-eb83c5bd4ee3" d="M385,68.56a2.91,2.91,0,0,1,2.92,3.15,3,3,0,0,1-2.92,3.2,2.65,2.65,0,0,1-2.3-1.23v4h-1V68.66h1v1.13A2.6,2.6,0,0,1,385,68.56Zm-.21.88a2.3,2.3,0,1,0,2.09,2.27A2.08,2.08,0,0,0,384.78,69.44Z"/><path class="fa07c103-c39b-4867-9c34-eb83c5bd4ee3" d="M390.32,74.81h-1V68.66h1v1a2.07,2.07,0,0,1,2-1.11v1H392c-1,0-1.72.44-1.72,1.87Z"/><path class="fa07c103-c39b-4867-9c34-eb83c5bd4ee3" d="M396,74.91a3,3,0,0,1-3-3.19,2.92,2.92,0,0,1,3-3.16,2.82,2.82,0,0,1,3,2.94c0,.22,0,.4,0,.62H394a1.94,1.94,0,0,0,2,1.93,1.68,1.68,0,0,0,1.73-1.14h1.1A2.75,2.75,0,0,1,396,74.91Zm-2-3.62h3.89A1.81,1.81,0,0,0,396,69.42,1.92,1.92,0,0,0,394,71.29Z"/><path class="fa07c103-c39b-4867-9c34-eb83c5bd4ee3" d="M400.43,69.5h-.8v-.84h.8V67.11h1v1.55h1.61v.84h-1.61v3.63c0,.6.23.82.85.82h.76v.86h-.92c-1.09,0-1.71-.45-1.71-1.68Z"/><path class="fa07c103-c39b-4867-9c34-eb83c5bd4ee3" d="M406.61,68.56a2.56,2.56,0,0,1,2.29,1.22V68.66h1v6.15h-1V73.67a2.57,2.57,0,0,1-2.3,1.24,3,3,0,0,1-2.91-3.2A2.91,2.91,0,0,1,406.61,68.56Zm.2.88a2.08,2.08,0,0,0-2.08,2.27,2.09,2.09,0,1,0,2.08-2.27Z"/><path class="fa07c103-c39b-4867-9c34-eb83c5bd4ee3" d="M414.31,68.56a2.68,2.68,0,0,1,2.85,2.07h-1.11a1.67,1.67,0,0,0-1.74-1.21c-1.12,0-1.95.8-1.95,2.3s.83,2.33,1.95,2.33a1.65,1.65,0,0,0,1.74-1.21h1.11a2.75,2.75,0,0,1-2.85,2.07,3.18,3.18,0,0,1,0-6.35Z"/><path class="fa07c103-c39b-4867-9c34-eb83c5bd4ee3" d="M418.32,67a.69.69,0,1,1,.7.7A.68.68,0,0,1,418.32,67Zm.17,1.7h1v6.15h-1Z"/><path class="fa07c103-c39b-4867-9c34-eb83c5bd4ee3" d="M423.93,74.91a3.18,3.18,0,1,1,3.15-3.19A3,3,0,0,1,423.93,74.91Zm0-.89a2.09,2.09,0,0,0,2.11-2.3A2.07,2.07,0,0,0,424,69.44a2.31,2.31,0,0,0,0,4.58ZM425.07,66v.89l-2.39,1.28v-.76Z"/><path class="fa07c103-c39b-4867-9c34-eb83c5bd4ee3" d="M433,71.33c0-1.26-.68-1.9-1.72-1.9s-1.76.65-1.76,2v3.4h-1V68.66h1v.87a2.27,2.27,0,0,1,2-1A2.38,2.38,0,0,1,434,71.19v3.62h-1Z"/><ellipse class="fc64a3ec-c028-4243-adb9-8c8f1edf39bd" cx="394.94" cy="73.27" rx="62.84" ry="33.41"/><polygon class="b898f6b1-73c9-4ab1-9064-c58a2e036a70" points="246.25 107.6 241.6 112.92 248.53 114.29 246.25 107.6"/><polygon class="b898f6b1-73c9-4ab1-9064-c58a2e036a70" points="246.01 38.92 241.35 33.6 248.28 32.23 246.01 38.92"/><polygon class="b898f6b1-73c9-4ab1-9064-c58a2e036a70" points="331.11 73.27 325 69.74 325 76.8 331.11 73.27"/><path class="fa07c103-c39b-4867-9c34-eb83c5bd4ee3" d="M356.79,235h1v7.83h-1Z"/><path class="fa07c103-c39b-4867-9c34-eb83c5bd4ee3" d="M364.1,239.34a1.66,1.66,0,0,0-1.72-1.9c-1,0-1.76.65-1.76,2v3.41h-1v-6.16h1v.88a2.26,2.26,0,0,1,2-1,2.39,2.39,0,0,1,2.52,2.64v3.63h-1Z"/><path class="fa07c103-c39b-4867-9c34-eb83c5bd4ee3" d="M366.92,237.51h-.8v-.85h.8v-1.55h1v1.55h1.61v.85h-1.61v3.62c0,.61.23.82.86.82h.75v.87h-.92c-1.09,0-1.71-.45-1.71-1.69Z"/><path class="fa07c103-c39b-4867-9c34-eb83c5bd4ee3" d="M373.22,242.92a3,3,0,0,1-3-3.19,2.93,2.93,0,0,1,3-3.17,2.82,2.82,0,0,1,3,2.94,6.06,6.06,0,0,1,0,.62h-4.92a1.94,1.94,0,0,0,2,1.93,1.69,1.69,0,0,0,1.73-1.13h1.1A2.77,2.77,0,0,1,373.22,242.92Zm-2-3.63h3.89a1.8,1.8,0,0,0-1.94-1.86A1.91,1.91,0,0,0,371.23,239.29Z"/><path class="fa07c103-c39b-4867-9c34-eb83c5bd4ee3" d="M378.58,242.82h-1v-6.16h1v1a2.08,2.08,0,0,1,2-1.11v1.06h-.27c-1,0-1.72.43-1.72,1.86Z"/><path class="fa07c103-c39b-4867-9c34-eb83c5bd4ee3" d="M385,236.56a2.92,2.92,0,0,1,2.92,3.16,3,3,0,0,1-2.92,3.2,2.66,2.66,0,0,1-2.3-1.24v4.06h-1v-9.08h1v1.14A2.6,2.6,0,0,1,385,236.56Zm-.21.89a2.29,2.29,0,1,0,2.09,2.27A2.08,2.08,0,0,0,384.78,237.45Z"/><path class="fa07c103-c39b-4867-9c34-eb83c5bd4ee3" d="M390.32,242.82h-1v-6.16h1v1a2.08,2.08,0,0,1,2-1.11v1.06H392c-1,0-1.72.43-1.72,1.86Z"/><path class="fa07c103-c39b-4867-9c34-eb83c5bd4ee3" d="M396,242.92a3,3,0,0,1-3-3.19,2.93,2.93,0,0,1,3-3.17,2.82,2.82,0,0,1,3,2.94,6.06,6.06,0,0,1,0,.62H394a1.94,1.94,0,0,0,2,1.93,1.69,1.69,0,0,0,1.73-1.13h1.1A2.77,2.77,0,0,1,396,242.92Zm-2-3.63h3.89a1.8,1.8,0,0,0-1.94-1.86A1.91,1.91,0,0,0,394,239.29Z"/><path class="fa07c103-c39b-4867-9c34-eb83c5bd4ee3" d="M400.43,237.51h-.8v-.85h.8v-1.55h1v1.55h1.61v.85h-1.61v3.62c0,.61.23.82.85.82h.76v.87h-.92c-1.09,0-1.71-.45-1.71-1.69Z"/><path class="fa07c103-c39b-4867-9c34-eb83c5bd4ee3" d="M406.61,236.56a2.56,2.56,0,0,1,2.29,1.23v-1.13h1v6.16h-1v-1.15a2.58,2.58,0,0,1-2.3,1.25,3,3,0,0,1-2.91-3.2A2.92,2.92,0,0,1,406.61,236.56Zm.2.89a2.08,2.08,0,0,0-2.08,2.27,2.09,2.09,0,1,0,2.08-2.27Z"/><path class="fa07c103-c39b-4867-9c34-eb83c5bd4ee3" d="M414.31,236.56a2.69,2.69,0,0,1,2.85,2.08h-1.11a1.67,1.67,0,0,0-1.74-1.21c-1.12,0-1.95.79-1.95,2.3s.83,2.32,1.95,2.32a1.64,1.64,0,0,0,1.74-1.21h1.11a2.76,2.76,0,0,1-2.85,2.08,3.19,3.19,0,0,1,0-6.36Z"/><path class="fa07c103-c39b-4867-9c34-eb83c5bd4ee3" d="M418.32,235a.69.69,0,1,1,1.37,0,.69.69,0,1,1-1.37,0Zm.17,1.69h1v6.16h-1Z"/><path class="fa07c103-c39b-4867-9c34-eb83c5bd4ee3" d="M423.93,242.92a3.18,3.18,0,1,1,3.15-3.19A3.05,3.05,0,0,1,423.93,242.92Zm0-.9a2.29,2.29,0,0,0,0-4.57,2.3,2.3,0,0,0,0,4.57Zm1.14-8.06v.88l-2.39,1.28v-.76Z"/><path class="fa07c103-c39b-4867-9c34-eb83c5bd4ee3" d="M433,239.34c0-1.26-.68-1.9-1.72-1.9s-1.76.65-1.76,2v3.41h-1v-6.16h1v.88a2.28,2.28,0,0,1,2-1,2.39,2.39,0,0,1,2.51,2.64v3.63h-1Z"/><ellipse class="fc64a3ec-c028-4243-adb9-8c8f1edf39bd" cx="394.94" cy="241.27" rx="62.84" ry="33.41"/><polygon class="b898f6b1-73c9-4ab1-9064-c58a2e036a70" points="331.11 241.28 325 237.74 325 244.81 331.11 241.28"/></svg>